G04 #@! TF.GenerationSoftware,KiCad,Pcbnew,(5.1.0)-1*
G04 #@! TF.CreationDate,2020-06-13T17:29:39-05:00*
G04 #@! TF.ProjectId,prod,70726f64-2e6b-4696-9361-645f70636258,1*
G04 #@! TF.SameCoordinates,Original*
G04 #@! TF.FileFunction,Paste,Top*
G04 #@! TF.FilePolarity,Positive*
%FSLAX46Y46*%
G04 Gerber Fmt 4.6, Leading zero omitted, Abs format (unit mm)*
G04 Created by KiCad (PCBNEW (5.1.0)-1) date 2020-06-13 17:29:39*
%MOMM*%
%LPD*%
G04 APERTURE LIST*
%ADD10C,0.100000*%
%ADD11C,0.875000*%
%ADD12R,1.500000X1.250000*%
%ADD13R,1.250000X1.500000*%
%ADD14R,1.000000X0.900000*%
%ADD15R,0.700000X1.700000*%
%ADD16R,1.500000X0.600000*%
%ADD17R,1.100000X1.000000*%
%ADD18R,1.350000X1.500000*%
%ADD19R,0.400000X1.800000*%
%ADD20R,1.500000X1.400000*%
G04 APERTURE END LIST*
D10*
G36*
X144952691Y-58826053D02*
G01*
X144973926Y-58829203D01*
X144994750Y-58834419D01*
X145014962Y-58841651D01*
X145034368Y-58850830D01*
X145052781Y-58861866D01*
X145070024Y-58874654D01*
X145085930Y-58889070D01*
X145100346Y-58904976D01*
X145113134Y-58922219D01*
X145124170Y-58940632D01*
X145133349Y-58960038D01*
X145140581Y-58980250D01*
X145145797Y-59001074D01*
X145148947Y-59022309D01*
X145150000Y-59043750D01*
X145150000Y-59556250D01*
X145148947Y-59577691D01*
X145145797Y-59598926D01*
X145140581Y-59619750D01*
X145133349Y-59639962D01*
X145124170Y-59659368D01*
X145113134Y-59677781D01*
X145100346Y-59695024D01*
X145085930Y-59710930D01*
X145070024Y-59725346D01*
X145052781Y-59738134D01*
X145034368Y-59749170D01*
X145014962Y-59758349D01*
X144994750Y-59765581D01*
X144973926Y-59770797D01*
X144952691Y-59773947D01*
X144931250Y-59775000D01*
X144493750Y-59775000D01*
X144472309Y-59773947D01*
X144451074Y-59770797D01*
X144430250Y-59765581D01*
X144410038Y-59758349D01*
X144390632Y-59749170D01*
X144372219Y-59738134D01*
X144354976Y-59725346D01*
X144339070Y-59710930D01*
X144324654Y-59695024D01*
X144311866Y-59677781D01*
X144300830Y-59659368D01*
X144291651Y-59639962D01*
X144284419Y-59619750D01*
X144279203Y-59598926D01*
X144276053Y-59577691D01*
X144275000Y-59556250D01*
X144275000Y-59043750D01*
X144276053Y-59022309D01*
X144279203Y-59001074D01*
X144284419Y-58980250D01*
X144291651Y-58960038D01*
X144300830Y-58940632D01*
X144311866Y-58922219D01*
X144324654Y-58904976D01*
X144339070Y-58889070D01*
X144354976Y-58874654D01*
X144372219Y-58861866D01*
X144390632Y-58850830D01*
X144410038Y-58841651D01*
X144430250Y-58834419D01*
X144451074Y-58829203D01*
X144472309Y-58826053D01*
X144493750Y-58825000D01*
X144931250Y-58825000D01*
X144952691Y-58826053D01*
X144952691Y-58826053D01*
G37*
D11*
X144712500Y-59300000D03*
D10*
G36*
X146527691Y-58826053D02*
G01*
X146548926Y-58829203D01*
X146569750Y-58834419D01*
X146589962Y-58841651D01*
X146609368Y-58850830D01*
X146627781Y-58861866D01*
X146645024Y-58874654D01*
X146660930Y-58889070D01*
X146675346Y-58904976D01*
X146688134Y-58922219D01*
X146699170Y-58940632D01*
X146708349Y-58960038D01*
X146715581Y-58980250D01*
X146720797Y-59001074D01*
X146723947Y-59022309D01*
X146725000Y-59043750D01*
X146725000Y-59556250D01*
X146723947Y-59577691D01*
X146720797Y-59598926D01*
X146715581Y-59619750D01*
X146708349Y-59639962D01*
X146699170Y-59659368D01*
X146688134Y-59677781D01*
X146675346Y-59695024D01*
X146660930Y-59710930D01*
X146645024Y-59725346D01*
X146627781Y-59738134D01*
X146609368Y-59749170D01*
X146589962Y-59758349D01*
X146569750Y-59765581D01*
X146548926Y-59770797D01*
X146527691Y-59773947D01*
X146506250Y-59775000D01*
X146068750Y-59775000D01*
X146047309Y-59773947D01*
X146026074Y-59770797D01*
X146005250Y-59765581D01*
X145985038Y-59758349D01*
X145965632Y-59749170D01*
X145947219Y-59738134D01*
X145929976Y-59725346D01*
X145914070Y-59710930D01*
X145899654Y-59695024D01*
X145886866Y-59677781D01*
X145875830Y-59659368D01*
X145866651Y-59639962D01*
X145859419Y-59619750D01*
X145854203Y-59598926D01*
X145851053Y-59577691D01*
X145850000Y-59556250D01*
X145850000Y-59043750D01*
X145851053Y-59022309D01*
X145854203Y-59001074D01*
X145859419Y-58980250D01*
X145866651Y-58960038D01*
X145875830Y-58940632D01*
X145886866Y-58922219D01*
X145899654Y-58904976D01*
X145914070Y-58889070D01*
X145929976Y-58874654D01*
X145947219Y-58861866D01*
X145965632Y-58850830D01*
X145985038Y-58841651D01*
X146005250Y-58834419D01*
X146026074Y-58829203D01*
X146047309Y-58826053D01*
X146068750Y-58825000D01*
X146506250Y-58825000D01*
X146527691Y-58826053D01*
X146527691Y-58826053D01*
G37*
D11*
X146287500Y-59300000D03*
D10*
G36*
X120535464Y-69492446D02*
G01*
X120556745Y-69495272D01*
X120577646Y-69500169D01*
X120998198Y-69620760D01*
X121018518Y-69627682D01*
X121038062Y-69636563D01*
X121056641Y-69647317D01*
X121074077Y-69659840D01*
X121090201Y-69674012D01*
X121104859Y-69689696D01*
X121117909Y-69706741D01*
X121129225Y-69724984D01*
X121138699Y-69744247D01*
X121146239Y-69764347D01*
X121151772Y-69785088D01*
X121155246Y-69806273D01*
X121156626Y-69827695D01*
X121155901Y-69849150D01*
X121153075Y-69870431D01*
X121148178Y-69891332D01*
X121006914Y-70383979D01*
X120999991Y-70404299D01*
X120991111Y-70423843D01*
X120980357Y-70442422D01*
X120967834Y-70459858D01*
X120953662Y-70475982D01*
X120937978Y-70490640D01*
X120920932Y-70503690D01*
X120902690Y-70515006D01*
X120883427Y-70524480D01*
X120863327Y-70532020D01*
X120842585Y-70537553D01*
X120821401Y-70541027D01*
X120799979Y-70542407D01*
X120778524Y-70541682D01*
X120757243Y-70538856D01*
X120736342Y-70533959D01*
X120315790Y-70413368D01*
X120295470Y-70406446D01*
X120275926Y-70397565D01*
X120257347Y-70386811D01*
X120239911Y-70374288D01*
X120223787Y-70360116D01*
X120209129Y-70344432D01*
X120196079Y-70327387D01*
X120184763Y-70309144D01*
X120175289Y-70289881D01*
X120167749Y-70269781D01*
X120162216Y-70249040D01*
X120158742Y-70227855D01*
X120157362Y-70206433D01*
X120158087Y-70184978D01*
X120160913Y-70163697D01*
X120165810Y-70142796D01*
X120307074Y-69650149D01*
X120313997Y-69629829D01*
X120322877Y-69610285D01*
X120333631Y-69591706D01*
X120346154Y-69574270D01*
X120360326Y-69558146D01*
X120376010Y-69543488D01*
X120393056Y-69530438D01*
X120411298Y-69519122D01*
X120430561Y-69509648D01*
X120450661Y-69502108D01*
X120471403Y-69496575D01*
X120492587Y-69493101D01*
X120514009Y-69491721D01*
X120535464Y-69492446D01*
X120535464Y-69492446D01*
G37*
D11*
X120656994Y-70017064D03*
D10*
G36*
X119021476Y-69058318D02*
G01*
X119042757Y-69061144D01*
X119063658Y-69066041D01*
X119484210Y-69186632D01*
X119504530Y-69193554D01*
X119524074Y-69202435D01*
X119542653Y-69213189D01*
X119560089Y-69225712D01*
X119576213Y-69239884D01*
X119590871Y-69255568D01*
X119603921Y-69272613D01*
X119615237Y-69290856D01*
X119624711Y-69310119D01*
X119632251Y-69330219D01*
X119637784Y-69350960D01*
X119641258Y-69372145D01*
X119642638Y-69393567D01*
X119641913Y-69415022D01*
X119639087Y-69436303D01*
X119634190Y-69457204D01*
X119492926Y-69949851D01*
X119486003Y-69970171D01*
X119477123Y-69989715D01*
X119466369Y-70008294D01*
X119453846Y-70025730D01*
X119439674Y-70041854D01*
X119423990Y-70056512D01*
X119406944Y-70069562D01*
X119388702Y-70080878D01*
X119369439Y-70090352D01*
X119349339Y-70097892D01*
X119328597Y-70103425D01*
X119307413Y-70106899D01*
X119285991Y-70108279D01*
X119264536Y-70107554D01*
X119243255Y-70104728D01*
X119222354Y-70099831D01*
X118801802Y-69979240D01*
X118781482Y-69972318D01*
X118761938Y-69963437D01*
X118743359Y-69952683D01*
X118725923Y-69940160D01*
X118709799Y-69925988D01*
X118695141Y-69910304D01*
X118682091Y-69893259D01*
X118670775Y-69875016D01*
X118661301Y-69855753D01*
X118653761Y-69835653D01*
X118648228Y-69814912D01*
X118644754Y-69793727D01*
X118643374Y-69772305D01*
X118644099Y-69750850D01*
X118646925Y-69729569D01*
X118651822Y-69708668D01*
X118793086Y-69216021D01*
X118800009Y-69195701D01*
X118808889Y-69176157D01*
X118819643Y-69157578D01*
X118832166Y-69140142D01*
X118846338Y-69124018D01*
X118862022Y-69109360D01*
X118879068Y-69096310D01*
X118897310Y-69084994D01*
X118916573Y-69075520D01*
X118936673Y-69067980D01*
X118957415Y-69062447D01*
X118978599Y-69058973D01*
X119000021Y-69057593D01*
X119021476Y-69058318D01*
X119021476Y-69058318D01*
G37*
D11*
X119143006Y-69582936D03*
D10*
G36*
X166008618Y-79132733D02*
G01*
X166029853Y-79135883D01*
X166050677Y-79141099D01*
X166070889Y-79148331D01*
X166090295Y-79157510D01*
X166108708Y-79168546D01*
X166125951Y-79181334D01*
X166141857Y-79195750D01*
X166504250Y-79558143D01*
X166518666Y-79574049D01*
X166531454Y-79591292D01*
X166542490Y-79609705D01*
X166551669Y-79629111D01*
X166558901Y-79649323D01*
X166564117Y-79670147D01*
X166567267Y-79691382D01*
X166568320Y-79712823D01*
X166567267Y-79734264D01*
X166564117Y-79755499D01*
X166558901Y-79776323D01*
X166551669Y-79796535D01*
X166542490Y-79815941D01*
X166531454Y-79834354D01*
X166518666Y-79851597D01*
X166504250Y-79867503D01*
X166194891Y-80176862D01*
X166178985Y-80191278D01*
X166161742Y-80204066D01*
X166143329Y-80215102D01*
X166123923Y-80224281D01*
X166103711Y-80231513D01*
X166082887Y-80236729D01*
X166061652Y-80239879D01*
X166040211Y-80240932D01*
X166018770Y-80239879D01*
X165997535Y-80236729D01*
X165976711Y-80231513D01*
X165956499Y-80224281D01*
X165937093Y-80215102D01*
X165918680Y-80204066D01*
X165901437Y-80191278D01*
X165885531Y-80176862D01*
X165523138Y-79814469D01*
X165508722Y-79798563D01*
X165495934Y-79781320D01*
X165484898Y-79762907D01*
X165475719Y-79743501D01*
X165468487Y-79723289D01*
X165463271Y-79702465D01*
X165460121Y-79681230D01*
X165459068Y-79659789D01*
X165460121Y-79638348D01*
X165463271Y-79617113D01*
X165468487Y-79596289D01*
X165475719Y-79576077D01*
X165484898Y-79556671D01*
X165495934Y-79538258D01*
X165508722Y-79521015D01*
X165523138Y-79505109D01*
X165832497Y-79195750D01*
X165848403Y-79181334D01*
X165865646Y-79168546D01*
X165884059Y-79157510D01*
X165903465Y-79148331D01*
X165923677Y-79141099D01*
X165944501Y-79135883D01*
X165965736Y-79132733D01*
X165987177Y-79131680D01*
X166008618Y-79132733D01*
X166008618Y-79132733D01*
G37*
D11*
X166013694Y-79686306D03*
D10*
G36*
X164894924Y-80246427D02*
G01*
X164916159Y-80249577D01*
X164936983Y-80254793D01*
X164957195Y-80262025D01*
X164976601Y-80271204D01*
X164995014Y-80282240D01*
X165012257Y-80295028D01*
X165028163Y-80309444D01*
X165390556Y-80671837D01*
X165404972Y-80687743D01*
X165417760Y-80704986D01*
X165428796Y-80723399D01*
X165437975Y-80742805D01*
X165445207Y-80763017D01*
X165450423Y-80783841D01*
X165453573Y-80805076D01*
X165454626Y-80826517D01*
X165453573Y-80847958D01*
X165450423Y-80869193D01*
X165445207Y-80890017D01*
X165437975Y-80910229D01*
X165428796Y-80929635D01*
X165417760Y-80948048D01*
X165404972Y-80965291D01*
X165390556Y-80981197D01*
X165081197Y-81290556D01*
X165065291Y-81304972D01*
X165048048Y-81317760D01*
X165029635Y-81328796D01*
X165010229Y-81337975D01*
X164990017Y-81345207D01*
X164969193Y-81350423D01*
X164947958Y-81353573D01*
X164926517Y-81354626D01*
X164905076Y-81353573D01*
X164883841Y-81350423D01*
X164863017Y-81345207D01*
X164842805Y-81337975D01*
X164823399Y-81328796D01*
X164804986Y-81317760D01*
X164787743Y-81304972D01*
X164771837Y-81290556D01*
X164409444Y-80928163D01*
X164395028Y-80912257D01*
X164382240Y-80895014D01*
X164371204Y-80876601D01*
X164362025Y-80857195D01*
X164354793Y-80836983D01*
X164349577Y-80816159D01*
X164346427Y-80794924D01*
X164345374Y-80773483D01*
X164346427Y-80752042D01*
X164349577Y-80730807D01*
X164354793Y-80709983D01*
X164362025Y-80689771D01*
X164371204Y-80670365D01*
X164382240Y-80651952D01*
X164395028Y-80634709D01*
X164409444Y-80618803D01*
X164718803Y-80309444D01*
X164734709Y-80295028D01*
X164751952Y-80282240D01*
X164770365Y-80271204D01*
X164789771Y-80262025D01*
X164809983Y-80254793D01*
X164830807Y-80249577D01*
X164852042Y-80246427D01*
X164873483Y-80245374D01*
X164894924Y-80246427D01*
X164894924Y-80246427D01*
G37*
D11*
X164900000Y-80800000D03*
D10*
G36*
X163357620Y-57856674D02*
G01*
X163378946Y-57859128D01*
X163399930Y-57863660D01*
X163420368Y-57870227D01*
X163440064Y-57878765D01*
X163458828Y-57889193D01*
X163476480Y-57901410D01*
X163492849Y-57915298D01*
X163507778Y-57930724D01*
X163521123Y-57947539D01*
X163532756Y-57965581D01*
X163789006Y-58409419D01*
X163798814Y-58428514D01*
X163806704Y-58448479D01*
X163812599Y-58469121D01*
X163816442Y-58490241D01*
X163818196Y-58511637D01*
X163817845Y-58533101D01*
X163815391Y-58554427D01*
X163810859Y-58575411D01*
X163804292Y-58595849D01*
X163795754Y-58615545D01*
X163785326Y-58634309D01*
X163773109Y-58651961D01*
X163759221Y-58668330D01*
X163743795Y-58683259D01*
X163726980Y-58696604D01*
X163708938Y-58708237D01*
X163330052Y-58926987D01*
X163310957Y-58936795D01*
X163290992Y-58944685D01*
X163270350Y-58950580D01*
X163249230Y-58954423D01*
X163227834Y-58956177D01*
X163206370Y-58955826D01*
X163185044Y-58953372D01*
X163164060Y-58948840D01*
X163143622Y-58942273D01*
X163123926Y-58933735D01*
X163105162Y-58923307D01*
X163087510Y-58911090D01*
X163071141Y-58897202D01*
X163056212Y-58881776D01*
X163042867Y-58864961D01*
X163031234Y-58846919D01*
X162774984Y-58403081D01*
X162765176Y-58383986D01*
X162757286Y-58364021D01*
X162751391Y-58343379D01*
X162747548Y-58322259D01*
X162745794Y-58300863D01*
X162746145Y-58279399D01*
X162748599Y-58258073D01*
X162753131Y-58237089D01*
X162759698Y-58216651D01*
X162768236Y-58196955D01*
X162778664Y-58178191D01*
X162790881Y-58160539D01*
X162804769Y-58144170D01*
X162820195Y-58129241D01*
X162837010Y-58115896D01*
X162855052Y-58104263D01*
X163233938Y-57885513D01*
X163253033Y-57875705D01*
X163272998Y-57867815D01*
X163293640Y-57861920D01*
X163314760Y-57858077D01*
X163336156Y-57856323D01*
X163357620Y-57856674D01*
X163357620Y-57856674D01*
G37*
D11*
X163281995Y-58406250D03*
D10*
G36*
X161993630Y-58644174D02*
G01*
X162014956Y-58646628D01*
X162035940Y-58651160D01*
X162056378Y-58657727D01*
X162076074Y-58666265D01*
X162094838Y-58676693D01*
X162112490Y-58688910D01*
X162128859Y-58702798D01*
X162143788Y-58718224D01*
X162157133Y-58735039D01*
X162168766Y-58753081D01*
X162425016Y-59196919D01*
X162434824Y-59216014D01*
X162442714Y-59235979D01*
X162448609Y-59256621D01*
X162452452Y-59277741D01*
X162454206Y-59299137D01*
X162453855Y-59320601D01*
X162451401Y-59341927D01*
X162446869Y-59362911D01*
X162440302Y-59383349D01*
X162431764Y-59403045D01*
X162421336Y-59421809D01*
X162409119Y-59439461D01*
X162395231Y-59455830D01*
X162379805Y-59470759D01*
X162362990Y-59484104D01*
X162344948Y-59495737D01*
X161966062Y-59714487D01*
X161946967Y-59724295D01*
X161927002Y-59732185D01*
X161906360Y-59738080D01*
X161885240Y-59741923D01*
X161863844Y-59743677D01*
X161842380Y-59743326D01*
X161821054Y-59740872D01*
X161800070Y-59736340D01*
X161779632Y-59729773D01*
X161759936Y-59721235D01*
X161741172Y-59710807D01*
X161723520Y-59698590D01*
X161707151Y-59684702D01*
X161692222Y-59669276D01*
X161678877Y-59652461D01*
X161667244Y-59634419D01*
X161410994Y-59190581D01*
X161401186Y-59171486D01*
X161393296Y-59151521D01*
X161387401Y-59130879D01*
X161383558Y-59109759D01*
X161381804Y-59088363D01*
X161382155Y-59066899D01*
X161384609Y-59045573D01*
X161389141Y-59024589D01*
X161395708Y-59004151D01*
X161404246Y-58984455D01*
X161414674Y-58965691D01*
X161426891Y-58948039D01*
X161440779Y-58931670D01*
X161456205Y-58916741D01*
X161473020Y-58903396D01*
X161491062Y-58891763D01*
X161869948Y-58673013D01*
X161889043Y-58663205D01*
X161909008Y-58655315D01*
X161929650Y-58649420D01*
X161950770Y-58645577D01*
X161972166Y-58643823D01*
X161993630Y-58644174D01*
X161993630Y-58644174D01*
G37*
D11*
X161918005Y-59193750D03*
D10*
G36*
X174279351Y-70413640D02*
G01*
X174300637Y-70416419D01*
X174321549Y-70421271D01*
X174341884Y-70428149D01*
X174361447Y-70436987D01*
X174380050Y-70447701D01*
X174397513Y-70460186D01*
X174413669Y-70474323D01*
X174782330Y-70830336D01*
X174797022Y-70845988D01*
X174810108Y-70863005D01*
X174821464Y-70881222D01*
X174830980Y-70900465D01*
X174838564Y-70920548D01*
X174844142Y-70941277D01*
X174847662Y-70962454D01*
X174849090Y-70983874D01*
X174848411Y-71005330D01*
X174845632Y-71026617D01*
X174840780Y-71047528D01*
X174833902Y-71067863D01*
X174825063Y-71087427D01*
X174814350Y-71106029D01*
X174801865Y-71123493D01*
X174787729Y-71139648D01*
X174483816Y-71454359D01*
X174468163Y-71469050D01*
X174451147Y-71482137D01*
X174432929Y-71493493D01*
X174413686Y-71503009D01*
X174393603Y-71510593D01*
X174372874Y-71516171D01*
X174351697Y-71519691D01*
X174330278Y-71521119D01*
X174308821Y-71520440D01*
X174287535Y-71517661D01*
X174266623Y-71512809D01*
X174246288Y-71505931D01*
X174226725Y-71497093D01*
X174208122Y-71486379D01*
X174190659Y-71473894D01*
X174174503Y-71459757D01*
X173805842Y-71103744D01*
X173791150Y-71088092D01*
X173778064Y-71071075D01*
X173766708Y-71052858D01*
X173757192Y-71033615D01*
X173749608Y-71013532D01*
X173744030Y-70992803D01*
X173740510Y-70971626D01*
X173739082Y-70950206D01*
X173739761Y-70928750D01*
X173742540Y-70907463D01*
X173747392Y-70886552D01*
X173754270Y-70866217D01*
X173763109Y-70846653D01*
X173773822Y-70828051D01*
X173786307Y-70810587D01*
X173800443Y-70794432D01*
X174104356Y-70479721D01*
X174120009Y-70465030D01*
X174137025Y-70451943D01*
X174155243Y-70440587D01*
X174174486Y-70431071D01*
X174194569Y-70423487D01*
X174215298Y-70417909D01*
X174236475Y-70414389D01*
X174257894Y-70412961D01*
X174279351Y-70413640D01*
X174279351Y-70413640D01*
G37*
D11*
X174294086Y-70967040D03*
D10*
G36*
X173185265Y-71546600D02*
G01*
X173206551Y-71549379D01*
X173227463Y-71554231D01*
X173247798Y-71561109D01*
X173267361Y-71569947D01*
X173285964Y-71580661D01*
X173303427Y-71593146D01*
X173319583Y-71607283D01*
X173688244Y-71963296D01*
X173702936Y-71978948D01*
X173716022Y-71995965D01*
X173727378Y-72014182D01*
X173736894Y-72033425D01*
X173744478Y-72053508D01*
X173750056Y-72074237D01*
X173753576Y-72095414D01*
X173755004Y-72116834D01*
X173754325Y-72138290D01*
X173751546Y-72159577D01*
X173746694Y-72180488D01*
X173739816Y-72200823D01*
X173730977Y-72220387D01*
X173720264Y-72238989D01*
X173707779Y-72256453D01*
X173693643Y-72272608D01*
X173389730Y-72587319D01*
X173374077Y-72602010D01*
X173357061Y-72615097D01*
X173338843Y-72626453D01*
X173319600Y-72635969D01*
X173299517Y-72643553D01*
X173278788Y-72649131D01*
X173257611Y-72652651D01*
X173236192Y-72654079D01*
X173214735Y-72653400D01*
X173193449Y-72650621D01*
X173172537Y-72645769D01*
X173152202Y-72638891D01*
X173132639Y-72630053D01*
X173114036Y-72619339D01*
X173096573Y-72606854D01*
X173080417Y-72592717D01*
X172711756Y-72236704D01*
X172697064Y-72221052D01*
X172683978Y-72204035D01*
X172672622Y-72185818D01*
X172663106Y-72166575D01*
X172655522Y-72146492D01*
X172649944Y-72125763D01*
X172646424Y-72104586D01*
X172644996Y-72083166D01*
X172645675Y-72061710D01*
X172648454Y-72040423D01*
X172653306Y-72019512D01*
X172660184Y-71999177D01*
X172669023Y-71979613D01*
X172679736Y-71961011D01*
X172692221Y-71943547D01*
X172706357Y-71927392D01*
X173010270Y-71612681D01*
X173025923Y-71597990D01*
X173042939Y-71584903D01*
X173061157Y-71573547D01*
X173080400Y-71564031D01*
X173100483Y-71556447D01*
X173121212Y-71550869D01*
X173142389Y-71547349D01*
X173163808Y-71545921D01*
X173185265Y-71546600D01*
X173185265Y-71546600D01*
G37*
D11*
X173200000Y-72100000D03*
D10*
G36*
X114580000Y-67781403D02*
G01*
X114601326Y-67783857D01*
X114622309Y-67788389D01*
X115044902Y-67901622D01*
X115065340Y-67908189D01*
X115085036Y-67916727D01*
X115103801Y-67927155D01*
X115121452Y-67939372D01*
X115137822Y-67953260D01*
X115152751Y-67968686D01*
X115166096Y-67985501D01*
X115177729Y-68003543D01*
X115187537Y-68022638D01*
X115195427Y-68042603D01*
X115201322Y-68063245D01*
X115205165Y-68084365D01*
X115206919Y-68105760D01*
X115206568Y-68127225D01*
X115204114Y-68148551D01*
X115199582Y-68169535D01*
X115066937Y-68664572D01*
X115060370Y-68685010D01*
X115051832Y-68704706D01*
X115041404Y-68723470D01*
X115029187Y-68741122D01*
X115015299Y-68757491D01*
X114999873Y-68772420D01*
X114983058Y-68785765D01*
X114965016Y-68797398D01*
X114945921Y-68807207D01*
X114925956Y-68815096D01*
X114905314Y-68820991D01*
X114884194Y-68824834D01*
X114862798Y-68826588D01*
X114841334Y-68826237D01*
X114820008Y-68823783D01*
X114799025Y-68819251D01*
X114376432Y-68706018D01*
X114355994Y-68699451D01*
X114336298Y-68690913D01*
X114317533Y-68680485D01*
X114299882Y-68668268D01*
X114283512Y-68654380D01*
X114268583Y-68638954D01*
X114255238Y-68622139D01*
X114243605Y-68604097D01*
X114233797Y-68585002D01*
X114225907Y-68565037D01*
X114220012Y-68544395D01*
X114216169Y-68523275D01*
X114214415Y-68501880D01*
X114214766Y-68480415D01*
X114217220Y-68459089D01*
X114221752Y-68438105D01*
X114354397Y-67943068D01*
X114360964Y-67922630D01*
X114369502Y-67902934D01*
X114379930Y-67884170D01*
X114392147Y-67866518D01*
X114406035Y-67850149D01*
X114421461Y-67835220D01*
X114438276Y-67821875D01*
X114456318Y-67810242D01*
X114475413Y-67800433D01*
X114495378Y-67792544D01*
X114516020Y-67786649D01*
X114537140Y-67782806D01*
X114558536Y-67781052D01*
X114580000Y-67781403D01*
X114580000Y-67781403D01*
G37*
D11*
X114710667Y-68303820D03*
D10*
G36*
X113058666Y-67373763D02*
G01*
X113079992Y-67376217D01*
X113100975Y-67380749D01*
X113523568Y-67493982D01*
X113544006Y-67500549D01*
X113563702Y-67509087D01*
X113582467Y-67519515D01*
X113600118Y-67531732D01*
X113616488Y-67545620D01*
X113631417Y-67561046D01*
X113644762Y-67577861D01*
X113656395Y-67595903D01*
X113666203Y-67614998D01*
X113674093Y-67634963D01*
X113679988Y-67655605D01*
X113683831Y-67676725D01*
X113685585Y-67698120D01*
X113685234Y-67719585D01*
X113682780Y-67740911D01*
X113678248Y-67761895D01*
X113545603Y-68256932D01*
X113539036Y-68277370D01*
X113530498Y-68297066D01*
X113520070Y-68315830D01*
X113507853Y-68333482D01*
X113493965Y-68349851D01*
X113478539Y-68364780D01*
X113461724Y-68378125D01*
X113443682Y-68389758D01*
X113424587Y-68399567D01*
X113404622Y-68407456D01*
X113383980Y-68413351D01*
X113362860Y-68417194D01*
X113341464Y-68418948D01*
X113320000Y-68418597D01*
X113298674Y-68416143D01*
X113277691Y-68411611D01*
X112855098Y-68298378D01*
X112834660Y-68291811D01*
X112814964Y-68283273D01*
X112796199Y-68272845D01*
X112778548Y-68260628D01*
X112762178Y-68246740D01*
X112747249Y-68231314D01*
X112733904Y-68214499D01*
X112722271Y-68196457D01*
X112712463Y-68177362D01*
X112704573Y-68157397D01*
X112698678Y-68136755D01*
X112694835Y-68115635D01*
X112693081Y-68094240D01*
X112693432Y-68072775D01*
X112695886Y-68051449D01*
X112700418Y-68030465D01*
X112833063Y-67535428D01*
X112839630Y-67514990D01*
X112848168Y-67495294D01*
X112858596Y-67476530D01*
X112870813Y-67458878D01*
X112884701Y-67442509D01*
X112900127Y-67427580D01*
X112916942Y-67414235D01*
X112934984Y-67402602D01*
X112954079Y-67392793D01*
X112974044Y-67384904D01*
X112994686Y-67379009D01*
X113015806Y-67375166D01*
X113037202Y-67373412D01*
X113058666Y-67373763D01*
X113058666Y-67373763D01*
G37*
D11*
X113189333Y-67896180D03*
D10*
G36*
X126385464Y-71192446D02*
G01*
X126406745Y-71195272D01*
X126427646Y-71200169D01*
X126848198Y-71320760D01*
X126868518Y-71327682D01*
X126888062Y-71336563D01*
X126906641Y-71347317D01*
X126924077Y-71359840D01*
X126940201Y-71374012D01*
X126954859Y-71389696D01*
X126967909Y-71406741D01*
X126979225Y-71424984D01*
X126988699Y-71444247D01*
X126996239Y-71464347D01*
X127001772Y-71485088D01*
X127005246Y-71506273D01*
X127006626Y-71527695D01*
X127005901Y-71549150D01*
X127003075Y-71570431D01*
X126998178Y-71591332D01*
X126856914Y-72083979D01*
X126849991Y-72104299D01*
X126841111Y-72123843D01*
X126830357Y-72142422D01*
X126817834Y-72159858D01*
X126803662Y-72175982D01*
X126787978Y-72190640D01*
X126770932Y-72203690D01*
X126752690Y-72215006D01*
X126733427Y-72224480D01*
X126713327Y-72232020D01*
X126692585Y-72237553D01*
X126671401Y-72241027D01*
X126649979Y-72242407D01*
X126628524Y-72241682D01*
X126607243Y-72238856D01*
X126586342Y-72233959D01*
X126165790Y-72113368D01*
X126145470Y-72106446D01*
X126125926Y-72097565D01*
X126107347Y-72086811D01*
X126089911Y-72074288D01*
X126073787Y-72060116D01*
X126059129Y-72044432D01*
X126046079Y-72027387D01*
X126034763Y-72009144D01*
X126025289Y-71989881D01*
X126017749Y-71969781D01*
X126012216Y-71949040D01*
X126008742Y-71927855D01*
X126007362Y-71906433D01*
X126008087Y-71884978D01*
X126010913Y-71863697D01*
X126015810Y-71842796D01*
X126157074Y-71350149D01*
X126163997Y-71329829D01*
X126172877Y-71310285D01*
X126183631Y-71291706D01*
X126196154Y-71274270D01*
X126210326Y-71258146D01*
X126226010Y-71243488D01*
X126243056Y-71230438D01*
X126261298Y-71219122D01*
X126280561Y-71209648D01*
X126300661Y-71202108D01*
X126321403Y-71196575D01*
X126342587Y-71193101D01*
X126364009Y-71191721D01*
X126385464Y-71192446D01*
X126385464Y-71192446D01*
G37*
D11*
X126506994Y-71717064D03*
D10*
G36*
X124871476Y-70758318D02*
G01*
X124892757Y-70761144D01*
X124913658Y-70766041D01*
X125334210Y-70886632D01*
X125354530Y-70893554D01*
X125374074Y-70902435D01*
X125392653Y-70913189D01*
X125410089Y-70925712D01*
X125426213Y-70939884D01*
X125440871Y-70955568D01*
X125453921Y-70972613D01*
X125465237Y-70990856D01*
X125474711Y-71010119D01*
X125482251Y-71030219D01*
X125487784Y-71050960D01*
X125491258Y-71072145D01*
X125492638Y-71093567D01*
X125491913Y-71115022D01*
X125489087Y-71136303D01*
X125484190Y-71157204D01*
X125342926Y-71649851D01*
X125336003Y-71670171D01*
X125327123Y-71689715D01*
X125316369Y-71708294D01*
X125303846Y-71725730D01*
X125289674Y-71741854D01*
X125273990Y-71756512D01*
X125256944Y-71769562D01*
X125238702Y-71780878D01*
X125219439Y-71790352D01*
X125199339Y-71797892D01*
X125178597Y-71803425D01*
X125157413Y-71806899D01*
X125135991Y-71808279D01*
X125114536Y-71807554D01*
X125093255Y-71804728D01*
X125072354Y-71799831D01*
X124651802Y-71679240D01*
X124631482Y-71672318D01*
X124611938Y-71663437D01*
X124593359Y-71652683D01*
X124575923Y-71640160D01*
X124559799Y-71625988D01*
X124545141Y-71610304D01*
X124532091Y-71593259D01*
X124520775Y-71575016D01*
X124511301Y-71555753D01*
X124503761Y-71535653D01*
X124498228Y-71514912D01*
X124494754Y-71493727D01*
X124493374Y-71472305D01*
X124494099Y-71450850D01*
X124496925Y-71429569D01*
X124501822Y-71408668D01*
X124643086Y-70916021D01*
X124650009Y-70895701D01*
X124658889Y-70876157D01*
X124669643Y-70857578D01*
X124682166Y-70840142D01*
X124696338Y-70824018D01*
X124712022Y-70809360D01*
X124729068Y-70796310D01*
X124747310Y-70784994D01*
X124766573Y-70775520D01*
X124786673Y-70767980D01*
X124807415Y-70762447D01*
X124828599Y-70758973D01*
X124850021Y-70757593D01*
X124871476Y-70758318D01*
X124871476Y-70758318D01*
G37*
D11*
X124993006Y-71282936D03*
D10*
G36*
X136504675Y-76891569D02*
G01*
X136525752Y-76895642D01*
X136546328Y-76901761D01*
X136566205Y-76909868D01*
X136962715Y-77094763D01*
X136981703Y-77104779D01*
X136999617Y-77116608D01*
X137016285Y-77130136D01*
X137031547Y-77145232D01*
X137045256Y-77161752D01*
X137057280Y-77179536D01*
X137067502Y-77198413D01*
X137075826Y-77218201D01*
X137082169Y-77238709D01*
X137086472Y-77259741D01*
X137088693Y-77281093D01*
X137088810Y-77302559D01*
X137086822Y-77323934D01*
X137082749Y-77345012D01*
X137076630Y-77365588D01*
X137068523Y-77385466D01*
X136851931Y-77849949D01*
X136841915Y-77868936D01*
X136830086Y-77886850D01*
X136816558Y-77903518D01*
X136801461Y-77918780D01*
X136784942Y-77932489D01*
X136767158Y-77944513D01*
X136748281Y-77954736D01*
X136728493Y-77963059D01*
X136707984Y-77969402D01*
X136686953Y-77973705D01*
X136665601Y-77975926D01*
X136644134Y-77976043D01*
X136622759Y-77974055D01*
X136601682Y-77969982D01*
X136581106Y-77963863D01*
X136561229Y-77955756D01*
X136164719Y-77770861D01*
X136145731Y-77760845D01*
X136127817Y-77749016D01*
X136111149Y-77735488D01*
X136095887Y-77720392D01*
X136082178Y-77703872D01*
X136070154Y-77686088D01*
X136059932Y-77667211D01*
X136051608Y-77647423D01*
X136045265Y-77626915D01*
X136040962Y-77605883D01*
X136038741Y-77584531D01*
X136038624Y-77563065D01*
X136040612Y-77541690D01*
X136044685Y-77520612D01*
X136050804Y-77500036D01*
X136058911Y-77480158D01*
X136275503Y-77015675D01*
X136285519Y-76996688D01*
X136297348Y-76978774D01*
X136310876Y-76962106D01*
X136325973Y-76946844D01*
X136342492Y-76933135D01*
X136360276Y-76921111D01*
X136379153Y-76910888D01*
X136398941Y-76902565D01*
X136419450Y-76896222D01*
X136440481Y-76891919D01*
X136461833Y-76889698D01*
X136483300Y-76889581D01*
X136504675Y-76891569D01*
X136504675Y-76891569D01*
G37*
D11*
X136563717Y-77432812D03*
D10*
G36*
X135077241Y-76225945D02*
G01*
X135098318Y-76230018D01*
X135118894Y-76236137D01*
X135138771Y-76244244D01*
X135535281Y-76429139D01*
X135554269Y-76439155D01*
X135572183Y-76450984D01*
X135588851Y-76464512D01*
X135604113Y-76479608D01*
X135617822Y-76496128D01*
X135629846Y-76513912D01*
X135640068Y-76532789D01*
X135648392Y-76552577D01*
X135654735Y-76573085D01*
X135659038Y-76594117D01*
X135661259Y-76615469D01*
X135661376Y-76636935D01*
X135659388Y-76658310D01*
X135655315Y-76679388D01*
X135649196Y-76699964D01*
X135641089Y-76719842D01*
X135424497Y-77184325D01*
X135414481Y-77203312D01*
X135402652Y-77221226D01*
X135389124Y-77237894D01*
X135374027Y-77253156D01*
X135357508Y-77266865D01*
X135339724Y-77278889D01*
X135320847Y-77289112D01*
X135301059Y-77297435D01*
X135280550Y-77303778D01*
X135259519Y-77308081D01*
X135238167Y-77310302D01*
X135216700Y-77310419D01*
X135195325Y-77308431D01*
X135174248Y-77304358D01*
X135153672Y-77298239D01*
X135133795Y-77290132D01*
X134737285Y-77105237D01*
X134718297Y-77095221D01*
X134700383Y-77083392D01*
X134683715Y-77069864D01*
X134668453Y-77054768D01*
X134654744Y-77038248D01*
X134642720Y-77020464D01*
X134632498Y-77001587D01*
X134624174Y-76981799D01*
X134617831Y-76961291D01*
X134613528Y-76940259D01*
X134611307Y-76918907D01*
X134611190Y-76897441D01*
X134613178Y-76876066D01*
X134617251Y-76854988D01*
X134623370Y-76834412D01*
X134631477Y-76814534D01*
X134848069Y-76350051D01*
X134858085Y-76331064D01*
X134869914Y-76313150D01*
X134883442Y-76296482D01*
X134898539Y-76281220D01*
X134915058Y-76267511D01*
X134932842Y-76255487D01*
X134951719Y-76245264D01*
X134971507Y-76236941D01*
X134992016Y-76230598D01*
X135013047Y-76226295D01*
X135034399Y-76224074D01*
X135055866Y-76223957D01*
X135077241Y-76225945D01*
X135077241Y-76225945D01*
G37*
D11*
X135136283Y-76767188D03*
D10*
G36*
X148185464Y-81142446D02*
G01*
X148206745Y-81145272D01*
X148227646Y-81150169D01*
X148648198Y-81270760D01*
X148668518Y-81277682D01*
X148688062Y-81286563D01*
X148706641Y-81297317D01*
X148724077Y-81309840D01*
X148740201Y-81324012D01*
X148754859Y-81339696D01*
X148767909Y-81356741D01*
X148779225Y-81374984D01*
X148788699Y-81394247D01*
X148796239Y-81414347D01*
X148801772Y-81435088D01*
X148805246Y-81456273D01*
X148806626Y-81477695D01*
X148805901Y-81499150D01*
X148803075Y-81520431D01*
X148798178Y-81541332D01*
X148656914Y-82033979D01*
X148649991Y-82054299D01*
X148641111Y-82073843D01*
X148630357Y-82092422D01*
X148617834Y-82109858D01*
X148603662Y-82125982D01*
X148587978Y-82140640D01*
X148570932Y-82153690D01*
X148552690Y-82165006D01*
X148533427Y-82174480D01*
X148513327Y-82182020D01*
X148492585Y-82187553D01*
X148471401Y-82191027D01*
X148449979Y-82192407D01*
X148428524Y-82191682D01*
X148407243Y-82188856D01*
X148386342Y-82183959D01*
X147965790Y-82063368D01*
X147945470Y-82056446D01*
X147925926Y-82047565D01*
X147907347Y-82036811D01*
X147889911Y-82024288D01*
X147873787Y-82010116D01*
X147859129Y-81994432D01*
X147846079Y-81977387D01*
X147834763Y-81959144D01*
X147825289Y-81939881D01*
X147817749Y-81919781D01*
X147812216Y-81899040D01*
X147808742Y-81877855D01*
X147807362Y-81856433D01*
X147808087Y-81834978D01*
X147810913Y-81813697D01*
X147815810Y-81792796D01*
X147957074Y-81300149D01*
X147963997Y-81279829D01*
X147972877Y-81260285D01*
X147983631Y-81241706D01*
X147996154Y-81224270D01*
X148010326Y-81208146D01*
X148026010Y-81193488D01*
X148043056Y-81180438D01*
X148061298Y-81169122D01*
X148080561Y-81159648D01*
X148100661Y-81152108D01*
X148121403Y-81146575D01*
X148142587Y-81143101D01*
X148164009Y-81141721D01*
X148185464Y-81142446D01*
X148185464Y-81142446D01*
G37*
D11*
X148306994Y-81667064D03*
D10*
G36*
X146671476Y-80708318D02*
G01*
X146692757Y-80711144D01*
X146713658Y-80716041D01*
X147134210Y-80836632D01*
X147154530Y-80843554D01*
X147174074Y-80852435D01*
X147192653Y-80863189D01*
X147210089Y-80875712D01*
X147226213Y-80889884D01*
X147240871Y-80905568D01*
X147253921Y-80922613D01*
X147265237Y-80940856D01*
X147274711Y-80960119D01*
X147282251Y-80980219D01*
X147287784Y-81000960D01*
X147291258Y-81022145D01*
X147292638Y-81043567D01*
X147291913Y-81065022D01*
X147289087Y-81086303D01*
X147284190Y-81107204D01*
X147142926Y-81599851D01*
X147136003Y-81620171D01*
X147127123Y-81639715D01*
X147116369Y-81658294D01*
X147103846Y-81675730D01*
X147089674Y-81691854D01*
X147073990Y-81706512D01*
X147056944Y-81719562D01*
X147038702Y-81730878D01*
X147019439Y-81740352D01*
X146999339Y-81747892D01*
X146978597Y-81753425D01*
X146957413Y-81756899D01*
X146935991Y-81758279D01*
X146914536Y-81757554D01*
X146893255Y-81754728D01*
X146872354Y-81749831D01*
X146451802Y-81629240D01*
X146431482Y-81622318D01*
X146411938Y-81613437D01*
X146393359Y-81602683D01*
X146375923Y-81590160D01*
X146359799Y-81575988D01*
X146345141Y-81560304D01*
X146332091Y-81543259D01*
X146320775Y-81525016D01*
X146311301Y-81505753D01*
X146303761Y-81485653D01*
X146298228Y-81464912D01*
X146294754Y-81443727D01*
X146293374Y-81422305D01*
X146294099Y-81400850D01*
X146296925Y-81379569D01*
X146301822Y-81358668D01*
X146443086Y-80866021D01*
X146450009Y-80845701D01*
X146458889Y-80826157D01*
X146469643Y-80807578D01*
X146482166Y-80790142D01*
X146496338Y-80774018D01*
X146512022Y-80759360D01*
X146529068Y-80746310D01*
X146547310Y-80734994D01*
X146566573Y-80725520D01*
X146586673Y-80717980D01*
X146607415Y-80712447D01*
X146628599Y-80708973D01*
X146650021Y-80707593D01*
X146671476Y-80708318D01*
X146671476Y-80708318D01*
G37*
D11*
X146793006Y-81232936D03*
D10*
G36*
X160007620Y-59856674D02*
G01*
X160028946Y-59859128D01*
X160049930Y-59863660D01*
X160070368Y-59870227D01*
X160090064Y-59878765D01*
X160108828Y-59889193D01*
X160126480Y-59901410D01*
X160142849Y-59915298D01*
X160157778Y-59930724D01*
X160171123Y-59947539D01*
X160182756Y-59965581D01*
X160439006Y-60409419D01*
X160448814Y-60428514D01*
X160456704Y-60448479D01*
X160462599Y-60469121D01*
X160466442Y-60490241D01*
X160468196Y-60511637D01*
X160467845Y-60533101D01*
X160465391Y-60554427D01*
X160460859Y-60575411D01*
X160454292Y-60595849D01*
X160445754Y-60615545D01*
X160435326Y-60634309D01*
X160423109Y-60651961D01*
X160409221Y-60668330D01*
X160393795Y-60683259D01*
X160376980Y-60696604D01*
X160358938Y-60708237D01*
X159980052Y-60926987D01*
X159960957Y-60936795D01*
X159940992Y-60944685D01*
X159920350Y-60950580D01*
X159899230Y-60954423D01*
X159877834Y-60956177D01*
X159856370Y-60955826D01*
X159835044Y-60953372D01*
X159814060Y-60948840D01*
X159793622Y-60942273D01*
X159773926Y-60933735D01*
X159755162Y-60923307D01*
X159737510Y-60911090D01*
X159721141Y-60897202D01*
X159706212Y-60881776D01*
X159692867Y-60864961D01*
X159681234Y-60846919D01*
X159424984Y-60403081D01*
X159415176Y-60383986D01*
X159407286Y-60364021D01*
X159401391Y-60343379D01*
X159397548Y-60322259D01*
X159395794Y-60300863D01*
X159396145Y-60279399D01*
X159398599Y-60258073D01*
X159403131Y-60237089D01*
X159409698Y-60216651D01*
X159418236Y-60196955D01*
X159428664Y-60178191D01*
X159440881Y-60160539D01*
X159454769Y-60144170D01*
X159470195Y-60129241D01*
X159487010Y-60115896D01*
X159505052Y-60104263D01*
X159883938Y-59885513D01*
X159903033Y-59875705D01*
X159922998Y-59867815D01*
X159943640Y-59861920D01*
X159964760Y-59858077D01*
X159986156Y-59856323D01*
X160007620Y-59856674D01*
X160007620Y-59856674D01*
G37*
D11*
X159931995Y-60406250D03*
D10*
G36*
X158643630Y-60644174D02*
G01*
X158664956Y-60646628D01*
X158685940Y-60651160D01*
X158706378Y-60657727D01*
X158726074Y-60666265D01*
X158744838Y-60676693D01*
X158762490Y-60688910D01*
X158778859Y-60702798D01*
X158793788Y-60718224D01*
X158807133Y-60735039D01*
X158818766Y-60753081D01*
X159075016Y-61196919D01*
X159084824Y-61216014D01*
X159092714Y-61235979D01*
X159098609Y-61256621D01*
X159102452Y-61277741D01*
X159104206Y-61299137D01*
X159103855Y-61320601D01*
X159101401Y-61341927D01*
X159096869Y-61362911D01*
X159090302Y-61383349D01*
X159081764Y-61403045D01*
X159071336Y-61421809D01*
X159059119Y-61439461D01*
X159045231Y-61455830D01*
X159029805Y-61470759D01*
X159012990Y-61484104D01*
X158994948Y-61495737D01*
X158616062Y-61714487D01*
X158596967Y-61724295D01*
X158577002Y-61732185D01*
X158556360Y-61738080D01*
X158535240Y-61741923D01*
X158513844Y-61743677D01*
X158492380Y-61743326D01*
X158471054Y-61740872D01*
X158450070Y-61736340D01*
X158429632Y-61729773D01*
X158409936Y-61721235D01*
X158391172Y-61710807D01*
X158373520Y-61698590D01*
X158357151Y-61684702D01*
X158342222Y-61669276D01*
X158328877Y-61652461D01*
X158317244Y-61634419D01*
X158060994Y-61190581D01*
X158051186Y-61171486D01*
X158043296Y-61151521D01*
X158037401Y-61130879D01*
X158033558Y-61109759D01*
X158031804Y-61088363D01*
X158032155Y-61066899D01*
X158034609Y-61045573D01*
X158039141Y-61024589D01*
X158045708Y-61004151D01*
X158054246Y-60984455D01*
X158064674Y-60965691D01*
X158076891Y-60948039D01*
X158090779Y-60931670D01*
X158106205Y-60916741D01*
X158123020Y-60903396D01*
X158141062Y-60891763D01*
X158519948Y-60673013D01*
X158539043Y-60663205D01*
X158559008Y-60655315D01*
X158579650Y-60649420D01*
X158600770Y-60645577D01*
X158622166Y-60643823D01*
X158643630Y-60644174D01*
X158643630Y-60644174D01*
G37*
D11*
X158568005Y-61193750D03*
D10*
G36*
X156657620Y-61806674D02*
G01*
X156678946Y-61809128D01*
X156699930Y-61813660D01*
X156720368Y-61820227D01*
X156740064Y-61828765D01*
X156758828Y-61839193D01*
X156776480Y-61851410D01*
X156792849Y-61865298D01*
X156807778Y-61880724D01*
X156821123Y-61897539D01*
X156832756Y-61915581D01*
X157089006Y-62359419D01*
X157098814Y-62378514D01*
X157106704Y-62398479D01*
X157112599Y-62419121D01*
X157116442Y-62440241D01*
X157118196Y-62461637D01*
X157117845Y-62483101D01*
X157115391Y-62504427D01*
X157110859Y-62525411D01*
X157104292Y-62545849D01*
X157095754Y-62565545D01*
X157085326Y-62584309D01*
X157073109Y-62601961D01*
X157059221Y-62618330D01*
X157043795Y-62633259D01*
X157026980Y-62646604D01*
X157008938Y-62658237D01*
X156630052Y-62876987D01*
X156610957Y-62886795D01*
X156590992Y-62894685D01*
X156570350Y-62900580D01*
X156549230Y-62904423D01*
X156527834Y-62906177D01*
X156506370Y-62905826D01*
X156485044Y-62903372D01*
X156464060Y-62898840D01*
X156443622Y-62892273D01*
X156423926Y-62883735D01*
X156405162Y-62873307D01*
X156387510Y-62861090D01*
X156371141Y-62847202D01*
X156356212Y-62831776D01*
X156342867Y-62814961D01*
X156331234Y-62796919D01*
X156074984Y-62353081D01*
X156065176Y-62333986D01*
X156057286Y-62314021D01*
X156051391Y-62293379D01*
X156047548Y-62272259D01*
X156045794Y-62250863D01*
X156046145Y-62229399D01*
X156048599Y-62208073D01*
X156053131Y-62187089D01*
X156059698Y-62166651D01*
X156068236Y-62146955D01*
X156078664Y-62128191D01*
X156090881Y-62110539D01*
X156104769Y-62094170D01*
X156120195Y-62079241D01*
X156137010Y-62065896D01*
X156155052Y-62054263D01*
X156533938Y-61835513D01*
X156553033Y-61825705D01*
X156572998Y-61817815D01*
X156593640Y-61811920D01*
X156614760Y-61808077D01*
X156636156Y-61806323D01*
X156657620Y-61806674D01*
X156657620Y-61806674D01*
G37*
D11*
X156581995Y-62356250D03*
D10*
G36*
X155293630Y-62594174D02*
G01*
X155314956Y-62596628D01*
X155335940Y-62601160D01*
X155356378Y-62607727D01*
X155376074Y-62616265D01*
X155394838Y-62626693D01*
X155412490Y-62638910D01*
X155428859Y-62652798D01*
X155443788Y-62668224D01*
X155457133Y-62685039D01*
X155468766Y-62703081D01*
X155725016Y-63146919D01*
X155734824Y-63166014D01*
X155742714Y-63185979D01*
X155748609Y-63206621D01*
X155752452Y-63227741D01*
X155754206Y-63249137D01*
X155753855Y-63270601D01*
X155751401Y-63291927D01*
X155746869Y-63312911D01*
X155740302Y-63333349D01*
X155731764Y-63353045D01*
X155721336Y-63371809D01*
X155709119Y-63389461D01*
X155695231Y-63405830D01*
X155679805Y-63420759D01*
X155662990Y-63434104D01*
X155644948Y-63445737D01*
X155266062Y-63664487D01*
X155246967Y-63674295D01*
X155227002Y-63682185D01*
X155206360Y-63688080D01*
X155185240Y-63691923D01*
X155163844Y-63693677D01*
X155142380Y-63693326D01*
X155121054Y-63690872D01*
X155100070Y-63686340D01*
X155079632Y-63679773D01*
X155059936Y-63671235D01*
X155041172Y-63660807D01*
X155023520Y-63648590D01*
X155007151Y-63634702D01*
X154992222Y-63619276D01*
X154978877Y-63602461D01*
X154967244Y-63584419D01*
X154710994Y-63140581D01*
X154701186Y-63121486D01*
X154693296Y-63101521D01*
X154687401Y-63080879D01*
X154683558Y-63059759D01*
X154681804Y-63038363D01*
X154682155Y-63016899D01*
X154684609Y-62995573D01*
X154689141Y-62974589D01*
X154695708Y-62954151D01*
X154704246Y-62934455D01*
X154714674Y-62915691D01*
X154726891Y-62898039D01*
X154740779Y-62881670D01*
X154756205Y-62866741D01*
X154773020Y-62853396D01*
X154791062Y-62841763D01*
X155169948Y-62623013D01*
X155189043Y-62613205D01*
X155209008Y-62605315D01*
X155229650Y-62599420D01*
X155250770Y-62595577D01*
X155272166Y-62593823D01*
X155293630Y-62594174D01*
X155293630Y-62594174D01*
G37*
D11*
X155218005Y-63143750D03*
D10*
G36*
X158208618Y-87132733D02*
G01*
X158229853Y-87135883D01*
X158250677Y-87141099D01*
X158270889Y-87148331D01*
X158290295Y-87157510D01*
X158308708Y-87168546D01*
X158325951Y-87181334D01*
X158341857Y-87195750D01*
X158704250Y-87558143D01*
X158718666Y-87574049D01*
X158731454Y-87591292D01*
X158742490Y-87609705D01*
X158751669Y-87629111D01*
X158758901Y-87649323D01*
X158764117Y-87670147D01*
X158767267Y-87691382D01*
X158768320Y-87712823D01*
X158767267Y-87734264D01*
X158764117Y-87755499D01*
X158758901Y-87776323D01*
X158751669Y-87796535D01*
X158742490Y-87815941D01*
X158731454Y-87834354D01*
X158718666Y-87851597D01*
X158704250Y-87867503D01*
X158394891Y-88176862D01*
X158378985Y-88191278D01*
X158361742Y-88204066D01*
X158343329Y-88215102D01*
X158323923Y-88224281D01*
X158303711Y-88231513D01*
X158282887Y-88236729D01*
X158261652Y-88239879D01*
X158240211Y-88240932D01*
X158218770Y-88239879D01*
X158197535Y-88236729D01*
X158176711Y-88231513D01*
X158156499Y-88224281D01*
X158137093Y-88215102D01*
X158118680Y-88204066D01*
X158101437Y-88191278D01*
X158085531Y-88176862D01*
X157723138Y-87814469D01*
X157708722Y-87798563D01*
X157695934Y-87781320D01*
X157684898Y-87762907D01*
X157675719Y-87743501D01*
X157668487Y-87723289D01*
X157663271Y-87702465D01*
X157660121Y-87681230D01*
X157659068Y-87659789D01*
X157660121Y-87638348D01*
X157663271Y-87617113D01*
X157668487Y-87596289D01*
X157675719Y-87576077D01*
X157684898Y-87556671D01*
X157695934Y-87538258D01*
X157708722Y-87521015D01*
X157723138Y-87505109D01*
X158032497Y-87195750D01*
X158048403Y-87181334D01*
X158065646Y-87168546D01*
X158084059Y-87157510D01*
X158103465Y-87148331D01*
X158123677Y-87141099D01*
X158144501Y-87135883D01*
X158165736Y-87132733D01*
X158187177Y-87131680D01*
X158208618Y-87132733D01*
X158208618Y-87132733D01*
G37*
D11*
X158213694Y-87686306D03*
D10*
G36*
X157094924Y-88246427D02*
G01*
X157116159Y-88249577D01*
X157136983Y-88254793D01*
X157157195Y-88262025D01*
X157176601Y-88271204D01*
X157195014Y-88282240D01*
X157212257Y-88295028D01*
X157228163Y-88309444D01*
X157590556Y-88671837D01*
X157604972Y-88687743D01*
X157617760Y-88704986D01*
X157628796Y-88723399D01*
X157637975Y-88742805D01*
X157645207Y-88763017D01*
X157650423Y-88783841D01*
X157653573Y-88805076D01*
X157654626Y-88826517D01*
X157653573Y-88847958D01*
X157650423Y-88869193D01*
X157645207Y-88890017D01*
X157637975Y-88910229D01*
X157628796Y-88929635D01*
X157617760Y-88948048D01*
X157604972Y-88965291D01*
X157590556Y-88981197D01*
X157281197Y-89290556D01*
X157265291Y-89304972D01*
X157248048Y-89317760D01*
X157229635Y-89328796D01*
X157210229Y-89337975D01*
X157190017Y-89345207D01*
X157169193Y-89350423D01*
X157147958Y-89353573D01*
X157126517Y-89354626D01*
X157105076Y-89353573D01*
X157083841Y-89350423D01*
X157063017Y-89345207D01*
X157042805Y-89337975D01*
X157023399Y-89328796D01*
X157004986Y-89317760D01*
X156987743Y-89304972D01*
X156971837Y-89290556D01*
X156609444Y-88928163D01*
X156595028Y-88912257D01*
X156582240Y-88895014D01*
X156571204Y-88876601D01*
X156562025Y-88857195D01*
X156554793Y-88836983D01*
X156549577Y-88816159D01*
X156546427Y-88794924D01*
X156545374Y-88773483D01*
X156546427Y-88752042D01*
X156549577Y-88730807D01*
X156554793Y-88709983D01*
X156562025Y-88689771D01*
X156571204Y-88670365D01*
X156582240Y-88651952D01*
X156595028Y-88634709D01*
X156609444Y-88618803D01*
X156918803Y-88309444D01*
X156934709Y-88295028D01*
X156951952Y-88282240D01*
X156970365Y-88271204D01*
X156989771Y-88262025D01*
X157009983Y-88254793D01*
X157030807Y-88249577D01*
X157052042Y-88246427D01*
X157073483Y-88245374D01*
X157094924Y-88246427D01*
X157094924Y-88246427D01*
G37*
D11*
X157100000Y-88800000D03*
D10*
G36*
X131882902Y-74465829D02*
G01*
X131904223Y-74468329D01*
X131925196Y-74472907D01*
X131945620Y-74479518D01*
X131965297Y-74488100D01*
X131984039Y-74498569D01*
X132355060Y-74730409D01*
X132372685Y-74742664D01*
X132389024Y-74756588D01*
X132403919Y-74772046D01*
X132417228Y-74788890D01*
X132428821Y-74806958D01*
X132438588Y-74826074D01*
X132446434Y-74846056D01*
X132452283Y-74866711D01*
X132456080Y-74887840D01*
X132457788Y-74909239D01*
X132457390Y-74930702D01*
X132454890Y-74952023D01*
X132450312Y-74972997D01*
X132443701Y-74993420D01*
X132435119Y-75013098D01*
X132424651Y-75031839D01*
X132153068Y-75466463D01*
X132140812Y-75484088D01*
X132126888Y-75500427D01*
X132111430Y-75515322D01*
X132094586Y-75528631D01*
X132076519Y-75540224D01*
X132057402Y-75549991D01*
X132037420Y-75557837D01*
X132016765Y-75563686D01*
X131995636Y-75567483D01*
X131974237Y-75569191D01*
X131952774Y-75568793D01*
X131931453Y-75566293D01*
X131910480Y-75561715D01*
X131890056Y-75555104D01*
X131870379Y-75546522D01*
X131851637Y-75536053D01*
X131480616Y-75304213D01*
X131462991Y-75291958D01*
X131446652Y-75278034D01*
X131431757Y-75262576D01*
X131418448Y-75245732D01*
X131406855Y-75227664D01*
X131397088Y-75208548D01*
X131389242Y-75188566D01*
X131383393Y-75167911D01*
X131379596Y-75146782D01*
X131377888Y-75125383D01*
X131378286Y-75103920D01*
X131380786Y-75082599D01*
X131385364Y-75061625D01*
X131391975Y-75041202D01*
X131400557Y-75021524D01*
X131411025Y-75002783D01*
X131682608Y-74568159D01*
X131694864Y-74550534D01*
X131708788Y-74534195D01*
X131724246Y-74519300D01*
X131741090Y-74505991D01*
X131759157Y-74494398D01*
X131778274Y-74484631D01*
X131798256Y-74476785D01*
X131818911Y-74470936D01*
X131840040Y-74467139D01*
X131861439Y-74465431D01*
X131882902Y-74465829D01*
X131882902Y-74465829D01*
G37*
D11*
X131917838Y-75017311D03*
D10*
G36*
X130547226Y-73631207D02*
G01*
X130568547Y-73633707D01*
X130589520Y-73638285D01*
X130609944Y-73644896D01*
X130629621Y-73653478D01*
X130648363Y-73663947D01*
X131019384Y-73895787D01*
X131037009Y-73908042D01*
X131053348Y-73921966D01*
X131068243Y-73937424D01*
X131081552Y-73954268D01*
X131093145Y-73972336D01*
X131102912Y-73991452D01*
X131110758Y-74011434D01*
X131116607Y-74032089D01*
X131120404Y-74053218D01*
X131122112Y-74074617D01*
X131121714Y-74096080D01*
X131119214Y-74117401D01*
X131114636Y-74138375D01*
X131108025Y-74158798D01*
X131099443Y-74178476D01*
X131088975Y-74197217D01*
X130817392Y-74631841D01*
X130805136Y-74649466D01*
X130791212Y-74665805D01*
X130775754Y-74680700D01*
X130758910Y-74694009D01*
X130740843Y-74705602D01*
X130721726Y-74715369D01*
X130701744Y-74723215D01*
X130681089Y-74729064D01*
X130659960Y-74732861D01*
X130638561Y-74734569D01*
X130617098Y-74734171D01*
X130595777Y-74731671D01*
X130574804Y-74727093D01*
X130554380Y-74720482D01*
X130534703Y-74711900D01*
X130515961Y-74701431D01*
X130144940Y-74469591D01*
X130127315Y-74457336D01*
X130110976Y-74443412D01*
X130096081Y-74427954D01*
X130082772Y-74411110D01*
X130071179Y-74393042D01*
X130061412Y-74373926D01*
X130053566Y-74353944D01*
X130047717Y-74333289D01*
X130043920Y-74312160D01*
X130042212Y-74290761D01*
X130042610Y-74269298D01*
X130045110Y-74247977D01*
X130049688Y-74227003D01*
X130056299Y-74206580D01*
X130064881Y-74186902D01*
X130075349Y-74168161D01*
X130346932Y-73733537D01*
X130359188Y-73715912D01*
X130373112Y-73699573D01*
X130388570Y-73684678D01*
X130405414Y-73671369D01*
X130423481Y-73659776D01*
X130442598Y-73650009D01*
X130462580Y-73642163D01*
X130483235Y-73636314D01*
X130504364Y-73632517D01*
X130525763Y-73630809D01*
X130547226Y-73631207D01*
X130547226Y-73631207D01*
G37*
D11*
X130582162Y-74182689D03*
D10*
G36*
X142284018Y-79285303D02*
G01*
X142305370Y-79287524D01*
X142326401Y-79291827D01*
X142346910Y-79298170D01*
X142758025Y-79447804D01*
X142777813Y-79456127D01*
X142796690Y-79466350D01*
X142814474Y-79478374D01*
X142830993Y-79492083D01*
X142846090Y-79507345D01*
X142859618Y-79524013D01*
X142871447Y-79541927D01*
X142881463Y-79560914D01*
X142889570Y-79580792D01*
X142895689Y-79601368D01*
X142899762Y-79622446D01*
X142901750Y-79643820D01*
X142901633Y-79665287D01*
X142899412Y-79686639D01*
X142895109Y-79707671D01*
X142888766Y-79728179D01*
X142713481Y-80209771D01*
X142705158Y-80229559D01*
X142694935Y-80248436D01*
X142682911Y-80266220D01*
X142669202Y-80282739D01*
X142653940Y-80297836D01*
X142637272Y-80311364D01*
X142619358Y-80323193D01*
X142600371Y-80333209D01*
X142580493Y-80341316D01*
X142559917Y-80347435D01*
X142538840Y-80351508D01*
X142517465Y-80353496D01*
X142495998Y-80353379D01*
X142474646Y-80351158D01*
X142453615Y-80346855D01*
X142433106Y-80340512D01*
X142021991Y-80190878D01*
X142002203Y-80182555D01*
X141983326Y-80172332D01*
X141965542Y-80160308D01*
X141949023Y-80146599D01*
X141933926Y-80131337D01*
X141920398Y-80114669D01*
X141908569Y-80096755D01*
X141898553Y-80077768D01*
X141890446Y-80057890D01*
X141884327Y-80037314D01*
X141880254Y-80016236D01*
X141878266Y-79994862D01*
X141878383Y-79973395D01*
X141880604Y-79952043D01*
X141884907Y-79931011D01*
X141891250Y-79910503D01*
X142066535Y-79428911D01*
X142074858Y-79409123D01*
X142085081Y-79390246D01*
X142097105Y-79372462D01*
X142110814Y-79355943D01*
X142126076Y-79340846D01*
X142142744Y-79327318D01*
X142160658Y-79315489D01*
X142179645Y-79305473D01*
X142199523Y-79297366D01*
X142220099Y-79291247D01*
X142241176Y-79287174D01*
X142262551Y-79285186D01*
X142284018Y-79285303D01*
X142284018Y-79285303D01*
G37*
D11*
X142390008Y-79819341D03*
D10*
G36*
X140804002Y-78746621D02*
G01*
X140825354Y-78748842D01*
X140846385Y-78753145D01*
X140866894Y-78759488D01*
X141278009Y-78909122D01*
X141297797Y-78917445D01*
X141316674Y-78927668D01*
X141334458Y-78939692D01*
X141350977Y-78953401D01*
X141366074Y-78968663D01*
X141379602Y-78985331D01*
X141391431Y-79003245D01*
X141401447Y-79022232D01*
X141409554Y-79042110D01*
X141415673Y-79062686D01*
X141419746Y-79083764D01*
X141421734Y-79105138D01*
X141421617Y-79126605D01*
X141419396Y-79147957D01*
X141415093Y-79168989D01*
X141408750Y-79189497D01*
X141233465Y-79671089D01*
X141225142Y-79690877D01*
X141214919Y-79709754D01*
X141202895Y-79727538D01*
X141189186Y-79744057D01*
X141173924Y-79759154D01*
X141157256Y-79772682D01*
X141139342Y-79784511D01*
X141120355Y-79794527D01*
X141100477Y-79802634D01*
X141079901Y-79808753D01*
X141058824Y-79812826D01*
X141037449Y-79814814D01*
X141015982Y-79814697D01*
X140994630Y-79812476D01*
X140973599Y-79808173D01*
X140953090Y-79801830D01*
X140541975Y-79652196D01*
X140522187Y-79643873D01*
X140503310Y-79633650D01*
X140485526Y-79621626D01*
X140469007Y-79607917D01*
X140453910Y-79592655D01*
X140440382Y-79575987D01*
X140428553Y-79558073D01*
X140418537Y-79539086D01*
X140410430Y-79519208D01*
X140404311Y-79498632D01*
X140400238Y-79477554D01*
X140398250Y-79456180D01*
X140398367Y-79434713D01*
X140400588Y-79413361D01*
X140404891Y-79392329D01*
X140411234Y-79371821D01*
X140586519Y-78890229D01*
X140594842Y-78870441D01*
X140605065Y-78851564D01*
X140617089Y-78833780D01*
X140630798Y-78817261D01*
X140646060Y-78802164D01*
X140662728Y-78788636D01*
X140680642Y-78776807D01*
X140699629Y-78766791D01*
X140719507Y-78758684D01*
X140740083Y-78752565D01*
X140761160Y-78748492D01*
X140782535Y-78746504D01*
X140804002Y-78746621D01*
X140804002Y-78746621D01*
G37*
D11*
X140909992Y-79280659D03*
D10*
G36*
X154064713Y-82367506D02*
G01*
X154086055Y-82369820D01*
X154518168Y-82438260D01*
X154539181Y-82442655D01*
X154559661Y-82449088D01*
X154579413Y-82457497D01*
X154598245Y-82467802D01*
X154615976Y-82479903D01*
X154632436Y-82493684D01*
X154647465Y-82509012D01*
X154660920Y-82525739D01*
X154672671Y-82543704D01*
X154682604Y-82562735D01*
X154690624Y-82582648D01*
X154696654Y-82603251D01*
X154700635Y-82624346D01*
X154702529Y-82645729D01*
X154702319Y-82667195D01*
X154700005Y-82688537D01*
X154619832Y-83194727D01*
X154615437Y-83215740D01*
X154609004Y-83236220D01*
X154600595Y-83255972D01*
X154590290Y-83274804D01*
X154578189Y-83292535D01*
X154564408Y-83308995D01*
X154549080Y-83324025D01*
X154532353Y-83337480D01*
X154514387Y-83349230D01*
X154495357Y-83359163D01*
X154475444Y-83367183D01*
X154454841Y-83373213D01*
X154433746Y-83377194D01*
X154412363Y-83379088D01*
X154390897Y-83378878D01*
X154369555Y-83376564D01*
X153937442Y-83308124D01*
X153916429Y-83303729D01*
X153895949Y-83297296D01*
X153876197Y-83288887D01*
X153857365Y-83278582D01*
X153839634Y-83266481D01*
X153823174Y-83252700D01*
X153808145Y-83237372D01*
X153794690Y-83220645D01*
X153782939Y-83202680D01*
X153773006Y-83183649D01*
X153764986Y-83163736D01*
X153758956Y-83143133D01*
X153754975Y-83122038D01*
X153753081Y-83100655D01*
X153753291Y-83079189D01*
X153755605Y-83057847D01*
X153835778Y-82551657D01*
X153840173Y-82530644D01*
X153846606Y-82510164D01*
X153855015Y-82490412D01*
X153865320Y-82471580D01*
X153877421Y-82453849D01*
X153891202Y-82437389D01*
X153906530Y-82422359D01*
X153923257Y-82408904D01*
X153941223Y-82397154D01*
X153960253Y-82387221D01*
X153980166Y-82379201D01*
X154000769Y-82373171D01*
X154021864Y-82369190D01*
X154043247Y-82367296D01*
X154064713Y-82367506D01*
X154064713Y-82367506D01*
G37*
D11*
X154227805Y-82873192D03*
D10*
G36*
X152509103Y-82121122D02*
G01*
X152530445Y-82123436D01*
X152962558Y-82191876D01*
X152983571Y-82196271D01*
X153004051Y-82202704D01*
X153023803Y-82211113D01*
X153042635Y-82221418D01*
X153060366Y-82233519D01*
X153076826Y-82247300D01*
X153091855Y-82262628D01*
X153105310Y-82279355D01*
X153117061Y-82297320D01*
X153126994Y-82316351D01*
X153135014Y-82336264D01*
X153141044Y-82356867D01*
X153145025Y-82377962D01*
X153146919Y-82399345D01*
X153146709Y-82420811D01*
X153144395Y-82442153D01*
X153064222Y-82948343D01*
X153059827Y-82969356D01*
X153053394Y-82989836D01*
X153044985Y-83009588D01*
X153034680Y-83028420D01*
X153022579Y-83046151D01*
X153008798Y-83062611D01*
X152993470Y-83077641D01*
X152976743Y-83091096D01*
X152958777Y-83102846D01*
X152939747Y-83112779D01*
X152919834Y-83120799D01*
X152899231Y-83126829D01*
X152878136Y-83130810D01*
X152856753Y-83132704D01*
X152835287Y-83132494D01*
X152813945Y-83130180D01*
X152381832Y-83061740D01*
X152360819Y-83057345D01*
X152340339Y-83050912D01*
X152320587Y-83042503D01*
X152301755Y-83032198D01*
X152284024Y-83020097D01*
X152267564Y-83006316D01*
X152252535Y-82990988D01*
X152239080Y-82974261D01*
X152227329Y-82956296D01*
X152217396Y-82937265D01*
X152209376Y-82917352D01*
X152203346Y-82896749D01*
X152199365Y-82875654D01*
X152197471Y-82854271D01*
X152197681Y-82832805D01*
X152199995Y-82811463D01*
X152280168Y-82305273D01*
X152284563Y-82284260D01*
X152290996Y-82263780D01*
X152299405Y-82244028D01*
X152309710Y-82225196D01*
X152321811Y-82207465D01*
X152335592Y-82191005D01*
X152350920Y-82175975D01*
X152367647Y-82162520D01*
X152385613Y-82150770D01*
X152404643Y-82140837D01*
X152424556Y-82132817D01*
X152445159Y-82126787D01*
X152466254Y-82122806D01*
X152487637Y-82120912D01*
X152509103Y-82121122D01*
X152509103Y-82121122D01*
G37*
D11*
X152672195Y-82626808D03*
D10*
G36*
X155477691Y-64726053D02*
G01*
X155498926Y-64729203D01*
X155519750Y-64734419D01*
X155539962Y-64741651D01*
X155559368Y-64750830D01*
X155577781Y-64761866D01*
X155595024Y-64774654D01*
X155610930Y-64789070D01*
X155625346Y-64804976D01*
X155638134Y-64822219D01*
X155649170Y-64840632D01*
X155658349Y-64860038D01*
X155665581Y-64880250D01*
X155670797Y-64901074D01*
X155673947Y-64922309D01*
X155675000Y-64943750D01*
X155675000Y-65456250D01*
X155673947Y-65477691D01*
X155670797Y-65498926D01*
X155665581Y-65519750D01*
X155658349Y-65539962D01*
X155649170Y-65559368D01*
X155638134Y-65577781D01*
X155625346Y-65595024D01*
X155610930Y-65610930D01*
X155595024Y-65625346D01*
X155577781Y-65638134D01*
X155559368Y-65649170D01*
X155539962Y-65658349D01*
X155519750Y-65665581D01*
X155498926Y-65670797D01*
X155477691Y-65673947D01*
X155456250Y-65675000D01*
X155018750Y-65675000D01*
X154997309Y-65673947D01*
X154976074Y-65670797D01*
X154955250Y-65665581D01*
X154935038Y-65658349D01*
X154915632Y-65649170D01*
X154897219Y-65638134D01*
X154879976Y-65625346D01*
X154864070Y-65610930D01*
X154849654Y-65595024D01*
X154836866Y-65577781D01*
X154825830Y-65559368D01*
X154816651Y-65539962D01*
X154809419Y-65519750D01*
X154804203Y-65498926D01*
X154801053Y-65477691D01*
X154800000Y-65456250D01*
X154800000Y-64943750D01*
X154801053Y-64922309D01*
X154804203Y-64901074D01*
X154809419Y-64880250D01*
X154816651Y-64860038D01*
X154825830Y-64840632D01*
X154836866Y-64822219D01*
X154849654Y-64804976D01*
X154864070Y-64789070D01*
X154879976Y-64774654D01*
X154897219Y-64761866D01*
X154915632Y-64750830D01*
X154935038Y-64741651D01*
X154955250Y-64734419D01*
X154976074Y-64729203D01*
X154997309Y-64726053D01*
X155018750Y-64725000D01*
X155456250Y-64725000D01*
X155477691Y-64726053D01*
X155477691Y-64726053D01*
G37*
D11*
X155237500Y-65200000D03*
D10*
G36*
X153902691Y-64726053D02*
G01*
X153923926Y-64729203D01*
X153944750Y-64734419D01*
X153964962Y-64741651D01*
X153984368Y-64750830D01*
X154002781Y-64761866D01*
X154020024Y-64774654D01*
X154035930Y-64789070D01*
X154050346Y-64804976D01*
X154063134Y-64822219D01*
X154074170Y-64840632D01*
X154083349Y-64860038D01*
X154090581Y-64880250D01*
X154095797Y-64901074D01*
X154098947Y-64922309D01*
X154100000Y-64943750D01*
X154100000Y-65456250D01*
X154098947Y-65477691D01*
X154095797Y-65498926D01*
X154090581Y-65519750D01*
X154083349Y-65539962D01*
X154074170Y-65559368D01*
X154063134Y-65577781D01*
X154050346Y-65595024D01*
X154035930Y-65610930D01*
X154020024Y-65625346D01*
X154002781Y-65638134D01*
X153984368Y-65649170D01*
X153964962Y-65658349D01*
X153944750Y-65665581D01*
X153923926Y-65670797D01*
X153902691Y-65673947D01*
X153881250Y-65675000D01*
X153443750Y-65675000D01*
X153422309Y-65673947D01*
X153401074Y-65670797D01*
X153380250Y-65665581D01*
X153360038Y-65658349D01*
X153340632Y-65649170D01*
X153322219Y-65638134D01*
X153304976Y-65625346D01*
X153289070Y-65610930D01*
X153274654Y-65595024D01*
X153261866Y-65577781D01*
X153250830Y-65559368D01*
X153241651Y-65539962D01*
X153234419Y-65519750D01*
X153229203Y-65498926D01*
X153226053Y-65477691D01*
X153225000Y-65456250D01*
X153225000Y-64943750D01*
X153226053Y-64922309D01*
X153229203Y-64901074D01*
X153234419Y-64880250D01*
X153241651Y-64860038D01*
X153250830Y-64840632D01*
X153261866Y-64822219D01*
X153274654Y-64804976D01*
X153289070Y-64789070D01*
X153304976Y-64774654D01*
X153322219Y-64761866D01*
X153340632Y-64750830D01*
X153360038Y-64741651D01*
X153380250Y-64734419D01*
X153401074Y-64729203D01*
X153422309Y-64726053D01*
X153443750Y-64725000D01*
X153881250Y-64725000D01*
X153902691Y-64726053D01*
X153902691Y-64726053D01*
G37*
D11*
X153662500Y-65200000D03*
D10*
G36*
X148727691Y-64251053D02*
G01*
X148748926Y-64254203D01*
X148769750Y-64259419D01*
X148789962Y-64266651D01*
X148809368Y-64275830D01*
X148827781Y-64286866D01*
X148845024Y-64299654D01*
X148860930Y-64314070D01*
X148875346Y-64329976D01*
X148888134Y-64347219D01*
X148899170Y-64365632D01*
X148908349Y-64385038D01*
X148915581Y-64405250D01*
X148920797Y-64426074D01*
X148923947Y-64447309D01*
X148925000Y-64468750D01*
X148925000Y-64906250D01*
X148923947Y-64927691D01*
X148920797Y-64948926D01*
X148915581Y-64969750D01*
X148908349Y-64989962D01*
X148899170Y-65009368D01*
X148888134Y-65027781D01*
X148875346Y-65045024D01*
X148860930Y-65060930D01*
X148845024Y-65075346D01*
X148827781Y-65088134D01*
X148809368Y-65099170D01*
X148789962Y-65108349D01*
X148769750Y-65115581D01*
X148748926Y-65120797D01*
X148727691Y-65123947D01*
X148706250Y-65125000D01*
X148193750Y-65125000D01*
X148172309Y-65123947D01*
X148151074Y-65120797D01*
X148130250Y-65115581D01*
X148110038Y-65108349D01*
X148090632Y-65099170D01*
X148072219Y-65088134D01*
X148054976Y-65075346D01*
X148039070Y-65060930D01*
X148024654Y-65045024D01*
X148011866Y-65027781D01*
X148000830Y-65009368D01*
X147991651Y-64989962D01*
X147984419Y-64969750D01*
X147979203Y-64948926D01*
X147976053Y-64927691D01*
X147975000Y-64906250D01*
X147975000Y-64468750D01*
X147976053Y-64447309D01*
X147979203Y-64426074D01*
X147984419Y-64405250D01*
X147991651Y-64385038D01*
X148000830Y-64365632D01*
X148011866Y-64347219D01*
X148024654Y-64329976D01*
X148039070Y-64314070D01*
X148054976Y-64299654D01*
X148072219Y-64286866D01*
X148090632Y-64275830D01*
X148110038Y-64266651D01*
X148130250Y-64259419D01*
X148151074Y-64254203D01*
X148172309Y-64251053D01*
X148193750Y-64250000D01*
X148706250Y-64250000D01*
X148727691Y-64251053D01*
X148727691Y-64251053D01*
G37*
D11*
X148450000Y-64687500D03*
D10*
G36*
X148727691Y-62676053D02*
G01*
X148748926Y-62679203D01*
X148769750Y-62684419D01*
X148789962Y-62691651D01*
X148809368Y-62700830D01*
X148827781Y-62711866D01*
X148845024Y-62724654D01*
X148860930Y-62739070D01*
X148875346Y-62754976D01*
X148888134Y-62772219D01*
X148899170Y-62790632D01*
X148908349Y-62810038D01*
X148915581Y-62830250D01*
X148920797Y-62851074D01*
X148923947Y-62872309D01*
X148925000Y-62893750D01*
X148925000Y-63331250D01*
X148923947Y-63352691D01*
X148920797Y-63373926D01*
X148915581Y-63394750D01*
X148908349Y-63414962D01*
X148899170Y-63434368D01*
X148888134Y-63452781D01*
X148875346Y-63470024D01*
X148860930Y-63485930D01*
X148845024Y-63500346D01*
X148827781Y-63513134D01*
X148809368Y-63524170D01*
X148789962Y-63533349D01*
X148769750Y-63540581D01*
X148748926Y-63545797D01*
X148727691Y-63548947D01*
X148706250Y-63550000D01*
X148193750Y-63550000D01*
X148172309Y-63548947D01*
X148151074Y-63545797D01*
X148130250Y-63540581D01*
X148110038Y-63533349D01*
X148090632Y-63524170D01*
X148072219Y-63513134D01*
X148054976Y-63500346D01*
X148039070Y-63485930D01*
X148024654Y-63470024D01*
X148011866Y-63452781D01*
X148000830Y-63434368D01*
X147991651Y-63414962D01*
X147984419Y-63394750D01*
X147979203Y-63373926D01*
X147976053Y-63352691D01*
X147975000Y-63331250D01*
X147975000Y-62893750D01*
X147976053Y-62872309D01*
X147979203Y-62851074D01*
X147984419Y-62830250D01*
X147991651Y-62810038D01*
X148000830Y-62790632D01*
X148011866Y-62772219D01*
X148024654Y-62754976D01*
X148039070Y-62739070D01*
X148054976Y-62724654D01*
X148072219Y-62711866D01*
X148090632Y-62700830D01*
X148110038Y-62691651D01*
X148130250Y-62684419D01*
X148151074Y-62679203D01*
X148172309Y-62676053D01*
X148193750Y-62675000D01*
X148706250Y-62675000D01*
X148727691Y-62676053D01*
X148727691Y-62676053D01*
G37*
D11*
X148450000Y-63112500D03*
D10*
G36*
X157627691Y-93176053D02*
G01*
X157648926Y-93179203D01*
X157669750Y-93184419D01*
X157689962Y-93191651D01*
X157709368Y-93200830D01*
X157727781Y-93211866D01*
X157745024Y-93224654D01*
X157760930Y-93239070D01*
X157775346Y-93254976D01*
X157788134Y-93272219D01*
X157799170Y-93290632D01*
X157808349Y-93310038D01*
X157815581Y-93330250D01*
X157820797Y-93351074D01*
X157823947Y-93372309D01*
X157825000Y-93393750D01*
X157825000Y-93906250D01*
X157823947Y-93927691D01*
X157820797Y-93948926D01*
X157815581Y-93969750D01*
X157808349Y-93989962D01*
X157799170Y-94009368D01*
X157788134Y-94027781D01*
X157775346Y-94045024D01*
X157760930Y-94060930D01*
X157745024Y-94075346D01*
X157727781Y-94088134D01*
X157709368Y-94099170D01*
X157689962Y-94108349D01*
X157669750Y-94115581D01*
X157648926Y-94120797D01*
X157627691Y-94123947D01*
X157606250Y-94125000D01*
X157168750Y-94125000D01*
X157147309Y-94123947D01*
X157126074Y-94120797D01*
X157105250Y-94115581D01*
X157085038Y-94108349D01*
X157065632Y-94099170D01*
X157047219Y-94088134D01*
X157029976Y-94075346D01*
X157014070Y-94060930D01*
X156999654Y-94045024D01*
X156986866Y-94027781D01*
X156975830Y-94009368D01*
X156966651Y-93989962D01*
X156959419Y-93969750D01*
X156954203Y-93948926D01*
X156951053Y-93927691D01*
X156950000Y-93906250D01*
X156950000Y-93393750D01*
X156951053Y-93372309D01*
X156954203Y-93351074D01*
X156959419Y-93330250D01*
X156966651Y-93310038D01*
X156975830Y-93290632D01*
X156986866Y-93272219D01*
X156999654Y-93254976D01*
X157014070Y-93239070D01*
X157029976Y-93224654D01*
X157047219Y-93211866D01*
X157065632Y-93200830D01*
X157085038Y-93191651D01*
X157105250Y-93184419D01*
X157126074Y-93179203D01*
X157147309Y-93176053D01*
X157168750Y-93175000D01*
X157606250Y-93175000D01*
X157627691Y-93176053D01*
X157627691Y-93176053D01*
G37*
D11*
X157387500Y-93650000D03*
D10*
G36*
X156052691Y-93176053D02*
G01*
X156073926Y-93179203D01*
X156094750Y-93184419D01*
X156114962Y-93191651D01*
X156134368Y-93200830D01*
X156152781Y-93211866D01*
X156170024Y-93224654D01*
X156185930Y-93239070D01*
X156200346Y-93254976D01*
X156213134Y-93272219D01*
X156224170Y-93290632D01*
X156233349Y-93310038D01*
X156240581Y-93330250D01*
X156245797Y-93351074D01*
X156248947Y-93372309D01*
X156250000Y-93393750D01*
X156250000Y-93906250D01*
X156248947Y-93927691D01*
X156245797Y-93948926D01*
X156240581Y-93969750D01*
X156233349Y-93989962D01*
X156224170Y-94009368D01*
X156213134Y-94027781D01*
X156200346Y-94045024D01*
X156185930Y-94060930D01*
X156170024Y-94075346D01*
X156152781Y-94088134D01*
X156134368Y-94099170D01*
X156114962Y-94108349D01*
X156094750Y-94115581D01*
X156073926Y-94120797D01*
X156052691Y-94123947D01*
X156031250Y-94125000D01*
X155593750Y-94125000D01*
X155572309Y-94123947D01*
X155551074Y-94120797D01*
X155530250Y-94115581D01*
X155510038Y-94108349D01*
X155490632Y-94099170D01*
X155472219Y-94088134D01*
X155454976Y-94075346D01*
X155439070Y-94060930D01*
X155424654Y-94045024D01*
X155411866Y-94027781D01*
X155400830Y-94009368D01*
X155391651Y-93989962D01*
X155384419Y-93969750D01*
X155379203Y-93948926D01*
X155376053Y-93927691D01*
X155375000Y-93906250D01*
X155375000Y-93393750D01*
X155376053Y-93372309D01*
X155379203Y-93351074D01*
X155384419Y-93330250D01*
X155391651Y-93310038D01*
X155400830Y-93290632D01*
X155411866Y-93272219D01*
X155424654Y-93254976D01*
X155439070Y-93239070D01*
X155454976Y-93224654D01*
X155472219Y-93211866D01*
X155490632Y-93200830D01*
X155510038Y-93191651D01*
X155530250Y-93184419D01*
X155551074Y-93179203D01*
X155572309Y-93176053D01*
X155593750Y-93175000D01*
X156031250Y-93175000D01*
X156052691Y-93176053D01*
X156052691Y-93176053D01*
G37*
D11*
X155812500Y-93650000D03*
D10*
G36*
X149252691Y-95826053D02*
G01*
X149273926Y-95829203D01*
X149294750Y-95834419D01*
X149314962Y-95841651D01*
X149334368Y-95850830D01*
X149352781Y-95861866D01*
X149370024Y-95874654D01*
X149385930Y-95889070D01*
X149400346Y-95904976D01*
X149413134Y-95922219D01*
X149424170Y-95940632D01*
X149433349Y-95960038D01*
X149440581Y-95980250D01*
X149445797Y-96001074D01*
X149448947Y-96022309D01*
X149450000Y-96043750D01*
X149450000Y-96556250D01*
X149448947Y-96577691D01*
X149445797Y-96598926D01*
X149440581Y-96619750D01*
X149433349Y-96639962D01*
X149424170Y-96659368D01*
X149413134Y-96677781D01*
X149400346Y-96695024D01*
X149385930Y-96710930D01*
X149370024Y-96725346D01*
X149352781Y-96738134D01*
X149334368Y-96749170D01*
X149314962Y-96758349D01*
X149294750Y-96765581D01*
X149273926Y-96770797D01*
X149252691Y-96773947D01*
X149231250Y-96775000D01*
X148793750Y-96775000D01*
X148772309Y-96773947D01*
X148751074Y-96770797D01*
X148730250Y-96765581D01*
X148710038Y-96758349D01*
X148690632Y-96749170D01*
X148672219Y-96738134D01*
X148654976Y-96725346D01*
X148639070Y-96710930D01*
X148624654Y-96695024D01*
X148611866Y-96677781D01*
X148600830Y-96659368D01*
X148591651Y-96639962D01*
X148584419Y-96619750D01*
X148579203Y-96598926D01*
X148576053Y-96577691D01*
X148575000Y-96556250D01*
X148575000Y-96043750D01*
X148576053Y-96022309D01*
X148579203Y-96001074D01*
X148584419Y-95980250D01*
X148591651Y-95960038D01*
X148600830Y-95940632D01*
X148611866Y-95922219D01*
X148624654Y-95904976D01*
X148639070Y-95889070D01*
X148654976Y-95874654D01*
X148672219Y-95861866D01*
X148690632Y-95850830D01*
X148710038Y-95841651D01*
X148730250Y-95834419D01*
X148751074Y-95829203D01*
X148772309Y-95826053D01*
X148793750Y-95825000D01*
X149231250Y-95825000D01*
X149252691Y-95826053D01*
X149252691Y-95826053D01*
G37*
D11*
X149012500Y-96300000D03*
D10*
G36*
X150827691Y-95826053D02*
G01*
X150848926Y-95829203D01*
X150869750Y-95834419D01*
X150889962Y-95841651D01*
X150909368Y-95850830D01*
X150927781Y-95861866D01*
X150945024Y-95874654D01*
X150960930Y-95889070D01*
X150975346Y-95904976D01*
X150988134Y-95922219D01*
X150999170Y-95940632D01*
X151008349Y-95960038D01*
X151015581Y-95980250D01*
X151020797Y-96001074D01*
X151023947Y-96022309D01*
X151025000Y-96043750D01*
X151025000Y-96556250D01*
X151023947Y-96577691D01*
X151020797Y-96598926D01*
X151015581Y-96619750D01*
X151008349Y-96639962D01*
X150999170Y-96659368D01*
X150988134Y-96677781D01*
X150975346Y-96695024D01*
X150960930Y-96710930D01*
X150945024Y-96725346D01*
X150927781Y-96738134D01*
X150909368Y-96749170D01*
X150889962Y-96758349D01*
X150869750Y-96765581D01*
X150848926Y-96770797D01*
X150827691Y-96773947D01*
X150806250Y-96775000D01*
X150368750Y-96775000D01*
X150347309Y-96773947D01*
X150326074Y-96770797D01*
X150305250Y-96765581D01*
X150285038Y-96758349D01*
X150265632Y-96749170D01*
X150247219Y-96738134D01*
X150229976Y-96725346D01*
X150214070Y-96710930D01*
X150199654Y-96695024D01*
X150186866Y-96677781D01*
X150175830Y-96659368D01*
X150166651Y-96639962D01*
X150159419Y-96619750D01*
X150154203Y-96598926D01*
X150151053Y-96577691D01*
X150150000Y-96556250D01*
X150150000Y-96043750D01*
X150151053Y-96022309D01*
X150154203Y-96001074D01*
X150159419Y-95980250D01*
X150166651Y-95960038D01*
X150175830Y-95940632D01*
X150186866Y-95922219D01*
X150199654Y-95904976D01*
X150214070Y-95889070D01*
X150229976Y-95874654D01*
X150247219Y-95861866D01*
X150265632Y-95850830D01*
X150285038Y-95841651D01*
X150305250Y-95834419D01*
X150326074Y-95829203D01*
X150347309Y-95826053D01*
X150368750Y-95825000D01*
X150806250Y-95825000D01*
X150827691Y-95826053D01*
X150827691Y-95826053D01*
G37*
D11*
X150587500Y-96300000D03*
D10*
G36*
X166657620Y-55956674D02*
G01*
X166678946Y-55959128D01*
X166699930Y-55963660D01*
X166720368Y-55970227D01*
X166740064Y-55978765D01*
X166758828Y-55989193D01*
X166776480Y-56001410D01*
X166792849Y-56015298D01*
X166807778Y-56030724D01*
X166821123Y-56047539D01*
X166832756Y-56065581D01*
X167089006Y-56509419D01*
X167098814Y-56528514D01*
X167106704Y-56548479D01*
X167112599Y-56569121D01*
X167116442Y-56590241D01*
X167118196Y-56611637D01*
X167117845Y-56633101D01*
X167115391Y-56654427D01*
X167110859Y-56675411D01*
X167104292Y-56695849D01*
X167095754Y-56715545D01*
X167085326Y-56734309D01*
X167073109Y-56751961D01*
X167059221Y-56768330D01*
X167043795Y-56783259D01*
X167026980Y-56796604D01*
X167008938Y-56808237D01*
X166630052Y-57026987D01*
X166610957Y-57036795D01*
X166590992Y-57044685D01*
X166570350Y-57050580D01*
X166549230Y-57054423D01*
X166527834Y-57056177D01*
X166506370Y-57055826D01*
X166485044Y-57053372D01*
X166464060Y-57048840D01*
X166443622Y-57042273D01*
X166423926Y-57033735D01*
X166405162Y-57023307D01*
X166387510Y-57011090D01*
X166371141Y-56997202D01*
X166356212Y-56981776D01*
X166342867Y-56964961D01*
X166331234Y-56946919D01*
X166074984Y-56503081D01*
X166065176Y-56483986D01*
X166057286Y-56464021D01*
X166051391Y-56443379D01*
X166047548Y-56422259D01*
X166045794Y-56400863D01*
X166046145Y-56379399D01*
X166048599Y-56358073D01*
X166053131Y-56337089D01*
X166059698Y-56316651D01*
X166068236Y-56296955D01*
X166078664Y-56278191D01*
X166090881Y-56260539D01*
X166104769Y-56244170D01*
X166120195Y-56229241D01*
X166137010Y-56215896D01*
X166155052Y-56204263D01*
X166533938Y-55985513D01*
X166553033Y-55975705D01*
X166572998Y-55967815D01*
X166593640Y-55961920D01*
X166614760Y-55958077D01*
X166636156Y-55956323D01*
X166657620Y-55956674D01*
X166657620Y-55956674D01*
G37*
D11*
X166581995Y-56506250D03*
D10*
G36*
X165293630Y-56744174D02*
G01*
X165314956Y-56746628D01*
X165335940Y-56751160D01*
X165356378Y-56757727D01*
X165376074Y-56766265D01*
X165394838Y-56776693D01*
X165412490Y-56788910D01*
X165428859Y-56802798D01*
X165443788Y-56818224D01*
X165457133Y-56835039D01*
X165468766Y-56853081D01*
X165725016Y-57296919D01*
X165734824Y-57316014D01*
X165742714Y-57335979D01*
X165748609Y-57356621D01*
X165752452Y-57377741D01*
X165754206Y-57399137D01*
X165753855Y-57420601D01*
X165751401Y-57441927D01*
X165746869Y-57462911D01*
X165740302Y-57483349D01*
X165731764Y-57503045D01*
X165721336Y-57521809D01*
X165709119Y-57539461D01*
X165695231Y-57555830D01*
X165679805Y-57570759D01*
X165662990Y-57584104D01*
X165644948Y-57595737D01*
X165266062Y-57814487D01*
X165246967Y-57824295D01*
X165227002Y-57832185D01*
X165206360Y-57838080D01*
X165185240Y-57841923D01*
X165163844Y-57843677D01*
X165142380Y-57843326D01*
X165121054Y-57840872D01*
X165100070Y-57836340D01*
X165079632Y-57829773D01*
X165059936Y-57821235D01*
X165041172Y-57810807D01*
X165023520Y-57798590D01*
X165007151Y-57784702D01*
X164992222Y-57769276D01*
X164978877Y-57752461D01*
X164967244Y-57734419D01*
X164710994Y-57290581D01*
X164701186Y-57271486D01*
X164693296Y-57251521D01*
X164687401Y-57230879D01*
X164683558Y-57209759D01*
X164681804Y-57188363D01*
X164682155Y-57166899D01*
X164684609Y-57145573D01*
X164689141Y-57124589D01*
X164695708Y-57104151D01*
X164704246Y-57084455D01*
X164714674Y-57065691D01*
X164726891Y-57048039D01*
X164740779Y-57031670D01*
X164756205Y-57016741D01*
X164773020Y-57003396D01*
X164791062Y-56991763D01*
X165169948Y-56773013D01*
X165189043Y-56763205D01*
X165209008Y-56755315D01*
X165229650Y-56749420D01*
X165250770Y-56745577D01*
X165272166Y-56743823D01*
X165293630Y-56744174D01*
X165293630Y-56744174D01*
G37*
D11*
X165218005Y-57293750D03*
D10*
G36*
X182712683Y-61771001D02*
G01*
X182734014Y-61773408D01*
X182755008Y-61777894D01*
X182775460Y-61784416D01*
X182795174Y-61792911D01*
X182813961Y-61803298D01*
X182831640Y-61815477D01*
X182848039Y-61829329D01*
X183222858Y-62178853D01*
X183237821Y-62194247D01*
X183251203Y-62211032D01*
X183262875Y-62229049D01*
X183272725Y-62248123D01*
X183280658Y-62268070D01*
X183286598Y-62288699D01*
X183290487Y-62309811D01*
X183292288Y-62331203D01*
X183291983Y-62352668D01*
X183289576Y-62373999D01*
X183285090Y-62394992D01*
X183278568Y-62415445D01*
X183270073Y-62435159D01*
X183259686Y-62453946D01*
X183247507Y-62471625D01*
X183233655Y-62488024D01*
X182935280Y-62807992D01*
X182919886Y-62822955D01*
X182903101Y-62836337D01*
X182885084Y-62848009D01*
X182866010Y-62857859D01*
X182846063Y-62865792D01*
X182825434Y-62871732D01*
X182804322Y-62875621D01*
X182782930Y-62877422D01*
X182761465Y-62877117D01*
X182740134Y-62874710D01*
X182719140Y-62870224D01*
X182698688Y-62863702D01*
X182678974Y-62855207D01*
X182660187Y-62844820D01*
X182642508Y-62832641D01*
X182626109Y-62818789D01*
X182251290Y-62469265D01*
X182236327Y-62453871D01*
X182222945Y-62437086D01*
X182211273Y-62419069D01*
X182201423Y-62399995D01*
X182193490Y-62380048D01*
X182187550Y-62359419D01*
X182183661Y-62338307D01*
X182181860Y-62316915D01*
X182182165Y-62295450D01*
X182184572Y-62274119D01*
X182189058Y-62253126D01*
X182195580Y-62232673D01*
X182204075Y-62212959D01*
X182214462Y-62194172D01*
X182226641Y-62176493D01*
X182240493Y-62160094D01*
X182538868Y-61840126D01*
X182554262Y-61825163D01*
X182571047Y-61811781D01*
X182589064Y-61800109D01*
X182608138Y-61790259D01*
X182628085Y-61782326D01*
X182648714Y-61776386D01*
X182669826Y-61772497D01*
X182691218Y-61770696D01*
X182712683Y-61771001D01*
X182712683Y-61771001D01*
G37*
D11*
X182737074Y-62324059D03*
D10*
G36*
X181638535Y-62922883D02*
G01*
X181659866Y-62925290D01*
X181680860Y-62929776D01*
X181701312Y-62936298D01*
X181721026Y-62944793D01*
X181739813Y-62955180D01*
X181757492Y-62967359D01*
X181773891Y-62981211D01*
X182148710Y-63330735D01*
X182163673Y-63346129D01*
X182177055Y-63362914D01*
X182188727Y-63380931D01*
X182198577Y-63400005D01*
X182206510Y-63419952D01*
X182212450Y-63440581D01*
X182216339Y-63461693D01*
X182218140Y-63483085D01*
X182217835Y-63504550D01*
X182215428Y-63525881D01*
X182210942Y-63546874D01*
X182204420Y-63567327D01*
X182195925Y-63587041D01*
X182185538Y-63605828D01*
X182173359Y-63623507D01*
X182159507Y-63639906D01*
X181861132Y-63959874D01*
X181845738Y-63974837D01*
X181828953Y-63988219D01*
X181810936Y-63999891D01*
X181791862Y-64009741D01*
X181771915Y-64017674D01*
X181751286Y-64023614D01*
X181730174Y-64027503D01*
X181708782Y-64029304D01*
X181687317Y-64028999D01*
X181665986Y-64026592D01*
X181644992Y-64022106D01*
X181624540Y-64015584D01*
X181604826Y-64007089D01*
X181586039Y-63996702D01*
X181568360Y-63984523D01*
X181551961Y-63970671D01*
X181177142Y-63621147D01*
X181162179Y-63605753D01*
X181148797Y-63588968D01*
X181137125Y-63570951D01*
X181127275Y-63551877D01*
X181119342Y-63531930D01*
X181113402Y-63511301D01*
X181109513Y-63490189D01*
X181107712Y-63468797D01*
X181108017Y-63447332D01*
X181110424Y-63426001D01*
X181114910Y-63405008D01*
X181121432Y-63384555D01*
X181129927Y-63364841D01*
X181140314Y-63346054D01*
X181152493Y-63328375D01*
X181166345Y-63311976D01*
X181464720Y-62992008D01*
X181480114Y-62977045D01*
X181496899Y-62963663D01*
X181514916Y-62951991D01*
X181533990Y-62942141D01*
X181553937Y-62934208D01*
X181574566Y-62928268D01*
X181595678Y-62924379D01*
X181617070Y-62922578D01*
X181638535Y-62922883D01*
X181638535Y-62922883D01*
G37*
D11*
X181662926Y-63475941D03*
D10*
G36*
X152427691Y-88238553D02*
G01*
X152448926Y-88241703D01*
X152469750Y-88246919D01*
X152489962Y-88254151D01*
X152509368Y-88263330D01*
X152527781Y-88274366D01*
X152545024Y-88287154D01*
X152560930Y-88301570D01*
X152575346Y-88317476D01*
X152588134Y-88334719D01*
X152599170Y-88353132D01*
X152608349Y-88372538D01*
X152615581Y-88392750D01*
X152620797Y-88413574D01*
X152623947Y-88434809D01*
X152625000Y-88456250D01*
X152625000Y-88893750D01*
X152623947Y-88915191D01*
X152620797Y-88936426D01*
X152615581Y-88957250D01*
X152608349Y-88977462D01*
X152599170Y-88996868D01*
X152588134Y-89015281D01*
X152575346Y-89032524D01*
X152560930Y-89048430D01*
X152545024Y-89062846D01*
X152527781Y-89075634D01*
X152509368Y-89086670D01*
X152489962Y-89095849D01*
X152469750Y-89103081D01*
X152448926Y-89108297D01*
X152427691Y-89111447D01*
X152406250Y-89112500D01*
X151893750Y-89112500D01*
X151872309Y-89111447D01*
X151851074Y-89108297D01*
X151830250Y-89103081D01*
X151810038Y-89095849D01*
X151790632Y-89086670D01*
X151772219Y-89075634D01*
X151754976Y-89062846D01*
X151739070Y-89048430D01*
X151724654Y-89032524D01*
X151711866Y-89015281D01*
X151700830Y-88996868D01*
X151691651Y-88977462D01*
X151684419Y-88957250D01*
X151679203Y-88936426D01*
X151676053Y-88915191D01*
X151675000Y-88893750D01*
X151675000Y-88456250D01*
X151676053Y-88434809D01*
X151679203Y-88413574D01*
X151684419Y-88392750D01*
X151691651Y-88372538D01*
X151700830Y-88353132D01*
X151711866Y-88334719D01*
X151724654Y-88317476D01*
X151739070Y-88301570D01*
X151754976Y-88287154D01*
X151772219Y-88274366D01*
X151790632Y-88263330D01*
X151810038Y-88254151D01*
X151830250Y-88246919D01*
X151851074Y-88241703D01*
X151872309Y-88238553D01*
X151893750Y-88237500D01*
X152406250Y-88237500D01*
X152427691Y-88238553D01*
X152427691Y-88238553D01*
G37*
D11*
X152150000Y-88675000D03*
D10*
G36*
X152427691Y-89813553D02*
G01*
X152448926Y-89816703D01*
X152469750Y-89821919D01*
X152489962Y-89829151D01*
X152509368Y-89838330D01*
X152527781Y-89849366D01*
X152545024Y-89862154D01*
X152560930Y-89876570D01*
X152575346Y-89892476D01*
X152588134Y-89909719D01*
X152599170Y-89928132D01*
X152608349Y-89947538D01*
X152615581Y-89967750D01*
X152620797Y-89988574D01*
X152623947Y-90009809D01*
X152625000Y-90031250D01*
X152625000Y-90468750D01*
X152623947Y-90490191D01*
X152620797Y-90511426D01*
X152615581Y-90532250D01*
X152608349Y-90552462D01*
X152599170Y-90571868D01*
X152588134Y-90590281D01*
X152575346Y-90607524D01*
X152560930Y-90623430D01*
X152545024Y-90637846D01*
X152527781Y-90650634D01*
X152509368Y-90661670D01*
X152489962Y-90670849D01*
X152469750Y-90678081D01*
X152448926Y-90683297D01*
X152427691Y-90686447D01*
X152406250Y-90687500D01*
X151893750Y-90687500D01*
X151872309Y-90686447D01*
X151851074Y-90683297D01*
X151830250Y-90678081D01*
X151810038Y-90670849D01*
X151790632Y-90661670D01*
X151772219Y-90650634D01*
X151754976Y-90637846D01*
X151739070Y-90623430D01*
X151724654Y-90607524D01*
X151711866Y-90590281D01*
X151700830Y-90571868D01*
X151691651Y-90552462D01*
X151684419Y-90532250D01*
X151679203Y-90511426D01*
X151676053Y-90490191D01*
X151675000Y-90468750D01*
X151675000Y-90031250D01*
X151676053Y-90009809D01*
X151679203Y-89988574D01*
X151684419Y-89967750D01*
X151691651Y-89947538D01*
X151700830Y-89928132D01*
X151711866Y-89909719D01*
X151724654Y-89892476D01*
X151739070Y-89876570D01*
X151754976Y-89862154D01*
X151772219Y-89849366D01*
X151790632Y-89838330D01*
X151810038Y-89829151D01*
X151830250Y-89821919D01*
X151851074Y-89816703D01*
X151872309Y-89813553D01*
X151893750Y-89812500D01*
X152406250Y-89812500D01*
X152427691Y-89813553D01*
X152427691Y-89813553D01*
G37*
D11*
X152150000Y-90250000D03*
D10*
G36*
X150777691Y-62976053D02*
G01*
X150798926Y-62979203D01*
X150819750Y-62984419D01*
X150839962Y-62991651D01*
X150859368Y-63000830D01*
X150877781Y-63011866D01*
X150895024Y-63024654D01*
X150910930Y-63039070D01*
X150925346Y-63054976D01*
X150938134Y-63072219D01*
X150949170Y-63090632D01*
X150958349Y-63110038D01*
X150965581Y-63130250D01*
X150970797Y-63151074D01*
X150973947Y-63172309D01*
X150975000Y-63193750D01*
X150975000Y-63631250D01*
X150973947Y-63652691D01*
X150970797Y-63673926D01*
X150965581Y-63694750D01*
X150958349Y-63714962D01*
X150949170Y-63734368D01*
X150938134Y-63752781D01*
X150925346Y-63770024D01*
X150910930Y-63785930D01*
X150895024Y-63800346D01*
X150877781Y-63813134D01*
X150859368Y-63824170D01*
X150839962Y-63833349D01*
X150819750Y-63840581D01*
X150798926Y-63845797D01*
X150777691Y-63848947D01*
X150756250Y-63850000D01*
X150243750Y-63850000D01*
X150222309Y-63848947D01*
X150201074Y-63845797D01*
X150180250Y-63840581D01*
X150160038Y-63833349D01*
X150140632Y-63824170D01*
X150122219Y-63813134D01*
X150104976Y-63800346D01*
X150089070Y-63785930D01*
X150074654Y-63770024D01*
X150061866Y-63752781D01*
X150050830Y-63734368D01*
X150041651Y-63714962D01*
X150034419Y-63694750D01*
X150029203Y-63673926D01*
X150026053Y-63652691D01*
X150025000Y-63631250D01*
X150025000Y-63193750D01*
X150026053Y-63172309D01*
X150029203Y-63151074D01*
X150034419Y-63130250D01*
X150041651Y-63110038D01*
X150050830Y-63090632D01*
X150061866Y-63072219D01*
X150074654Y-63054976D01*
X150089070Y-63039070D01*
X150104976Y-63024654D01*
X150122219Y-63011866D01*
X150140632Y-63000830D01*
X150160038Y-62991651D01*
X150180250Y-62984419D01*
X150201074Y-62979203D01*
X150222309Y-62976053D01*
X150243750Y-62975000D01*
X150756250Y-62975000D01*
X150777691Y-62976053D01*
X150777691Y-62976053D01*
G37*
D11*
X150500000Y-63412500D03*
D10*
G36*
X150777691Y-64551053D02*
G01*
X150798926Y-64554203D01*
X150819750Y-64559419D01*
X150839962Y-64566651D01*
X150859368Y-64575830D01*
X150877781Y-64586866D01*
X150895024Y-64599654D01*
X150910930Y-64614070D01*
X150925346Y-64629976D01*
X150938134Y-64647219D01*
X150949170Y-64665632D01*
X150958349Y-64685038D01*
X150965581Y-64705250D01*
X150970797Y-64726074D01*
X150973947Y-64747309D01*
X150975000Y-64768750D01*
X150975000Y-65206250D01*
X150973947Y-65227691D01*
X150970797Y-65248926D01*
X150965581Y-65269750D01*
X150958349Y-65289962D01*
X150949170Y-65309368D01*
X150938134Y-65327781D01*
X150925346Y-65345024D01*
X150910930Y-65360930D01*
X150895024Y-65375346D01*
X150877781Y-65388134D01*
X150859368Y-65399170D01*
X150839962Y-65408349D01*
X150819750Y-65415581D01*
X150798926Y-65420797D01*
X150777691Y-65423947D01*
X150756250Y-65425000D01*
X150243750Y-65425000D01*
X150222309Y-65423947D01*
X150201074Y-65420797D01*
X150180250Y-65415581D01*
X150160038Y-65408349D01*
X150140632Y-65399170D01*
X150122219Y-65388134D01*
X150104976Y-65375346D01*
X150089070Y-65360930D01*
X150074654Y-65345024D01*
X150061866Y-65327781D01*
X150050830Y-65309368D01*
X150041651Y-65289962D01*
X150034419Y-65269750D01*
X150029203Y-65248926D01*
X150026053Y-65227691D01*
X150025000Y-65206250D01*
X150025000Y-64768750D01*
X150026053Y-64747309D01*
X150029203Y-64726074D01*
X150034419Y-64705250D01*
X150041651Y-64685038D01*
X150050830Y-64665632D01*
X150061866Y-64647219D01*
X150074654Y-64629976D01*
X150089070Y-64614070D01*
X150104976Y-64599654D01*
X150122219Y-64586866D01*
X150140632Y-64575830D01*
X150160038Y-64566651D01*
X150180250Y-64559419D01*
X150201074Y-64554203D01*
X150222309Y-64551053D01*
X150243750Y-64550000D01*
X150756250Y-64550000D01*
X150777691Y-64551053D01*
X150777691Y-64551053D01*
G37*
D11*
X150500000Y-64987500D03*
D10*
G36*
X150802691Y-93626053D02*
G01*
X150823926Y-93629203D01*
X150844750Y-93634419D01*
X150864962Y-93641651D01*
X150884368Y-93650830D01*
X150902781Y-93661866D01*
X150920024Y-93674654D01*
X150935930Y-93689070D01*
X150950346Y-93704976D01*
X150963134Y-93722219D01*
X150974170Y-93740632D01*
X150983349Y-93760038D01*
X150990581Y-93780250D01*
X150995797Y-93801074D01*
X150998947Y-93822309D01*
X151000000Y-93843750D01*
X151000000Y-94356250D01*
X150998947Y-94377691D01*
X150995797Y-94398926D01*
X150990581Y-94419750D01*
X150983349Y-94439962D01*
X150974170Y-94459368D01*
X150963134Y-94477781D01*
X150950346Y-94495024D01*
X150935930Y-94510930D01*
X150920024Y-94525346D01*
X150902781Y-94538134D01*
X150884368Y-94549170D01*
X150864962Y-94558349D01*
X150844750Y-94565581D01*
X150823926Y-94570797D01*
X150802691Y-94573947D01*
X150781250Y-94575000D01*
X150343750Y-94575000D01*
X150322309Y-94573947D01*
X150301074Y-94570797D01*
X150280250Y-94565581D01*
X150260038Y-94558349D01*
X150240632Y-94549170D01*
X150222219Y-94538134D01*
X150204976Y-94525346D01*
X150189070Y-94510930D01*
X150174654Y-94495024D01*
X150161866Y-94477781D01*
X150150830Y-94459368D01*
X150141651Y-94439962D01*
X150134419Y-94419750D01*
X150129203Y-94398926D01*
X150126053Y-94377691D01*
X150125000Y-94356250D01*
X150125000Y-93843750D01*
X150126053Y-93822309D01*
X150129203Y-93801074D01*
X150134419Y-93780250D01*
X150141651Y-93760038D01*
X150150830Y-93740632D01*
X150161866Y-93722219D01*
X150174654Y-93704976D01*
X150189070Y-93689070D01*
X150204976Y-93674654D01*
X150222219Y-93661866D01*
X150240632Y-93650830D01*
X150260038Y-93641651D01*
X150280250Y-93634419D01*
X150301074Y-93629203D01*
X150322309Y-93626053D01*
X150343750Y-93625000D01*
X150781250Y-93625000D01*
X150802691Y-93626053D01*
X150802691Y-93626053D01*
G37*
D11*
X150562500Y-94100000D03*
D10*
G36*
X152377691Y-93626053D02*
G01*
X152398926Y-93629203D01*
X152419750Y-93634419D01*
X152439962Y-93641651D01*
X152459368Y-93650830D01*
X152477781Y-93661866D01*
X152495024Y-93674654D01*
X152510930Y-93689070D01*
X152525346Y-93704976D01*
X152538134Y-93722219D01*
X152549170Y-93740632D01*
X152558349Y-93760038D01*
X152565581Y-93780250D01*
X152570797Y-93801074D01*
X152573947Y-93822309D01*
X152575000Y-93843750D01*
X152575000Y-94356250D01*
X152573947Y-94377691D01*
X152570797Y-94398926D01*
X152565581Y-94419750D01*
X152558349Y-94439962D01*
X152549170Y-94459368D01*
X152538134Y-94477781D01*
X152525346Y-94495024D01*
X152510930Y-94510930D01*
X152495024Y-94525346D01*
X152477781Y-94538134D01*
X152459368Y-94549170D01*
X152439962Y-94558349D01*
X152419750Y-94565581D01*
X152398926Y-94570797D01*
X152377691Y-94573947D01*
X152356250Y-94575000D01*
X151918750Y-94575000D01*
X151897309Y-94573947D01*
X151876074Y-94570797D01*
X151855250Y-94565581D01*
X151835038Y-94558349D01*
X151815632Y-94549170D01*
X151797219Y-94538134D01*
X151779976Y-94525346D01*
X151764070Y-94510930D01*
X151749654Y-94495024D01*
X151736866Y-94477781D01*
X151725830Y-94459368D01*
X151716651Y-94439962D01*
X151709419Y-94419750D01*
X151704203Y-94398926D01*
X151701053Y-94377691D01*
X151700000Y-94356250D01*
X151700000Y-93843750D01*
X151701053Y-93822309D01*
X151704203Y-93801074D01*
X151709419Y-93780250D01*
X151716651Y-93760038D01*
X151725830Y-93740632D01*
X151736866Y-93722219D01*
X151749654Y-93704976D01*
X151764070Y-93689070D01*
X151779976Y-93674654D01*
X151797219Y-93661866D01*
X151815632Y-93650830D01*
X151835038Y-93641651D01*
X151855250Y-93634419D01*
X151876074Y-93629203D01*
X151897309Y-93626053D01*
X151918750Y-93625000D01*
X152356250Y-93625000D01*
X152377691Y-93626053D01*
X152377691Y-93626053D01*
G37*
D11*
X152137500Y-94100000D03*
D12*
X98400000Y-141650000D03*
X98400000Y-138850000D03*
D13*
X80200000Y-120550000D03*
X83000000Y-120550000D03*
D10*
G36*
X88527691Y-114526053D02*
G01*
X88548926Y-114529203D01*
X88569750Y-114534419D01*
X88589962Y-114541651D01*
X88609368Y-114550830D01*
X88627781Y-114561866D01*
X88645024Y-114574654D01*
X88660930Y-114589070D01*
X88675346Y-114604976D01*
X88688134Y-114622219D01*
X88699170Y-114640632D01*
X88708349Y-114660038D01*
X88715581Y-114680250D01*
X88720797Y-114701074D01*
X88723947Y-114722309D01*
X88725000Y-114743750D01*
X88725000Y-115181250D01*
X88723947Y-115202691D01*
X88720797Y-115223926D01*
X88715581Y-115244750D01*
X88708349Y-115264962D01*
X88699170Y-115284368D01*
X88688134Y-115302781D01*
X88675346Y-115320024D01*
X88660930Y-115335930D01*
X88645024Y-115350346D01*
X88627781Y-115363134D01*
X88609368Y-115374170D01*
X88589962Y-115383349D01*
X88569750Y-115390581D01*
X88548926Y-115395797D01*
X88527691Y-115398947D01*
X88506250Y-115400000D01*
X87993750Y-115400000D01*
X87972309Y-115398947D01*
X87951074Y-115395797D01*
X87930250Y-115390581D01*
X87910038Y-115383349D01*
X87890632Y-115374170D01*
X87872219Y-115363134D01*
X87854976Y-115350346D01*
X87839070Y-115335930D01*
X87824654Y-115320024D01*
X87811866Y-115302781D01*
X87800830Y-115284368D01*
X87791651Y-115264962D01*
X87784419Y-115244750D01*
X87779203Y-115223926D01*
X87776053Y-115202691D01*
X87775000Y-115181250D01*
X87775000Y-114743750D01*
X87776053Y-114722309D01*
X87779203Y-114701074D01*
X87784419Y-114680250D01*
X87791651Y-114660038D01*
X87800830Y-114640632D01*
X87811866Y-114622219D01*
X87824654Y-114604976D01*
X87839070Y-114589070D01*
X87854976Y-114574654D01*
X87872219Y-114561866D01*
X87890632Y-114550830D01*
X87910038Y-114541651D01*
X87930250Y-114534419D01*
X87951074Y-114529203D01*
X87972309Y-114526053D01*
X87993750Y-114525000D01*
X88506250Y-114525000D01*
X88527691Y-114526053D01*
X88527691Y-114526053D01*
G37*
D11*
X88250000Y-114962500D03*
D10*
G36*
X88527691Y-116101053D02*
G01*
X88548926Y-116104203D01*
X88569750Y-116109419D01*
X88589962Y-116116651D01*
X88609368Y-116125830D01*
X88627781Y-116136866D01*
X88645024Y-116149654D01*
X88660930Y-116164070D01*
X88675346Y-116179976D01*
X88688134Y-116197219D01*
X88699170Y-116215632D01*
X88708349Y-116235038D01*
X88715581Y-116255250D01*
X88720797Y-116276074D01*
X88723947Y-116297309D01*
X88725000Y-116318750D01*
X88725000Y-116756250D01*
X88723947Y-116777691D01*
X88720797Y-116798926D01*
X88715581Y-116819750D01*
X88708349Y-116839962D01*
X88699170Y-116859368D01*
X88688134Y-116877781D01*
X88675346Y-116895024D01*
X88660930Y-116910930D01*
X88645024Y-116925346D01*
X88627781Y-116938134D01*
X88609368Y-116949170D01*
X88589962Y-116958349D01*
X88569750Y-116965581D01*
X88548926Y-116970797D01*
X88527691Y-116973947D01*
X88506250Y-116975000D01*
X87993750Y-116975000D01*
X87972309Y-116973947D01*
X87951074Y-116970797D01*
X87930250Y-116965581D01*
X87910038Y-116958349D01*
X87890632Y-116949170D01*
X87872219Y-116938134D01*
X87854976Y-116925346D01*
X87839070Y-116910930D01*
X87824654Y-116895024D01*
X87811866Y-116877781D01*
X87800830Y-116859368D01*
X87791651Y-116839962D01*
X87784419Y-116819750D01*
X87779203Y-116798926D01*
X87776053Y-116777691D01*
X87775000Y-116756250D01*
X87775000Y-116318750D01*
X87776053Y-116297309D01*
X87779203Y-116276074D01*
X87784419Y-116255250D01*
X87791651Y-116235038D01*
X87800830Y-116215632D01*
X87811866Y-116197219D01*
X87824654Y-116179976D01*
X87839070Y-116164070D01*
X87854976Y-116149654D01*
X87872219Y-116136866D01*
X87890632Y-116125830D01*
X87910038Y-116116651D01*
X87930250Y-116109419D01*
X87951074Y-116104203D01*
X87972309Y-116101053D01*
X87993750Y-116100000D01*
X88506250Y-116100000D01*
X88527691Y-116101053D01*
X88527691Y-116101053D01*
G37*
D11*
X88250000Y-116537500D03*
D10*
G36*
X90027691Y-114526053D02*
G01*
X90048926Y-114529203D01*
X90069750Y-114534419D01*
X90089962Y-114541651D01*
X90109368Y-114550830D01*
X90127781Y-114561866D01*
X90145024Y-114574654D01*
X90160930Y-114589070D01*
X90175346Y-114604976D01*
X90188134Y-114622219D01*
X90199170Y-114640632D01*
X90208349Y-114660038D01*
X90215581Y-114680250D01*
X90220797Y-114701074D01*
X90223947Y-114722309D01*
X90225000Y-114743750D01*
X90225000Y-115181250D01*
X90223947Y-115202691D01*
X90220797Y-115223926D01*
X90215581Y-115244750D01*
X90208349Y-115264962D01*
X90199170Y-115284368D01*
X90188134Y-115302781D01*
X90175346Y-115320024D01*
X90160930Y-115335930D01*
X90145024Y-115350346D01*
X90127781Y-115363134D01*
X90109368Y-115374170D01*
X90089962Y-115383349D01*
X90069750Y-115390581D01*
X90048926Y-115395797D01*
X90027691Y-115398947D01*
X90006250Y-115400000D01*
X89493750Y-115400000D01*
X89472309Y-115398947D01*
X89451074Y-115395797D01*
X89430250Y-115390581D01*
X89410038Y-115383349D01*
X89390632Y-115374170D01*
X89372219Y-115363134D01*
X89354976Y-115350346D01*
X89339070Y-115335930D01*
X89324654Y-115320024D01*
X89311866Y-115302781D01*
X89300830Y-115284368D01*
X89291651Y-115264962D01*
X89284419Y-115244750D01*
X89279203Y-115223926D01*
X89276053Y-115202691D01*
X89275000Y-115181250D01*
X89275000Y-114743750D01*
X89276053Y-114722309D01*
X89279203Y-114701074D01*
X89284419Y-114680250D01*
X89291651Y-114660038D01*
X89300830Y-114640632D01*
X89311866Y-114622219D01*
X89324654Y-114604976D01*
X89339070Y-114589070D01*
X89354976Y-114574654D01*
X89372219Y-114561866D01*
X89390632Y-114550830D01*
X89410038Y-114541651D01*
X89430250Y-114534419D01*
X89451074Y-114529203D01*
X89472309Y-114526053D01*
X89493750Y-114525000D01*
X90006250Y-114525000D01*
X90027691Y-114526053D01*
X90027691Y-114526053D01*
G37*
D11*
X89750000Y-114962500D03*
D10*
G36*
X90027691Y-116101053D02*
G01*
X90048926Y-116104203D01*
X90069750Y-116109419D01*
X90089962Y-116116651D01*
X90109368Y-116125830D01*
X90127781Y-116136866D01*
X90145024Y-116149654D01*
X90160930Y-116164070D01*
X90175346Y-116179976D01*
X90188134Y-116197219D01*
X90199170Y-116215632D01*
X90208349Y-116235038D01*
X90215581Y-116255250D01*
X90220797Y-116276074D01*
X90223947Y-116297309D01*
X90225000Y-116318750D01*
X90225000Y-116756250D01*
X90223947Y-116777691D01*
X90220797Y-116798926D01*
X90215581Y-116819750D01*
X90208349Y-116839962D01*
X90199170Y-116859368D01*
X90188134Y-116877781D01*
X90175346Y-116895024D01*
X90160930Y-116910930D01*
X90145024Y-116925346D01*
X90127781Y-116938134D01*
X90109368Y-116949170D01*
X90089962Y-116958349D01*
X90069750Y-116965581D01*
X90048926Y-116970797D01*
X90027691Y-116973947D01*
X90006250Y-116975000D01*
X89493750Y-116975000D01*
X89472309Y-116973947D01*
X89451074Y-116970797D01*
X89430250Y-116965581D01*
X89410038Y-116958349D01*
X89390632Y-116949170D01*
X89372219Y-116938134D01*
X89354976Y-116925346D01*
X89339070Y-116910930D01*
X89324654Y-116895024D01*
X89311866Y-116877781D01*
X89300830Y-116859368D01*
X89291651Y-116839962D01*
X89284419Y-116819750D01*
X89279203Y-116798926D01*
X89276053Y-116777691D01*
X89275000Y-116756250D01*
X89275000Y-116318750D01*
X89276053Y-116297309D01*
X89279203Y-116276074D01*
X89284419Y-116255250D01*
X89291651Y-116235038D01*
X89300830Y-116215632D01*
X89311866Y-116197219D01*
X89324654Y-116179976D01*
X89339070Y-116164070D01*
X89354976Y-116149654D01*
X89372219Y-116136866D01*
X89390632Y-116125830D01*
X89410038Y-116116651D01*
X89430250Y-116109419D01*
X89451074Y-116104203D01*
X89472309Y-116101053D01*
X89493750Y-116100000D01*
X90006250Y-116100000D01*
X90027691Y-116101053D01*
X90027691Y-116101053D01*
G37*
D11*
X89750000Y-116537500D03*
D14*
X87000000Y-139920000D03*
X94400000Y-139920000D03*
X94400000Y-142130000D03*
X87000000Y-142130000D03*
D15*
X92950000Y-139070000D03*
X91450000Y-139070000D03*
X88450000Y-139070000D03*
D10*
G36*
X81252691Y-129426053D02*
G01*
X81273926Y-129429203D01*
X81294750Y-129434419D01*
X81314962Y-129441651D01*
X81334368Y-129450830D01*
X81352781Y-129461866D01*
X81370024Y-129474654D01*
X81385930Y-129489070D01*
X81400346Y-129504976D01*
X81413134Y-129522219D01*
X81424170Y-129540632D01*
X81433349Y-129560038D01*
X81440581Y-129580250D01*
X81445797Y-129601074D01*
X81448947Y-129622309D01*
X81450000Y-129643750D01*
X81450000Y-130156250D01*
X81448947Y-130177691D01*
X81445797Y-130198926D01*
X81440581Y-130219750D01*
X81433349Y-130239962D01*
X81424170Y-130259368D01*
X81413134Y-130277781D01*
X81400346Y-130295024D01*
X81385930Y-130310930D01*
X81370024Y-130325346D01*
X81352781Y-130338134D01*
X81334368Y-130349170D01*
X81314962Y-130358349D01*
X81294750Y-130365581D01*
X81273926Y-130370797D01*
X81252691Y-130373947D01*
X81231250Y-130375000D01*
X80793750Y-130375000D01*
X80772309Y-130373947D01*
X80751074Y-130370797D01*
X80730250Y-130365581D01*
X80710038Y-130358349D01*
X80690632Y-130349170D01*
X80672219Y-130338134D01*
X80654976Y-130325346D01*
X80639070Y-130310930D01*
X80624654Y-130295024D01*
X80611866Y-130277781D01*
X80600830Y-130259368D01*
X80591651Y-130239962D01*
X80584419Y-130219750D01*
X80579203Y-130198926D01*
X80576053Y-130177691D01*
X80575000Y-130156250D01*
X80575000Y-129643750D01*
X80576053Y-129622309D01*
X80579203Y-129601074D01*
X80584419Y-129580250D01*
X80591651Y-129560038D01*
X80600830Y-129540632D01*
X80611866Y-129522219D01*
X80624654Y-129504976D01*
X80639070Y-129489070D01*
X80654976Y-129474654D01*
X80672219Y-129461866D01*
X80690632Y-129450830D01*
X80710038Y-129441651D01*
X80730250Y-129434419D01*
X80751074Y-129429203D01*
X80772309Y-129426053D01*
X80793750Y-129425000D01*
X81231250Y-129425000D01*
X81252691Y-129426053D01*
X81252691Y-129426053D01*
G37*
D11*
X81012500Y-129900000D03*
D10*
G36*
X82827691Y-129426053D02*
G01*
X82848926Y-129429203D01*
X82869750Y-129434419D01*
X82889962Y-129441651D01*
X82909368Y-129450830D01*
X82927781Y-129461866D01*
X82945024Y-129474654D01*
X82960930Y-129489070D01*
X82975346Y-129504976D01*
X82988134Y-129522219D01*
X82999170Y-129540632D01*
X83008349Y-129560038D01*
X83015581Y-129580250D01*
X83020797Y-129601074D01*
X83023947Y-129622309D01*
X83025000Y-129643750D01*
X83025000Y-130156250D01*
X83023947Y-130177691D01*
X83020797Y-130198926D01*
X83015581Y-130219750D01*
X83008349Y-130239962D01*
X82999170Y-130259368D01*
X82988134Y-130277781D01*
X82975346Y-130295024D01*
X82960930Y-130310930D01*
X82945024Y-130325346D01*
X82927781Y-130338134D01*
X82909368Y-130349170D01*
X82889962Y-130358349D01*
X82869750Y-130365581D01*
X82848926Y-130370797D01*
X82827691Y-130373947D01*
X82806250Y-130375000D01*
X82368750Y-130375000D01*
X82347309Y-130373947D01*
X82326074Y-130370797D01*
X82305250Y-130365581D01*
X82285038Y-130358349D01*
X82265632Y-130349170D01*
X82247219Y-130338134D01*
X82229976Y-130325346D01*
X82214070Y-130310930D01*
X82199654Y-130295024D01*
X82186866Y-130277781D01*
X82175830Y-130259368D01*
X82166651Y-130239962D01*
X82159419Y-130219750D01*
X82154203Y-130198926D01*
X82151053Y-130177691D01*
X82150000Y-130156250D01*
X82150000Y-129643750D01*
X82151053Y-129622309D01*
X82154203Y-129601074D01*
X82159419Y-129580250D01*
X82166651Y-129560038D01*
X82175830Y-129540632D01*
X82186866Y-129522219D01*
X82199654Y-129504976D01*
X82214070Y-129489070D01*
X82229976Y-129474654D01*
X82247219Y-129461866D01*
X82265632Y-129450830D01*
X82285038Y-129441651D01*
X82305250Y-129434419D01*
X82326074Y-129429203D01*
X82347309Y-129426053D01*
X82368750Y-129425000D01*
X82806250Y-129425000D01*
X82827691Y-129426053D01*
X82827691Y-129426053D01*
G37*
D11*
X82587500Y-129900000D03*
D10*
G36*
X82827691Y-127926053D02*
G01*
X82848926Y-127929203D01*
X82869750Y-127934419D01*
X82889962Y-127941651D01*
X82909368Y-127950830D01*
X82927781Y-127961866D01*
X82945024Y-127974654D01*
X82960930Y-127989070D01*
X82975346Y-128004976D01*
X82988134Y-128022219D01*
X82999170Y-128040632D01*
X83008349Y-128060038D01*
X83015581Y-128080250D01*
X83020797Y-128101074D01*
X83023947Y-128122309D01*
X83025000Y-128143750D01*
X83025000Y-128656250D01*
X83023947Y-128677691D01*
X83020797Y-128698926D01*
X83015581Y-128719750D01*
X83008349Y-128739962D01*
X82999170Y-128759368D01*
X82988134Y-128777781D01*
X82975346Y-128795024D01*
X82960930Y-128810930D01*
X82945024Y-128825346D01*
X82927781Y-128838134D01*
X82909368Y-128849170D01*
X82889962Y-128858349D01*
X82869750Y-128865581D01*
X82848926Y-128870797D01*
X82827691Y-128873947D01*
X82806250Y-128875000D01*
X82368750Y-128875000D01*
X82347309Y-128873947D01*
X82326074Y-128870797D01*
X82305250Y-128865581D01*
X82285038Y-128858349D01*
X82265632Y-128849170D01*
X82247219Y-128838134D01*
X82229976Y-128825346D01*
X82214070Y-128810930D01*
X82199654Y-128795024D01*
X82186866Y-128777781D01*
X82175830Y-128759368D01*
X82166651Y-128739962D01*
X82159419Y-128719750D01*
X82154203Y-128698926D01*
X82151053Y-128677691D01*
X82150000Y-128656250D01*
X82150000Y-128143750D01*
X82151053Y-128122309D01*
X82154203Y-128101074D01*
X82159419Y-128080250D01*
X82166651Y-128060038D01*
X82175830Y-128040632D01*
X82186866Y-128022219D01*
X82199654Y-128004976D01*
X82214070Y-127989070D01*
X82229976Y-127974654D01*
X82247219Y-127961866D01*
X82265632Y-127950830D01*
X82285038Y-127941651D01*
X82305250Y-127934419D01*
X82326074Y-127929203D01*
X82347309Y-127926053D01*
X82368750Y-127925000D01*
X82806250Y-127925000D01*
X82827691Y-127926053D01*
X82827691Y-127926053D01*
G37*
D11*
X82587500Y-128400000D03*
D10*
G36*
X81252691Y-127926053D02*
G01*
X81273926Y-127929203D01*
X81294750Y-127934419D01*
X81314962Y-127941651D01*
X81334368Y-127950830D01*
X81352781Y-127961866D01*
X81370024Y-127974654D01*
X81385930Y-127989070D01*
X81400346Y-128004976D01*
X81413134Y-128022219D01*
X81424170Y-128040632D01*
X81433349Y-128060038D01*
X81440581Y-128080250D01*
X81445797Y-128101074D01*
X81448947Y-128122309D01*
X81450000Y-128143750D01*
X81450000Y-128656250D01*
X81448947Y-128677691D01*
X81445797Y-128698926D01*
X81440581Y-128719750D01*
X81433349Y-128739962D01*
X81424170Y-128759368D01*
X81413134Y-128777781D01*
X81400346Y-128795024D01*
X81385930Y-128810930D01*
X81370024Y-128825346D01*
X81352781Y-128838134D01*
X81334368Y-128849170D01*
X81314962Y-128858349D01*
X81294750Y-128865581D01*
X81273926Y-128870797D01*
X81252691Y-128873947D01*
X81231250Y-128875000D01*
X80793750Y-128875000D01*
X80772309Y-128873947D01*
X80751074Y-128870797D01*
X80730250Y-128865581D01*
X80710038Y-128858349D01*
X80690632Y-128849170D01*
X80672219Y-128838134D01*
X80654976Y-128825346D01*
X80639070Y-128810930D01*
X80624654Y-128795024D01*
X80611866Y-128777781D01*
X80600830Y-128759368D01*
X80591651Y-128739962D01*
X80584419Y-128719750D01*
X80579203Y-128698926D01*
X80576053Y-128677691D01*
X80575000Y-128656250D01*
X80575000Y-128143750D01*
X80576053Y-128122309D01*
X80579203Y-128101074D01*
X80584419Y-128080250D01*
X80591651Y-128060038D01*
X80600830Y-128040632D01*
X80611866Y-128022219D01*
X80624654Y-128004976D01*
X80639070Y-127989070D01*
X80654976Y-127974654D01*
X80672219Y-127961866D01*
X80690632Y-127950830D01*
X80710038Y-127941651D01*
X80730250Y-127934419D01*
X80751074Y-127929203D01*
X80772309Y-127926053D01*
X80793750Y-127925000D01*
X81231250Y-127925000D01*
X81252691Y-127926053D01*
X81252691Y-127926053D01*
G37*
D11*
X81012500Y-128400000D03*
D16*
X85550000Y-129445000D03*
X85550000Y-128175000D03*
X85550000Y-126905000D03*
X85550000Y-125635000D03*
X85550000Y-124365000D03*
X85550000Y-123095000D03*
X85550000Y-121825000D03*
X85550000Y-120555000D03*
X90950000Y-120555000D03*
X90950000Y-121825000D03*
X90950000Y-123095000D03*
X90950000Y-124365000D03*
X90950000Y-125635000D03*
X90950000Y-126905000D03*
X90950000Y-128175000D03*
X90950000Y-129445000D03*
D17*
X109100000Y-142100000D03*
X106100000Y-142100000D03*
D18*
X111675000Y-140920000D03*
X103525000Y-140920000D03*
D19*
X108900000Y-138050000D03*
X106300000Y-138050000D03*
X108250000Y-138050000D03*
X106950000Y-138050000D03*
X107600000Y-138050000D03*
D20*
X110850000Y-138250000D03*
X104350000Y-138250000D03*
D10*
G36*
X102327691Y-138376053D02*
G01*
X102348926Y-138379203D01*
X102369750Y-138384419D01*
X102389962Y-138391651D01*
X102409368Y-138400830D01*
X102427781Y-138411866D01*
X102445024Y-138424654D01*
X102460930Y-138439070D01*
X102475346Y-138454976D01*
X102488134Y-138472219D01*
X102499170Y-138490632D01*
X102508349Y-138510038D01*
X102515581Y-138530250D01*
X102520797Y-138551074D01*
X102523947Y-138572309D01*
X102525000Y-138593750D01*
X102525000Y-139106250D01*
X102523947Y-139127691D01*
X102520797Y-139148926D01*
X102515581Y-139169750D01*
X102508349Y-139189962D01*
X102499170Y-139209368D01*
X102488134Y-139227781D01*
X102475346Y-139245024D01*
X102460930Y-139260930D01*
X102445024Y-139275346D01*
X102427781Y-139288134D01*
X102409368Y-139299170D01*
X102389962Y-139308349D01*
X102369750Y-139315581D01*
X102348926Y-139320797D01*
X102327691Y-139323947D01*
X102306250Y-139325000D01*
X101868750Y-139325000D01*
X101847309Y-139323947D01*
X101826074Y-139320797D01*
X101805250Y-139315581D01*
X101785038Y-139308349D01*
X101765632Y-139299170D01*
X101747219Y-139288134D01*
X101729976Y-139275346D01*
X101714070Y-139260930D01*
X101699654Y-139245024D01*
X101686866Y-139227781D01*
X101675830Y-139209368D01*
X101666651Y-139189962D01*
X101659419Y-139169750D01*
X101654203Y-139148926D01*
X101651053Y-139127691D01*
X101650000Y-139106250D01*
X101650000Y-138593750D01*
X101651053Y-138572309D01*
X101654203Y-138551074D01*
X101659419Y-138530250D01*
X101666651Y-138510038D01*
X101675830Y-138490632D01*
X101686866Y-138472219D01*
X101699654Y-138454976D01*
X101714070Y-138439070D01*
X101729976Y-138424654D01*
X101747219Y-138411866D01*
X101765632Y-138400830D01*
X101785038Y-138391651D01*
X101805250Y-138384419D01*
X101826074Y-138379203D01*
X101847309Y-138376053D01*
X101868750Y-138375000D01*
X102306250Y-138375000D01*
X102327691Y-138376053D01*
X102327691Y-138376053D01*
G37*
D11*
X102087500Y-138850000D03*
D10*
G36*
X100752691Y-138376053D02*
G01*
X100773926Y-138379203D01*
X100794750Y-138384419D01*
X100814962Y-138391651D01*
X100834368Y-138400830D01*
X100852781Y-138411866D01*
X100870024Y-138424654D01*
X100885930Y-138439070D01*
X100900346Y-138454976D01*
X100913134Y-138472219D01*
X100924170Y-138490632D01*
X100933349Y-138510038D01*
X100940581Y-138530250D01*
X100945797Y-138551074D01*
X100948947Y-138572309D01*
X100950000Y-138593750D01*
X100950000Y-139106250D01*
X100948947Y-139127691D01*
X100945797Y-139148926D01*
X100940581Y-139169750D01*
X100933349Y-139189962D01*
X100924170Y-139209368D01*
X100913134Y-139227781D01*
X100900346Y-139245024D01*
X100885930Y-139260930D01*
X100870024Y-139275346D01*
X100852781Y-139288134D01*
X100834368Y-139299170D01*
X100814962Y-139308349D01*
X100794750Y-139315581D01*
X100773926Y-139320797D01*
X100752691Y-139323947D01*
X100731250Y-139325000D01*
X100293750Y-139325000D01*
X100272309Y-139323947D01*
X100251074Y-139320797D01*
X100230250Y-139315581D01*
X100210038Y-139308349D01*
X100190632Y-139299170D01*
X100172219Y-139288134D01*
X100154976Y-139275346D01*
X100139070Y-139260930D01*
X100124654Y-139245024D01*
X100111866Y-139227781D01*
X100100830Y-139209368D01*
X100091651Y-139189962D01*
X100084419Y-139169750D01*
X100079203Y-139148926D01*
X100076053Y-139127691D01*
X100075000Y-139106250D01*
X100075000Y-138593750D01*
X100076053Y-138572309D01*
X100079203Y-138551074D01*
X100084419Y-138530250D01*
X100091651Y-138510038D01*
X100100830Y-138490632D01*
X100111866Y-138472219D01*
X100124654Y-138454976D01*
X100139070Y-138439070D01*
X100154976Y-138424654D01*
X100172219Y-138411866D01*
X100190632Y-138400830D01*
X100210038Y-138391651D01*
X100230250Y-138384419D01*
X100251074Y-138379203D01*
X100272309Y-138376053D01*
X100293750Y-138375000D01*
X100731250Y-138375000D01*
X100752691Y-138376053D01*
X100752691Y-138376053D01*
G37*
D11*
X100512500Y-138850000D03*
D10*
G36*
X94452691Y-128526053D02*
G01*
X94473926Y-128529203D01*
X94494750Y-128534419D01*
X94514962Y-128541651D01*
X94534368Y-128550830D01*
X94552781Y-128561866D01*
X94570024Y-128574654D01*
X94585930Y-128589070D01*
X94600346Y-128604976D01*
X94613134Y-128622219D01*
X94624170Y-128640632D01*
X94633349Y-128660038D01*
X94640581Y-128680250D01*
X94645797Y-128701074D01*
X94648947Y-128722309D01*
X94650000Y-128743750D01*
X94650000Y-129256250D01*
X94648947Y-129277691D01*
X94645797Y-129298926D01*
X94640581Y-129319750D01*
X94633349Y-129339962D01*
X94624170Y-129359368D01*
X94613134Y-129377781D01*
X94600346Y-129395024D01*
X94585930Y-129410930D01*
X94570024Y-129425346D01*
X94552781Y-129438134D01*
X94534368Y-129449170D01*
X94514962Y-129458349D01*
X94494750Y-129465581D01*
X94473926Y-129470797D01*
X94452691Y-129473947D01*
X94431250Y-129475000D01*
X93993750Y-129475000D01*
X93972309Y-129473947D01*
X93951074Y-129470797D01*
X93930250Y-129465581D01*
X93910038Y-129458349D01*
X93890632Y-129449170D01*
X93872219Y-129438134D01*
X93854976Y-129425346D01*
X93839070Y-129410930D01*
X93824654Y-129395024D01*
X93811866Y-129377781D01*
X93800830Y-129359368D01*
X93791651Y-129339962D01*
X93784419Y-129319750D01*
X93779203Y-129298926D01*
X93776053Y-129277691D01*
X93775000Y-129256250D01*
X93775000Y-128743750D01*
X93776053Y-128722309D01*
X93779203Y-128701074D01*
X93784419Y-128680250D01*
X93791651Y-128660038D01*
X93800830Y-128640632D01*
X93811866Y-128622219D01*
X93824654Y-128604976D01*
X93839070Y-128589070D01*
X93854976Y-128574654D01*
X93872219Y-128561866D01*
X93890632Y-128550830D01*
X93910038Y-128541651D01*
X93930250Y-128534419D01*
X93951074Y-128529203D01*
X93972309Y-128526053D01*
X93993750Y-128525000D01*
X94431250Y-128525000D01*
X94452691Y-128526053D01*
X94452691Y-128526053D01*
G37*
D11*
X94212500Y-129000000D03*
D10*
G36*
X96027691Y-128526053D02*
G01*
X96048926Y-128529203D01*
X96069750Y-128534419D01*
X96089962Y-128541651D01*
X96109368Y-128550830D01*
X96127781Y-128561866D01*
X96145024Y-128574654D01*
X96160930Y-128589070D01*
X96175346Y-128604976D01*
X96188134Y-128622219D01*
X96199170Y-128640632D01*
X96208349Y-128660038D01*
X96215581Y-128680250D01*
X96220797Y-128701074D01*
X96223947Y-128722309D01*
X96225000Y-128743750D01*
X96225000Y-129256250D01*
X96223947Y-129277691D01*
X96220797Y-129298926D01*
X96215581Y-129319750D01*
X96208349Y-129339962D01*
X96199170Y-129359368D01*
X96188134Y-129377781D01*
X96175346Y-129395024D01*
X96160930Y-129410930D01*
X96145024Y-129425346D01*
X96127781Y-129438134D01*
X96109368Y-129449170D01*
X96089962Y-129458349D01*
X96069750Y-129465581D01*
X96048926Y-129470797D01*
X96027691Y-129473947D01*
X96006250Y-129475000D01*
X95568750Y-129475000D01*
X95547309Y-129473947D01*
X95526074Y-129470797D01*
X95505250Y-129465581D01*
X95485038Y-129458349D01*
X95465632Y-129449170D01*
X95447219Y-129438134D01*
X95429976Y-129425346D01*
X95414070Y-129410930D01*
X95399654Y-129395024D01*
X95386866Y-129377781D01*
X95375830Y-129359368D01*
X95366651Y-129339962D01*
X95359419Y-129319750D01*
X95354203Y-129298926D01*
X95351053Y-129277691D01*
X95350000Y-129256250D01*
X95350000Y-128743750D01*
X95351053Y-128722309D01*
X95354203Y-128701074D01*
X95359419Y-128680250D01*
X95366651Y-128660038D01*
X95375830Y-128640632D01*
X95386866Y-128622219D01*
X95399654Y-128604976D01*
X95414070Y-128589070D01*
X95429976Y-128574654D01*
X95447219Y-128561866D01*
X95465632Y-128550830D01*
X95485038Y-128541651D01*
X95505250Y-128534419D01*
X95526074Y-128529203D01*
X95547309Y-128526053D01*
X95568750Y-128525000D01*
X96006250Y-128525000D01*
X96027691Y-128526053D01*
X96027691Y-128526053D01*
G37*
D11*
X95787500Y-129000000D03*
D10*
G36*
X96027691Y-127026053D02*
G01*
X96048926Y-127029203D01*
X96069750Y-127034419D01*
X96089962Y-127041651D01*
X96109368Y-127050830D01*
X96127781Y-127061866D01*
X96145024Y-127074654D01*
X96160930Y-127089070D01*
X96175346Y-127104976D01*
X96188134Y-127122219D01*
X96199170Y-127140632D01*
X96208349Y-127160038D01*
X96215581Y-127180250D01*
X96220797Y-127201074D01*
X96223947Y-127222309D01*
X96225000Y-127243750D01*
X96225000Y-127756250D01*
X96223947Y-127777691D01*
X96220797Y-127798926D01*
X96215581Y-127819750D01*
X96208349Y-127839962D01*
X96199170Y-127859368D01*
X96188134Y-127877781D01*
X96175346Y-127895024D01*
X96160930Y-127910930D01*
X96145024Y-127925346D01*
X96127781Y-127938134D01*
X96109368Y-127949170D01*
X96089962Y-127958349D01*
X96069750Y-127965581D01*
X96048926Y-127970797D01*
X96027691Y-127973947D01*
X96006250Y-127975000D01*
X95568750Y-127975000D01*
X95547309Y-127973947D01*
X95526074Y-127970797D01*
X95505250Y-127965581D01*
X95485038Y-127958349D01*
X95465632Y-127949170D01*
X95447219Y-127938134D01*
X95429976Y-127925346D01*
X95414070Y-127910930D01*
X95399654Y-127895024D01*
X95386866Y-127877781D01*
X95375830Y-127859368D01*
X95366651Y-127839962D01*
X95359419Y-127819750D01*
X95354203Y-127798926D01*
X95351053Y-127777691D01*
X95350000Y-127756250D01*
X95350000Y-127243750D01*
X95351053Y-127222309D01*
X95354203Y-127201074D01*
X95359419Y-127180250D01*
X95366651Y-127160038D01*
X95375830Y-127140632D01*
X95386866Y-127122219D01*
X95399654Y-127104976D01*
X95414070Y-127089070D01*
X95429976Y-127074654D01*
X95447219Y-127061866D01*
X95465632Y-127050830D01*
X95485038Y-127041651D01*
X95505250Y-127034419D01*
X95526074Y-127029203D01*
X95547309Y-127026053D01*
X95568750Y-127025000D01*
X96006250Y-127025000D01*
X96027691Y-127026053D01*
X96027691Y-127026053D01*
G37*
D11*
X95787500Y-127500000D03*
D10*
G36*
X94452691Y-127026053D02*
G01*
X94473926Y-127029203D01*
X94494750Y-127034419D01*
X94514962Y-127041651D01*
X94534368Y-127050830D01*
X94552781Y-127061866D01*
X94570024Y-127074654D01*
X94585930Y-127089070D01*
X94600346Y-127104976D01*
X94613134Y-127122219D01*
X94624170Y-127140632D01*
X94633349Y-127160038D01*
X94640581Y-127180250D01*
X94645797Y-127201074D01*
X94648947Y-127222309D01*
X94650000Y-127243750D01*
X94650000Y-127756250D01*
X94648947Y-127777691D01*
X94645797Y-127798926D01*
X94640581Y-127819750D01*
X94633349Y-127839962D01*
X94624170Y-127859368D01*
X94613134Y-127877781D01*
X94600346Y-127895024D01*
X94585930Y-127910930D01*
X94570024Y-127925346D01*
X94552781Y-127938134D01*
X94534368Y-127949170D01*
X94514962Y-127958349D01*
X94494750Y-127965581D01*
X94473926Y-127970797D01*
X94452691Y-127973947D01*
X94431250Y-127975000D01*
X93993750Y-127975000D01*
X93972309Y-127973947D01*
X93951074Y-127970797D01*
X93930250Y-127965581D01*
X93910038Y-127958349D01*
X93890632Y-127949170D01*
X93872219Y-127938134D01*
X93854976Y-127925346D01*
X93839070Y-127910930D01*
X93824654Y-127895024D01*
X93811866Y-127877781D01*
X93800830Y-127859368D01*
X93791651Y-127839962D01*
X93784419Y-127819750D01*
X93779203Y-127798926D01*
X93776053Y-127777691D01*
X93775000Y-127756250D01*
X93775000Y-127243750D01*
X93776053Y-127222309D01*
X93779203Y-127201074D01*
X93784419Y-127180250D01*
X93791651Y-127160038D01*
X93800830Y-127140632D01*
X93811866Y-127122219D01*
X93824654Y-127104976D01*
X93839070Y-127089070D01*
X93854976Y-127074654D01*
X93872219Y-127061866D01*
X93890632Y-127050830D01*
X93910038Y-127041651D01*
X93930250Y-127034419D01*
X93951074Y-127029203D01*
X93972309Y-127026053D01*
X93993750Y-127025000D01*
X94431250Y-127025000D01*
X94452691Y-127026053D01*
X94452691Y-127026053D01*
G37*
D11*
X94212500Y-127500000D03*
D10*
G36*
X86977691Y-116051053D02*
G01*
X86998926Y-116054203D01*
X87019750Y-116059419D01*
X87039962Y-116066651D01*
X87059368Y-116075830D01*
X87077781Y-116086866D01*
X87095024Y-116099654D01*
X87110930Y-116114070D01*
X87125346Y-116129976D01*
X87138134Y-116147219D01*
X87149170Y-116165632D01*
X87158349Y-116185038D01*
X87165581Y-116205250D01*
X87170797Y-116226074D01*
X87173947Y-116247309D01*
X87175000Y-116268750D01*
X87175000Y-116706250D01*
X87173947Y-116727691D01*
X87170797Y-116748926D01*
X87165581Y-116769750D01*
X87158349Y-116789962D01*
X87149170Y-116809368D01*
X87138134Y-116827781D01*
X87125346Y-116845024D01*
X87110930Y-116860930D01*
X87095024Y-116875346D01*
X87077781Y-116888134D01*
X87059368Y-116899170D01*
X87039962Y-116908349D01*
X87019750Y-116915581D01*
X86998926Y-116920797D01*
X86977691Y-116923947D01*
X86956250Y-116925000D01*
X86443750Y-116925000D01*
X86422309Y-116923947D01*
X86401074Y-116920797D01*
X86380250Y-116915581D01*
X86360038Y-116908349D01*
X86340632Y-116899170D01*
X86322219Y-116888134D01*
X86304976Y-116875346D01*
X86289070Y-116860930D01*
X86274654Y-116845024D01*
X86261866Y-116827781D01*
X86250830Y-116809368D01*
X86241651Y-116789962D01*
X86234419Y-116769750D01*
X86229203Y-116748926D01*
X86226053Y-116727691D01*
X86225000Y-116706250D01*
X86225000Y-116268750D01*
X86226053Y-116247309D01*
X86229203Y-116226074D01*
X86234419Y-116205250D01*
X86241651Y-116185038D01*
X86250830Y-116165632D01*
X86261866Y-116147219D01*
X86274654Y-116129976D01*
X86289070Y-116114070D01*
X86304976Y-116099654D01*
X86322219Y-116086866D01*
X86340632Y-116075830D01*
X86360038Y-116066651D01*
X86380250Y-116059419D01*
X86401074Y-116054203D01*
X86422309Y-116051053D01*
X86443750Y-116050000D01*
X86956250Y-116050000D01*
X86977691Y-116051053D01*
X86977691Y-116051053D01*
G37*
D11*
X86700000Y-116487500D03*
D10*
G36*
X86977691Y-114476053D02*
G01*
X86998926Y-114479203D01*
X87019750Y-114484419D01*
X87039962Y-114491651D01*
X87059368Y-114500830D01*
X87077781Y-114511866D01*
X87095024Y-114524654D01*
X87110930Y-114539070D01*
X87125346Y-114554976D01*
X87138134Y-114572219D01*
X87149170Y-114590632D01*
X87158349Y-114610038D01*
X87165581Y-114630250D01*
X87170797Y-114651074D01*
X87173947Y-114672309D01*
X87175000Y-114693750D01*
X87175000Y-115131250D01*
X87173947Y-115152691D01*
X87170797Y-115173926D01*
X87165581Y-115194750D01*
X87158349Y-115214962D01*
X87149170Y-115234368D01*
X87138134Y-115252781D01*
X87125346Y-115270024D01*
X87110930Y-115285930D01*
X87095024Y-115300346D01*
X87077781Y-115313134D01*
X87059368Y-115324170D01*
X87039962Y-115333349D01*
X87019750Y-115340581D01*
X86998926Y-115345797D01*
X86977691Y-115348947D01*
X86956250Y-115350000D01*
X86443750Y-115350000D01*
X86422309Y-115348947D01*
X86401074Y-115345797D01*
X86380250Y-115340581D01*
X86360038Y-115333349D01*
X86340632Y-115324170D01*
X86322219Y-115313134D01*
X86304976Y-115300346D01*
X86289070Y-115285930D01*
X86274654Y-115270024D01*
X86261866Y-115252781D01*
X86250830Y-115234368D01*
X86241651Y-115214962D01*
X86234419Y-115194750D01*
X86229203Y-115173926D01*
X86226053Y-115152691D01*
X86225000Y-115131250D01*
X86225000Y-114693750D01*
X86226053Y-114672309D01*
X86229203Y-114651074D01*
X86234419Y-114630250D01*
X86241651Y-114610038D01*
X86250830Y-114590632D01*
X86261866Y-114572219D01*
X86274654Y-114554976D01*
X86289070Y-114539070D01*
X86304976Y-114524654D01*
X86322219Y-114511866D01*
X86340632Y-114500830D01*
X86360038Y-114491651D01*
X86380250Y-114484419D01*
X86401074Y-114479203D01*
X86422309Y-114476053D01*
X86443750Y-114475000D01*
X86956250Y-114475000D01*
X86977691Y-114476053D01*
X86977691Y-114476053D01*
G37*
D11*
X86700000Y-114912500D03*
D10*
G36*
X85477691Y-116051053D02*
G01*
X85498926Y-116054203D01*
X85519750Y-116059419D01*
X85539962Y-116066651D01*
X85559368Y-116075830D01*
X85577781Y-116086866D01*
X85595024Y-116099654D01*
X85610930Y-116114070D01*
X85625346Y-116129976D01*
X85638134Y-116147219D01*
X85649170Y-116165632D01*
X85658349Y-116185038D01*
X85665581Y-116205250D01*
X85670797Y-116226074D01*
X85673947Y-116247309D01*
X85675000Y-116268750D01*
X85675000Y-116706250D01*
X85673947Y-116727691D01*
X85670797Y-116748926D01*
X85665581Y-116769750D01*
X85658349Y-116789962D01*
X85649170Y-116809368D01*
X85638134Y-116827781D01*
X85625346Y-116845024D01*
X85610930Y-116860930D01*
X85595024Y-116875346D01*
X85577781Y-116888134D01*
X85559368Y-116899170D01*
X85539962Y-116908349D01*
X85519750Y-116915581D01*
X85498926Y-116920797D01*
X85477691Y-116923947D01*
X85456250Y-116925000D01*
X84943750Y-116925000D01*
X84922309Y-116923947D01*
X84901074Y-116920797D01*
X84880250Y-116915581D01*
X84860038Y-116908349D01*
X84840632Y-116899170D01*
X84822219Y-116888134D01*
X84804976Y-116875346D01*
X84789070Y-116860930D01*
X84774654Y-116845024D01*
X84761866Y-116827781D01*
X84750830Y-116809368D01*
X84741651Y-116789962D01*
X84734419Y-116769750D01*
X84729203Y-116748926D01*
X84726053Y-116727691D01*
X84725000Y-116706250D01*
X84725000Y-116268750D01*
X84726053Y-116247309D01*
X84729203Y-116226074D01*
X84734419Y-116205250D01*
X84741651Y-116185038D01*
X84750830Y-116165632D01*
X84761866Y-116147219D01*
X84774654Y-116129976D01*
X84789070Y-116114070D01*
X84804976Y-116099654D01*
X84822219Y-116086866D01*
X84840632Y-116075830D01*
X84860038Y-116066651D01*
X84880250Y-116059419D01*
X84901074Y-116054203D01*
X84922309Y-116051053D01*
X84943750Y-116050000D01*
X85456250Y-116050000D01*
X85477691Y-116051053D01*
X85477691Y-116051053D01*
G37*
D11*
X85200000Y-116487500D03*
D10*
G36*
X85477691Y-114476053D02*
G01*
X85498926Y-114479203D01*
X85519750Y-114484419D01*
X85539962Y-114491651D01*
X85559368Y-114500830D01*
X85577781Y-114511866D01*
X85595024Y-114524654D01*
X85610930Y-114539070D01*
X85625346Y-114554976D01*
X85638134Y-114572219D01*
X85649170Y-114590632D01*
X85658349Y-114610038D01*
X85665581Y-114630250D01*
X85670797Y-114651074D01*
X85673947Y-114672309D01*
X85675000Y-114693750D01*
X85675000Y-115131250D01*
X85673947Y-115152691D01*
X85670797Y-115173926D01*
X85665581Y-115194750D01*
X85658349Y-115214962D01*
X85649170Y-115234368D01*
X85638134Y-115252781D01*
X85625346Y-115270024D01*
X85610930Y-115285930D01*
X85595024Y-115300346D01*
X85577781Y-115313134D01*
X85559368Y-115324170D01*
X85539962Y-115333349D01*
X85519750Y-115340581D01*
X85498926Y-115345797D01*
X85477691Y-115348947D01*
X85456250Y-115350000D01*
X84943750Y-115350000D01*
X84922309Y-115348947D01*
X84901074Y-115345797D01*
X84880250Y-115340581D01*
X84860038Y-115333349D01*
X84840632Y-115324170D01*
X84822219Y-115313134D01*
X84804976Y-115300346D01*
X84789070Y-115285930D01*
X84774654Y-115270024D01*
X84761866Y-115252781D01*
X84750830Y-115234368D01*
X84741651Y-115214962D01*
X84734419Y-115194750D01*
X84729203Y-115173926D01*
X84726053Y-115152691D01*
X84725000Y-115131250D01*
X84725000Y-114693750D01*
X84726053Y-114672309D01*
X84729203Y-114651074D01*
X84734419Y-114630250D01*
X84741651Y-114610038D01*
X84750830Y-114590632D01*
X84761866Y-114572219D01*
X84774654Y-114554976D01*
X84789070Y-114539070D01*
X84804976Y-114524654D01*
X84822219Y-114511866D01*
X84840632Y-114500830D01*
X84860038Y-114491651D01*
X84880250Y-114484419D01*
X84901074Y-114479203D01*
X84922309Y-114476053D01*
X84943750Y-114475000D01*
X85456250Y-114475000D01*
X85477691Y-114476053D01*
X85477691Y-114476053D01*
G37*
D11*
X85200000Y-114912500D03*
D10*
G36*
X83977691Y-114476053D02*
G01*
X83998926Y-114479203D01*
X84019750Y-114484419D01*
X84039962Y-114491651D01*
X84059368Y-114500830D01*
X84077781Y-114511866D01*
X84095024Y-114524654D01*
X84110930Y-114539070D01*
X84125346Y-114554976D01*
X84138134Y-114572219D01*
X84149170Y-114590632D01*
X84158349Y-114610038D01*
X84165581Y-114630250D01*
X84170797Y-114651074D01*
X84173947Y-114672309D01*
X84175000Y-114693750D01*
X84175000Y-115131250D01*
X84173947Y-115152691D01*
X84170797Y-115173926D01*
X84165581Y-115194750D01*
X84158349Y-115214962D01*
X84149170Y-115234368D01*
X84138134Y-115252781D01*
X84125346Y-115270024D01*
X84110930Y-115285930D01*
X84095024Y-115300346D01*
X84077781Y-115313134D01*
X84059368Y-115324170D01*
X84039962Y-115333349D01*
X84019750Y-115340581D01*
X83998926Y-115345797D01*
X83977691Y-115348947D01*
X83956250Y-115350000D01*
X83443750Y-115350000D01*
X83422309Y-115348947D01*
X83401074Y-115345797D01*
X83380250Y-115340581D01*
X83360038Y-115333349D01*
X83340632Y-115324170D01*
X83322219Y-115313134D01*
X83304976Y-115300346D01*
X83289070Y-115285930D01*
X83274654Y-115270024D01*
X83261866Y-115252781D01*
X83250830Y-115234368D01*
X83241651Y-115214962D01*
X83234419Y-115194750D01*
X83229203Y-115173926D01*
X83226053Y-115152691D01*
X83225000Y-115131250D01*
X83225000Y-114693750D01*
X83226053Y-114672309D01*
X83229203Y-114651074D01*
X83234419Y-114630250D01*
X83241651Y-114610038D01*
X83250830Y-114590632D01*
X83261866Y-114572219D01*
X83274654Y-114554976D01*
X83289070Y-114539070D01*
X83304976Y-114524654D01*
X83322219Y-114511866D01*
X83340632Y-114500830D01*
X83360038Y-114491651D01*
X83380250Y-114484419D01*
X83401074Y-114479203D01*
X83422309Y-114476053D01*
X83443750Y-114475000D01*
X83956250Y-114475000D01*
X83977691Y-114476053D01*
X83977691Y-114476053D01*
G37*
D11*
X83700000Y-114912500D03*
D10*
G36*
X83977691Y-116051053D02*
G01*
X83998926Y-116054203D01*
X84019750Y-116059419D01*
X84039962Y-116066651D01*
X84059368Y-116075830D01*
X84077781Y-116086866D01*
X84095024Y-116099654D01*
X84110930Y-116114070D01*
X84125346Y-116129976D01*
X84138134Y-116147219D01*
X84149170Y-116165632D01*
X84158349Y-116185038D01*
X84165581Y-116205250D01*
X84170797Y-116226074D01*
X84173947Y-116247309D01*
X84175000Y-116268750D01*
X84175000Y-116706250D01*
X84173947Y-116727691D01*
X84170797Y-116748926D01*
X84165581Y-116769750D01*
X84158349Y-116789962D01*
X84149170Y-116809368D01*
X84138134Y-116827781D01*
X84125346Y-116845024D01*
X84110930Y-116860930D01*
X84095024Y-116875346D01*
X84077781Y-116888134D01*
X84059368Y-116899170D01*
X84039962Y-116908349D01*
X84019750Y-116915581D01*
X83998926Y-116920797D01*
X83977691Y-116923947D01*
X83956250Y-116925000D01*
X83443750Y-116925000D01*
X83422309Y-116923947D01*
X83401074Y-116920797D01*
X83380250Y-116915581D01*
X83360038Y-116908349D01*
X83340632Y-116899170D01*
X83322219Y-116888134D01*
X83304976Y-116875346D01*
X83289070Y-116860930D01*
X83274654Y-116845024D01*
X83261866Y-116827781D01*
X83250830Y-116809368D01*
X83241651Y-116789962D01*
X83234419Y-116769750D01*
X83229203Y-116748926D01*
X83226053Y-116727691D01*
X83225000Y-116706250D01*
X83225000Y-116268750D01*
X83226053Y-116247309D01*
X83229203Y-116226074D01*
X83234419Y-116205250D01*
X83241651Y-116185038D01*
X83250830Y-116165632D01*
X83261866Y-116147219D01*
X83274654Y-116129976D01*
X83289070Y-116114070D01*
X83304976Y-116099654D01*
X83322219Y-116086866D01*
X83340632Y-116075830D01*
X83360038Y-116066651D01*
X83380250Y-116059419D01*
X83401074Y-116054203D01*
X83422309Y-116051053D01*
X83443750Y-116050000D01*
X83956250Y-116050000D01*
X83977691Y-116051053D01*
X83977691Y-116051053D01*
G37*
D11*
X83700000Y-116487500D03*
D10*
G36*
X82477691Y-114476053D02*
G01*
X82498926Y-114479203D01*
X82519750Y-114484419D01*
X82539962Y-114491651D01*
X82559368Y-114500830D01*
X82577781Y-114511866D01*
X82595024Y-114524654D01*
X82610930Y-114539070D01*
X82625346Y-114554976D01*
X82638134Y-114572219D01*
X82649170Y-114590632D01*
X82658349Y-114610038D01*
X82665581Y-114630250D01*
X82670797Y-114651074D01*
X82673947Y-114672309D01*
X82675000Y-114693750D01*
X82675000Y-115131250D01*
X82673947Y-115152691D01*
X82670797Y-115173926D01*
X82665581Y-115194750D01*
X82658349Y-115214962D01*
X82649170Y-115234368D01*
X82638134Y-115252781D01*
X82625346Y-115270024D01*
X82610930Y-115285930D01*
X82595024Y-115300346D01*
X82577781Y-115313134D01*
X82559368Y-115324170D01*
X82539962Y-115333349D01*
X82519750Y-115340581D01*
X82498926Y-115345797D01*
X82477691Y-115348947D01*
X82456250Y-115350000D01*
X81943750Y-115350000D01*
X81922309Y-115348947D01*
X81901074Y-115345797D01*
X81880250Y-115340581D01*
X81860038Y-115333349D01*
X81840632Y-115324170D01*
X81822219Y-115313134D01*
X81804976Y-115300346D01*
X81789070Y-115285930D01*
X81774654Y-115270024D01*
X81761866Y-115252781D01*
X81750830Y-115234368D01*
X81741651Y-115214962D01*
X81734419Y-115194750D01*
X81729203Y-115173926D01*
X81726053Y-115152691D01*
X81725000Y-115131250D01*
X81725000Y-114693750D01*
X81726053Y-114672309D01*
X81729203Y-114651074D01*
X81734419Y-114630250D01*
X81741651Y-114610038D01*
X81750830Y-114590632D01*
X81761866Y-114572219D01*
X81774654Y-114554976D01*
X81789070Y-114539070D01*
X81804976Y-114524654D01*
X81822219Y-114511866D01*
X81840632Y-114500830D01*
X81860038Y-114491651D01*
X81880250Y-114484419D01*
X81901074Y-114479203D01*
X81922309Y-114476053D01*
X81943750Y-114475000D01*
X82456250Y-114475000D01*
X82477691Y-114476053D01*
X82477691Y-114476053D01*
G37*
D11*
X82200000Y-114912500D03*
D10*
G36*
X82477691Y-116051053D02*
G01*
X82498926Y-116054203D01*
X82519750Y-116059419D01*
X82539962Y-116066651D01*
X82559368Y-116075830D01*
X82577781Y-116086866D01*
X82595024Y-116099654D01*
X82610930Y-116114070D01*
X82625346Y-116129976D01*
X82638134Y-116147219D01*
X82649170Y-116165632D01*
X82658349Y-116185038D01*
X82665581Y-116205250D01*
X82670797Y-116226074D01*
X82673947Y-116247309D01*
X82675000Y-116268750D01*
X82675000Y-116706250D01*
X82673947Y-116727691D01*
X82670797Y-116748926D01*
X82665581Y-116769750D01*
X82658349Y-116789962D01*
X82649170Y-116809368D01*
X82638134Y-116827781D01*
X82625346Y-116845024D01*
X82610930Y-116860930D01*
X82595024Y-116875346D01*
X82577781Y-116888134D01*
X82559368Y-116899170D01*
X82539962Y-116908349D01*
X82519750Y-116915581D01*
X82498926Y-116920797D01*
X82477691Y-116923947D01*
X82456250Y-116925000D01*
X81943750Y-116925000D01*
X81922309Y-116923947D01*
X81901074Y-116920797D01*
X81880250Y-116915581D01*
X81860038Y-116908349D01*
X81840632Y-116899170D01*
X81822219Y-116888134D01*
X81804976Y-116875346D01*
X81789070Y-116860930D01*
X81774654Y-116845024D01*
X81761866Y-116827781D01*
X81750830Y-116809368D01*
X81741651Y-116789962D01*
X81734419Y-116769750D01*
X81729203Y-116748926D01*
X81726053Y-116727691D01*
X81725000Y-116706250D01*
X81725000Y-116268750D01*
X81726053Y-116247309D01*
X81729203Y-116226074D01*
X81734419Y-116205250D01*
X81741651Y-116185038D01*
X81750830Y-116165632D01*
X81761866Y-116147219D01*
X81774654Y-116129976D01*
X81789070Y-116114070D01*
X81804976Y-116099654D01*
X81822219Y-116086866D01*
X81840632Y-116075830D01*
X81860038Y-116066651D01*
X81880250Y-116059419D01*
X81901074Y-116054203D01*
X81922309Y-116051053D01*
X81943750Y-116050000D01*
X82456250Y-116050000D01*
X82477691Y-116051053D01*
X82477691Y-116051053D01*
G37*
D11*
X82200000Y-116487500D03*
D10*
G36*
X94452691Y-125526053D02*
G01*
X94473926Y-125529203D01*
X94494750Y-125534419D01*
X94514962Y-125541651D01*
X94534368Y-125550830D01*
X94552781Y-125561866D01*
X94570024Y-125574654D01*
X94585930Y-125589070D01*
X94600346Y-125604976D01*
X94613134Y-125622219D01*
X94624170Y-125640632D01*
X94633349Y-125660038D01*
X94640581Y-125680250D01*
X94645797Y-125701074D01*
X94648947Y-125722309D01*
X94650000Y-125743750D01*
X94650000Y-126256250D01*
X94648947Y-126277691D01*
X94645797Y-126298926D01*
X94640581Y-126319750D01*
X94633349Y-126339962D01*
X94624170Y-126359368D01*
X94613134Y-126377781D01*
X94600346Y-126395024D01*
X94585930Y-126410930D01*
X94570024Y-126425346D01*
X94552781Y-126438134D01*
X94534368Y-126449170D01*
X94514962Y-126458349D01*
X94494750Y-126465581D01*
X94473926Y-126470797D01*
X94452691Y-126473947D01*
X94431250Y-126475000D01*
X93993750Y-126475000D01*
X93972309Y-126473947D01*
X93951074Y-126470797D01*
X93930250Y-126465581D01*
X93910038Y-126458349D01*
X93890632Y-126449170D01*
X93872219Y-126438134D01*
X93854976Y-126425346D01*
X93839070Y-126410930D01*
X93824654Y-126395024D01*
X93811866Y-126377781D01*
X93800830Y-126359368D01*
X93791651Y-126339962D01*
X93784419Y-126319750D01*
X93779203Y-126298926D01*
X93776053Y-126277691D01*
X93775000Y-126256250D01*
X93775000Y-125743750D01*
X93776053Y-125722309D01*
X93779203Y-125701074D01*
X93784419Y-125680250D01*
X93791651Y-125660038D01*
X93800830Y-125640632D01*
X93811866Y-125622219D01*
X93824654Y-125604976D01*
X93839070Y-125589070D01*
X93854976Y-125574654D01*
X93872219Y-125561866D01*
X93890632Y-125550830D01*
X93910038Y-125541651D01*
X93930250Y-125534419D01*
X93951074Y-125529203D01*
X93972309Y-125526053D01*
X93993750Y-125525000D01*
X94431250Y-125525000D01*
X94452691Y-125526053D01*
X94452691Y-125526053D01*
G37*
D11*
X94212500Y-126000000D03*
D10*
G36*
X96027691Y-125526053D02*
G01*
X96048926Y-125529203D01*
X96069750Y-125534419D01*
X96089962Y-125541651D01*
X96109368Y-125550830D01*
X96127781Y-125561866D01*
X96145024Y-125574654D01*
X96160930Y-125589070D01*
X96175346Y-125604976D01*
X96188134Y-125622219D01*
X96199170Y-125640632D01*
X96208349Y-125660038D01*
X96215581Y-125680250D01*
X96220797Y-125701074D01*
X96223947Y-125722309D01*
X96225000Y-125743750D01*
X96225000Y-126256250D01*
X96223947Y-126277691D01*
X96220797Y-126298926D01*
X96215581Y-126319750D01*
X96208349Y-126339962D01*
X96199170Y-126359368D01*
X96188134Y-126377781D01*
X96175346Y-126395024D01*
X96160930Y-126410930D01*
X96145024Y-126425346D01*
X96127781Y-126438134D01*
X96109368Y-126449170D01*
X96089962Y-126458349D01*
X96069750Y-126465581D01*
X96048926Y-126470797D01*
X96027691Y-126473947D01*
X96006250Y-126475000D01*
X95568750Y-126475000D01*
X95547309Y-126473947D01*
X95526074Y-126470797D01*
X95505250Y-126465581D01*
X95485038Y-126458349D01*
X95465632Y-126449170D01*
X95447219Y-126438134D01*
X95429976Y-126425346D01*
X95414070Y-126410930D01*
X95399654Y-126395024D01*
X95386866Y-126377781D01*
X95375830Y-126359368D01*
X95366651Y-126339962D01*
X95359419Y-126319750D01*
X95354203Y-126298926D01*
X95351053Y-126277691D01*
X95350000Y-126256250D01*
X95350000Y-125743750D01*
X95351053Y-125722309D01*
X95354203Y-125701074D01*
X95359419Y-125680250D01*
X95366651Y-125660038D01*
X95375830Y-125640632D01*
X95386866Y-125622219D01*
X95399654Y-125604976D01*
X95414070Y-125589070D01*
X95429976Y-125574654D01*
X95447219Y-125561866D01*
X95465632Y-125550830D01*
X95485038Y-125541651D01*
X95505250Y-125534419D01*
X95526074Y-125529203D01*
X95547309Y-125526053D01*
X95568750Y-125525000D01*
X96006250Y-125525000D01*
X96027691Y-125526053D01*
X96027691Y-125526053D01*
G37*
D11*
X95787500Y-126000000D03*
D10*
G36*
X96027691Y-124026053D02*
G01*
X96048926Y-124029203D01*
X96069750Y-124034419D01*
X96089962Y-124041651D01*
X96109368Y-124050830D01*
X96127781Y-124061866D01*
X96145024Y-124074654D01*
X96160930Y-124089070D01*
X96175346Y-124104976D01*
X96188134Y-124122219D01*
X96199170Y-124140632D01*
X96208349Y-124160038D01*
X96215581Y-124180250D01*
X96220797Y-124201074D01*
X96223947Y-124222309D01*
X96225000Y-124243750D01*
X96225000Y-124756250D01*
X96223947Y-124777691D01*
X96220797Y-124798926D01*
X96215581Y-124819750D01*
X96208349Y-124839962D01*
X96199170Y-124859368D01*
X96188134Y-124877781D01*
X96175346Y-124895024D01*
X96160930Y-124910930D01*
X96145024Y-124925346D01*
X96127781Y-124938134D01*
X96109368Y-124949170D01*
X96089962Y-124958349D01*
X96069750Y-124965581D01*
X96048926Y-124970797D01*
X96027691Y-124973947D01*
X96006250Y-124975000D01*
X95568750Y-124975000D01*
X95547309Y-124973947D01*
X95526074Y-124970797D01*
X95505250Y-124965581D01*
X95485038Y-124958349D01*
X95465632Y-124949170D01*
X95447219Y-124938134D01*
X95429976Y-124925346D01*
X95414070Y-124910930D01*
X95399654Y-124895024D01*
X95386866Y-124877781D01*
X95375830Y-124859368D01*
X95366651Y-124839962D01*
X95359419Y-124819750D01*
X95354203Y-124798926D01*
X95351053Y-124777691D01*
X95350000Y-124756250D01*
X95350000Y-124243750D01*
X95351053Y-124222309D01*
X95354203Y-124201074D01*
X95359419Y-124180250D01*
X95366651Y-124160038D01*
X95375830Y-124140632D01*
X95386866Y-124122219D01*
X95399654Y-124104976D01*
X95414070Y-124089070D01*
X95429976Y-124074654D01*
X95447219Y-124061866D01*
X95465632Y-124050830D01*
X95485038Y-124041651D01*
X95505250Y-124034419D01*
X95526074Y-124029203D01*
X95547309Y-124026053D01*
X95568750Y-124025000D01*
X96006250Y-124025000D01*
X96027691Y-124026053D01*
X96027691Y-124026053D01*
G37*
D11*
X95787500Y-124500000D03*
D10*
G36*
X94452691Y-124026053D02*
G01*
X94473926Y-124029203D01*
X94494750Y-124034419D01*
X94514962Y-124041651D01*
X94534368Y-124050830D01*
X94552781Y-124061866D01*
X94570024Y-124074654D01*
X94585930Y-124089070D01*
X94600346Y-124104976D01*
X94613134Y-124122219D01*
X94624170Y-124140632D01*
X94633349Y-124160038D01*
X94640581Y-124180250D01*
X94645797Y-124201074D01*
X94648947Y-124222309D01*
X94650000Y-124243750D01*
X94650000Y-124756250D01*
X94648947Y-124777691D01*
X94645797Y-124798926D01*
X94640581Y-124819750D01*
X94633349Y-124839962D01*
X94624170Y-124859368D01*
X94613134Y-124877781D01*
X94600346Y-124895024D01*
X94585930Y-124910930D01*
X94570024Y-124925346D01*
X94552781Y-124938134D01*
X94534368Y-124949170D01*
X94514962Y-124958349D01*
X94494750Y-124965581D01*
X94473926Y-124970797D01*
X94452691Y-124973947D01*
X94431250Y-124975000D01*
X93993750Y-124975000D01*
X93972309Y-124973947D01*
X93951074Y-124970797D01*
X93930250Y-124965581D01*
X93910038Y-124958349D01*
X93890632Y-124949170D01*
X93872219Y-124938134D01*
X93854976Y-124925346D01*
X93839070Y-124910930D01*
X93824654Y-124895024D01*
X93811866Y-124877781D01*
X93800830Y-124859368D01*
X93791651Y-124839962D01*
X93784419Y-124819750D01*
X93779203Y-124798926D01*
X93776053Y-124777691D01*
X93775000Y-124756250D01*
X93775000Y-124243750D01*
X93776053Y-124222309D01*
X93779203Y-124201074D01*
X93784419Y-124180250D01*
X93791651Y-124160038D01*
X93800830Y-124140632D01*
X93811866Y-124122219D01*
X93824654Y-124104976D01*
X93839070Y-124089070D01*
X93854976Y-124074654D01*
X93872219Y-124061866D01*
X93890632Y-124050830D01*
X93910038Y-124041651D01*
X93930250Y-124034419D01*
X93951074Y-124029203D01*
X93972309Y-124026053D01*
X93993750Y-124025000D01*
X94431250Y-124025000D01*
X94452691Y-124026053D01*
X94452691Y-124026053D01*
G37*
D11*
X94212500Y-124500000D03*
D10*
G36*
X94452691Y-122526053D02*
G01*
X94473926Y-122529203D01*
X94494750Y-122534419D01*
X94514962Y-122541651D01*
X94534368Y-122550830D01*
X94552781Y-122561866D01*
X94570024Y-122574654D01*
X94585930Y-122589070D01*
X94600346Y-122604976D01*
X94613134Y-122622219D01*
X94624170Y-122640632D01*
X94633349Y-122660038D01*
X94640581Y-122680250D01*
X94645797Y-122701074D01*
X94648947Y-122722309D01*
X94650000Y-122743750D01*
X94650000Y-123256250D01*
X94648947Y-123277691D01*
X94645797Y-123298926D01*
X94640581Y-123319750D01*
X94633349Y-123339962D01*
X94624170Y-123359368D01*
X94613134Y-123377781D01*
X94600346Y-123395024D01*
X94585930Y-123410930D01*
X94570024Y-123425346D01*
X94552781Y-123438134D01*
X94534368Y-123449170D01*
X94514962Y-123458349D01*
X94494750Y-123465581D01*
X94473926Y-123470797D01*
X94452691Y-123473947D01*
X94431250Y-123475000D01*
X93993750Y-123475000D01*
X93972309Y-123473947D01*
X93951074Y-123470797D01*
X93930250Y-123465581D01*
X93910038Y-123458349D01*
X93890632Y-123449170D01*
X93872219Y-123438134D01*
X93854976Y-123425346D01*
X93839070Y-123410930D01*
X93824654Y-123395024D01*
X93811866Y-123377781D01*
X93800830Y-123359368D01*
X93791651Y-123339962D01*
X93784419Y-123319750D01*
X93779203Y-123298926D01*
X93776053Y-123277691D01*
X93775000Y-123256250D01*
X93775000Y-122743750D01*
X93776053Y-122722309D01*
X93779203Y-122701074D01*
X93784419Y-122680250D01*
X93791651Y-122660038D01*
X93800830Y-122640632D01*
X93811866Y-122622219D01*
X93824654Y-122604976D01*
X93839070Y-122589070D01*
X93854976Y-122574654D01*
X93872219Y-122561866D01*
X93890632Y-122550830D01*
X93910038Y-122541651D01*
X93930250Y-122534419D01*
X93951074Y-122529203D01*
X93972309Y-122526053D01*
X93993750Y-122525000D01*
X94431250Y-122525000D01*
X94452691Y-122526053D01*
X94452691Y-122526053D01*
G37*
D11*
X94212500Y-123000000D03*
D10*
G36*
X96027691Y-122526053D02*
G01*
X96048926Y-122529203D01*
X96069750Y-122534419D01*
X96089962Y-122541651D01*
X96109368Y-122550830D01*
X96127781Y-122561866D01*
X96145024Y-122574654D01*
X96160930Y-122589070D01*
X96175346Y-122604976D01*
X96188134Y-122622219D01*
X96199170Y-122640632D01*
X96208349Y-122660038D01*
X96215581Y-122680250D01*
X96220797Y-122701074D01*
X96223947Y-122722309D01*
X96225000Y-122743750D01*
X96225000Y-123256250D01*
X96223947Y-123277691D01*
X96220797Y-123298926D01*
X96215581Y-123319750D01*
X96208349Y-123339962D01*
X96199170Y-123359368D01*
X96188134Y-123377781D01*
X96175346Y-123395024D01*
X96160930Y-123410930D01*
X96145024Y-123425346D01*
X96127781Y-123438134D01*
X96109368Y-123449170D01*
X96089962Y-123458349D01*
X96069750Y-123465581D01*
X96048926Y-123470797D01*
X96027691Y-123473947D01*
X96006250Y-123475000D01*
X95568750Y-123475000D01*
X95547309Y-123473947D01*
X95526074Y-123470797D01*
X95505250Y-123465581D01*
X95485038Y-123458349D01*
X95465632Y-123449170D01*
X95447219Y-123438134D01*
X95429976Y-123425346D01*
X95414070Y-123410930D01*
X95399654Y-123395024D01*
X95386866Y-123377781D01*
X95375830Y-123359368D01*
X95366651Y-123339962D01*
X95359419Y-123319750D01*
X95354203Y-123298926D01*
X95351053Y-123277691D01*
X95350000Y-123256250D01*
X95350000Y-122743750D01*
X95351053Y-122722309D01*
X95354203Y-122701074D01*
X95359419Y-122680250D01*
X95366651Y-122660038D01*
X95375830Y-122640632D01*
X95386866Y-122622219D01*
X95399654Y-122604976D01*
X95414070Y-122589070D01*
X95429976Y-122574654D01*
X95447219Y-122561866D01*
X95465632Y-122550830D01*
X95485038Y-122541651D01*
X95505250Y-122534419D01*
X95526074Y-122529203D01*
X95547309Y-122526053D01*
X95568750Y-122525000D01*
X96006250Y-122525000D01*
X96027691Y-122526053D01*
X96027691Y-122526053D01*
G37*
D11*
X95787500Y-123000000D03*
D10*
G36*
X96027691Y-121026053D02*
G01*
X96048926Y-121029203D01*
X96069750Y-121034419D01*
X96089962Y-121041651D01*
X96109368Y-121050830D01*
X96127781Y-121061866D01*
X96145024Y-121074654D01*
X96160930Y-121089070D01*
X96175346Y-121104976D01*
X96188134Y-121122219D01*
X96199170Y-121140632D01*
X96208349Y-121160038D01*
X96215581Y-121180250D01*
X96220797Y-121201074D01*
X96223947Y-121222309D01*
X96225000Y-121243750D01*
X96225000Y-121756250D01*
X96223947Y-121777691D01*
X96220797Y-121798926D01*
X96215581Y-121819750D01*
X96208349Y-121839962D01*
X96199170Y-121859368D01*
X96188134Y-121877781D01*
X96175346Y-121895024D01*
X96160930Y-121910930D01*
X96145024Y-121925346D01*
X96127781Y-121938134D01*
X96109368Y-121949170D01*
X96089962Y-121958349D01*
X96069750Y-121965581D01*
X96048926Y-121970797D01*
X96027691Y-121973947D01*
X96006250Y-121975000D01*
X95568750Y-121975000D01*
X95547309Y-121973947D01*
X95526074Y-121970797D01*
X95505250Y-121965581D01*
X95485038Y-121958349D01*
X95465632Y-121949170D01*
X95447219Y-121938134D01*
X95429976Y-121925346D01*
X95414070Y-121910930D01*
X95399654Y-121895024D01*
X95386866Y-121877781D01*
X95375830Y-121859368D01*
X95366651Y-121839962D01*
X95359419Y-121819750D01*
X95354203Y-121798926D01*
X95351053Y-121777691D01*
X95350000Y-121756250D01*
X95350000Y-121243750D01*
X95351053Y-121222309D01*
X95354203Y-121201074D01*
X95359419Y-121180250D01*
X95366651Y-121160038D01*
X95375830Y-121140632D01*
X95386866Y-121122219D01*
X95399654Y-121104976D01*
X95414070Y-121089070D01*
X95429976Y-121074654D01*
X95447219Y-121061866D01*
X95465632Y-121050830D01*
X95485038Y-121041651D01*
X95505250Y-121034419D01*
X95526074Y-121029203D01*
X95547309Y-121026053D01*
X95568750Y-121025000D01*
X96006250Y-121025000D01*
X96027691Y-121026053D01*
X96027691Y-121026053D01*
G37*
D11*
X95787500Y-121500000D03*
D10*
G36*
X94452691Y-121026053D02*
G01*
X94473926Y-121029203D01*
X94494750Y-121034419D01*
X94514962Y-121041651D01*
X94534368Y-121050830D01*
X94552781Y-121061866D01*
X94570024Y-121074654D01*
X94585930Y-121089070D01*
X94600346Y-121104976D01*
X94613134Y-121122219D01*
X94624170Y-121140632D01*
X94633349Y-121160038D01*
X94640581Y-121180250D01*
X94645797Y-121201074D01*
X94648947Y-121222309D01*
X94650000Y-121243750D01*
X94650000Y-121756250D01*
X94648947Y-121777691D01*
X94645797Y-121798926D01*
X94640581Y-121819750D01*
X94633349Y-121839962D01*
X94624170Y-121859368D01*
X94613134Y-121877781D01*
X94600346Y-121895024D01*
X94585930Y-121910930D01*
X94570024Y-121925346D01*
X94552781Y-121938134D01*
X94534368Y-121949170D01*
X94514962Y-121958349D01*
X94494750Y-121965581D01*
X94473926Y-121970797D01*
X94452691Y-121973947D01*
X94431250Y-121975000D01*
X93993750Y-121975000D01*
X93972309Y-121973947D01*
X93951074Y-121970797D01*
X93930250Y-121965581D01*
X93910038Y-121958349D01*
X93890632Y-121949170D01*
X93872219Y-121938134D01*
X93854976Y-121925346D01*
X93839070Y-121910930D01*
X93824654Y-121895024D01*
X93811866Y-121877781D01*
X93800830Y-121859368D01*
X93791651Y-121839962D01*
X93784419Y-121819750D01*
X93779203Y-121798926D01*
X93776053Y-121777691D01*
X93775000Y-121756250D01*
X93775000Y-121243750D01*
X93776053Y-121222309D01*
X93779203Y-121201074D01*
X93784419Y-121180250D01*
X93791651Y-121160038D01*
X93800830Y-121140632D01*
X93811866Y-121122219D01*
X93824654Y-121104976D01*
X93839070Y-121089070D01*
X93854976Y-121074654D01*
X93872219Y-121061866D01*
X93890632Y-121050830D01*
X93910038Y-121041651D01*
X93930250Y-121034419D01*
X93951074Y-121029203D01*
X93972309Y-121026053D01*
X93993750Y-121025000D01*
X94431250Y-121025000D01*
X94452691Y-121026053D01*
X94452691Y-121026053D01*
G37*
D11*
X94212500Y-121500000D03*
D10*
G36*
X91527691Y-114526053D02*
G01*
X91548926Y-114529203D01*
X91569750Y-114534419D01*
X91589962Y-114541651D01*
X91609368Y-114550830D01*
X91627781Y-114561866D01*
X91645024Y-114574654D01*
X91660930Y-114589070D01*
X91675346Y-114604976D01*
X91688134Y-114622219D01*
X91699170Y-114640632D01*
X91708349Y-114660038D01*
X91715581Y-114680250D01*
X91720797Y-114701074D01*
X91723947Y-114722309D01*
X91725000Y-114743750D01*
X91725000Y-115181250D01*
X91723947Y-115202691D01*
X91720797Y-115223926D01*
X91715581Y-115244750D01*
X91708349Y-115264962D01*
X91699170Y-115284368D01*
X91688134Y-115302781D01*
X91675346Y-115320024D01*
X91660930Y-115335930D01*
X91645024Y-115350346D01*
X91627781Y-115363134D01*
X91609368Y-115374170D01*
X91589962Y-115383349D01*
X91569750Y-115390581D01*
X91548926Y-115395797D01*
X91527691Y-115398947D01*
X91506250Y-115400000D01*
X90993750Y-115400000D01*
X90972309Y-115398947D01*
X90951074Y-115395797D01*
X90930250Y-115390581D01*
X90910038Y-115383349D01*
X90890632Y-115374170D01*
X90872219Y-115363134D01*
X90854976Y-115350346D01*
X90839070Y-115335930D01*
X90824654Y-115320024D01*
X90811866Y-115302781D01*
X90800830Y-115284368D01*
X90791651Y-115264962D01*
X90784419Y-115244750D01*
X90779203Y-115223926D01*
X90776053Y-115202691D01*
X90775000Y-115181250D01*
X90775000Y-114743750D01*
X90776053Y-114722309D01*
X90779203Y-114701074D01*
X90784419Y-114680250D01*
X90791651Y-114660038D01*
X90800830Y-114640632D01*
X90811866Y-114622219D01*
X90824654Y-114604976D01*
X90839070Y-114589070D01*
X90854976Y-114574654D01*
X90872219Y-114561866D01*
X90890632Y-114550830D01*
X90910038Y-114541651D01*
X90930250Y-114534419D01*
X90951074Y-114529203D01*
X90972309Y-114526053D01*
X90993750Y-114525000D01*
X91506250Y-114525000D01*
X91527691Y-114526053D01*
X91527691Y-114526053D01*
G37*
D11*
X91250000Y-114962500D03*
D10*
G36*
X91527691Y-116101053D02*
G01*
X91548926Y-116104203D01*
X91569750Y-116109419D01*
X91589962Y-116116651D01*
X91609368Y-116125830D01*
X91627781Y-116136866D01*
X91645024Y-116149654D01*
X91660930Y-116164070D01*
X91675346Y-116179976D01*
X91688134Y-116197219D01*
X91699170Y-116215632D01*
X91708349Y-116235038D01*
X91715581Y-116255250D01*
X91720797Y-116276074D01*
X91723947Y-116297309D01*
X91725000Y-116318750D01*
X91725000Y-116756250D01*
X91723947Y-116777691D01*
X91720797Y-116798926D01*
X91715581Y-116819750D01*
X91708349Y-116839962D01*
X91699170Y-116859368D01*
X91688134Y-116877781D01*
X91675346Y-116895024D01*
X91660930Y-116910930D01*
X91645024Y-116925346D01*
X91627781Y-116938134D01*
X91609368Y-116949170D01*
X91589962Y-116958349D01*
X91569750Y-116965581D01*
X91548926Y-116970797D01*
X91527691Y-116973947D01*
X91506250Y-116975000D01*
X90993750Y-116975000D01*
X90972309Y-116973947D01*
X90951074Y-116970797D01*
X90930250Y-116965581D01*
X90910038Y-116958349D01*
X90890632Y-116949170D01*
X90872219Y-116938134D01*
X90854976Y-116925346D01*
X90839070Y-116910930D01*
X90824654Y-116895024D01*
X90811866Y-116877781D01*
X90800830Y-116859368D01*
X90791651Y-116839962D01*
X90784419Y-116819750D01*
X90779203Y-116798926D01*
X90776053Y-116777691D01*
X90775000Y-116756250D01*
X90775000Y-116318750D01*
X90776053Y-116297309D01*
X90779203Y-116276074D01*
X90784419Y-116255250D01*
X90791651Y-116235038D01*
X90800830Y-116215632D01*
X90811866Y-116197219D01*
X90824654Y-116179976D01*
X90839070Y-116164070D01*
X90854976Y-116149654D01*
X90872219Y-116136866D01*
X90890632Y-116125830D01*
X90910038Y-116116651D01*
X90930250Y-116109419D01*
X90951074Y-116104203D01*
X90972309Y-116101053D01*
X90993750Y-116100000D01*
X91506250Y-116100000D01*
X91527691Y-116101053D01*
X91527691Y-116101053D01*
G37*
D11*
X91250000Y-116537500D03*
D10*
G36*
X93027691Y-114526053D02*
G01*
X93048926Y-114529203D01*
X93069750Y-114534419D01*
X93089962Y-114541651D01*
X93109368Y-114550830D01*
X93127781Y-114561866D01*
X93145024Y-114574654D01*
X93160930Y-114589070D01*
X93175346Y-114604976D01*
X93188134Y-114622219D01*
X93199170Y-114640632D01*
X93208349Y-114660038D01*
X93215581Y-114680250D01*
X93220797Y-114701074D01*
X93223947Y-114722309D01*
X93225000Y-114743750D01*
X93225000Y-115181250D01*
X93223947Y-115202691D01*
X93220797Y-115223926D01*
X93215581Y-115244750D01*
X93208349Y-115264962D01*
X93199170Y-115284368D01*
X93188134Y-115302781D01*
X93175346Y-115320024D01*
X93160930Y-115335930D01*
X93145024Y-115350346D01*
X93127781Y-115363134D01*
X93109368Y-115374170D01*
X93089962Y-115383349D01*
X93069750Y-115390581D01*
X93048926Y-115395797D01*
X93027691Y-115398947D01*
X93006250Y-115400000D01*
X92493750Y-115400000D01*
X92472309Y-115398947D01*
X92451074Y-115395797D01*
X92430250Y-115390581D01*
X92410038Y-115383349D01*
X92390632Y-115374170D01*
X92372219Y-115363134D01*
X92354976Y-115350346D01*
X92339070Y-115335930D01*
X92324654Y-115320024D01*
X92311866Y-115302781D01*
X92300830Y-115284368D01*
X92291651Y-115264962D01*
X92284419Y-115244750D01*
X92279203Y-115223926D01*
X92276053Y-115202691D01*
X92275000Y-115181250D01*
X92275000Y-114743750D01*
X92276053Y-114722309D01*
X92279203Y-114701074D01*
X92284419Y-114680250D01*
X92291651Y-114660038D01*
X92300830Y-114640632D01*
X92311866Y-114622219D01*
X92324654Y-114604976D01*
X92339070Y-114589070D01*
X92354976Y-114574654D01*
X92372219Y-114561866D01*
X92390632Y-114550830D01*
X92410038Y-114541651D01*
X92430250Y-114534419D01*
X92451074Y-114529203D01*
X92472309Y-114526053D01*
X92493750Y-114525000D01*
X93006250Y-114525000D01*
X93027691Y-114526053D01*
X93027691Y-114526053D01*
G37*
D11*
X92750000Y-114962500D03*
D10*
G36*
X93027691Y-116101053D02*
G01*
X93048926Y-116104203D01*
X93069750Y-116109419D01*
X93089962Y-116116651D01*
X93109368Y-116125830D01*
X93127781Y-116136866D01*
X93145024Y-116149654D01*
X93160930Y-116164070D01*
X93175346Y-116179976D01*
X93188134Y-116197219D01*
X93199170Y-116215632D01*
X93208349Y-116235038D01*
X93215581Y-116255250D01*
X93220797Y-116276074D01*
X93223947Y-116297309D01*
X93225000Y-116318750D01*
X93225000Y-116756250D01*
X93223947Y-116777691D01*
X93220797Y-116798926D01*
X93215581Y-116819750D01*
X93208349Y-116839962D01*
X93199170Y-116859368D01*
X93188134Y-116877781D01*
X93175346Y-116895024D01*
X93160930Y-116910930D01*
X93145024Y-116925346D01*
X93127781Y-116938134D01*
X93109368Y-116949170D01*
X93089962Y-116958349D01*
X93069750Y-116965581D01*
X93048926Y-116970797D01*
X93027691Y-116973947D01*
X93006250Y-116975000D01*
X92493750Y-116975000D01*
X92472309Y-116973947D01*
X92451074Y-116970797D01*
X92430250Y-116965581D01*
X92410038Y-116958349D01*
X92390632Y-116949170D01*
X92372219Y-116938134D01*
X92354976Y-116925346D01*
X92339070Y-116910930D01*
X92324654Y-116895024D01*
X92311866Y-116877781D01*
X92300830Y-116859368D01*
X92291651Y-116839962D01*
X92284419Y-116819750D01*
X92279203Y-116798926D01*
X92276053Y-116777691D01*
X92275000Y-116756250D01*
X92275000Y-116318750D01*
X92276053Y-116297309D01*
X92279203Y-116276074D01*
X92284419Y-116255250D01*
X92291651Y-116235038D01*
X92300830Y-116215632D01*
X92311866Y-116197219D01*
X92324654Y-116179976D01*
X92339070Y-116164070D01*
X92354976Y-116149654D01*
X92372219Y-116136866D01*
X92390632Y-116125830D01*
X92410038Y-116116651D01*
X92430250Y-116109419D01*
X92451074Y-116104203D01*
X92472309Y-116101053D01*
X92493750Y-116100000D01*
X93006250Y-116100000D01*
X93027691Y-116101053D01*
X93027691Y-116101053D01*
G37*
D11*
X92750000Y-116537500D03*
D10*
G36*
X96027691Y-119476053D02*
G01*
X96048926Y-119479203D01*
X96069750Y-119484419D01*
X96089962Y-119491651D01*
X96109368Y-119500830D01*
X96127781Y-119511866D01*
X96145024Y-119524654D01*
X96160930Y-119539070D01*
X96175346Y-119554976D01*
X96188134Y-119572219D01*
X96199170Y-119590632D01*
X96208349Y-119610038D01*
X96215581Y-119630250D01*
X96220797Y-119651074D01*
X96223947Y-119672309D01*
X96225000Y-119693750D01*
X96225000Y-120206250D01*
X96223947Y-120227691D01*
X96220797Y-120248926D01*
X96215581Y-120269750D01*
X96208349Y-120289962D01*
X96199170Y-120309368D01*
X96188134Y-120327781D01*
X96175346Y-120345024D01*
X96160930Y-120360930D01*
X96145024Y-120375346D01*
X96127781Y-120388134D01*
X96109368Y-120399170D01*
X96089962Y-120408349D01*
X96069750Y-120415581D01*
X96048926Y-120420797D01*
X96027691Y-120423947D01*
X96006250Y-120425000D01*
X95568750Y-120425000D01*
X95547309Y-120423947D01*
X95526074Y-120420797D01*
X95505250Y-120415581D01*
X95485038Y-120408349D01*
X95465632Y-120399170D01*
X95447219Y-120388134D01*
X95429976Y-120375346D01*
X95414070Y-120360930D01*
X95399654Y-120345024D01*
X95386866Y-120327781D01*
X95375830Y-120309368D01*
X95366651Y-120289962D01*
X95359419Y-120269750D01*
X95354203Y-120248926D01*
X95351053Y-120227691D01*
X95350000Y-120206250D01*
X95350000Y-119693750D01*
X95351053Y-119672309D01*
X95354203Y-119651074D01*
X95359419Y-119630250D01*
X95366651Y-119610038D01*
X95375830Y-119590632D01*
X95386866Y-119572219D01*
X95399654Y-119554976D01*
X95414070Y-119539070D01*
X95429976Y-119524654D01*
X95447219Y-119511866D01*
X95465632Y-119500830D01*
X95485038Y-119491651D01*
X95505250Y-119484419D01*
X95526074Y-119479203D01*
X95547309Y-119476053D01*
X95568750Y-119475000D01*
X96006250Y-119475000D01*
X96027691Y-119476053D01*
X96027691Y-119476053D01*
G37*
D11*
X95787500Y-119950000D03*
D10*
G36*
X94452691Y-119476053D02*
G01*
X94473926Y-119479203D01*
X94494750Y-119484419D01*
X94514962Y-119491651D01*
X94534368Y-119500830D01*
X94552781Y-119511866D01*
X94570024Y-119524654D01*
X94585930Y-119539070D01*
X94600346Y-119554976D01*
X94613134Y-119572219D01*
X94624170Y-119590632D01*
X94633349Y-119610038D01*
X94640581Y-119630250D01*
X94645797Y-119651074D01*
X94648947Y-119672309D01*
X94650000Y-119693750D01*
X94650000Y-120206250D01*
X94648947Y-120227691D01*
X94645797Y-120248926D01*
X94640581Y-120269750D01*
X94633349Y-120289962D01*
X94624170Y-120309368D01*
X94613134Y-120327781D01*
X94600346Y-120345024D01*
X94585930Y-120360930D01*
X94570024Y-120375346D01*
X94552781Y-120388134D01*
X94534368Y-120399170D01*
X94514962Y-120408349D01*
X94494750Y-120415581D01*
X94473926Y-120420797D01*
X94452691Y-120423947D01*
X94431250Y-120425000D01*
X93993750Y-120425000D01*
X93972309Y-120423947D01*
X93951074Y-120420797D01*
X93930250Y-120415581D01*
X93910038Y-120408349D01*
X93890632Y-120399170D01*
X93872219Y-120388134D01*
X93854976Y-120375346D01*
X93839070Y-120360930D01*
X93824654Y-120345024D01*
X93811866Y-120327781D01*
X93800830Y-120309368D01*
X93791651Y-120289962D01*
X93784419Y-120269750D01*
X93779203Y-120248926D01*
X93776053Y-120227691D01*
X93775000Y-120206250D01*
X93775000Y-119693750D01*
X93776053Y-119672309D01*
X93779203Y-119651074D01*
X93784419Y-119630250D01*
X93791651Y-119610038D01*
X93800830Y-119590632D01*
X93811866Y-119572219D01*
X93824654Y-119554976D01*
X93839070Y-119539070D01*
X93854976Y-119524654D01*
X93872219Y-119511866D01*
X93890632Y-119500830D01*
X93910038Y-119491651D01*
X93930250Y-119484419D01*
X93951074Y-119479203D01*
X93972309Y-119476053D01*
X93993750Y-119475000D01*
X94431250Y-119475000D01*
X94452691Y-119476053D01*
X94452691Y-119476053D01*
G37*
D11*
X94212500Y-119950000D03*
D10*
G36*
X94452691Y-117976053D02*
G01*
X94473926Y-117979203D01*
X94494750Y-117984419D01*
X94514962Y-117991651D01*
X94534368Y-118000830D01*
X94552781Y-118011866D01*
X94570024Y-118024654D01*
X94585930Y-118039070D01*
X94600346Y-118054976D01*
X94613134Y-118072219D01*
X94624170Y-118090632D01*
X94633349Y-118110038D01*
X94640581Y-118130250D01*
X94645797Y-118151074D01*
X94648947Y-118172309D01*
X94650000Y-118193750D01*
X94650000Y-118706250D01*
X94648947Y-118727691D01*
X94645797Y-118748926D01*
X94640581Y-118769750D01*
X94633349Y-118789962D01*
X94624170Y-118809368D01*
X94613134Y-118827781D01*
X94600346Y-118845024D01*
X94585930Y-118860930D01*
X94570024Y-118875346D01*
X94552781Y-118888134D01*
X94534368Y-118899170D01*
X94514962Y-118908349D01*
X94494750Y-118915581D01*
X94473926Y-118920797D01*
X94452691Y-118923947D01*
X94431250Y-118925000D01*
X93993750Y-118925000D01*
X93972309Y-118923947D01*
X93951074Y-118920797D01*
X93930250Y-118915581D01*
X93910038Y-118908349D01*
X93890632Y-118899170D01*
X93872219Y-118888134D01*
X93854976Y-118875346D01*
X93839070Y-118860930D01*
X93824654Y-118845024D01*
X93811866Y-118827781D01*
X93800830Y-118809368D01*
X93791651Y-118789962D01*
X93784419Y-118769750D01*
X93779203Y-118748926D01*
X93776053Y-118727691D01*
X93775000Y-118706250D01*
X93775000Y-118193750D01*
X93776053Y-118172309D01*
X93779203Y-118151074D01*
X93784419Y-118130250D01*
X93791651Y-118110038D01*
X93800830Y-118090632D01*
X93811866Y-118072219D01*
X93824654Y-118054976D01*
X93839070Y-118039070D01*
X93854976Y-118024654D01*
X93872219Y-118011866D01*
X93890632Y-118000830D01*
X93910038Y-117991651D01*
X93930250Y-117984419D01*
X93951074Y-117979203D01*
X93972309Y-117976053D01*
X93993750Y-117975000D01*
X94431250Y-117975000D01*
X94452691Y-117976053D01*
X94452691Y-117976053D01*
G37*
D11*
X94212500Y-118450000D03*
D10*
G36*
X96027691Y-117976053D02*
G01*
X96048926Y-117979203D01*
X96069750Y-117984419D01*
X96089962Y-117991651D01*
X96109368Y-118000830D01*
X96127781Y-118011866D01*
X96145024Y-118024654D01*
X96160930Y-118039070D01*
X96175346Y-118054976D01*
X96188134Y-118072219D01*
X96199170Y-118090632D01*
X96208349Y-118110038D01*
X96215581Y-118130250D01*
X96220797Y-118151074D01*
X96223947Y-118172309D01*
X96225000Y-118193750D01*
X96225000Y-118706250D01*
X96223947Y-118727691D01*
X96220797Y-118748926D01*
X96215581Y-118769750D01*
X96208349Y-118789962D01*
X96199170Y-118809368D01*
X96188134Y-118827781D01*
X96175346Y-118845024D01*
X96160930Y-118860930D01*
X96145024Y-118875346D01*
X96127781Y-118888134D01*
X96109368Y-118899170D01*
X96089962Y-118908349D01*
X96069750Y-118915581D01*
X96048926Y-118920797D01*
X96027691Y-118923947D01*
X96006250Y-118925000D01*
X95568750Y-118925000D01*
X95547309Y-118923947D01*
X95526074Y-118920797D01*
X95505250Y-118915581D01*
X95485038Y-118908349D01*
X95465632Y-118899170D01*
X95447219Y-118888134D01*
X95429976Y-118875346D01*
X95414070Y-118860930D01*
X95399654Y-118845024D01*
X95386866Y-118827781D01*
X95375830Y-118809368D01*
X95366651Y-118789962D01*
X95359419Y-118769750D01*
X95354203Y-118748926D01*
X95351053Y-118727691D01*
X95350000Y-118706250D01*
X95350000Y-118193750D01*
X95351053Y-118172309D01*
X95354203Y-118151074D01*
X95359419Y-118130250D01*
X95366651Y-118110038D01*
X95375830Y-118090632D01*
X95386866Y-118072219D01*
X95399654Y-118054976D01*
X95414070Y-118039070D01*
X95429976Y-118024654D01*
X95447219Y-118011866D01*
X95465632Y-118000830D01*
X95485038Y-117991651D01*
X95505250Y-117984419D01*
X95526074Y-117979203D01*
X95547309Y-117976053D01*
X95568750Y-117975000D01*
X96006250Y-117975000D01*
X96027691Y-117976053D01*
X96027691Y-117976053D01*
G37*
D11*
X95787500Y-118450000D03*
D10*
G36*
X96027691Y-116476053D02*
G01*
X96048926Y-116479203D01*
X96069750Y-116484419D01*
X96089962Y-116491651D01*
X96109368Y-116500830D01*
X96127781Y-116511866D01*
X96145024Y-116524654D01*
X96160930Y-116539070D01*
X96175346Y-116554976D01*
X96188134Y-116572219D01*
X96199170Y-116590632D01*
X96208349Y-116610038D01*
X96215581Y-116630250D01*
X96220797Y-116651074D01*
X96223947Y-116672309D01*
X96225000Y-116693750D01*
X96225000Y-117206250D01*
X96223947Y-117227691D01*
X96220797Y-117248926D01*
X96215581Y-117269750D01*
X96208349Y-117289962D01*
X96199170Y-117309368D01*
X96188134Y-117327781D01*
X96175346Y-117345024D01*
X96160930Y-117360930D01*
X96145024Y-117375346D01*
X96127781Y-117388134D01*
X96109368Y-117399170D01*
X96089962Y-117408349D01*
X96069750Y-117415581D01*
X96048926Y-117420797D01*
X96027691Y-117423947D01*
X96006250Y-117425000D01*
X95568750Y-117425000D01*
X95547309Y-117423947D01*
X95526074Y-117420797D01*
X95505250Y-117415581D01*
X95485038Y-117408349D01*
X95465632Y-117399170D01*
X95447219Y-117388134D01*
X95429976Y-117375346D01*
X95414070Y-117360930D01*
X95399654Y-117345024D01*
X95386866Y-117327781D01*
X95375830Y-117309368D01*
X95366651Y-117289962D01*
X95359419Y-117269750D01*
X95354203Y-117248926D01*
X95351053Y-117227691D01*
X95350000Y-117206250D01*
X95350000Y-116693750D01*
X95351053Y-116672309D01*
X95354203Y-116651074D01*
X95359419Y-116630250D01*
X95366651Y-116610038D01*
X95375830Y-116590632D01*
X95386866Y-116572219D01*
X95399654Y-116554976D01*
X95414070Y-116539070D01*
X95429976Y-116524654D01*
X95447219Y-116511866D01*
X95465632Y-116500830D01*
X95485038Y-116491651D01*
X95505250Y-116484419D01*
X95526074Y-116479203D01*
X95547309Y-116476053D01*
X95568750Y-116475000D01*
X96006250Y-116475000D01*
X96027691Y-116476053D01*
X96027691Y-116476053D01*
G37*
D11*
X95787500Y-116950000D03*
D10*
G36*
X94452691Y-116476053D02*
G01*
X94473926Y-116479203D01*
X94494750Y-116484419D01*
X94514962Y-116491651D01*
X94534368Y-116500830D01*
X94552781Y-116511866D01*
X94570024Y-116524654D01*
X94585930Y-116539070D01*
X94600346Y-116554976D01*
X94613134Y-116572219D01*
X94624170Y-116590632D01*
X94633349Y-116610038D01*
X94640581Y-116630250D01*
X94645797Y-116651074D01*
X94648947Y-116672309D01*
X94650000Y-116693750D01*
X94650000Y-117206250D01*
X94648947Y-117227691D01*
X94645797Y-117248926D01*
X94640581Y-117269750D01*
X94633349Y-117289962D01*
X94624170Y-117309368D01*
X94613134Y-117327781D01*
X94600346Y-117345024D01*
X94585930Y-117360930D01*
X94570024Y-117375346D01*
X94552781Y-117388134D01*
X94534368Y-117399170D01*
X94514962Y-117408349D01*
X94494750Y-117415581D01*
X94473926Y-117420797D01*
X94452691Y-117423947D01*
X94431250Y-117425000D01*
X93993750Y-117425000D01*
X93972309Y-117423947D01*
X93951074Y-117420797D01*
X93930250Y-117415581D01*
X93910038Y-117408349D01*
X93890632Y-117399170D01*
X93872219Y-117388134D01*
X93854976Y-117375346D01*
X93839070Y-117360930D01*
X93824654Y-117345024D01*
X93811866Y-117327781D01*
X93800830Y-117309368D01*
X93791651Y-117289962D01*
X93784419Y-117269750D01*
X93779203Y-117248926D01*
X93776053Y-117227691D01*
X93775000Y-117206250D01*
X93775000Y-116693750D01*
X93776053Y-116672309D01*
X93779203Y-116651074D01*
X93784419Y-116630250D01*
X93791651Y-116610038D01*
X93800830Y-116590632D01*
X93811866Y-116572219D01*
X93824654Y-116554976D01*
X93839070Y-116539070D01*
X93854976Y-116524654D01*
X93872219Y-116511866D01*
X93890632Y-116500830D01*
X93910038Y-116491651D01*
X93930250Y-116484419D01*
X93951074Y-116479203D01*
X93972309Y-116476053D01*
X93993750Y-116475000D01*
X94431250Y-116475000D01*
X94452691Y-116476053D01*
X94452691Y-116476053D01*
G37*
D11*
X94212500Y-116950000D03*
D10*
G36*
X94452691Y-114976053D02*
G01*
X94473926Y-114979203D01*
X94494750Y-114984419D01*
X94514962Y-114991651D01*
X94534368Y-115000830D01*
X94552781Y-115011866D01*
X94570024Y-115024654D01*
X94585930Y-115039070D01*
X94600346Y-115054976D01*
X94613134Y-115072219D01*
X94624170Y-115090632D01*
X94633349Y-115110038D01*
X94640581Y-115130250D01*
X94645797Y-115151074D01*
X94648947Y-115172309D01*
X94650000Y-115193750D01*
X94650000Y-115706250D01*
X94648947Y-115727691D01*
X94645797Y-115748926D01*
X94640581Y-115769750D01*
X94633349Y-115789962D01*
X94624170Y-115809368D01*
X94613134Y-115827781D01*
X94600346Y-115845024D01*
X94585930Y-115860930D01*
X94570024Y-115875346D01*
X94552781Y-115888134D01*
X94534368Y-115899170D01*
X94514962Y-115908349D01*
X94494750Y-115915581D01*
X94473926Y-115920797D01*
X94452691Y-115923947D01*
X94431250Y-115925000D01*
X93993750Y-115925000D01*
X93972309Y-115923947D01*
X93951074Y-115920797D01*
X93930250Y-115915581D01*
X93910038Y-115908349D01*
X93890632Y-115899170D01*
X93872219Y-115888134D01*
X93854976Y-115875346D01*
X93839070Y-115860930D01*
X93824654Y-115845024D01*
X93811866Y-115827781D01*
X93800830Y-115809368D01*
X93791651Y-115789962D01*
X93784419Y-115769750D01*
X93779203Y-115748926D01*
X93776053Y-115727691D01*
X93775000Y-115706250D01*
X93775000Y-115193750D01*
X93776053Y-115172309D01*
X93779203Y-115151074D01*
X93784419Y-115130250D01*
X93791651Y-115110038D01*
X93800830Y-115090632D01*
X93811866Y-115072219D01*
X93824654Y-115054976D01*
X93839070Y-115039070D01*
X93854976Y-115024654D01*
X93872219Y-115011866D01*
X93890632Y-115000830D01*
X93910038Y-114991651D01*
X93930250Y-114984419D01*
X93951074Y-114979203D01*
X93972309Y-114976053D01*
X93993750Y-114975000D01*
X94431250Y-114975000D01*
X94452691Y-114976053D01*
X94452691Y-114976053D01*
G37*
D11*
X94212500Y-115450000D03*
D10*
G36*
X96027691Y-114976053D02*
G01*
X96048926Y-114979203D01*
X96069750Y-114984419D01*
X96089962Y-114991651D01*
X96109368Y-115000830D01*
X96127781Y-115011866D01*
X96145024Y-115024654D01*
X96160930Y-115039070D01*
X96175346Y-115054976D01*
X96188134Y-115072219D01*
X96199170Y-115090632D01*
X96208349Y-115110038D01*
X96215581Y-115130250D01*
X96220797Y-115151074D01*
X96223947Y-115172309D01*
X96225000Y-115193750D01*
X96225000Y-115706250D01*
X96223947Y-115727691D01*
X96220797Y-115748926D01*
X96215581Y-115769750D01*
X96208349Y-115789962D01*
X96199170Y-115809368D01*
X96188134Y-115827781D01*
X96175346Y-115845024D01*
X96160930Y-115860930D01*
X96145024Y-115875346D01*
X96127781Y-115888134D01*
X96109368Y-115899170D01*
X96089962Y-115908349D01*
X96069750Y-115915581D01*
X96048926Y-115920797D01*
X96027691Y-115923947D01*
X96006250Y-115925000D01*
X95568750Y-115925000D01*
X95547309Y-115923947D01*
X95526074Y-115920797D01*
X95505250Y-115915581D01*
X95485038Y-115908349D01*
X95465632Y-115899170D01*
X95447219Y-115888134D01*
X95429976Y-115875346D01*
X95414070Y-115860930D01*
X95399654Y-115845024D01*
X95386866Y-115827781D01*
X95375830Y-115809368D01*
X95366651Y-115789962D01*
X95359419Y-115769750D01*
X95354203Y-115748926D01*
X95351053Y-115727691D01*
X95350000Y-115706250D01*
X95350000Y-115193750D01*
X95351053Y-115172309D01*
X95354203Y-115151074D01*
X95359419Y-115130250D01*
X95366651Y-115110038D01*
X95375830Y-115090632D01*
X95386866Y-115072219D01*
X95399654Y-115054976D01*
X95414070Y-115039070D01*
X95429976Y-115024654D01*
X95447219Y-115011866D01*
X95465632Y-115000830D01*
X95485038Y-114991651D01*
X95505250Y-114984419D01*
X95526074Y-114979203D01*
X95547309Y-114976053D01*
X95568750Y-114975000D01*
X96006250Y-114975000D01*
X96027691Y-114976053D01*
X96027691Y-114976053D01*
G37*
D11*
X95787500Y-115450000D03*
D10*
G36*
X94452691Y-131526053D02*
G01*
X94473926Y-131529203D01*
X94494750Y-131534419D01*
X94514962Y-131541651D01*
X94534368Y-131550830D01*
X94552781Y-131561866D01*
X94570024Y-131574654D01*
X94585930Y-131589070D01*
X94600346Y-131604976D01*
X94613134Y-131622219D01*
X94624170Y-131640632D01*
X94633349Y-131660038D01*
X94640581Y-131680250D01*
X94645797Y-131701074D01*
X94648947Y-131722309D01*
X94650000Y-131743750D01*
X94650000Y-132256250D01*
X94648947Y-132277691D01*
X94645797Y-132298926D01*
X94640581Y-132319750D01*
X94633349Y-132339962D01*
X94624170Y-132359368D01*
X94613134Y-132377781D01*
X94600346Y-132395024D01*
X94585930Y-132410930D01*
X94570024Y-132425346D01*
X94552781Y-132438134D01*
X94534368Y-132449170D01*
X94514962Y-132458349D01*
X94494750Y-132465581D01*
X94473926Y-132470797D01*
X94452691Y-132473947D01*
X94431250Y-132475000D01*
X93993750Y-132475000D01*
X93972309Y-132473947D01*
X93951074Y-132470797D01*
X93930250Y-132465581D01*
X93910038Y-132458349D01*
X93890632Y-132449170D01*
X93872219Y-132438134D01*
X93854976Y-132425346D01*
X93839070Y-132410930D01*
X93824654Y-132395024D01*
X93811866Y-132377781D01*
X93800830Y-132359368D01*
X93791651Y-132339962D01*
X93784419Y-132319750D01*
X93779203Y-132298926D01*
X93776053Y-132277691D01*
X93775000Y-132256250D01*
X93775000Y-131743750D01*
X93776053Y-131722309D01*
X93779203Y-131701074D01*
X93784419Y-131680250D01*
X93791651Y-131660038D01*
X93800830Y-131640632D01*
X93811866Y-131622219D01*
X93824654Y-131604976D01*
X93839070Y-131589070D01*
X93854976Y-131574654D01*
X93872219Y-131561866D01*
X93890632Y-131550830D01*
X93910038Y-131541651D01*
X93930250Y-131534419D01*
X93951074Y-131529203D01*
X93972309Y-131526053D01*
X93993750Y-131525000D01*
X94431250Y-131525000D01*
X94452691Y-131526053D01*
X94452691Y-131526053D01*
G37*
D11*
X94212500Y-132000000D03*
D10*
G36*
X96027691Y-131526053D02*
G01*
X96048926Y-131529203D01*
X96069750Y-131534419D01*
X96089962Y-131541651D01*
X96109368Y-131550830D01*
X96127781Y-131561866D01*
X96145024Y-131574654D01*
X96160930Y-131589070D01*
X96175346Y-131604976D01*
X96188134Y-131622219D01*
X96199170Y-131640632D01*
X96208349Y-131660038D01*
X96215581Y-131680250D01*
X96220797Y-131701074D01*
X96223947Y-131722309D01*
X96225000Y-131743750D01*
X96225000Y-132256250D01*
X96223947Y-132277691D01*
X96220797Y-132298926D01*
X96215581Y-132319750D01*
X96208349Y-132339962D01*
X96199170Y-132359368D01*
X96188134Y-132377781D01*
X96175346Y-132395024D01*
X96160930Y-132410930D01*
X96145024Y-132425346D01*
X96127781Y-132438134D01*
X96109368Y-132449170D01*
X96089962Y-132458349D01*
X96069750Y-132465581D01*
X96048926Y-132470797D01*
X96027691Y-132473947D01*
X96006250Y-132475000D01*
X95568750Y-132475000D01*
X95547309Y-132473947D01*
X95526074Y-132470797D01*
X95505250Y-132465581D01*
X95485038Y-132458349D01*
X95465632Y-132449170D01*
X95447219Y-132438134D01*
X95429976Y-132425346D01*
X95414070Y-132410930D01*
X95399654Y-132395024D01*
X95386866Y-132377781D01*
X95375830Y-132359368D01*
X95366651Y-132339962D01*
X95359419Y-132319750D01*
X95354203Y-132298926D01*
X95351053Y-132277691D01*
X95350000Y-132256250D01*
X95350000Y-131743750D01*
X95351053Y-131722309D01*
X95354203Y-131701074D01*
X95359419Y-131680250D01*
X95366651Y-131660038D01*
X95375830Y-131640632D01*
X95386866Y-131622219D01*
X95399654Y-131604976D01*
X95414070Y-131589070D01*
X95429976Y-131574654D01*
X95447219Y-131561866D01*
X95465632Y-131550830D01*
X95485038Y-131541651D01*
X95505250Y-131534419D01*
X95526074Y-131529203D01*
X95547309Y-131526053D01*
X95568750Y-131525000D01*
X96006250Y-131525000D01*
X96027691Y-131526053D01*
X96027691Y-131526053D01*
G37*
D11*
X95787500Y-132000000D03*
D10*
G36*
X96027691Y-130026053D02*
G01*
X96048926Y-130029203D01*
X96069750Y-130034419D01*
X96089962Y-130041651D01*
X96109368Y-130050830D01*
X96127781Y-130061866D01*
X96145024Y-130074654D01*
X96160930Y-130089070D01*
X96175346Y-130104976D01*
X96188134Y-130122219D01*
X96199170Y-130140632D01*
X96208349Y-130160038D01*
X96215581Y-130180250D01*
X96220797Y-130201074D01*
X96223947Y-130222309D01*
X96225000Y-130243750D01*
X96225000Y-130756250D01*
X96223947Y-130777691D01*
X96220797Y-130798926D01*
X96215581Y-130819750D01*
X96208349Y-130839962D01*
X96199170Y-130859368D01*
X96188134Y-130877781D01*
X96175346Y-130895024D01*
X96160930Y-130910930D01*
X96145024Y-130925346D01*
X96127781Y-130938134D01*
X96109368Y-130949170D01*
X96089962Y-130958349D01*
X96069750Y-130965581D01*
X96048926Y-130970797D01*
X96027691Y-130973947D01*
X96006250Y-130975000D01*
X95568750Y-130975000D01*
X95547309Y-130973947D01*
X95526074Y-130970797D01*
X95505250Y-130965581D01*
X95485038Y-130958349D01*
X95465632Y-130949170D01*
X95447219Y-130938134D01*
X95429976Y-130925346D01*
X95414070Y-130910930D01*
X95399654Y-130895024D01*
X95386866Y-130877781D01*
X95375830Y-130859368D01*
X95366651Y-130839962D01*
X95359419Y-130819750D01*
X95354203Y-130798926D01*
X95351053Y-130777691D01*
X95350000Y-130756250D01*
X95350000Y-130243750D01*
X95351053Y-130222309D01*
X95354203Y-130201074D01*
X95359419Y-130180250D01*
X95366651Y-130160038D01*
X95375830Y-130140632D01*
X95386866Y-130122219D01*
X95399654Y-130104976D01*
X95414070Y-130089070D01*
X95429976Y-130074654D01*
X95447219Y-130061866D01*
X95465632Y-130050830D01*
X95485038Y-130041651D01*
X95505250Y-130034419D01*
X95526074Y-130029203D01*
X95547309Y-130026053D01*
X95568750Y-130025000D01*
X96006250Y-130025000D01*
X96027691Y-130026053D01*
X96027691Y-130026053D01*
G37*
D11*
X95787500Y-130500000D03*
D10*
G36*
X94452691Y-130026053D02*
G01*
X94473926Y-130029203D01*
X94494750Y-130034419D01*
X94514962Y-130041651D01*
X94534368Y-130050830D01*
X94552781Y-130061866D01*
X94570024Y-130074654D01*
X94585930Y-130089070D01*
X94600346Y-130104976D01*
X94613134Y-130122219D01*
X94624170Y-130140632D01*
X94633349Y-130160038D01*
X94640581Y-130180250D01*
X94645797Y-130201074D01*
X94648947Y-130222309D01*
X94650000Y-130243750D01*
X94650000Y-130756250D01*
X94648947Y-130777691D01*
X94645797Y-130798926D01*
X94640581Y-130819750D01*
X94633349Y-130839962D01*
X94624170Y-130859368D01*
X94613134Y-130877781D01*
X94600346Y-130895024D01*
X94585930Y-130910930D01*
X94570024Y-130925346D01*
X94552781Y-130938134D01*
X94534368Y-130949170D01*
X94514962Y-130958349D01*
X94494750Y-130965581D01*
X94473926Y-130970797D01*
X94452691Y-130973947D01*
X94431250Y-130975000D01*
X93993750Y-130975000D01*
X93972309Y-130973947D01*
X93951074Y-130970797D01*
X93930250Y-130965581D01*
X93910038Y-130958349D01*
X93890632Y-130949170D01*
X93872219Y-130938134D01*
X93854976Y-130925346D01*
X93839070Y-130910930D01*
X93824654Y-130895024D01*
X93811866Y-130877781D01*
X93800830Y-130859368D01*
X93791651Y-130839962D01*
X93784419Y-130819750D01*
X93779203Y-130798926D01*
X93776053Y-130777691D01*
X93775000Y-130756250D01*
X93775000Y-130243750D01*
X93776053Y-130222309D01*
X93779203Y-130201074D01*
X93784419Y-130180250D01*
X93791651Y-130160038D01*
X93800830Y-130140632D01*
X93811866Y-130122219D01*
X93824654Y-130104976D01*
X93839070Y-130089070D01*
X93854976Y-130074654D01*
X93872219Y-130061866D01*
X93890632Y-130050830D01*
X93910038Y-130041651D01*
X93930250Y-130034419D01*
X93951074Y-130029203D01*
X93972309Y-130026053D01*
X93993750Y-130025000D01*
X94431250Y-130025000D01*
X94452691Y-130026053D01*
X94452691Y-130026053D01*
G37*
D11*
X94212500Y-130500000D03*
D10*
G36*
X102002691Y-115076053D02*
G01*
X102023926Y-115079203D01*
X102044750Y-115084419D01*
X102064962Y-115091651D01*
X102084368Y-115100830D01*
X102102781Y-115111866D01*
X102120024Y-115124654D01*
X102135930Y-115139070D01*
X102150346Y-115154976D01*
X102163134Y-115172219D01*
X102174170Y-115190632D01*
X102183349Y-115210038D01*
X102190581Y-115230250D01*
X102195797Y-115251074D01*
X102198947Y-115272309D01*
X102200000Y-115293750D01*
X102200000Y-115806250D01*
X102198947Y-115827691D01*
X102195797Y-115848926D01*
X102190581Y-115869750D01*
X102183349Y-115889962D01*
X102174170Y-115909368D01*
X102163134Y-115927781D01*
X102150346Y-115945024D01*
X102135930Y-115960930D01*
X102120024Y-115975346D01*
X102102781Y-115988134D01*
X102084368Y-115999170D01*
X102064962Y-116008349D01*
X102044750Y-116015581D01*
X102023926Y-116020797D01*
X102002691Y-116023947D01*
X101981250Y-116025000D01*
X101543750Y-116025000D01*
X101522309Y-116023947D01*
X101501074Y-116020797D01*
X101480250Y-116015581D01*
X101460038Y-116008349D01*
X101440632Y-115999170D01*
X101422219Y-115988134D01*
X101404976Y-115975346D01*
X101389070Y-115960930D01*
X101374654Y-115945024D01*
X101361866Y-115927781D01*
X101350830Y-115909368D01*
X101341651Y-115889962D01*
X101334419Y-115869750D01*
X101329203Y-115848926D01*
X101326053Y-115827691D01*
X101325000Y-115806250D01*
X101325000Y-115293750D01*
X101326053Y-115272309D01*
X101329203Y-115251074D01*
X101334419Y-115230250D01*
X101341651Y-115210038D01*
X101350830Y-115190632D01*
X101361866Y-115172219D01*
X101374654Y-115154976D01*
X101389070Y-115139070D01*
X101404976Y-115124654D01*
X101422219Y-115111866D01*
X101440632Y-115100830D01*
X101460038Y-115091651D01*
X101480250Y-115084419D01*
X101501074Y-115079203D01*
X101522309Y-115076053D01*
X101543750Y-115075000D01*
X101981250Y-115075000D01*
X102002691Y-115076053D01*
X102002691Y-115076053D01*
G37*
D11*
X101762500Y-115550000D03*
D10*
G36*
X103577691Y-115076053D02*
G01*
X103598926Y-115079203D01*
X103619750Y-115084419D01*
X103639962Y-115091651D01*
X103659368Y-115100830D01*
X103677781Y-115111866D01*
X103695024Y-115124654D01*
X103710930Y-115139070D01*
X103725346Y-115154976D01*
X103738134Y-115172219D01*
X103749170Y-115190632D01*
X103758349Y-115210038D01*
X103765581Y-115230250D01*
X103770797Y-115251074D01*
X103773947Y-115272309D01*
X103775000Y-115293750D01*
X103775000Y-115806250D01*
X103773947Y-115827691D01*
X103770797Y-115848926D01*
X103765581Y-115869750D01*
X103758349Y-115889962D01*
X103749170Y-115909368D01*
X103738134Y-115927781D01*
X103725346Y-115945024D01*
X103710930Y-115960930D01*
X103695024Y-115975346D01*
X103677781Y-115988134D01*
X103659368Y-115999170D01*
X103639962Y-116008349D01*
X103619750Y-116015581D01*
X103598926Y-116020797D01*
X103577691Y-116023947D01*
X103556250Y-116025000D01*
X103118750Y-116025000D01*
X103097309Y-116023947D01*
X103076074Y-116020797D01*
X103055250Y-116015581D01*
X103035038Y-116008349D01*
X103015632Y-115999170D01*
X102997219Y-115988134D01*
X102979976Y-115975346D01*
X102964070Y-115960930D01*
X102949654Y-115945024D01*
X102936866Y-115927781D01*
X102925830Y-115909368D01*
X102916651Y-115889962D01*
X102909419Y-115869750D01*
X102904203Y-115848926D01*
X102901053Y-115827691D01*
X102900000Y-115806250D01*
X102900000Y-115293750D01*
X102901053Y-115272309D01*
X102904203Y-115251074D01*
X102909419Y-115230250D01*
X102916651Y-115210038D01*
X102925830Y-115190632D01*
X102936866Y-115172219D01*
X102949654Y-115154976D01*
X102964070Y-115139070D01*
X102979976Y-115124654D01*
X102997219Y-115111866D01*
X103015632Y-115100830D01*
X103035038Y-115091651D01*
X103055250Y-115084419D01*
X103076074Y-115079203D01*
X103097309Y-115076053D01*
X103118750Y-115075000D01*
X103556250Y-115075000D01*
X103577691Y-115076053D01*
X103577691Y-115076053D01*
G37*
D11*
X103337500Y-115550000D03*
D10*
G36*
X103577691Y-116576053D02*
G01*
X103598926Y-116579203D01*
X103619750Y-116584419D01*
X103639962Y-116591651D01*
X103659368Y-116600830D01*
X103677781Y-116611866D01*
X103695024Y-116624654D01*
X103710930Y-116639070D01*
X103725346Y-116654976D01*
X103738134Y-116672219D01*
X103749170Y-116690632D01*
X103758349Y-116710038D01*
X103765581Y-116730250D01*
X103770797Y-116751074D01*
X103773947Y-116772309D01*
X103775000Y-116793750D01*
X103775000Y-117306250D01*
X103773947Y-117327691D01*
X103770797Y-117348926D01*
X103765581Y-117369750D01*
X103758349Y-117389962D01*
X103749170Y-117409368D01*
X103738134Y-117427781D01*
X103725346Y-117445024D01*
X103710930Y-117460930D01*
X103695024Y-117475346D01*
X103677781Y-117488134D01*
X103659368Y-117499170D01*
X103639962Y-117508349D01*
X103619750Y-117515581D01*
X103598926Y-117520797D01*
X103577691Y-117523947D01*
X103556250Y-117525000D01*
X103118750Y-117525000D01*
X103097309Y-117523947D01*
X103076074Y-117520797D01*
X103055250Y-117515581D01*
X103035038Y-117508349D01*
X103015632Y-117499170D01*
X102997219Y-117488134D01*
X102979976Y-117475346D01*
X102964070Y-117460930D01*
X102949654Y-117445024D01*
X102936866Y-117427781D01*
X102925830Y-117409368D01*
X102916651Y-117389962D01*
X102909419Y-117369750D01*
X102904203Y-117348926D01*
X102901053Y-117327691D01*
X102900000Y-117306250D01*
X102900000Y-116793750D01*
X102901053Y-116772309D01*
X102904203Y-116751074D01*
X102909419Y-116730250D01*
X102916651Y-116710038D01*
X102925830Y-116690632D01*
X102936866Y-116672219D01*
X102949654Y-116654976D01*
X102964070Y-116639070D01*
X102979976Y-116624654D01*
X102997219Y-116611866D01*
X103015632Y-116600830D01*
X103035038Y-116591651D01*
X103055250Y-116584419D01*
X103076074Y-116579203D01*
X103097309Y-116576053D01*
X103118750Y-116575000D01*
X103556250Y-116575000D01*
X103577691Y-116576053D01*
X103577691Y-116576053D01*
G37*
D11*
X103337500Y-117050000D03*
D10*
G36*
X102002691Y-116576053D02*
G01*
X102023926Y-116579203D01*
X102044750Y-116584419D01*
X102064962Y-116591651D01*
X102084368Y-116600830D01*
X102102781Y-116611866D01*
X102120024Y-116624654D01*
X102135930Y-116639070D01*
X102150346Y-116654976D01*
X102163134Y-116672219D01*
X102174170Y-116690632D01*
X102183349Y-116710038D01*
X102190581Y-116730250D01*
X102195797Y-116751074D01*
X102198947Y-116772309D01*
X102200000Y-116793750D01*
X102200000Y-117306250D01*
X102198947Y-117327691D01*
X102195797Y-117348926D01*
X102190581Y-117369750D01*
X102183349Y-117389962D01*
X102174170Y-117409368D01*
X102163134Y-117427781D01*
X102150346Y-117445024D01*
X102135930Y-117460930D01*
X102120024Y-117475346D01*
X102102781Y-117488134D01*
X102084368Y-117499170D01*
X102064962Y-117508349D01*
X102044750Y-117515581D01*
X102023926Y-117520797D01*
X102002691Y-117523947D01*
X101981250Y-117525000D01*
X101543750Y-117525000D01*
X101522309Y-117523947D01*
X101501074Y-117520797D01*
X101480250Y-117515581D01*
X101460038Y-117508349D01*
X101440632Y-117499170D01*
X101422219Y-117488134D01*
X101404976Y-117475346D01*
X101389070Y-117460930D01*
X101374654Y-117445024D01*
X101361866Y-117427781D01*
X101350830Y-117409368D01*
X101341651Y-117389962D01*
X101334419Y-117369750D01*
X101329203Y-117348926D01*
X101326053Y-117327691D01*
X101325000Y-117306250D01*
X101325000Y-116793750D01*
X101326053Y-116772309D01*
X101329203Y-116751074D01*
X101334419Y-116730250D01*
X101341651Y-116710038D01*
X101350830Y-116690632D01*
X101361866Y-116672219D01*
X101374654Y-116654976D01*
X101389070Y-116639070D01*
X101404976Y-116624654D01*
X101422219Y-116611866D01*
X101440632Y-116600830D01*
X101460038Y-116591651D01*
X101480250Y-116584419D01*
X101501074Y-116579203D01*
X101522309Y-116576053D01*
X101543750Y-116575000D01*
X101981250Y-116575000D01*
X102002691Y-116576053D01*
X102002691Y-116576053D01*
G37*
D11*
X101762500Y-117050000D03*
D10*
G36*
X102002691Y-118076053D02*
G01*
X102023926Y-118079203D01*
X102044750Y-118084419D01*
X102064962Y-118091651D01*
X102084368Y-118100830D01*
X102102781Y-118111866D01*
X102120024Y-118124654D01*
X102135930Y-118139070D01*
X102150346Y-118154976D01*
X102163134Y-118172219D01*
X102174170Y-118190632D01*
X102183349Y-118210038D01*
X102190581Y-118230250D01*
X102195797Y-118251074D01*
X102198947Y-118272309D01*
X102200000Y-118293750D01*
X102200000Y-118806250D01*
X102198947Y-118827691D01*
X102195797Y-118848926D01*
X102190581Y-118869750D01*
X102183349Y-118889962D01*
X102174170Y-118909368D01*
X102163134Y-118927781D01*
X102150346Y-118945024D01*
X102135930Y-118960930D01*
X102120024Y-118975346D01*
X102102781Y-118988134D01*
X102084368Y-118999170D01*
X102064962Y-119008349D01*
X102044750Y-119015581D01*
X102023926Y-119020797D01*
X102002691Y-119023947D01*
X101981250Y-119025000D01*
X101543750Y-119025000D01*
X101522309Y-119023947D01*
X101501074Y-119020797D01*
X101480250Y-119015581D01*
X101460038Y-119008349D01*
X101440632Y-118999170D01*
X101422219Y-118988134D01*
X101404976Y-118975346D01*
X101389070Y-118960930D01*
X101374654Y-118945024D01*
X101361866Y-118927781D01*
X101350830Y-118909368D01*
X101341651Y-118889962D01*
X101334419Y-118869750D01*
X101329203Y-118848926D01*
X101326053Y-118827691D01*
X101325000Y-118806250D01*
X101325000Y-118293750D01*
X101326053Y-118272309D01*
X101329203Y-118251074D01*
X101334419Y-118230250D01*
X101341651Y-118210038D01*
X101350830Y-118190632D01*
X101361866Y-118172219D01*
X101374654Y-118154976D01*
X101389070Y-118139070D01*
X101404976Y-118124654D01*
X101422219Y-118111866D01*
X101440632Y-118100830D01*
X101460038Y-118091651D01*
X101480250Y-118084419D01*
X101501074Y-118079203D01*
X101522309Y-118076053D01*
X101543750Y-118075000D01*
X101981250Y-118075000D01*
X102002691Y-118076053D01*
X102002691Y-118076053D01*
G37*
D11*
X101762500Y-118550000D03*
D10*
G36*
X103577691Y-118076053D02*
G01*
X103598926Y-118079203D01*
X103619750Y-118084419D01*
X103639962Y-118091651D01*
X103659368Y-118100830D01*
X103677781Y-118111866D01*
X103695024Y-118124654D01*
X103710930Y-118139070D01*
X103725346Y-118154976D01*
X103738134Y-118172219D01*
X103749170Y-118190632D01*
X103758349Y-118210038D01*
X103765581Y-118230250D01*
X103770797Y-118251074D01*
X103773947Y-118272309D01*
X103775000Y-118293750D01*
X103775000Y-118806250D01*
X103773947Y-118827691D01*
X103770797Y-118848926D01*
X103765581Y-118869750D01*
X103758349Y-118889962D01*
X103749170Y-118909368D01*
X103738134Y-118927781D01*
X103725346Y-118945024D01*
X103710930Y-118960930D01*
X103695024Y-118975346D01*
X103677781Y-118988134D01*
X103659368Y-118999170D01*
X103639962Y-119008349D01*
X103619750Y-119015581D01*
X103598926Y-119020797D01*
X103577691Y-119023947D01*
X103556250Y-119025000D01*
X103118750Y-119025000D01*
X103097309Y-119023947D01*
X103076074Y-119020797D01*
X103055250Y-119015581D01*
X103035038Y-119008349D01*
X103015632Y-118999170D01*
X102997219Y-118988134D01*
X102979976Y-118975346D01*
X102964070Y-118960930D01*
X102949654Y-118945024D01*
X102936866Y-118927781D01*
X102925830Y-118909368D01*
X102916651Y-118889962D01*
X102909419Y-118869750D01*
X102904203Y-118848926D01*
X102901053Y-118827691D01*
X102900000Y-118806250D01*
X102900000Y-118293750D01*
X102901053Y-118272309D01*
X102904203Y-118251074D01*
X102909419Y-118230250D01*
X102916651Y-118210038D01*
X102925830Y-118190632D01*
X102936866Y-118172219D01*
X102949654Y-118154976D01*
X102964070Y-118139070D01*
X102979976Y-118124654D01*
X102997219Y-118111866D01*
X103015632Y-118100830D01*
X103035038Y-118091651D01*
X103055250Y-118084419D01*
X103076074Y-118079203D01*
X103097309Y-118076053D01*
X103118750Y-118075000D01*
X103556250Y-118075000D01*
X103577691Y-118076053D01*
X103577691Y-118076053D01*
G37*
D11*
X103337500Y-118550000D03*
D10*
G36*
X103577691Y-119576053D02*
G01*
X103598926Y-119579203D01*
X103619750Y-119584419D01*
X103639962Y-119591651D01*
X103659368Y-119600830D01*
X103677781Y-119611866D01*
X103695024Y-119624654D01*
X103710930Y-119639070D01*
X103725346Y-119654976D01*
X103738134Y-119672219D01*
X103749170Y-119690632D01*
X103758349Y-119710038D01*
X103765581Y-119730250D01*
X103770797Y-119751074D01*
X103773947Y-119772309D01*
X103775000Y-119793750D01*
X103775000Y-120306250D01*
X103773947Y-120327691D01*
X103770797Y-120348926D01*
X103765581Y-120369750D01*
X103758349Y-120389962D01*
X103749170Y-120409368D01*
X103738134Y-120427781D01*
X103725346Y-120445024D01*
X103710930Y-120460930D01*
X103695024Y-120475346D01*
X103677781Y-120488134D01*
X103659368Y-120499170D01*
X103639962Y-120508349D01*
X103619750Y-120515581D01*
X103598926Y-120520797D01*
X103577691Y-120523947D01*
X103556250Y-120525000D01*
X103118750Y-120525000D01*
X103097309Y-120523947D01*
X103076074Y-120520797D01*
X103055250Y-120515581D01*
X103035038Y-120508349D01*
X103015632Y-120499170D01*
X102997219Y-120488134D01*
X102979976Y-120475346D01*
X102964070Y-120460930D01*
X102949654Y-120445024D01*
X102936866Y-120427781D01*
X102925830Y-120409368D01*
X102916651Y-120389962D01*
X102909419Y-120369750D01*
X102904203Y-120348926D01*
X102901053Y-120327691D01*
X102900000Y-120306250D01*
X102900000Y-119793750D01*
X102901053Y-119772309D01*
X102904203Y-119751074D01*
X102909419Y-119730250D01*
X102916651Y-119710038D01*
X102925830Y-119690632D01*
X102936866Y-119672219D01*
X102949654Y-119654976D01*
X102964070Y-119639070D01*
X102979976Y-119624654D01*
X102997219Y-119611866D01*
X103015632Y-119600830D01*
X103035038Y-119591651D01*
X103055250Y-119584419D01*
X103076074Y-119579203D01*
X103097309Y-119576053D01*
X103118750Y-119575000D01*
X103556250Y-119575000D01*
X103577691Y-119576053D01*
X103577691Y-119576053D01*
G37*
D11*
X103337500Y-120050000D03*
D10*
G36*
X102002691Y-119576053D02*
G01*
X102023926Y-119579203D01*
X102044750Y-119584419D01*
X102064962Y-119591651D01*
X102084368Y-119600830D01*
X102102781Y-119611866D01*
X102120024Y-119624654D01*
X102135930Y-119639070D01*
X102150346Y-119654976D01*
X102163134Y-119672219D01*
X102174170Y-119690632D01*
X102183349Y-119710038D01*
X102190581Y-119730250D01*
X102195797Y-119751074D01*
X102198947Y-119772309D01*
X102200000Y-119793750D01*
X102200000Y-120306250D01*
X102198947Y-120327691D01*
X102195797Y-120348926D01*
X102190581Y-120369750D01*
X102183349Y-120389962D01*
X102174170Y-120409368D01*
X102163134Y-120427781D01*
X102150346Y-120445024D01*
X102135930Y-120460930D01*
X102120024Y-120475346D01*
X102102781Y-120488134D01*
X102084368Y-120499170D01*
X102064962Y-120508349D01*
X102044750Y-120515581D01*
X102023926Y-120520797D01*
X102002691Y-120523947D01*
X101981250Y-120525000D01*
X101543750Y-120525000D01*
X101522309Y-120523947D01*
X101501074Y-120520797D01*
X101480250Y-120515581D01*
X101460038Y-120508349D01*
X101440632Y-120499170D01*
X101422219Y-120488134D01*
X101404976Y-120475346D01*
X101389070Y-120460930D01*
X101374654Y-120445024D01*
X101361866Y-120427781D01*
X101350830Y-120409368D01*
X101341651Y-120389962D01*
X101334419Y-120369750D01*
X101329203Y-120348926D01*
X101326053Y-120327691D01*
X101325000Y-120306250D01*
X101325000Y-119793750D01*
X101326053Y-119772309D01*
X101329203Y-119751074D01*
X101334419Y-119730250D01*
X101341651Y-119710038D01*
X101350830Y-119690632D01*
X101361866Y-119672219D01*
X101374654Y-119654976D01*
X101389070Y-119639070D01*
X101404976Y-119624654D01*
X101422219Y-119611866D01*
X101440632Y-119600830D01*
X101460038Y-119591651D01*
X101480250Y-119584419D01*
X101501074Y-119579203D01*
X101522309Y-119576053D01*
X101543750Y-119575000D01*
X101981250Y-119575000D01*
X102002691Y-119576053D01*
X102002691Y-119576053D01*
G37*
D11*
X101762500Y-120050000D03*
M02*
