G04 #@! TF.GenerationSoftware,KiCad,Pcbnew,(5.1.0)-1*
G04 #@! TF.CreationDate,2020-06-13T17:29:40-05:00*
G04 #@! TF.ProjectId,prod,70726f64-2e6b-4696-9361-645f70636258,1*
G04 #@! TF.SameCoordinates,Original*
G04 #@! TF.FileFunction,Soldermask,Bot*
G04 #@! TF.FilePolarity,Negative*
%FSLAX46Y46*%
G04 Gerber Fmt 4.6, Leading zero omitted, Abs format (unit mm)*
G04 Created by KiCad (PCBNEW (5.1.0)-1) date 2020-06-13 17:29:40*
%MOMM*%
%LPD*%
G04 APERTURE LIST*
%ADD10C,0.100000*%
G04 APERTURE END LIST*
D10*
G36*
X82650442Y-139705518D02*
G01*
X82716627Y-139712037D01*
X82886466Y-139763557D01*
X83042991Y-139847222D01*
X83078729Y-139876552D01*
X83180186Y-139959814D01*
X83263448Y-140061271D01*
X83292778Y-140097009D01*
X83376443Y-140253534D01*
X83427963Y-140423373D01*
X83445359Y-140600000D01*
X83427963Y-140776627D01*
X83376443Y-140946466D01*
X83292778Y-141102991D01*
X83263448Y-141138729D01*
X83180186Y-141240186D01*
X83083964Y-141319152D01*
X83042991Y-141352778D01*
X82886466Y-141436443D01*
X82716627Y-141487963D01*
X82650443Y-141494481D01*
X82584260Y-141501000D01*
X82495740Y-141501000D01*
X82429557Y-141494481D01*
X82363373Y-141487963D01*
X82193534Y-141436443D01*
X82037009Y-141352778D01*
X81996036Y-141319152D01*
X81899814Y-141240186D01*
X81816552Y-141138729D01*
X81787222Y-141102991D01*
X81703557Y-140946466D01*
X81652037Y-140776627D01*
X81634641Y-140600000D01*
X81652037Y-140423373D01*
X81703557Y-140253534D01*
X81787222Y-140097009D01*
X81816552Y-140061271D01*
X81899814Y-139959814D01*
X82001271Y-139876552D01*
X82037009Y-139847222D01*
X82193534Y-139763557D01*
X82363373Y-139712037D01*
X82429558Y-139705518D01*
X82495740Y-139699000D01*
X82584260Y-139699000D01*
X82650442Y-139705518D01*
X82650442Y-139705518D01*
G37*
G36*
X80901000Y-141501000D02*
G01*
X79099000Y-141501000D01*
X79099000Y-139699000D01*
X80901000Y-139699000D01*
X80901000Y-141501000D01*
X80901000Y-141501000D01*
G37*
G36*
X92297740Y-140438626D02*
G01*
X92346136Y-140448253D01*
X92383902Y-140463896D01*
X92437311Y-140486019D01*
X92437312Y-140486020D01*
X92519369Y-140540848D01*
X92589152Y-140610631D01*
X92589153Y-140610633D01*
X92643981Y-140692689D01*
X92681747Y-140783865D01*
X92701000Y-140880655D01*
X92701000Y-140979345D01*
X92681747Y-141076135D01*
X92643981Y-141167311D01*
X92643980Y-141167312D01*
X92589152Y-141249369D01*
X92519369Y-141319152D01*
X92478062Y-141346752D01*
X92437311Y-141373981D01*
X92383902Y-141396104D01*
X92346136Y-141411747D01*
X92297740Y-141421374D01*
X92249345Y-141431000D01*
X92150655Y-141431000D01*
X92102260Y-141421374D01*
X92053864Y-141411747D01*
X92016098Y-141396104D01*
X91962689Y-141373981D01*
X91921938Y-141346752D01*
X91880631Y-141319152D01*
X91810848Y-141249369D01*
X91756020Y-141167312D01*
X91756019Y-141167311D01*
X91718253Y-141076135D01*
X91699000Y-140979345D01*
X91699000Y-140880655D01*
X91718253Y-140783865D01*
X91756019Y-140692689D01*
X91810847Y-140610633D01*
X91810848Y-140610631D01*
X91880631Y-140540848D01*
X91962688Y-140486020D01*
X91962689Y-140486019D01*
X92016098Y-140463896D01*
X92053864Y-140448253D01*
X92102260Y-140438626D01*
X92150655Y-140429000D01*
X92249345Y-140429000D01*
X92297740Y-140438626D01*
X92297740Y-140438626D01*
G37*
G36*
X89297740Y-140438626D02*
G01*
X89346136Y-140448253D01*
X89383902Y-140463896D01*
X89437311Y-140486019D01*
X89437312Y-140486020D01*
X89519369Y-140540848D01*
X89589152Y-140610631D01*
X89589153Y-140610633D01*
X89643981Y-140692689D01*
X89681747Y-140783865D01*
X89701000Y-140880655D01*
X89701000Y-140979345D01*
X89681747Y-141076135D01*
X89643981Y-141167311D01*
X89643980Y-141167312D01*
X89589152Y-141249369D01*
X89519369Y-141319152D01*
X89478062Y-141346752D01*
X89437311Y-141373981D01*
X89383902Y-141396104D01*
X89346136Y-141411747D01*
X89297740Y-141421374D01*
X89249345Y-141431000D01*
X89150655Y-141431000D01*
X89102260Y-141421374D01*
X89053864Y-141411747D01*
X89016098Y-141396104D01*
X88962689Y-141373981D01*
X88921938Y-141346752D01*
X88880631Y-141319152D01*
X88810848Y-141249369D01*
X88756020Y-141167312D01*
X88756019Y-141167311D01*
X88718253Y-141076135D01*
X88699000Y-140979345D01*
X88699000Y-140880655D01*
X88718253Y-140783865D01*
X88756019Y-140692689D01*
X88810847Y-140610633D01*
X88810848Y-140610631D01*
X88880631Y-140540848D01*
X88962688Y-140486020D01*
X88962689Y-140486019D01*
X89016098Y-140463896D01*
X89053864Y-140448253D01*
X89102260Y-140438626D01*
X89150655Y-140429000D01*
X89249345Y-140429000D01*
X89297740Y-140438626D01*
X89297740Y-140438626D01*
G37*
G36*
X109687797Y-138410567D02*
G01*
X109742575Y-138433257D01*
X109742577Y-138433258D01*
X109791876Y-138466198D01*
X109833802Y-138508124D01*
X109866742Y-138557423D01*
X109866743Y-138557425D01*
X109889433Y-138612203D01*
X109901000Y-138670353D01*
X109901000Y-138729647D01*
X109889433Y-138787797D01*
X109866743Y-138842575D01*
X109866742Y-138842577D01*
X109833802Y-138891876D01*
X109791876Y-138933802D01*
X109742577Y-138966742D01*
X109742576Y-138966743D01*
X109742575Y-138966743D01*
X109687797Y-138989433D01*
X109629647Y-139001000D01*
X109570353Y-139001000D01*
X109512203Y-138989433D01*
X109457425Y-138966743D01*
X109457424Y-138966743D01*
X109457423Y-138966742D01*
X109408124Y-138933802D01*
X109366198Y-138891876D01*
X109333258Y-138842577D01*
X109333257Y-138842575D01*
X109310567Y-138787797D01*
X109299000Y-138729647D01*
X109299000Y-138670353D01*
X109310567Y-138612203D01*
X109333257Y-138557425D01*
X109333258Y-138557423D01*
X109366198Y-138508124D01*
X109408124Y-138466198D01*
X109457423Y-138433258D01*
X109457425Y-138433257D01*
X109512203Y-138410567D01*
X109570353Y-138399000D01*
X109629647Y-138399000D01*
X109687797Y-138410567D01*
X109687797Y-138410567D01*
G37*
G36*
X105687797Y-138410567D02*
G01*
X105742575Y-138433257D01*
X105742577Y-138433258D01*
X105791876Y-138466198D01*
X105833802Y-138508124D01*
X105866742Y-138557423D01*
X105866743Y-138557425D01*
X105889433Y-138612203D01*
X105901000Y-138670353D01*
X105901000Y-138729647D01*
X105889433Y-138787797D01*
X105866743Y-138842575D01*
X105866742Y-138842577D01*
X105833802Y-138891876D01*
X105791876Y-138933802D01*
X105742577Y-138966742D01*
X105742576Y-138966743D01*
X105742575Y-138966743D01*
X105687797Y-138989433D01*
X105629647Y-139001000D01*
X105570353Y-139001000D01*
X105512203Y-138989433D01*
X105457425Y-138966743D01*
X105457424Y-138966743D01*
X105457423Y-138966742D01*
X105408124Y-138933802D01*
X105366198Y-138891876D01*
X105333258Y-138842577D01*
X105333257Y-138842575D01*
X105310567Y-138787797D01*
X105299000Y-138729647D01*
X105299000Y-138670353D01*
X105310567Y-138612203D01*
X105333257Y-138557425D01*
X105333258Y-138557423D01*
X105366198Y-138508124D01*
X105408124Y-138466198D01*
X105457423Y-138433258D01*
X105457425Y-138433257D01*
X105512203Y-138410567D01*
X105570353Y-138399000D01*
X105629647Y-138399000D01*
X105687797Y-138410567D01*
X105687797Y-138410567D01*
G37*
M02*
