G04 #@! TF.GenerationSoftware,KiCad,Pcbnew,(5.1.0)-1*
G04 #@! TF.CreationDate,2020-05-03T11:46:13-05:00*
G04 #@! TF.ProjectId,84badgeprod,70726f64-2e6b-4696-9361-645f70636258,1*
G04 #@! TF.SameCoordinates,Original*
G04 #@! TF.FileFunction,Copper,L2,Bot*
G04 #@! TF.FilePolarity,Positive*
%FSLAX46Y46*%
G04 Gerber Fmt 4.6, Leading zero omitted, Abs format (unit mm)*
G04 Created by KiCad (PCBNEW (5.1.0)-1) date 2020-05-03 11:46:13*
%MOMM*%
%LPD*%
G04 APERTURE LIST*
%ADD10O,1.700000X1.700000*%
%ADD11R,1.700000X1.700000*%
%ADD12C,0.800000*%
%ADD13C,0.400000*%
%ADD14C,0.300000*%
%ADD15C,0.254000*%
G04 APERTURE END LIST*
D10*
X82540000Y-140600000D03*
D11*
X80000000Y-140600000D03*
D12*
X155100000Y-92100000D03*
X109600000Y-135750000D03*
X81800000Y-126900000D03*
X153750000Y-60100000D03*
X133417269Y-73767269D03*
X87250000Y-119100000D03*
X100650000Y-118550000D03*
X86150000Y-119150000D03*
X100600000Y-117050000D03*
D13*
X80000000Y-129700000D02*
X81800000Y-126900000D01*
X80000000Y-138100000D02*
X80000000Y-140600000D01*
X80150000Y-135750000D02*
X80000000Y-135600000D01*
X109600000Y-135750000D02*
X80150000Y-135750000D01*
X80000000Y-138100000D02*
X80000000Y-135600000D01*
X155100000Y-92100000D02*
X155100000Y-109000000D01*
X129300000Y-134800000D02*
X80000000Y-134800000D01*
X155100000Y-109000000D02*
X129300000Y-134800000D01*
X80000000Y-135600000D02*
X80000000Y-134800000D01*
X98640000Y-133700000D02*
X80000000Y-133700000D01*
X80000000Y-134800000D02*
X80000000Y-133700000D01*
X153750000Y-78590000D02*
X151670000Y-80670000D01*
X153750000Y-60100000D02*
X153750000Y-78590000D01*
X152100000Y-80240000D02*
X151670000Y-80670000D01*
X151670000Y-80670000D02*
X98640000Y-133700000D01*
X133017270Y-74167268D02*
X133017270Y-97232730D01*
X133417269Y-73767269D02*
X133017270Y-74167268D01*
X98300000Y-131950000D02*
X80000000Y-131950000D01*
X133017270Y-97232730D02*
X98300000Y-131950000D01*
X80000000Y-133700000D02*
X80000000Y-131950000D01*
X80000000Y-131950000D02*
X80000000Y-129700000D01*
D14*
X100100000Y-119100000D02*
X87250000Y-119100000D01*
X100650000Y-118550000D02*
X100100000Y-119100000D01*
X86150000Y-118450000D02*
X86150000Y-119150000D01*
X87000000Y-117600000D02*
X86150000Y-118450000D01*
X99484315Y-117600000D02*
X87000000Y-117600000D01*
X100600000Y-117050000D02*
X100034315Y-117050000D01*
X100034315Y-117050000D02*
X99484315Y-117600000D01*
D15*
G36*
X82348770Y-126678376D02*
G01*
X82377281Y-126706887D01*
X82455233Y-126844564D01*
X82500649Y-127026233D01*
X82523000Y-127207785D01*
X82523000Y-138266542D01*
X82470220Y-138359762D01*
X82435213Y-138380766D01*
X82282735Y-138423000D01*
X81650000Y-138423000D01*
X81625224Y-138425440D01*
X81604204Y-138431544D01*
X81430210Y-138498811D01*
X81407981Y-138510022D01*
X81390576Y-138523295D01*
X80988564Y-138888761D01*
X80971873Y-138907233D01*
X80957851Y-138931355D01*
X80883857Y-139098622D01*
X80878546Y-139114739D01*
X80850000Y-139111928D01*
X80285750Y-139115000D01*
X80127000Y-139273750D01*
X80127000Y-139473000D01*
X79873000Y-139473000D01*
X79873000Y-139273750D01*
X79714250Y-139115000D01*
X79150000Y-139111928D01*
X79127000Y-139114193D01*
X79127000Y-130269764D01*
X79172889Y-130125887D01*
X81492564Y-126859408D01*
X81608199Y-126722524D01*
X81741405Y-126651234D01*
X81770695Y-126645376D01*
X81956274Y-126627000D01*
X82224737Y-126627000D01*
X82348770Y-126678376D01*
X82348770Y-126678376D01*
G37*
X82348770Y-126678376D02*
X82377281Y-126706887D01*
X82455233Y-126844564D01*
X82500649Y-127026233D01*
X82523000Y-127207785D01*
X82523000Y-138266542D01*
X82470220Y-138359762D01*
X82435213Y-138380766D01*
X82282735Y-138423000D01*
X81650000Y-138423000D01*
X81625224Y-138425440D01*
X81604204Y-138431544D01*
X81430210Y-138498811D01*
X81407981Y-138510022D01*
X81390576Y-138523295D01*
X80988564Y-138888761D01*
X80971873Y-138907233D01*
X80957851Y-138931355D01*
X80883857Y-139098622D01*
X80878546Y-139114739D01*
X80850000Y-139111928D01*
X80285750Y-139115000D01*
X80127000Y-139273750D01*
X80127000Y-139473000D01*
X79873000Y-139473000D01*
X79873000Y-139273750D01*
X79714250Y-139115000D01*
X79150000Y-139111928D01*
X79127000Y-139114193D01*
X79127000Y-130269764D01*
X79172889Y-130125887D01*
X81492564Y-126859408D01*
X81608199Y-126722524D01*
X81741405Y-126651234D01*
X81770695Y-126645376D01*
X81956274Y-126627000D01*
X82224737Y-126627000D01*
X82348770Y-126678376D01*
M02*
