G04 #@! TF.GenerationSoftware,KiCad,Pcbnew,(5.1.0)-1*
G04 #@! TF.CreationDate,2020-03-21T23:41:27-05:00*
G04 #@! TF.ProjectId,dev,6465762e-6b69-4636-9164-5f7063625858,rev?*
G04 #@! TF.SameCoordinates,Original*
G04 #@! TF.FileFunction,Copper,L1,Top*
G04 #@! TF.FilePolarity,Positive*
%FSLAX46Y46*%
G04 Gerber Fmt 4.6, Leading zero omitted, Abs format (unit mm)*
G04 Created by KiCad (PCBNEW (5.1.0)-1) date 2020-03-21 23:41:27*
%MOMM*%
%LPD*%
G04 APERTURE LIST*
%ADD10O,1.700000X1.700000*%
%ADD11R,1.700000X1.700000*%
%ADD12R,1.500000X1.250000*%
%ADD13R,0.900000X1.000000*%
%ADD14R,1.700000X0.700000*%
%ADD15R,1.250000X1.500000*%
%ADD16C,0.100000*%
%ADD17C,0.875000*%
%ADD18R,0.600000X1.500000*%
%ADD19R,1.000000X1.100000*%
%ADD20R,1.500000X1.350000*%
%ADD21R,1.800000X0.400000*%
%ADD22R,1.400000X1.500000*%
%ADD23C,0.250000*%
%ADD24C,0.500000*%
G04 APERTURE END LIST*
D10*
X79000000Y-84040000D03*
D11*
X79000000Y-81500000D03*
D12*
X104750000Y-96850000D03*
X104750000Y-99650000D03*
D13*
X79230000Y-94550000D03*
X79230000Y-101950000D03*
X77020000Y-101950000D03*
X77020000Y-94550000D03*
D14*
X80080000Y-100500000D03*
X80080000Y-99000000D03*
X80080000Y-96000000D03*
D15*
X83150000Y-109500000D03*
X80350000Y-109500000D03*
D16*
G36*
X90527691Y-98276053D02*
G01*
X90548926Y-98279203D01*
X90569750Y-98284419D01*
X90589962Y-98291651D01*
X90609368Y-98300830D01*
X90627781Y-98311866D01*
X90645024Y-98324654D01*
X90660930Y-98339070D01*
X90675346Y-98354976D01*
X90688134Y-98372219D01*
X90699170Y-98390632D01*
X90708349Y-98410038D01*
X90715581Y-98430250D01*
X90720797Y-98451074D01*
X90723947Y-98472309D01*
X90725000Y-98493750D01*
X90725000Y-99006250D01*
X90723947Y-99027691D01*
X90720797Y-99048926D01*
X90715581Y-99069750D01*
X90708349Y-99089962D01*
X90699170Y-99109368D01*
X90688134Y-99127781D01*
X90675346Y-99145024D01*
X90660930Y-99160930D01*
X90645024Y-99175346D01*
X90627781Y-99188134D01*
X90609368Y-99199170D01*
X90589962Y-99208349D01*
X90569750Y-99215581D01*
X90548926Y-99220797D01*
X90527691Y-99223947D01*
X90506250Y-99225000D01*
X90068750Y-99225000D01*
X90047309Y-99223947D01*
X90026074Y-99220797D01*
X90005250Y-99215581D01*
X89985038Y-99208349D01*
X89965632Y-99199170D01*
X89947219Y-99188134D01*
X89929976Y-99175346D01*
X89914070Y-99160930D01*
X89899654Y-99145024D01*
X89886866Y-99127781D01*
X89875830Y-99109368D01*
X89866651Y-99089962D01*
X89859419Y-99069750D01*
X89854203Y-99048926D01*
X89851053Y-99027691D01*
X89850000Y-99006250D01*
X89850000Y-98493750D01*
X89851053Y-98472309D01*
X89854203Y-98451074D01*
X89859419Y-98430250D01*
X89866651Y-98410038D01*
X89875830Y-98390632D01*
X89886866Y-98372219D01*
X89899654Y-98354976D01*
X89914070Y-98339070D01*
X89929976Y-98324654D01*
X89947219Y-98311866D01*
X89965632Y-98300830D01*
X89985038Y-98291651D01*
X90005250Y-98284419D01*
X90026074Y-98279203D01*
X90047309Y-98276053D01*
X90068750Y-98275000D01*
X90506250Y-98275000D01*
X90527691Y-98276053D01*
X90527691Y-98276053D01*
G37*
D17*
X90287500Y-98750000D03*
D16*
G36*
X88952691Y-98276053D02*
G01*
X88973926Y-98279203D01*
X88994750Y-98284419D01*
X89014962Y-98291651D01*
X89034368Y-98300830D01*
X89052781Y-98311866D01*
X89070024Y-98324654D01*
X89085930Y-98339070D01*
X89100346Y-98354976D01*
X89113134Y-98372219D01*
X89124170Y-98390632D01*
X89133349Y-98410038D01*
X89140581Y-98430250D01*
X89145797Y-98451074D01*
X89148947Y-98472309D01*
X89150000Y-98493750D01*
X89150000Y-99006250D01*
X89148947Y-99027691D01*
X89145797Y-99048926D01*
X89140581Y-99069750D01*
X89133349Y-99089962D01*
X89124170Y-99109368D01*
X89113134Y-99127781D01*
X89100346Y-99145024D01*
X89085930Y-99160930D01*
X89070024Y-99175346D01*
X89052781Y-99188134D01*
X89034368Y-99199170D01*
X89014962Y-99208349D01*
X88994750Y-99215581D01*
X88973926Y-99220797D01*
X88952691Y-99223947D01*
X88931250Y-99225000D01*
X88493750Y-99225000D01*
X88472309Y-99223947D01*
X88451074Y-99220797D01*
X88430250Y-99215581D01*
X88410038Y-99208349D01*
X88390632Y-99199170D01*
X88372219Y-99188134D01*
X88354976Y-99175346D01*
X88339070Y-99160930D01*
X88324654Y-99145024D01*
X88311866Y-99127781D01*
X88300830Y-99109368D01*
X88291651Y-99089962D01*
X88284419Y-99069750D01*
X88279203Y-99048926D01*
X88276053Y-99027691D01*
X88275000Y-99006250D01*
X88275000Y-98493750D01*
X88276053Y-98472309D01*
X88279203Y-98451074D01*
X88284419Y-98430250D01*
X88291651Y-98410038D01*
X88300830Y-98390632D01*
X88311866Y-98372219D01*
X88324654Y-98354976D01*
X88339070Y-98339070D01*
X88354976Y-98324654D01*
X88372219Y-98311866D01*
X88390632Y-98300830D01*
X88410038Y-98291651D01*
X88430250Y-98284419D01*
X88451074Y-98279203D01*
X88472309Y-98276053D01*
X88493750Y-98275000D01*
X88931250Y-98275000D01*
X88952691Y-98276053D01*
X88952691Y-98276053D01*
G37*
D17*
X88712500Y-98750000D03*
D16*
G36*
X93452691Y-95776053D02*
G01*
X93473926Y-95779203D01*
X93494750Y-95784419D01*
X93514962Y-95791651D01*
X93534368Y-95800830D01*
X93552781Y-95811866D01*
X93570024Y-95824654D01*
X93585930Y-95839070D01*
X93600346Y-95854976D01*
X93613134Y-95872219D01*
X93624170Y-95890632D01*
X93633349Y-95910038D01*
X93640581Y-95930250D01*
X93645797Y-95951074D01*
X93648947Y-95972309D01*
X93650000Y-95993750D01*
X93650000Y-96506250D01*
X93648947Y-96527691D01*
X93645797Y-96548926D01*
X93640581Y-96569750D01*
X93633349Y-96589962D01*
X93624170Y-96609368D01*
X93613134Y-96627781D01*
X93600346Y-96645024D01*
X93585930Y-96660930D01*
X93570024Y-96675346D01*
X93552781Y-96688134D01*
X93534368Y-96699170D01*
X93514962Y-96708349D01*
X93494750Y-96715581D01*
X93473926Y-96720797D01*
X93452691Y-96723947D01*
X93431250Y-96725000D01*
X92993750Y-96725000D01*
X92972309Y-96723947D01*
X92951074Y-96720797D01*
X92930250Y-96715581D01*
X92910038Y-96708349D01*
X92890632Y-96699170D01*
X92872219Y-96688134D01*
X92854976Y-96675346D01*
X92839070Y-96660930D01*
X92824654Y-96645024D01*
X92811866Y-96627781D01*
X92800830Y-96609368D01*
X92791651Y-96589962D01*
X92784419Y-96569750D01*
X92779203Y-96548926D01*
X92776053Y-96527691D01*
X92775000Y-96506250D01*
X92775000Y-95993750D01*
X92776053Y-95972309D01*
X92779203Y-95951074D01*
X92784419Y-95930250D01*
X92791651Y-95910038D01*
X92800830Y-95890632D01*
X92811866Y-95872219D01*
X92824654Y-95854976D01*
X92839070Y-95839070D01*
X92854976Y-95824654D01*
X92872219Y-95811866D01*
X92890632Y-95800830D01*
X92910038Y-95791651D01*
X92930250Y-95784419D01*
X92951074Y-95779203D01*
X92972309Y-95776053D01*
X92993750Y-95775000D01*
X93431250Y-95775000D01*
X93452691Y-95776053D01*
X93452691Y-95776053D01*
G37*
D17*
X93212500Y-96250000D03*
D16*
G36*
X95027691Y-95776053D02*
G01*
X95048926Y-95779203D01*
X95069750Y-95784419D01*
X95089962Y-95791651D01*
X95109368Y-95800830D01*
X95127781Y-95811866D01*
X95145024Y-95824654D01*
X95160930Y-95839070D01*
X95175346Y-95854976D01*
X95188134Y-95872219D01*
X95199170Y-95890632D01*
X95208349Y-95910038D01*
X95215581Y-95930250D01*
X95220797Y-95951074D01*
X95223947Y-95972309D01*
X95225000Y-95993750D01*
X95225000Y-96506250D01*
X95223947Y-96527691D01*
X95220797Y-96548926D01*
X95215581Y-96569750D01*
X95208349Y-96589962D01*
X95199170Y-96609368D01*
X95188134Y-96627781D01*
X95175346Y-96645024D01*
X95160930Y-96660930D01*
X95145024Y-96675346D01*
X95127781Y-96688134D01*
X95109368Y-96699170D01*
X95089962Y-96708349D01*
X95069750Y-96715581D01*
X95048926Y-96720797D01*
X95027691Y-96723947D01*
X95006250Y-96725000D01*
X94568750Y-96725000D01*
X94547309Y-96723947D01*
X94526074Y-96720797D01*
X94505250Y-96715581D01*
X94485038Y-96708349D01*
X94465632Y-96699170D01*
X94447219Y-96688134D01*
X94429976Y-96675346D01*
X94414070Y-96660930D01*
X94399654Y-96645024D01*
X94386866Y-96627781D01*
X94375830Y-96609368D01*
X94366651Y-96589962D01*
X94359419Y-96569750D01*
X94354203Y-96548926D01*
X94351053Y-96527691D01*
X94350000Y-96506250D01*
X94350000Y-95993750D01*
X94351053Y-95972309D01*
X94354203Y-95951074D01*
X94359419Y-95930250D01*
X94366651Y-95910038D01*
X94375830Y-95890632D01*
X94386866Y-95872219D01*
X94399654Y-95854976D01*
X94414070Y-95839070D01*
X94429976Y-95824654D01*
X94447219Y-95811866D01*
X94465632Y-95800830D01*
X94485038Y-95791651D01*
X94505250Y-95784419D01*
X94526074Y-95779203D01*
X94547309Y-95776053D01*
X94568750Y-95775000D01*
X95006250Y-95775000D01*
X95027691Y-95776053D01*
X95027691Y-95776053D01*
G37*
D17*
X94787500Y-96250000D03*
D16*
G36*
X94277691Y-117026053D02*
G01*
X94298926Y-117029203D01*
X94319750Y-117034419D01*
X94339962Y-117041651D01*
X94359368Y-117050830D01*
X94377781Y-117061866D01*
X94395024Y-117074654D01*
X94410930Y-117089070D01*
X94425346Y-117104976D01*
X94438134Y-117122219D01*
X94449170Y-117140632D01*
X94458349Y-117160038D01*
X94465581Y-117180250D01*
X94470797Y-117201074D01*
X94473947Y-117222309D01*
X94475000Y-117243750D01*
X94475000Y-117681250D01*
X94473947Y-117702691D01*
X94470797Y-117723926D01*
X94465581Y-117744750D01*
X94458349Y-117764962D01*
X94449170Y-117784368D01*
X94438134Y-117802781D01*
X94425346Y-117820024D01*
X94410930Y-117835930D01*
X94395024Y-117850346D01*
X94377781Y-117863134D01*
X94359368Y-117874170D01*
X94339962Y-117883349D01*
X94319750Y-117890581D01*
X94298926Y-117895797D01*
X94277691Y-117898947D01*
X94256250Y-117900000D01*
X93743750Y-117900000D01*
X93722309Y-117898947D01*
X93701074Y-117895797D01*
X93680250Y-117890581D01*
X93660038Y-117883349D01*
X93640632Y-117874170D01*
X93622219Y-117863134D01*
X93604976Y-117850346D01*
X93589070Y-117835930D01*
X93574654Y-117820024D01*
X93561866Y-117802781D01*
X93550830Y-117784368D01*
X93541651Y-117764962D01*
X93534419Y-117744750D01*
X93529203Y-117723926D01*
X93526053Y-117702691D01*
X93525000Y-117681250D01*
X93525000Y-117243750D01*
X93526053Y-117222309D01*
X93529203Y-117201074D01*
X93534419Y-117180250D01*
X93541651Y-117160038D01*
X93550830Y-117140632D01*
X93561866Y-117122219D01*
X93574654Y-117104976D01*
X93589070Y-117089070D01*
X93604976Y-117074654D01*
X93622219Y-117061866D01*
X93640632Y-117050830D01*
X93660038Y-117041651D01*
X93680250Y-117034419D01*
X93701074Y-117029203D01*
X93722309Y-117026053D01*
X93743750Y-117025000D01*
X94256250Y-117025000D01*
X94277691Y-117026053D01*
X94277691Y-117026053D01*
G37*
D17*
X94000000Y-117462500D03*
D16*
G36*
X94277691Y-118601053D02*
G01*
X94298926Y-118604203D01*
X94319750Y-118609419D01*
X94339962Y-118616651D01*
X94359368Y-118625830D01*
X94377781Y-118636866D01*
X94395024Y-118649654D01*
X94410930Y-118664070D01*
X94425346Y-118679976D01*
X94438134Y-118697219D01*
X94449170Y-118715632D01*
X94458349Y-118735038D01*
X94465581Y-118755250D01*
X94470797Y-118776074D01*
X94473947Y-118797309D01*
X94475000Y-118818750D01*
X94475000Y-119256250D01*
X94473947Y-119277691D01*
X94470797Y-119298926D01*
X94465581Y-119319750D01*
X94458349Y-119339962D01*
X94449170Y-119359368D01*
X94438134Y-119377781D01*
X94425346Y-119395024D01*
X94410930Y-119410930D01*
X94395024Y-119425346D01*
X94377781Y-119438134D01*
X94359368Y-119449170D01*
X94339962Y-119458349D01*
X94319750Y-119465581D01*
X94298926Y-119470797D01*
X94277691Y-119473947D01*
X94256250Y-119475000D01*
X93743750Y-119475000D01*
X93722309Y-119473947D01*
X93701074Y-119470797D01*
X93680250Y-119465581D01*
X93660038Y-119458349D01*
X93640632Y-119449170D01*
X93622219Y-119438134D01*
X93604976Y-119425346D01*
X93589070Y-119410930D01*
X93574654Y-119395024D01*
X93561866Y-119377781D01*
X93550830Y-119359368D01*
X93541651Y-119339962D01*
X93534419Y-119319750D01*
X93529203Y-119298926D01*
X93526053Y-119277691D01*
X93525000Y-119256250D01*
X93525000Y-118818750D01*
X93526053Y-118797309D01*
X93529203Y-118776074D01*
X93534419Y-118755250D01*
X93541651Y-118735038D01*
X93550830Y-118715632D01*
X93561866Y-118697219D01*
X93574654Y-118679976D01*
X93589070Y-118664070D01*
X93604976Y-118649654D01*
X93622219Y-118636866D01*
X93640632Y-118625830D01*
X93660038Y-118616651D01*
X93680250Y-118609419D01*
X93701074Y-118604203D01*
X93722309Y-118601053D01*
X93743750Y-118600000D01*
X94256250Y-118600000D01*
X94277691Y-118601053D01*
X94277691Y-118601053D01*
G37*
D17*
X94000000Y-119037500D03*
D16*
G36*
X92277691Y-118601053D02*
G01*
X92298926Y-118604203D01*
X92319750Y-118609419D01*
X92339962Y-118616651D01*
X92359368Y-118625830D01*
X92377781Y-118636866D01*
X92395024Y-118649654D01*
X92410930Y-118664070D01*
X92425346Y-118679976D01*
X92438134Y-118697219D01*
X92449170Y-118715632D01*
X92458349Y-118735038D01*
X92465581Y-118755250D01*
X92470797Y-118776074D01*
X92473947Y-118797309D01*
X92475000Y-118818750D01*
X92475000Y-119256250D01*
X92473947Y-119277691D01*
X92470797Y-119298926D01*
X92465581Y-119319750D01*
X92458349Y-119339962D01*
X92449170Y-119359368D01*
X92438134Y-119377781D01*
X92425346Y-119395024D01*
X92410930Y-119410930D01*
X92395024Y-119425346D01*
X92377781Y-119438134D01*
X92359368Y-119449170D01*
X92339962Y-119458349D01*
X92319750Y-119465581D01*
X92298926Y-119470797D01*
X92277691Y-119473947D01*
X92256250Y-119475000D01*
X91743750Y-119475000D01*
X91722309Y-119473947D01*
X91701074Y-119470797D01*
X91680250Y-119465581D01*
X91660038Y-119458349D01*
X91640632Y-119449170D01*
X91622219Y-119438134D01*
X91604976Y-119425346D01*
X91589070Y-119410930D01*
X91574654Y-119395024D01*
X91561866Y-119377781D01*
X91550830Y-119359368D01*
X91541651Y-119339962D01*
X91534419Y-119319750D01*
X91529203Y-119298926D01*
X91526053Y-119277691D01*
X91525000Y-119256250D01*
X91525000Y-118818750D01*
X91526053Y-118797309D01*
X91529203Y-118776074D01*
X91534419Y-118755250D01*
X91541651Y-118735038D01*
X91550830Y-118715632D01*
X91561866Y-118697219D01*
X91574654Y-118679976D01*
X91589070Y-118664070D01*
X91604976Y-118649654D01*
X91622219Y-118636866D01*
X91640632Y-118625830D01*
X91660038Y-118616651D01*
X91680250Y-118609419D01*
X91701074Y-118604203D01*
X91722309Y-118601053D01*
X91743750Y-118600000D01*
X92256250Y-118600000D01*
X92277691Y-118601053D01*
X92277691Y-118601053D01*
G37*
D17*
X92000000Y-119037500D03*
D16*
G36*
X92277691Y-117026053D02*
G01*
X92298926Y-117029203D01*
X92319750Y-117034419D01*
X92339962Y-117041651D01*
X92359368Y-117050830D01*
X92377781Y-117061866D01*
X92395024Y-117074654D01*
X92410930Y-117089070D01*
X92425346Y-117104976D01*
X92438134Y-117122219D01*
X92449170Y-117140632D01*
X92458349Y-117160038D01*
X92465581Y-117180250D01*
X92470797Y-117201074D01*
X92473947Y-117222309D01*
X92475000Y-117243750D01*
X92475000Y-117681250D01*
X92473947Y-117702691D01*
X92470797Y-117723926D01*
X92465581Y-117744750D01*
X92458349Y-117764962D01*
X92449170Y-117784368D01*
X92438134Y-117802781D01*
X92425346Y-117820024D01*
X92410930Y-117835930D01*
X92395024Y-117850346D01*
X92377781Y-117863134D01*
X92359368Y-117874170D01*
X92339962Y-117883349D01*
X92319750Y-117890581D01*
X92298926Y-117895797D01*
X92277691Y-117898947D01*
X92256250Y-117900000D01*
X91743750Y-117900000D01*
X91722309Y-117898947D01*
X91701074Y-117895797D01*
X91680250Y-117890581D01*
X91660038Y-117883349D01*
X91640632Y-117874170D01*
X91622219Y-117863134D01*
X91604976Y-117850346D01*
X91589070Y-117835930D01*
X91574654Y-117820024D01*
X91561866Y-117802781D01*
X91550830Y-117784368D01*
X91541651Y-117764962D01*
X91534419Y-117744750D01*
X91529203Y-117723926D01*
X91526053Y-117702691D01*
X91525000Y-117681250D01*
X91525000Y-117243750D01*
X91526053Y-117222309D01*
X91529203Y-117201074D01*
X91534419Y-117180250D01*
X91541651Y-117160038D01*
X91550830Y-117140632D01*
X91561866Y-117122219D01*
X91574654Y-117104976D01*
X91589070Y-117089070D01*
X91604976Y-117074654D01*
X91622219Y-117061866D01*
X91640632Y-117050830D01*
X91660038Y-117041651D01*
X91680250Y-117034419D01*
X91701074Y-117029203D01*
X91722309Y-117026053D01*
X91743750Y-117025000D01*
X92256250Y-117025000D01*
X92277691Y-117026053D01*
X92277691Y-117026053D01*
G37*
D17*
X92000000Y-117462500D03*
D16*
G36*
X117527691Y-116026053D02*
G01*
X117548926Y-116029203D01*
X117569750Y-116034419D01*
X117589962Y-116041651D01*
X117609368Y-116050830D01*
X117627781Y-116061866D01*
X117645024Y-116074654D01*
X117660930Y-116089070D01*
X117675346Y-116104976D01*
X117688134Y-116122219D01*
X117699170Y-116140632D01*
X117708349Y-116160038D01*
X117715581Y-116180250D01*
X117720797Y-116201074D01*
X117723947Y-116222309D01*
X117725000Y-116243750D01*
X117725000Y-116756250D01*
X117723947Y-116777691D01*
X117720797Y-116798926D01*
X117715581Y-116819750D01*
X117708349Y-116839962D01*
X117699170Y-116859368D01*
X117688134Y-116877781D01*
X117675346Y-116895024D01*
X117660930Y-116910930D01*
X117645024Y-116925346D01*
X117627781Y-116938134D01*
X117609368Y-116949170D01*
X117589962Y-116958349D01*
X117569750Y-116965581D01*
X117548926Y-116970797D01*
X117527691Y-116973947D01*
X117506250Y-116975000D01*
X117068750Y-116975000D01*
X117047309Y-116973947D01*
X117026074Y-116970797D01*
X117005250Y-116965581D01*
X116985038Y-116958349D01*
X116965632Y-116949170D01*
X116947219Y-116938134D01*
X116929976Y-116925346D01*
X116914070Y-116910930D01*
X116899654Y-116895024D01*
X116886866Y-116877781D01*
X116875830Y-116859368D01*
X116866651Y-116839962D01*
X116859419Y-116819750D01*
X116854203Y-116798926D01*
X116851053Y-116777691D01*
X116850000Y-116756250D01*
X116850000Y-116243750D01*
X116851053Y-116222309D01*
X116854203Y-116201074D01*
X116859419Y-116180250D01*
X116866651Y-116160038D01*
X116875830Y-116140632D01*
X116886866Y-116122219D01*
X116899654Y-116104976D01*
X116914070Y-116089070D01*
X116929976Y-116074654D01*
X116947219Y-116061866D01*
X116965632Y-116050830D01*
X116985038Y-116041651D01*
X117005250Y-116034419D01*
X117026074Y-116029203D01*
X117047309Y-116026053D01*
X117068750Y-116025000D01*
X117506250Y-116025000D01*
X117527691Y-116026053D01*
X117527691Y-116026053D01*
G37*
D17*
X117287500Y-116500000D03*
D16*
G36*
X115952691Y-116026053D02*
G01*
X115973926Y-116029203D01*
X115994750Y-116034419D01*
X116014962Y-116041651D01*
X116034368Y-116050830D01*
X116052781Y-116061866D01*
X116070024Y-116074654D01*
X116085930Y-116089070D01*
X116100346Y-116104976D01*
X116113134Y-116122219D01*
X116124170Y-116140632D01*
X116133349Y-116160038D01*
X116140581Y-116180250D01*
X116145797Y-116201074D01*
X116148947Y-116222309D01*
X116150000Y-116243750D01*
X116150000Y-116756250D01*
X116148947Y-116777691D01*
X116145797Y-116798926D01*
X116140581Y-116819750D01*
X116133349Y-116839962D01*
X116124170Y-116859368D01*
X116113134Y-116877781D01*
X116100346Y-116895024D01*
X116085930Y-116910930D01*
X116070024Y-116925346D01*
X116052781Y-116938134D01*
X116034368Y-116949170D01*
X116014962Y-116958349D01*
X115994750Y-116965581D01*
X115973926Y-116970797D01*
X115952691Y-116973947D01*
X115931250Y-116975000D01*
X115493750Y-116975000D01*
X115472309Y-116973947D01*
X115451074Y-116970797D01*
X115430250Y-116965581D01*
X115410038Y-116958349D01*
X115390632Y-116949170D01*
X115372219Y-116938134D01*
X115354976Y-116925346D01*
X115339070Y-116910930D01*
X115324654Y-116895024D01*
X115311866Y-116877781D01*
X115300830Y-116859368D01*
X115291651Y-116839962D01*
X115284419Y-116819750D01*
X115279203Y-116798926D01*
X115276053Y-116777691D01*
X115275000Y-116756250D01*
X115275000Y-116243750D01*
X115276053Y-116222309D01*
X115279203Y-116201074D01*
X115284419Y-116180250D01*
X115291651Y-116160038D01*
X115300830Y-116140632D01*
X115311866Y-116122219D01*
X115324654Y-116104976D01*
X115339070Y-116089070D01*
X115354976Y-116074654D01*
X115372219Y-116061866D01*
X115390632Y-116050830D01*
X115410038Y-116041651D01*
X115430250Y-116034419D01*
X115451074Y-116029203D01*
X115472309Y-116026053D01*
X115493750Y-116025000D01*
X115931250Y-116025000D01*
X115952691Y-116026053D01*
X115952691Y-116026053D01*
G37*
D17*
X115712500Y-116500000D03*
D16*
G36*
X115952691Y-118026053D02*
G01*
X115973926Y-118029203D01*
X115994750Y-118034419D01*
X116014962Y-118041651D01*
X116034368Y-118050830D01*
X116052781Y-118061866D01*
X116070024Y-118074654D01*
X116085930Y-118089070D01*
X116100346Y-118104976D01*
X116113134Y-118122219D01*
X116124170Y-118140632D01*
X116133349Y-118160038D01*
X116140581Y-118180250D01*
X116145797Y-118201074D01*
X116148947Y-118222309D01*
X116150000Y-118243750D01*
X116150000Y-118756250D01*
X116148947Y-118777691D01*
X116145797Y-118798926D01*
X116140581Y-118819750D01*
X116133349Y-118839962D01*
X116124170Y-118859368D01*
X116113134Y-118877781D01*
X116100346Y-118895024D01*
X116085930Y-118910930D01*
X116070024Y-118925346D01*
X116052781Y-118938134D01*
X116034368Y-118949170D01*
X116014962Y-118958349D01*
X115994750Y-118965581D01*
X115973926Y-118970797D01*
X115952691Y-118973947D01*
X115931250Y-118975000D01*
X115493750Y-118975000D01*
X115472309Y-118973947D01*
X115451074Y-118970797D01*
X115430250Y-118965581D01*
X115410038Y-118958349D01*
X115390632Y-118949170D01*
X115372219Y-118938134D01*
X115354976Y-118925346D01*
X115339070Y-118910930D01*
X115324654Y-118895024D01*
X115311866Y-118877781D01*
X115300830Y-118859368D01*
X115291651Y-118839962D01*
X115284419Y-118819750D01*
X115279203Y-118798926D01*
X115276053Y-118777691D01*
X115275000Y-118756250D01*
X115275000Y-118243750D01*
X115276053Y-118222309D01*
X115279203Y-118201074D01*
X115284419Y-118180250D01*
X115291651Y-118160038D01*
X115300830Y-118140632D01*
X115311866Y-118122219D01*
X115324654Y-118104976D01*
X115339070Y-118089070D01*
X115354976Y-118074654D01*
X115372219Y-118061866D01*
X115390632Y-118050830D01*
X115410038Y-118041651D01*
X115430250Y-118034419D01*
X115451074Y-118029203D01*
X115472309Y-118026053D01*
X115493750Y-118025000D01*
X115931250Y-118025000D01*
X115952691Y-118026053D01*
X115952691Y-118026053D01*
G37*
D17*
X115712500Y-118500000D03*
D16*
G36*
X117527691Y-118026053D02*
G01*
X117548926Y-118029203D01*
X117569750Y-118034419D01*
X117589962Y-118041651D01*
X117609368Y-118050830D01*
X117627781Y-118061866D01*
X117645024Y-118074654D01*
X117660930Y-118089070D01*
X117675346Y-118104976D01*
X117688134Y-118122219D01*
X117699170Y-118140632D01*
X117708349Y-118160038D01*
X117715581Y-118180250D01*
X117720797Y-118201074D01*
X117723947Y-118222309D01*
X117725000Y-118243750D01*
X117725000Y-118756250D01*
X117723947Y-118777691D01*
X117720797Y-118798926D01*
X117715581Y-118819750D01*
X117708349Y-118839962D01*
X117699170Y-118859368D01*
X117688134Y-118877781D01*
X117675346Y-118895024D01*
X117660930Y-118910930D01*
X117645024Y-118925346D01*
X117627781Y-118938134D01*
X117609368Y-118949170D01*
X117589962Y-118958349D01*
X117569750Y-118965581D01*
X117548926Y-118970797D01*
X117527691Y-118973947D01*
X117506250Y-118975000D01*
X117068750Y-118975000D01*
X117047309Y-118973947D01*
X117026074Y-118970797D01*
X117005250Y-118965581D01*
X116985038Y-118958349D01*
X116965632Y-118949170D01*
X116947219Y-118938134D01*
X116929976Y-118925346D01*
X116914070Y-118910930D01*
X116899654Y-118895024D01*
X116886866Y-118877781D01*
X116875830Y-118859368D01*
X116866651Y-118839962D01*
X116859419Y-118819750D01*
X116854203Y-118798926D01*
X116851053Y-118777691D01*
X116850000Y-118756250D01*
X116850000Y-118243750D01*
X116851053Y-118222309D01*
X116854203Y-118201074D01*
X116859419Y-118180250D01*
X116866651Y-118160038D01*
X116875830Y-118140632D01*
X116886866Y-118122219D01*
X116899654Y-118104976D01*
X116914070Y-118089070D01*
X116929976Y-118074654D01*
X116947219Y-118061866D01*
X116965632Y-118050830D01*
X116985038Y-118041651D01*
X117005250Y-118034419D01*
X117026074Y-118029203D01*
X117047309Y-118026053D01*
X117068750Y-118025000D01*
X117506250Y-118025000D01*
X117527691Y-118026053D01*
X117527691Y-118026053D01*
G37*
D17*
X117287500Y-118500000D03*
D16*
G36*
X115952691Y-120026053D02*
G01*
X115973926Y-120029203D01*
X115994750Y-120034419D01*
X116014962Y-120041651D01*
X116034368Y-120050830D01*
X116052781Y-120061866D01*
X116070024Y-120074654D01*
X116085930Y-120089070D01*
X116100346Y-120104976D01*
X116113134Y-120122219D01*
X116124170Y-120140632D01*
X116133349Y-120160038D01*
X116140581Y-120180250D01*
X116145797Y-120201074D01*
X116148947Y-120222309D01*
X116150000Y-120243750D01*
X116150000Y-120756250D01*
X116148947Y-120777691D01*
X116145797Y-120798926D01*
X116140581Y-120819750D01*
X116133349Y-120839962D01*
X116124170Y-120859368D01*
X116113134Y-120877781D01*
X116100346Y-120895024D01*
X116085930Y-120910930D01*
X116070024Y-120925346D01*
X116052781Y-120938134D01*
X116034368Y-120949170D01*
X116014962Y-120958349D01*
X115994750Y-120965581D01*
X115973926Y-120970797D01*
X115952691Y-120973947D01*
X115931250Y-120975000D01*
X115493750Y-120975000D01*
X115472309Y-120973947D01*
X115451074Y-120970797D01*
X115430250Y-120965581D01*
X115410038Y-120958349D01*
X115390632Y-120949170D01*
X115372219Y-120938134D01*
X115354976Y-120925346D01*
X115339070Y-120910930D01*
X115324654Y-120895024D01*
X115311866Y-120877781D01*
X115300830Y-120859368D01*
X115291651Y-120839962D01*
X115284419Y-120819750D01*
X115279203Y-120798926D01*
X115276053Y-120777691D01*
X115275000Y-120756250D01*
X115275000Y-120243750D01*
X115276053Y-120222309D01*
X115279203Y-120201074D01*
X115284419Y-120180250D01*
X115291651Y-120160038D01*
X115300830Y-120140632D01*
X115311866Y-120122219D01*
X115324654Y-120104976D01*
X115339070Y-120089070D01*
X115354976Y-120074654D01*
X115372219Y-120061866D01*
X115390632Y-120050830D01*
X115410038Y-120041651D01*
X115430250Y-120034419D01*
X115451074Y-120029203D01*
X115472309Y-120026053D01*
X115493750Y-120025000D01*
X115931250Y-120025000D01*
X115952691Y-120026053D01*
X115952691Y-120026053D01*
G37*
D17*
X115712500Y-120500000D03*
D16*
G36*
X117527691Y-120026053D02*
G01*
X117548926Y-120029203D01*
X117569750Y-120034419D01*
X117589962Y-120041651D01*
X117609368Y-120050830D01*
X117627781Y-120061866D01*
X117645024Y-120074654D01*
X117660930Y-120089070D01*
X117675346Y-120104976D01*
X117688134Y-120122219D01*
X117699170Y-120140632D01*
X117708349Y-120160038D01*
X117715581Y-120180250D01*
X117720797Y-120201074D01*
X117723947Y-120222309D01*
X117725000Y-120243750D01*
X117725000Y-120756250D01*
X117723947Y-120777691D01*
X117720797Y-120798926D01*
X117715581Y-120819750D01*
X117708349Y-120839962D01*
X117699170Y-120859368D01*
X117688134Y-120877781D01*
X117675346Y-120895024D01*
X117660930Y-120910930D01*
X117645024Y-120925346D01*
X117627781Y-120938134D01*
X117609368Y-120949170D01*
X117589962Y-120958349D01*
X117569750Y-120965581D01*
X117548926Y-120970797D01*
X117527691Y-120973947D01*
X117506250Y-120975000D01*
X117068750Y-120975000D01*
X117047309Y-120973947D01*
X117026074Y-120970797D01*
X117005250Y-120965581D01*
X116985038Y-120958349D01*
X116965632Y-120949170D01*
X116947219Y-120938134D01*
X116929976Y-120925346D01*
X116914070Y-120910930D01*
X116899654Y-120895024D01*
X116886866Y-120877781D01*
X116875830Y-120859368D01*
X116866651Y-120839962D01*
X116859419Y-120819750D01*
X116854203Y-120798926D01*
X116851053Y-120777691D01*
X116850000Y-120756250D01*
X116850000Y-120243750D01*
X116851053Y-120222309D01*
X116854203Y-120201074D01*
X116859419Y-120180250D01*
X116866651Y-120160038D01*
X116875830Y-120140632D01*
X116886866Y-120122219D01*
X116899654Y-120104976D01*
X116914070Y-120089070D01*
X116929976Y-120074654D01*
X116947219Y-120061866D01*
X116965632Y-120050830D01*
X116985038Y-120041651D01*
X117005250Y-120034419D01*
X117026074Y-120029203D01*
X117047309Y-120026053D01*
X117068750Y-120025000D01*
X117506250Y-120025000D01*
X117527691Y-120026053D01*
X117527691Y-120026053D01*
G37*
D17*
X117287500Y-120500000D03*
D16*
G36*
X117527691Y-122026053D02*
G01*
X117548926Y-122029203D01*
X117569750Y-122034419D01*
X117589962Y-122041651D01*
X117609368Y-122050830D01*
X117627781Y-122061866D01*
X117645024Y-122074654D01*
X117660930Y-122089070D01*
X117675346Y-122104976D01*
X117688134Y-122122219D01*
X117699170Y-122140632D01*
X117708349Y-122160038D01*
X117715581Y-122180250D01*
X117720797Y-122201074D01*
X117723947Y-122222309D01*
X117725000Y-122243750D01*
X117725000Y-122756250D01*
X117723947Y-122777691D01*
X117720797Y-122798926D01*
X117715581Y-122819750D01*
X117708349Y-122839962D01*
X117699170Y-122859368D01*
X117688134Y-122877781D01*
X117675346Y-122895024D01*
X117660930Y-122910930D01*
X117645024Y-122925346D01*
X117627781Y-122938134D01*
X117609368Y-122949170D01*
X117589962Y-122958349D01*
X117569750Y-122965581D01*
X117548926Y-122970797D01*
X117527691Y-122973947D01*
X117506250Y-122975000D01*
X117068750Y-122975000D01*
X117047309Y-122973947D01*
X117026074Y-122970797D01*
X117005250Y-122965581D01*
X116985038Y-122958349D01*
X116965632Y-122949170D01*
X116947219Y-122938134D01*
X116929976Y-122925346D01*
X116914070Y-122910930D01*
X116899654Y-122895024D01*
X116886866Y-122877781D01*
X116875830Y-122859368D01*
X116866651Y-122839962D01*
X116859419Y-122819750D01*
X116854203Y-122798926D01*
X116851053Y-122777691D01*
X116850000Y-122756250D01*
X116850000Y-122243750D01*
X116851053Y-122222309D01*
X116854203Y-122201074D01*
X116859419Y-122180250D01*
X116866651Y-122160038D01*
X116875830Y-122140632D01*
X116886866Y-122122219D01*
X116899654Y-122104976D01*
X116914070Y-122089070D01*
X116929976Y-122074654D01*
X116947219Y-122061866D01*
X116965632Y-122050830D01*
X116985038Y-122041651D01*
X117005250Y-122034419D01*
X117026074Y-122029203D01*
X117047309Y-122026053D01*
X117068750Y-122025000D01*
X117506250Y-122025000D01*
X117527691Y-122026053D01*
X117527691Y-122026053D01*
G37*
D17*
X117287500Y-122500000D03*
D16*
G36*
X115952691Y-122026053D02*
G01*
X115973926Y-122029203D01*
X115994750Y-122034419D01*
X116014962Y-122041651D01*
X116034368Y-122050830D01*
X116052781Y-122061866D01*
X116070024Y-122074654D01*
X116085930Y-122089070D01*
X116100346Y-122104976D01*
X116113134Y-122122219D01*
X116124170Y-122140632D01*
X116133349Y-122160038D01*
X116140581Y-122180250D01*
X116145797Y-122201074D01*
X116148947Y-122222309D01*
X116150000Y-122243750D01*
X116150000Y-122756250D01*
X116148947Y-122777691D01*
X116145797Y-122798926D01*
X116140581Y-122819750D01*
X116133349Y-122839962D01*
X116124170Y-122859368D01*
X116113134Y-122877781D01*
X116100346Y-122895024D01*
X116085930Y-122910930D01*
X116070024Y-122925346D01*
X116052781Y-122938134D01*
X116034368Y-122949170D01*
X116014962Y-122958349D01*
X115994750Y-122965581D01*
X115973926Y-122970797D01*
X115952691Y-122973947D01*
X115931250Y-122975000D01*
X115493750Y-122975000D01*
X115472309Y-122973947D01*
X115451074Y-122970797D01*
X115430250Y-122965581D01*
X115410038Y-122958349D01*
X115390632Y-122949170D01*
X115372219Y-122938134D01*
X115354976Y-122925346D01*
X115339070Y-122910930D01*
X115324654Y-122895024D01*
X115311866Y-122877781D01*
X115300830Y-122859368D01*
X115291651Y-122839962D01*
X115284419Y-122819750D01*
X115279203Y-122798926D01*
X115276053Y-122777691D01*
X115275000Y-122756250D01*
X115275000Y-122243750D01*
X115276053Y-122222309D01*
X115279203Y-122201074D01*
X115284419Y-122180250D01*
X115291651Y-122160038D01*
X115300830Y-122140632D01*
X115311866Y-122122219D01*
X115324654Y-122104976D01*
X115339070Y-122089070D01*
X115354976Y-122074654D01*
X115372219Y-122061866D01*
X115390632Y-122050830D01*
X115410038Y-122041651D01*
X115430250Y-122034419D01*
X115451074Y-122029203D01*
X115472309Y-122026053D01*
X115493750Y-122025000D01*
X115931250Y-122025000D01*
X115952691Y-122026053D01*
X115952691Y-122026053D01*
G37*
D17*
X115712500Y-122500000D03*
D16*
G36*
X99527691Y-117026053D02*
G01*
X99548926Y-117029203D01*
X99569750Y-117034419D01*
X99589962Y-117041651D01*
X99609368Y-117050830D01*
X99627781Y-117061866D01*
X99645024Y-117074654D01*
X99660930Y-117089070D01*
X99675346Y-117104976D01*
X99688134Y-117122219D01*
X99699170Y-117140632D01*
X99708349Y-117160038D01*
X99715581Y-117180250D01*
X99720797Y-117201074D01*
X99723947Y-117222309D01*
X99725000Y-117243750D01*
X99725000Y-117681250D01*
X99723947Y-117702691D01*
X99720797Y-117723926D01*
X99715581Y-117744750D01*
X99708349Y-117764962D01*
X99699170Y-117784368D01*
X99688134Y-117802781D01*
X99675346Y-117820024D01*
X99660930Y-117835930D01*
X99645024Y-117850346D01*
X99627781Y-117863134D01*
X99609368Y-117874170D01*
X99589962Y-117883349D01*
X99569750Y-117890581D01*
X99548926Y-117895797D01*
X99527691Y-117898947D01*
X99506250Y-117900000D01*
X98993750Y-117900000D01*
X98972309Y-117898947D01*
X98951074Y-117895797D01*
X98930250Y-117890581D01*
X98910038Y-117883349D01*
X98890632Y-117874170D01*
X98872219Y-117863134D01*
X98854976Y-117850346D01*
X98839070Y-117835930D01*
X98824654Y-117820024D01*
X98811866Y-117802781D01*
X98800830Y-117784368D01*
X98791651Y-117764962D01*
X98784419Y-117744750D01*
X98779203Y-117723926D01*
X98776053Y-117702691D01*
X98775000Y-117681250D01*
X98775000Y-117243750D01*
X98776053Y-117222309D01*
X98779203Y-117201074D01*
X98784419Y-117180250D01*
X98791651Y-117160038D01*
X98800830Y-117140632D01*
X98811866Y-117122219D01*
X98824654Y-117104976D01*
X98839070Y-117089070D01*
X98854976Y-117074654D01*
X98872219Y-117061866D01*
X98890632Y-117050830D01*
X98910038Y-117041651D01*
X98930250Y-117034419D01*
X98951074Y-117029203D01*
X98972309Y-117026053D01*
X98993750Y-117025000D01*
X99506250Y-117025000D01*
X99527691Y-117026053D01*
X99527691Y-117026053D01*
G37*
D17*
X99250000Y-117462500D03*
D16*
G36*
X99527691Y-118601053D02*
G01*
X99548926Y-118604203D01*
X99569750Y-118609419D01*
X99589962Y-118616651D01*
X99609368Y-118625830D01*
X99627781Y-118636866D01*
X99645024Y-118649654D01*
X99660930Y-118664070D01*
X99675346Y-118679976D01*
X99688134Y-118697219D01*
X99699170Y-118715632D01*
X99708349Y-118735038D01*
X99715581Y-118755250D01*
X99720797Y-118776074D01*
X99723947Y-118797309D01*
X99725000Y-118818750D01*
X99725000Y-119256250D01*
X99723947Y-119277691D01*
X99720797Y-119298926D01*
X99715581Y-119319750D01*
X99708349Y-119339962D01*
X99699170Y-119359368D01*
X99688134Y-119377781D01*
X99675346Y-119395024D01*
X99660930Y-119410930D01*
X99645024Y-119425346D01*
X99627781Y-119438134D01*
X99609368Y-119449170D01*
X99589962Y-119458349D01*
X99569750Y-119465581D01*
X99548926Y-119470797D01*
X99527691Y-119473947D01*
X99506250Y-119475000D01*
X98993750Y-119475000D01*
X98972309Y-119473947D01*
X98951074Y-119470797D01*
X98930250Y-119465581D01*
X98910038Y-119458349D01*
X98890632Y-119449170D01*
X98872219Y-119438134D01*
X98854976Y-119425346D01*
X98839070Y-119410930D01*
X98824654Y-119395024D01*
X98811866Y-119377781D01*
X98800830Y-119359368D01*
X98791651Y-119339962D01*
X98784419Y-119319750D01*
X98779203Y-119298926D01*
X98776053Y-119277691D01*
X98775000Y-119256250D01*
X98775000Y-118818750D01*
X98776053Y-118797309D01*
X98779203Y-118776074D01*
X98784419Y-118755250D01*
X98791651Y-118735038D01*
X98800830Y-118715632D01*
X98811866Y-118697219D01*
X98824654Y-118679976D01*
X98839070Y-118664070D01*
X98854976Y-118649654D01*
X98872219Y-118636866D01*
X98890632Y-118625830D01*
X98910038Y-118616651D01*
X98930250Y-118609419D01*
X98951074Y-118604203D01*
X98972309Y-118601053D01*
X98993750Y-118600000D01*
X99506250Y-118600000D01*
X99527691Y-118601053D01*
X99527691Y-118601053D01*
G37*
D17*
X99250000Y-119037500D03*
D16*
G36*
X97527691Y-117026053D02*
G01*
X97548926Y-117029203D01*
X97569750Y-117034419D01*
X97589962Y-117041651D01*
X97609368Y-117050830D01*
X97627781Y-117061866D01*
X97645024Y-117074654D01*
X97660930Y-117089070D01*
X97675346Y-117104976D01*
X97688134Y-117122219D01*
X97699170Y-117140632D01*
X97708349Y-117160038D01*
X97715581Y-117180250D01*
X97720797Y-117201074D01*
X97723947Y-117222309D01*
X97725000Y-117243750D01*
X97725000Y-117681250D01*
X97723947Y-117702691D01*
X97720797Y-117723926D01*
X97715581Y-117744750D01*
X97708349Y-117764962D01*
X97699170Y-117784368D01*
X97688134Y-117802781D01*
X97675346Y-117820024D01*
X97660930Y-117835930D01*
X97645024Y-117850346D01*
X97627781Y-117863134D01*
X97609368Y-117874170D01*
X97589962Y-117883349D01*
X97569750Y-117890581D01*
X97548926Y-117895797D01*
X97527691Y-117898947D01*
X97506250Y-117900000D01*
X96993750Y-117900000D01*
X96972309Y-117898947D01*
X96951074Y-117895797D01*
X96930250Y-117890581D01*
X96910038Y-117883349D01*
X96890632Y-117874170D01*
X96872219Y-117863134D01*
X96854976Y-117850346D01*
X96839070Y-117835930D01*
X96824654Y-117820024D01*
X96811866Y-117802781D01*
X96800830Y-117784368D01*
X96791651Y-117764962D01*
X96784419Y-117744750D01*
X96779203Y-117723926D01*
X96776053Y-117702691D01*
X96775000Y-117681250D01*
X96775000Y-117243750D01*
X96776053Y-117222309D01*
X96779203Y-117201074D01*
X96784419Y-117180250D01*
X96791651Y-117160038D01*
X96800830Y-117140632D01*
X96811866Y-117122219D01*
X96824654Y-117104976D01*
X96839070Y-117089070D01*
X96854976Y-117074654D01*
X96872219Y-117061866D01*
X96890632Y-117050830D01*
X96910038Y-117041651D01*
X96930250Y-117034419D01*
X96951074Y-117029203D01*
X96972309Y-117026053D01*
X96993750Y-117025000D01*
X97506250Y-117025000D01*
X97527691Y-117026053D01*
X97527691Y-117026053D01*
G37*
D17*
X97250000Y-117462500D03*
D16*
G36*
X97527691Y-118601053D02*
G01*
X97548926Y-118604203D01*
X97569750Y-118609419D01*
X97589962Y-118616651D01*
X97609368Y-118625830D01*
X97627781Y-118636866D01*
X97645024Y-118649654D01*
X97660930Y-118664070D01*
X97675346Y-118679976D01*
X97688134Y-118697219D01*
X97699170Y-118715632D01*
X97708349Y-118735038D01*
X97715581Y-118755250D01*
X97720797Y-118776074D01*
X97723947Y-118797309D01*
X97725000Y-118818750D01*
X97725000Y-119256250D01*
X97723947Y-119277691D01*
X97720797Y-119298926D01*
X97715581Y-119319750D01*
X97708349Y-119339962D01*
X97699170Y-119359368D01*
X97688134Y-119377781D01*
X97675346Y-119395024D01*
X97660930Y-119410930D01*
X97645024Y-119425346D01*
X97627781Y-119438134D01*
X97609368Y-119449170D01*
X97589962Y-119458349D01*
X97569750Y-119465581D01*
X97548926Y-119470797D01*
X97527691Y-119473947D01*
X97506250Y-119475000D01*
X96993750Y-119475000D01*
X96972309Y-119473947D01*
X96951074Y-119470797D01*
X96930250Y-119465581D01*
X96910038Y-119458349D01*
X96890632Y-119449170D01*
X96872219Y-119438134D01*
X96854976Y-119425346D01*
X96839070Y-119410930D01*
X96824654Y-119395024D01*
X96811866Y-119377781D01*
X96800830Y-119359368D01*
X96791651Y-119339962D01*
X96784419Y-119319750D01*
X96779203Y-119298926D01*
X96776053Y-119277691D01*
X96775000Y-119256250D01*
X96775000Y-118818750D01*
X96776053Y-118797309D01*
X96779203Y-118776074D01*
X96784419Y-118755250D01*
X96791651Y-118735038D01*
X96800830Y-118715632D01*
X96811866Y-118697219D01*
X96824654Y-118679976D01*
X96839070Y-118664070D01*
X96854976Y-118649654D01*
X96872219Y-118636866D01*
X96890632Y-118625830D01*
X96910038Y-118616651D01*
X96930250Y-118609419D01*
X96951074Y-118604203D01*
X96972309Y-118601053D01*
X96993750Y-118600000D01*
X97506250Y-118600000D01*
X97527691Y-118601053D01*
X97527691Y-118601053D01*
G37*
D17*
X97250000Y-119037500D03*
D16*
G36*
X104777691Y-117026053D02*
G01*
X104798926Y-117029203D01*
X104819750Y-117034419D01*
X104839962Y-117041651D01*
X104859368Y-117050830D01*
X104877781Y-117061866D01*
X104895024Y-117074654D01*
X104910930Y-117089070D01*
X104925346Y-117104976D01*
X104938134Y-117122219D01*
X104949170Y-117140632D01*
X104958349Y-117160038D01*
X104965581Y-117180250D01*
X104970797Y-117201074D01*
X104973947Y-117222309D01*
X104975000Y-117243750D01*
X104975000Y-117681250D01*
X104973947Y-117702691D01*
X104970797Y-117723926D01*
X104965581Y-117744750D01*
X104958349Y-117764962D01*
X104949170Y-117784368D01*
X104938134Y-117802781D01*
X104925346Y-117820024D01*
X104910930Y-117835930D01*
X104895024Y-117850346D01*
X104877781Y-117863134D01*
X104859368Y-117874170D01*
X104839962Y-117883349D01*
X104819750Y-117890581D01*
X104798926Y-117895797D01*
X104777691Y-117898947D01*
X104756250Y-117900000D01*
X104243750Y-117900000D01*
X104222309Y-117898947D01*
X104201074Y-117895797D01*
X104180250Y-117890581D01*
X104160038Y-117883349D01*
X104140632Y-117874170D01*
X104122219Y-117863134D01*
X104104976Y-117850346D01*
X104089070Y-117835930D01*
X104074654Y-117820024D01*
X104061866Y-117802781D01*
X104050830Y-117784368D01*
X104041651Y-117764962D01*
X104034419Y-117744750D01*
X104029203Y-117723926D01*
X104026053Y-117702691D01*
X104025000Y-117681250D01*
X104025000Y-117243750D01*
X104026053Y-117222309D01*
X104029203Y-117201074D01*
X104034419Y-117180250D01*
X104041651Y-117160038D01*
X104050830Y-117140632D01*
X104061866Y-117122219D01*
X104074654Y-117104976D01*
X104089070Y-117089070D01*
X104104976Y-117074654D01*
X104122219Y-117061866D01*
X104140632Y-117050830D01*
X104160038Y-117041651D01*
X104180250Y-117034419D01*
X104201074Y-117029203D01*
X104222309Y-117026053D01*
X104243750Y-117025000D01*
X104756250Y-117025000D01*
X104777691Y-117026053D01*
X104777691Y-117026053D01*
G37*
D17*
X104500000Y-117462500D03*
D16*
G36*
X104777691Y-118601053D02*
G01*
X104798926Y-118604203D01*
X104819750Y-118609419D01*
X104839962Y-118616651D01*
X104859368Y-118625830D01*
X104877781Y-118636866D01*
X104895024Y-118649654D01*
X104910930Y-118664070D01*
X104925346Y-118679976D01*
X104938134Y-118697219D01*
X104949170Y-118715632D01*
X104958349Y-118735038D01*
X104965581Y-118755250D01*
X104970797Y-118776074D01*
X104973947Y-118797309D01*
X104975000Y-118818750D01*
X104975000Y-119256250D01*
X104973947Y-119277691D01*
X104970797Y-119298926D01*
X104965581Y-119319750D01*
X104958349Y-119339962D01*
X104949170Y-119359368D01*
X104938134Y-119377781D01*
X104925346Y-119395024D01*
X104910930Y-119410930D01*
X104895024Y-119425346D01*
X104877781Y-119438134D01*
X104859368Y-119449170D01*
X104839962Y-119458349D01*
X104819750Y-119465581D01*
X104798926Y-119470797D01*
X104777691Y-119473947D01*
X104756250Y-119475000D01*
X104243750Y-119475000D01*
X104222309Y-119473947D01*
X104201074Y-119470797D01*
X104180250Y-119465581D01*
X104160038Y-119458349D01*
X104140632Y-119449170D01*
X104122219Y-119438134D01*
X104104976Y-119425346D01*
X104089070Y-119410930D01*
X104074654Y-119395024D01*
X104061866Y-119377781D01*
X104050830Y-119359368D01*
X104041651Y-119339962D01*
X104034419Y-119319750D01*
X104029203Y-119298926D01*
X104026053Y-119277691D01*
X104025000Y-119256250D01*
X104025000Y-118818750D01*
X104026053Y-118797309D01*
X104029203Y-118776074D01*
X104034419Y-118755250D01*
X104041651Y-118735038D01*
X104050830Y-118715632D01*
X104061866Y-118697219D01*
X104074654Y-118679976D01*
X104089070Y-118664070D01*
X104104976Y-118649654D01*
X104122219Y-118636866D01*
X104140632Y-118625830D01*
X104160038Y-118616651D01*
X104180250Y-118609419D01*
X104201074Y-118604203D01*
X104222309Y-118601053D01*
X104243750Y-118600000D01*
X104756250Y-118600000D01*
X104777691Y-118601053D01*
X104777691Y-118601053D01*
G37*
D17*
X104500000Y-119037500D03*
D16*
G36*
X102777691Y-118601053D02*
G01*
X102798926Y-118604203D01*
X102819750Y-118609419D01*
X102839962Y-118616651D01*
X102859368Y-118625830D01*
X102877781Y-118636866D01*
X102895024Y-118649654D01*
X102910930Y-118664070D01*
X102925346Y-118679976D01*
X102938134Y-118697219D01*
X102949170Y-118715632D01*
X102958349Y-118735038D01*
X102965581Y-118755250D01*
X102970797Y-118776074D01*
X102973947Y-118797309D01*
X102975000Y-118818750D01*
X102975000Y-119256250D01*
X102973947Y-119277691D01*
X102970797Y-119298926D01*
X102965581Y-119319750D01*
X102958349Y-119339962D01*
X102949170Y-119359368D01*
X102938134Y-119377781D01*
X102925346Y-119395024D01*
X102910930Y-119410930D01*
X102895024Y-119425346D01*
X102877781Y-119438134D01*
X102859368Y-119449170D01*
X102839962Y-119458349D01*
X102819750Y-119465581D01*
X102798926Y-119470797D01*
X102777691Y-119473947D01*
X102756250Y-119475000D01*
X102243750Y-119475000D01*
X102222309Y-119473947D01*
X102201074Y-119470797D01*
X102180250Y-119465581D01*
X102160038Y-119458349D01*
X102140632Y-119449170D01*
X102122219Y-119438134D01*
X102104976Y-119425346D01*
X102089070Y-119410930D01*
X102074654Y-119395024D01*
X102061866Y-119377781D01*
X102050830Y-119359368D01*
X102041651Y-119339962D01*
X102034419Y-119319750D01*
X102029203Y-119298926D01*
X102026053Y-119277691D01*
X102025000Y-119256250D01*
X102025000Y-118818750D01*
X102026053Y-118797309D01*
X102029203Y-118776074D01*
X102034419Y-118755250D01*
X102041651Y-118735038D01*
X102050830Y-118715632D01*
X102061866Y-118697219D01*
X102074654Y-118679976D01*
X102089070Y-118664070D01*
X102104976Y-118649654D01*
X102122219Y-118636866D01*
X102140632Y-118625830D01*
X102160038Y-118616651D01*
X102180250Y-118609419D01*
X102201074Y-118604203D01*
X102222309Y-118601053D01*
X102243750Y-118600000D01*
X102756250Y-118600000D01*
X102777691Y-118601053D01*
X102777691Y-118601053D01*
G37*
D17*
X102500000Y-119037500D03*
D16*
G36*
X102777691Y-117026053D02*
G01*
X102798926Y-117029203D01*
X102819750Y-117034419D01*
X102839962Y-117041651D01*
X102859368Y-117050830D01*
X102877781Y-117061866D01*
X102895024Y-117074654D01*
X102910930Y-117089070D01*
X102925346Y-117104976D01*
X102938134Y-117122219D01*
X102949170Y-117140632D01*
X102958349Y-117160038D01*
X102965581Y-117180250D01*
X102970797Y-117201074D01*
X102973947Y-117222309D01*
X102975000Y-117243750D01*
X102975000Y-117681250D01*
X102973947Y-117702691D01*
X102970797Y-117723926D01*
X102965581Y-117744750D01*
X102958349Y-117764962D01*
X102949170Y-117784368D01*
X102938134Y-117802781D01*
X102925346Y-117820024D01*
X102910930Y-117835930D01*
X102895024Y-117850346D01*
X102877781Y-117863134D01*
X102859368Y-117874170D01*
X102839962Y-117883349D01*
X102819750Y-117890581D01*
X102798926Y-117895797D01*
X102777691Y-117898947D01*
X102756250Y-117900000D01*
X102243750Y-117900000D01*
X102222309Y-117898947D01*
X102201074Y-117895797D01*
X102180250Y-117890581D01*
X102160038Y-117883349D01*
X102140632Y-117874170D01*
X102122219Y-117863134D01*
X102104976Y-117850346D01*
X102089070Y-117835930D01*
X102074654Y-117820024D01*
X102061866Y-117802781D01*
X102050830Y-117784368D01*
X102041651Y-117764962D01*
X102034419Y-117744750D01*
X102029203Y-117723926D01*
X102026053Y-117702691D01*
X102025000Y-117681250D01*
X102025000Y-117243750D01*
X102026053Y-117222309D01*
X102029203Y-117201074D01*
X102034419Y-117180250D01*
X102041651Y-117160038D01*
X102050830Y-117140632D01*
X102061866Y-117122219D01*
X102074654Y-117104976D01*
X102089070Y-117089070D01*
X102104976Y-117074654D01*
X102122219Y-117061866D01*
X102140632Y-117050830D01*
X102160038Y-117041651D01*
X102180250Y-117034419D01*
X102201074Y-117029203D01*
X102222309Y-117026053D01*
X102243750Y-117025000D01*
X102756250Y-117025000D01*
X102777691Y-117026053D01*
X102777691Y-117026053D01*
G37*
D17*
X102500000Y-117462500D03*
D16*
G36*
X117527691Y-106776053D02*
G01*
X117548926Y-106779203D01*
X117569750Y-106784419D01*
X117589962Y-106791651D01*
X117609368Y-106800830D01*
X117627781Y-106811866D01*
X117645024Y-106824654D01*
X117660930Y-106839070D01*
X117675346Y-106854976D01*
X117688134Y-106872219D01*
X117699170Y-106890632D01*
X117708349Y-106910038D01*
X117715581Y-106930250D01*
X117720797Y-106951074D01*
X117723947Y-106972309D01*
X117725000Y-106993750D01*
X117725000Y-107506250D01*
X117723947Y-107527691D01*
X117720797Y-107548926D01*
X117715581Y-107569750D01*
X117708349Y-107589962D01*
X117699170Y-107609368D01*
X117688134Y-107627781D01*
X117675346Y-107645024D01*
X117660930Y-107660930D01*
X117645024Y-107675346D01*
X117627781Y-107688134D01*
X117609368Y-107699170D01*
X117589962Y-107708349D01*
X117569750Y-107715581D01*
X117548926Y-107720797D01*
X117527691Y-107723947D01*
X117506250Y-107725000D01*
X117068750Y-107725000D01*
X117047309Y-107723947D01*
X117026074Y-107720797D01*
X117005250Y-107715581D01*
X116985038Y-107708349D01*
X116965632Y-107699170D01*
X116947219Y-107688134D01*
X116929976Y-107675346D01*
X116914070Y-107660930D01*
X116899654Y-107645024D01*
X116886866Y-107627781D01*
X116875830Y-107609368D01*
X116866651Y-107589962D01*
X116859419Y-107569750D01*
X116854203Y-107548926D01*
X116851053Y-107527691D01*
X116850000Y-107506250D01*
X116850000Y-106993750D01*
X116851053Y-106972309D01*
X116854203Y-106951074D01*
X116859419Y-106930250D01*
X116866651Y-106910038D01*
X116875830Y-106890632D01*
X116886866Y-106872219D01*
X116899654Y-106854976D01*
X116914070Y-106839070D01*
X116929976Y-106824654D01*
X116947219Y-106811866D01*
X116965632Y-106800830D01*
X116985038Y-106791651D01*
X117005250Y-106784419D01*
X117026074Y-106779203D01*
X117047309Y-106776053D01*
X117068750Y-106775000D01*
X117506250Y-106775000D01*
X117527691Y-106776053D01*
X117527691Y-106776053D01*
G37*
D17*
X117287500Y-107250000D03*
D16*
G36*
X115952691Y-106776053D02*
G01*
X115973926Y-106779203D01*
X115994750Y-106784419D01*
X116014962Y-106791651D01*
X116034368Y-106800830D01*
X116052781Y-106811866D01*
X116070024Y-106824654D01*
X116085930Y-106839070D01*
X116100346Y-106854976D01*
X116113134Y-106872219D01*
X116124170Y-106890632D01*
X116133349Y-106910038D01*
X116140581Y-106930250D01*
X116145797Y-106951074D01*
X116148947Y-106972309D01*
X116150000Y-106993750D01*
X116150000Y-107506250D01*
X116148947Y-107527691D01*
X116145797Y-107548926D01*
X116140581Y-107569750D01*
X116133349Y-107589962D01*
X116124170Y-107609368D01*
X116113134Y-107627781D01*
X116100346Y-107645024D01*
X116085930Y-107660930D01*
X116070024Y-107675346D01*
X116052781Y-107688134D01*
X116034368Y-107699170D01*
X116014962Y-107708349D01*
X115994750Y-107715581D01*
X115973926Y-107720797D01*
X115952691Y-107723947D01*
X115931250Y-107725000D01*
X115493750Y-107725000D01*
X115472309Y-107723947D01*
X115451074Y-107720797D01*
X115430250Y-107715581D01*
X115410038Y-107708349D01*
X115390632Y-107699170D01*
X115372219Y-107688134D01*
X115354976Y-107675346D01*
X115339070Y-107660930D01*
X115324654Y-107645024D01*
X115311866Y-107627781D01*
X115300830Y-107609368D01*
X115291651Y-107589962D01*
X115284419Y-107569750D01*
X115279203Y-107548926D01*
X115276053Y-107527691D01*
X115275000Y-107506250D01*
X115275000Y-106993750D01*
X115276053Y-106972309D01*
X115279203Y-106951074D01*
X115284419Y-106930250D01*
X115291651Y-106910038D01*
X115300830Y-106890632D01*
X115311866Y-106872219D01*
X115324654Y-106854976D01*
X115339070Y-106839070D01*
X115354976Y-106824654D01*
X115372219Y-106811866D01*
X115390632Y-106800830D01*
X115410038Y-106791651D01*
X115430250Y-106784419D01*
X115451074Y-106779203D01*
X115472309Y-106776053D01*
X115493750Y-106775000D01*
X115931250Y-106775000D01*
X115952691Y-106776053D01*
X115952691Y-106776053D01*
G37*
D17*
X115712500Y-107250000D03*
D16*
G36*
X117527691Y-108776053D02*
G01*
X117548926Y-108779203D01*
X117569750Y-108784419D01*
X117589962Y-108791651D01*
X117609368Y-108800830D01*
X117627781Y-108811866D01*
X117645024Y-108824654D01*
X117660930Y-108839070D01*
X117675346Y-108854976D01*
X117688134Y-108872219D01*
X117699170Y-108890632D01*
X117708349Y-108910038D01*
X117715581Y-108930250D01*
X117720797Y-108951074D01*
X117723947Y-108972309D01*
X117725000Y-108993750D01*
X117725000Y-109506250D01*
X117723947Y-109527691D01*
X117720797Y-109548926D01*
X117715581Y-109569750D01*
X117708349Y-109589962D01*
X117699170Y-109609368D01*
X117688134Y-109627781D01*
X117675346Y-109645024D01*
X117660930Y-109660930D01*
X117645024Y-109675346D01*
X117627781Y-109688134D01*
X117609368Y-109699170D01*
X117589962Y-109708349D01*
X117569750Y-109715581D01*
X117548926Y-109720797D01*
X117527691Y-109723947D01*
X117506250Y-109725000D01*
X117068750Y-109725000D01*
X117047309Y-109723947D01*
X117026074Y-109720797D01*
X117005250Y-109715581D01*
X116985038Y-109708349D01*
X116965632Y-109699170D01*
X116947219Y-109688134D01*
X116929976Y-109675346D01*
X116914070Y-109660930D01*
X116899654Y-109645024D01*
X116886866Y-109627781D01*
X116875830Y-109609368D01*
X116866651Y-109589962D01*
X116859419Y-109569750D01*
X116854203Y-109548926D01*
X116851053Y-109527691D01*
X116850000Y-109506250D01*
X116850000Y-108993750D01*
X116851053Y-108972309D01*
X116854203Y-108951074D01*
X116859419Y-108930250D01*
X116866651Y-108910038D01*
X116875830Y-108890632D01*
X116886866Y-108872219D01*
X116899654Y-108854976D01*
X116914070Y-108839070D01*
X116929976Y-108824654D01*
X116947219Y-108811866D01*
X116965632Y-108800830D01*
X116985038Y-108791651D01*
X117005250Y-108784419D01*
X117026074Y-108779203D01*
X117047309Y-108776053D01*
X117068750Y-108775000D01*
X117506250Y-108775000D01*
X117527691Y-108776053D01*
X117527691Y-108776053D01*
G37*
D17*
X117287500Y-109250000D03*
D16*
G36*
X115952691Y-108776053D02*
G01*
X115973926Y-108779203D01*
X115994750Y-108784419D01*
X116014962Y-108791651D01*
X116034368Y-108800830D01*
X116052781Y-108811866D01*
X116070024Y-108824654D01*
X116085930Y-108839070D01*
X116100346Y-108854976D01*
X116113134Y-108872219D01*
X116124170Y-108890632D01*
X116133349Y-108910038D01*
X116140581Y-108930250D01*
X116145797Y-108951074D01*
X116148947Y-108972309D01*
X116150000Y-108993750D01*
X116150000Y-109506250D01*
X116148947Y-109527691D01*
X116145797Y-109548926D01*
X116140581Y-109569750D01*
X116133349Y-109589962D01*
X116124170Y-109609368D01*
X116113134Y-109627781D01*
X116100346Y-109645024D01*
X116085930Y-109660930D01*
X116070024Y-109675346D01*
X116052781Y-109688134D01*
X116034368Y-109699170D01*
X116014962Y-109708349D01*
X115994750Y-109715581D01*
X115973926Y-109720797D01*
X115952691Y-109723947D01*
X115931250Y-109725000D01*
X115493750Y-109725000D01*
X115472309Y-109723947D01*
X115451074Y-109720797D01*
X115430250Y-109715581D01*
X115410038Y-109708349D01*
X115390632Y-109699170D01*
X115372219Y-109688134D01*
X115354976Y-109675346D01*
X115339070Y-109660930D01*
X115324654Y-109645024D01*
X115311866Y-109627781D01*
X115300830Y-109609368D01*
X115291651Y-109589962D01*
X115284419Y-109569750D01*
X115279203Y-109548926D01*
X115276053Y-109527691D01*
X115275000Y-109506250D01*
X115275000Y-108993750D01*
X115276053Y-108972309D01*
X115279203Y-108951074D01*
X115284419Y-108930250D01*
X115291651Y-108910038D01*
X115300830Y-108890632D01*
X115311866Y-108872219D01*
X115324654Y-108854976D01*
X115339070Y-108839070D01*
X115354976Y-108824654D01*
X115372219Y-108811866D01*
X115390632Y-108800830D01*
X115410038Y-108791651D01*
X115430250Y-108784419D01*
X115451074Y-108779203D01*
X115472309Y-108776053D01*
X115493750Y-108775000D01*
X115931250Y-108775000D01*
X115952691Y-108776053D01*
X115952691Y-108776053D01*
G37*
D17*
X115712500Y-109250000D03*
D16*
G36*
X115952691Y-110776053D02*
G01*
X115973926Y-110779203D01*
X115994750Y-110784419D01*
X116014962Y-110791651D01*
X116034368Y-110800830D01*
X116052781Y-110811866D01*
X116070024Y-110824654D01*
X116085930Y-110839070D01*
X116100346Y-110854976D01*
X116113134Y-110872219D01*
X116124170Y-110890632D01*
X116133349Y-110910038D01*
X116140581Y-110930250D01*
X116145797Y-110951074D01*
X116148947Y-110972309D01*
X116150000Y-110993750D01*
X116150000Y-111506250D01*
X116148947Y-111527691D01*
X116145797Y-111548926D01*
X116140581Y-111569750D01*
X116133349Y-111589962D01*
X116124170Y-111609368D01*
X116113134Y-111627781D01*
X116100346Y-111645024D01*
X116085930Y-111660930D01*
X116070024Y-111675346D01*
X116052781Y-111688134D01*
X116034368Y-111699170D01*
X116014962Y-111708349D01*
X115994750Y-111715581D01*
X115973926Y-111720797D01*
X115952691Y-111723947D01*
X115931250Y-111725000D01*
X115493750Y-111725000D01*
X115472309Y-111723947D01*
X115451074Y-111720797D01*
X115430250Y-111715581D01*
X115410038Y-111708349D01*
X115390632Y-111699170D01*
X115372219Y-111688134D01*
X115354976Y-111675346D01*
X115339070Y-111660930D01*
X115324654Y-111645024D01*
X115311866Y-111627781D01*
X115300830Y-111609368D01*
X115291651Y-111589962D01*
X115284419Y-111569750D01*
X115279203Y-111548926D01*
X115276053Y-111527691D01*
X115275000Y-111506250D01*
X115275000Y-110993750D01*
X115276053Y-110972309D01*
X115279203Y-110951074D01*
X115284419Y-110930250D01*
X115291651Y-110910038D01*
X115300830Y-110890632D01*
X115311866Y-110872219D01*
X115324654Y-110854976D01*
X115339070Y-110839070D01*
X115354976Y-110824654D01*
X115372219Y-110811866D01*
X115390632Y-110800830D01*
X115410038Y-110791651D01*
X115430250Y-110784419D01*
X115451074Y-110779203D01*
X115472309Y-110776053D01*
X115493750Y-110775000D01*
X115931250Y-110775000D01*
X115952691Y-110776053D01*
X115952691Y-110776053D01*
G37*
D17*
X115712500Y-111250000D03*
D16*
G36*
X117527691Y-110776053D02*
G01*
X117548926Y-110779203D01*
X117569750Y-110784419D01*
X117589962Y-110791651D01*
X117609368Y-110800830D01*
X117627781Y-110811866D01*
X117645024Y-110824654D01*
X117660930Y-110839070D01*
X117675346Y-110854976D01*
X117688134Y-110872219D01*
X117699170Y-110890632D01*
X117708349Y-110910038D01*
X117715581Y-110930250D01*
X117720797Y-110951074D01*
X117723947Y-110972309D01*
X117725000Y-110993750D01*
X117725000Y-111506250D01*
X117723947Y-111527691D01*
X117720797Y-111548926D01*
X117715581Y-111569750D01*
X117708349Y-111589962D01*
X117699170Y-111609368D01*
X117688134Y-111627781D01*
X117675346Y-111645024D01*
X117660930Y-111660930D01*
X117645024Y-111675346D01*
X117627781Y-111688134D01*
X117609368Y-111699170D01*
X117589962Y-111708349D01*
X117569750Y-111715581D01*
X117548926Y-111720797D01*
X117527691Y-111723947D01*
X117506250Y-111725000D01*
X117068750Y-111725000D01*
X117047309Y-111723947D01*
X117026074Y-111720797D01*
X117005250Y-111715581D01*
X116985038Y-111708349D01*
X116965632Y-111699170D01*
X116947219Y-111688134D01*
X116929976Y-111675346D01*
X116914070Y-111660930D01*
X116899654Y-111645024D01*
X116886866Y-111627781D01*
X116875830Y-111609368D01*
X116866651Y-111589962D01*
X116859419Y-111569750D01*
X116854203Y-111548926D01*
X116851053Y-111527691D01*
X116850000Y-111506250D01*
X116850000Y-110993750D01*
X116851053Y-110972309D01*
X116854203Y-110951074D01*
X116859419Y-110930250D01*
X116866651Y-110910038D01*
X116875830Y-110890632D01*
X116886866Y-110872219D01*
X116899654Y-110854976D01*
X116914070Y-110839070D01*
X116929976Y-110824654D01*
X116947219Y-110811866D01*
X116965632Y-110800830D01*
X116985038Y-110791651D01*
X117005250Y-110784419D01*
X117026074Y-110779203D01*
X117047309Y-110776053D01*
X117068750Y-110775000D01*
X117506250Y-110775000D01*
X117527691Y-110776053D01*
X117527691Y-110776053D01*
G37*
D17*
X117287500Y-111250000D03*
D16*
G36*
X117527691Y-112776053D02*
G01*
X117548926Y-112779203D01*
X117569750Y-112784419D01*
X117589962Y-112791651D01*
X117609368Y-112800830D01*
X117627781Y-112811866D01*
X117645024Y-112824654D01*
X117660930Y-112839070D01*
X117675346Y-112854976D01*
X117688134Y-112872219D01*
X117699170Y-112890632D01*
X117708349Y-112910038D01*
X117715581Y-112930250D01*
X117720797Y-112951074D01*
X117723947Y-112972309D01*
X117725000Y-112993750D01*
X117725000Y-113506250D01*
X117723947Y-113527691D01*
X117720797Y-113548926D01*
X117715581Y-113569750D01*
X117708349Y-113589962D01*
X117699170Y-113609368D01*
X117688134Y-113627781D01*
X117675346Y-113645024D01*
X117660930Y-113660930D01*
X117645024Y-113675346D01*
X117627781Y-113688134D01*
X117609368Y-113699170D01*
X117589962Y-113708349D01*
X117569750Y-113715581D01*
X117548926Y-113720797D01*
X117527691Y-113723947D01*
X117506250Y-113725000D01*
X117068750Y-113725000D01*
X117047309Y-113723947D01*
X117026074Y-113720797D01*
X117005250Y-113715581D01*
X116985038Y-113708349D01*
X116965632Y-113699170D01*
X116947219Y-113688134D01*
X116929976Y-113675346D01*
X116914070Y-113660930D01*
X116899654Y-113645024D01*
X116886866Y-113627781D01*
X116875830Y-113609368D01*
X116866651Y-113589962D01*
X116859419Y-113569750D01*
X116854203Y-113548926D01*
X116851053Y-113527691D01*
X116850000Y-113506250D01*
X116850000Y-112993750D01*
X116851053Y-112972309D01*
X116854203Y-112951074D01*
X116859419Y-112930250D01*
X116866651Y-112910038D01*
X116875830Y-112890632D01*
X116886866Y-112872219D01*
X116899654Y-112854976D01*
X116914070Y-112839070D01*
X116929976Y-112824654D01*
X116947219Y-112811866D01*
X116965632Y-112800830D01*
X116985038Y-112791651D01*
X117005250Y-112784419D01*
X117026074Y-112779203D01*
X117047309Y-112776053D01*
X117068750Y-112775000D01*
X117506250Y-112775000D01*
X117527691Y-112776053D01*
X117527691Y-112776053D01*
G37*
D17*
X117287500Y-113250000D03*
D16*
G36*
X115952691Y-112776053D02*
G01*
X115973926Y-112779203D01*
X115994750Y-112784419D01*
X116014962Y-112791651D01*
X116034368Y-112800830D01*
X116052781Y-112811866D01*
X116070024Y-112824654D01*
X116085930Y-112839070D01*
X116100346Y-112854976D01*
X116113134Y-112872219D01*
X116124170Y-112890632D01*
X116133349Y-112910038D01*
X116140581Y-112930250D01*
X116145797Y-112951074D01*
X116148947Y-112972309D01*
X116150000Y-112993750D01*
X116150000Y-113506250D01*
X116148947Y-113527691D01*
X116145797Y-113548926D01*
X116140581Y-113569750D01*
X116133349Y-113589962D01*
X116124170Y-113609368D01*
X116113134Y-113627781D01*
X116100346Y-113645024D01*
X116085930Y-113660930D01*
X116070024Y-113675346D01*
X116052781Y-113688134D01*
X116034368Y-113699170D01*
X116014962Y-113708349D01*
X115994750Y-113715581D01*
X115973926Y-113720797D01*
X115952691Y-113723947D01*
X115931250Y-113725000D01*
X115493750Y-113725000D01*
X115472309Y-113723947D01*
X115451074Y-113720797D01*
X115430250Y-113715581D01*
X115410038Y-113708349D01*
X115390632Y-113699170D01*
X115372219Y-113688134D01*
X115354976Y-113675346D01*
X115339070Y-113660930D01*
X115324654Y-113645024D01*
X115311866Y-113627781D01*
X115300830Y-113609368D01*
X115291651Y-113589962D01*
X115284419Y-113569750D01*
X115279203Y-113548926D01*
X115276053Y-113527691D01*
X115275000Y-113506250D01*
X115275000Y-112993750D01*
X115276053Y-112972309D01*
X115279203Y-112951074D01*
X115284419Y-112930250D01*
X115291651Y-112910038D01*
X115300830Y-112890632D01*
X115311866Y-112872219D01*
X115324654Y-112854976D01*
X115339070Y-112839070D01*
X115354976Y-112824654D01*
X115372219Y-112811866D01*
X115390632Y-112800830D01*
X115410038Y-112791651D01*
X115430250Y-112784419D01*
X115451074Y-112779203D01*
X115472309Y-112776053D01*
X115493750Y-112775000D01*
X115931250Y-112775000D01*
X115952691Y-112776053D01*
X115952691Y-112776053D01*
G37*
D17*
X115712500Y-113250000D03*
D16*
G36*
X115952691Y-97526053D02*
G01*
X115973926Y-97529203D01*
X115994750Y-97534419D01*
X116014962Y-97541651D01*
X116034368Y-97550830D01*
X116052781Y-97561866D01*
X116070024Y-97574654D01*
X116085930Y-97589070D01*
X116100346Y-97604976D01*
X116113134Y-97622219D01*
X116124170Y-97640632D01*
X116133349Y-97660038D01*
X116140581Y-97680250D01*
X116145797Y-97701074D01*
X116148947Y-97722309D01*
X116150000Y-97743750D01*
X116150000Y-98256250D01*
X116148947Y-98277691D01*
X116145797Y-98298926D01*
X116140581Y-98319750D01*
X116133349Y-98339962D01*
X116124170Y-98359368D01*
X116113134Y-98377781D01*
X116100346Y-98395024D01*
X116085930Y-98410930D01*
X116070024Y-98425346D01*
X116052781Y-98438134D01*
X116034368Y-98449170D01*
X116014962Y-98458349D01*
X115994750Y-98465581D01*
X115973926Y-98470797D01*
X115952691Y-98473947D01*
X115931250Y-98475000D01*
X115493750Y-98475000D01*
X115472309Y-98473947D01*
X115451074Y-98470797D01*
X115430250Y-98465581D01*
X115410038Y-98458349D01*
X115390632Y-98449170D01*
X115372219Y-98438134D01*
X115354976Y-98425346D01*
X115339070Y-98410930D01*
X115324654Y-98395024D01*
X115311866Y-98377781D01*
X115300830Y-98359368D01*
X115291651Y-98339962D01*
X115284419Y-98319750D01*
X115279203Y-98298926D01*
X115276053Y-98277691D01*
X115275000Y-98256250D01*
X115275000Y-97743750D01*
X115276053Y-97722309D01*
X115279203Y-97701074D01*
X115284419Y-97680250D01*
X115291651Y-97660038D01*
X115300830Y-97640632D01*
X115311866Y-97622219D01*
X115324654Y-97604976D01*
X115339070Y-97589070D01*
X115354976Y-97574654D01*
X115372219Y-97561866D01*
X115390632Y-97550830D01*
X115410038Y-97541651D01*
X115430250Y-97534419D01*
X115451074Y-97529203D01*
X115472309Y-97526053D01*
X115493750Y-97525000D01*
X115931250Y-97525000D01*
X115952691Y-97526053D01*
X115952691Y-97526053D01*
G37*
D17*
X115712500Y-98000000D03*
D16*
G36*
X117527691Y-97526053D02*
G01*
X117548926Y-97529203D01*
X117569750Y-97534419D01*
X117589962Y-97541651D01*
X117609368Y-97550830D01*
X117627781Y-97561866D01*
X117645024Y-97574654D01*
X117660930Y-97589070D01*
X117675346Y-97604976D01*
X117688134Y-97622219D01*
X117699170Y-97640632D01*
X117708349Y-97660038D01*
X117715581Y-97680250D01*
X117720797Y-97701074D01*
X117723947Y-97722309D01*
X117725000Y-97743750D01*
X117725000Y-98256250D01*
X117723947Y-98277691D01*
X117720797Y-98298926D01*
X117715581Y-98319750D01*
X117708349Y-98339962D01*
X117699170Y-98359368D01*
X117688134Y-98377781D01*
X117675346Y-98395024D01*
X117660930Y-98410930D01*
X117645024Y-98425346D01*
X117627781Y-98438134D01*
X117609368Y-98449170D01*
X117589962Y-98458349D01*
X117569750Y-98465581D01*
X117548926Y-98470797D01*
X117527691Y-98473947D01*
X117506250Y-98475000D01*
X117068750Y-98475000D01*
X117047309Y-98473947D01*
X117026074Y-98470797D01*
X117005250Y-98465581D01*
X116985038Y-98458349D01*
X116965632Y-98449170D01*
X116947219Y-98438134D01*
X116929976Y-98425346D01*
X116914070Y-98410930D01*
X116899654Y-98395024D01*
X116886866Y-98377781D01*
X116875830Y-98359368D01*
X116866651Y-98339962D01*
X116859419Y-98319750D01*
X116854203Y-98298926D01*
X116851053Y-98277691D01*
X116850000Y-98256250D01*
X116850000Y-97743750D01*
X116851053Y-97722309D01*
X116854203Y-97701074D01*
X116859419Y-97680250D01*
X116866651Y-97660038D01*
X116875830Y-97640632D01*
X116886866Y-97622219D01*
X116899654Y-97604976D01*
X116914070Y-97589070D01*
X116929976Y-97574654D01*
X116947219Y-97561866D01*
X116965632Y-97550830D01*
X116985038Y-97541651D01*
X117005250Y-97534419D01*
X117026074Y-97529203D01*
X117047309Y-97526053D01*
X117068750Y-97525000D01*
X117506250Y-97525000D01*
X117527691Y-97526053D01*
X117527691Y-97526053D01*
G37*
D17*
X117287500Y-98000000D03*
D16*
G36*
X117527691Y-99526053D02*
G01*
X117548926Y-99529203D01*
X117569750Y-99534419D01*
X117589962Y-99541651D01*
X117609368Y-99550830D01*
X117627781Y-99561866D01*
X117645024Y-99574654D01*
X117660930Y-99589070D01*
X117675346Y-99604976D01*
X117688134Y-99622219D01*
X117699170Y-99640632D01*
X117708349Y-99660038D01*
X117715581Y-99680250D01*
X117720797Y-99701074D01*
X117723947Y-99722309D01*
X117725000Y-99743750D01*
X117725000Y-100256250D01*
X117723947Y-100277691D01*
X117720797Y-100298926D01*
X117715581Y-100319750D01*
X117708349Y-100339962D01*
X117699170Y-100359368D01*
X117688134Y-100377781D01*
X117675346Y-100395024D01*
X117660930Y-100410930D01*
X117645024Y-100425346D01*
X117627781Y-100438134D01*
X117609368Y-100449170D01*
X117589962Y-100458349D01*
X117569750Y-100465581D01*
X117548926Y-100470797D01*
X117527691Y-100473947D01*
X117506250Y-100475000D01*
X117068750Y-100475000D01*
X117047309Y-100473947D01*
X117026074Y-100470797D01*
X117005250Y-100465581D01*
X116985038Y-100458349D01*
X116965632Y-100449170D01*
X116947219Y-100438134D01*
X116929976Y-100425346D01*
X116914070Y-100410930D01*
X116899654Y-100395024D01*
X116886866Y-100377781D01*
X116875830Y-100359368D01*
X116866651Y-100339962D01*
X116859419Y-100319750D01*
X116854203Y-100298926D01*
X116851053Y-100277691D01*
X116850000Y-100256250D01*
X116850000Y-99743750D01*
X116851053Y-99722309D01*
X116854203Y-99701074D01*
X116859419Y-99680250D01*
X116866651Y-99660038D01*
X116875830Y-99640632D01*
X116886866Y-99622219D01*
X116899654Y-99604976D01*
X116914070Y-99589070D01*
X116929976Y-99574654D01*
X116947219Y-99561866D01*
X116965632Y-99550830D01*
X116985038Y-99541651D01*
X117005250Y-99534419D01*
X117026074Y-99529203D01*
X117047309Y-99526053D01*
X117068750Y-99525000D01*
X117506250Y-99525000D01*
X117527691Y-99526053D01*
X117527691Y-99526053D01*
G37*
D17*
X117287500Y-100000000D03*
D16*
G36*
X115952691Y-99526053D02*
G01*
X115973926Y-99529203D01*
X115994750Y-99534419D01*
X116014962Y-99541651D01*
X116034368Y-99550830D01*
X116052781Y-99561866D01*
X116070024Y-99574654D01*
X116085930Y-99589070D01*
X116100346Y-99604976D01*
X116113134Y-99622219D01*
X116124170Y-99640632D01*
X116133349Y-99660038D01*
X116140581Y-99680250D01*
X116145797Y-99701074D01*
X116148947Y-99722309D01*
X116150000Y-99743750D01*
X116150000Y-100256250D01*
X116148947Y-100277691D01*
X116145797Y-100298926D01*
X116140581Y-100319750D01*
X116133349Y-100339962D01*
X116124170Y-100359368D01*
X116113134Y-100377781D01*
X116100346Y-100395024D01*
X116085930Y-100410930D01*
X116070024Y-100425346D01*
X116052781Y-100438134D01*
X116034368Y-100449170D01*
X116014962Y-100458349D01*
X115994750Y-100465581D01*
X115973926Y-100470797D01*
X115952691Y-100473947D01*
X115931250Y-100475000D01*
X115493750Y-100475000D01*
X115472309Y-100473947D01*
X115451074Y-100470797D01*
X115430250Y-100465581D01*
X115410038Y-100458349D01*
X115390632Y-100449170D01*
X115372219Y-100438134D01*
X115354976Y-100425346D01*
X115339070Y-100410930D01*
X115324654Y-100395024D01*
X115311866Y-100377781D01*
X115300830Y-100359368D01*
X115291651Y-100339962D01*
X115284419Y-100319750D01*
X115279203Y-100298926D01*
X115276053Y-100277691D01*
X115275000Y-100256250D01*
X115275000Y-99743750D01*
X115276053Y-99722309D01*
X115279203Y-99701074D01*
X115284419Y-99680250D01*
X115291651Y-99660038D01*
X115300830Y-99640632D01*
X115311866Y-99622219D01*
X115324654Y-99604976D01*
X115339070Y-99589070D01*
X115354976Y-99574654D01*
X115372219Y-99561866D01*
X115390632Y-99550830D01*
X115410038Y-99541651D01*
X115430250Y-99534419D01*
X115451074Y-99529203D01*
X115472309Y-99526053D01*
X115493750Y-99525000D01*
X115931250Y-99525000D01*
X115952691Y-99526053D01*
X115952691Y-99526053D01*
G37*
D17*
X115712500Y-100000000D03*
D16*
G36*
X115952691Y-101526053D02*
G01*
X115973926Y-101529203D01*
X115994750Y-101534419D01*
X116014962Y-101541651D01*
X116034368Y-101550830D01*
X116052781Y-101561866D01*
X116070024Y-101574654D01*
X116085930Y-101589070D01*
X116100346Y-101604976D01*
X116113134Y-101622219D01*
X116124170Y-101640632D01*
X116133349Y-101660038D01*
X116140581Y-101680250D01*
X116145797Y-101701074D01*
X116148947Y-101722309D01*
X116150000Y-101743750D01*
X116150000Y-102256250D01*
X116148947Y-102277691D01*
X116145797Y-102298926D01*
X116140581Y-102319750D01*
X116133349Y-102339962D01*
X116124170Y-102359368D01*
X116113134Y-102377781D01*
X116100346Y-102395024D01*
X116085930Y-102410930D01*
X116070024Y-102425346D01*
X116052781Y-102438134D01*
X116034368Y-102449170D01*
X116014962Y-102458349D01*
X115994750Y-102465581D01*
X115973926Y-102470797D01*
X115952691Y-102473947D01*
X115931250Y-102475000D01*
X115493750Y-102475000D01*
X115472309Y-102473947D01*
X115451074Y-102470797D01*
X115430250Y-102465581D01*
X115410038Y-102458349D01*
X115390632Y-102449170D01*
X115372219Y-102438134D01*
X115354976Y-102425346D01*
X115339070Y-102410930D01*
X115324654Y-102395024D01*
X115311866Y-102377781D01*
X115300830Y-102359368D01*
X115291651Y-102339962D01*
X115284419Y-102319750D01*
X115279203Y-102298926D01*
X115276053Y-102277691D01*
X115275000Y-102256250D01*
X115275000Y-101743750D01*
X115276053Y-101722309D01*
X115279203Y-101701074D01*
X115284419Y-101680250D01*
X115291651Y-101660038D01*
X115300830Y-101640632D01*
X115311866Y-101622219D01*
X115324654Y-101604976D01*
X115339070Y-101589070D01*
X115354976Y-101574654D01*
X115372219Y-101561866D01*
X115390632Y-101550830D01*
X115410038Y-101541651D01*
X115430250Y-101534419D01*
X115451074Y-101529203D01*
X115472309Y-101526053D01*
X115493750Y-101525000D01*
X115931250Y-101525000D01*
X115952691Y-101526053D01*
X115952691Y-101526053D01*
G37*
D17*
X115712500Y-102000000D03*
D16*
G36*
X117527691Y-101526053D02*
G01*
X117548926Y-101529203D01*
X117569750Y-101534419D01*
X117589962Y-101541651D01*
X117609368Y-101550830D01*
X117627781Y-101561866D01*
X117645024Y-101574654D01*
X117660930Y-101589070D01*
X117675346Y-101604976D01*
X117688134Y-101622219D01*
X117699170Y-101640632D01*
X117708349Y-101660038D01*
X117715581Y-101680250D01*
X117720797Y-101701074D01*
X117723947Y-101722309D01*
X117725000Y-101743750D01*
X117725000Y-102256250D01*
X117723947Y-102277691D01*
X117720797Y-102298926D01*
X117715581Y-102319750D01*
X117708349Y-102339962D01*
X117699170Y-102359368D01*
X117688134Y-102377781D01*
X117675346Y-102395024D01*
X117660930Y-102410930D01*
X117645024Y-102425346D01*
X117627781Y-102438134D01*
X117609368Y-102449170D01*
X117589962Y-102458349D01*
X117569750Y-102465581D01*
X117548926Y-102470797D01*
X117527691Y-102473947D01*
X117506250Y-102475000D01*
X117068750Y-102475000D01*
X117047309Y-102473947D01*
X117026074Y-102470797D01*
X117005250Y-102465581D01*
X116985038Y-102458349D01*
X116965632Y-102449170D01*
X116947219Y-102438134D01*
X116929976Y-102425346D01*
X116914070Y-102410930D01*
X116899654Y-102395024D01*
X116886866Y-102377781D01*
X116875830Y-102359368D01*
X116866651Y-102339962D01*
X116859419Y-102319750D01*
X116854203Y-102298926D01*
X116851053Y-102277691D01*
X116850000Y-102256250D01*
X116850000Y-101743750D01*
X116851053Y-101722309D01*
X116854203Y-101701074D01*
X116859419Y-101680250D01*
X116866651Y-101660038D01*
X116875830Y-101640632D01*
X116886866Y-101622219D01*
X116899654Y-101604976D01*
X116914070Y-101589070D01*
X116929976Y-101574654D01*
X116947219Y-101561866D01*
X116965632Y-101550830D01*
X116985038Y-101541651D01*
X117005250Y-101534419D01*
X117026074Y-101529203D01*
X117047309Y-101526053D01*
X117068750Y-101525000D01*
X117506250Y-101525000D01*
X117527691Y-101526053D01*
X117527691Y-101526053D01*
G37*
D17*
X117287500Y-102000000D03*
D16*
G36*
X117527691Y-103526053D02*
G01*
X117548926Y-103529203D01*
X117569750Y-103534419D01*
X117589962Y-103541651D01*
X117609368Y-103550830D01*
X117627781Y-103561866D01*
X117645024Y-103574654D01*
X117660930Y-103589070D01*
X117675346Y-103604976D01*
X117688134Y-103622219D01*
X117699170Y-103640632D01*
X117708349Y-103660038D01*
X117715581Y-103680250D01*
X117720797Y-103701074D01*
X117723947Y-103722309D01*
X117725000Y-103743750D01*
X117725000Y-104256250D01*
X117723947Y-104277691D01*
X117720797Y-104298926D01*
X117715581Y-104319750D01*
X117708349Y-104339962D01*
X117699170Y-104359368D01*
X117688134Y-104377781D01*
X117675346Y-104395024D01*
X117660930Y-104410930D01*
X117645024Y-104425346D01*
X117627781Y-104438134D01*
X117609368Y-104449170D01*
X117589962Y-104458349D01*
X117569750Y-104465581D01*
X117548926Y-104470797D01*
X117527691Y-104473947D01*
X117506250Y-104475000D01*
X117068750Y-104475000D01*
X117047309Y-104473947D01*
X117026074Y-104470797D01*
X117005250Y-104465581D01*
X116985038Y-104458349D01*
X116965632Y-104449170D01*
X116947219Y-104438134D01*
X116929976Y-104425346D01*
X116914070Y-104410930D01*
X116899654Y-104395024D01*
X116886866Y-104377781D01*
X116875830Y-104359368D01*
X116866651Y-104339962D01*
X116859419Y-104319750D01*
X116854203Y-104298926D01*
X116851053Y-104277691D01*
X116850000Y-104256250D01*
X116850000Y-103743750D01*
X116851053Y-103722309D01*
X116854203Y-103701074D01*
X116859419Y-103680250D01*
X116866651Y-103660038D01*
X116875830Y-103640632D01*
X116886866Y-103622219D01*
X116899654Y-103604976D01*
X116914070Y-103589070D01*
X116929976Y-103574654D01*
X116947219Y-103561866D01*
X116965632Y-103550830D01*
X116985038Y-103541651D01*
X117005250Y-103534419D01*
X117026074Y-103529203D01*
X117047309Y-103526053D01*
X117068750Y-103525000D01*
X117506250Y-103525000D01*
X117527691Y-103526053D01*
X117527691Y-103526053D01*
G37*
D17*
X117287500Y-104000000D03*
D16*
G36*
X115952691Y-103526053D02*
G01*
X115973926Y-103529203D01*
X115994750Y-103534419D01*
X116014962Y-103541651D01*
X116034368Y-103550830D01*
X116052781Y-103561866D01*
X116070024Y-103574654D01*
X116085930Y-103589070D01*
X116100346Y-103604976D01*
X116113134Y-103622219D01*
X116124170Y-103640632D01*
X116133349Y-103660038D01*
X116140581Y-103680250D01*
X116145797Y-103701074D01*
X116148947Y-103722309D01*
X116150000Y-103743750D01*
X116150000Y-104256250D01*
X116148947Y-104277691D01*
X116145797Y-104298926D01*
X116140581Y-104319750D01*
X116133349Y-104339962D01*
X116124170Y-104359368D01*
X116113134Y-104377781D01*
X116100346Y-104395024D01*
X116085930Y-104410930D01*
X116070024Y-104425346D01*
X116052781Y-104438134D01*
X116034368Y-104449170D01*
X116014962Y-104458349D01*
X115994750Y-104465581D01*
X115973926Y-104470797D01*
X115952691Y-104473947D01*
X115931250Y-104475000D01*
X115493750Y-104475000D01*
X115472309Y-104473947D01*
X115451074Y-104470797D01*
X115430250Y-104465581D01*
X115410038Y-104458349D01*
X115390632Y-104449170D01*
X115372219Y-104438134D01*
X115354976Y-104425346D01*
X115339070Y-104410930D01*
X115324654Y-104395024D01*
X115311866Y-104377781D01*
X115300830Y-104359368D01*
X115291651Y-104339962D01*
X115284419Y-104319750D01*
X115279203Y-104298926D01*
X115276053Y-104277691D01*
X115275000Y-104256250D01*
X115275000Y-103743750D01*
X115276053Y-103722309D01*
X115279203Y-103701074D01*
X115284419Y-103680250D01*
X115291651Y-103660038D01*
X115300830Y-103640632D01*
X115311866Y-103622219D01*
X115324654Y-103604976D01*
X115339070Y-103589070D01*
X115354976Y-103574654D01*
X115372219Y-103561866D01*
X115390632Y-103550830D01*
X115410038Y-103541651D01*
X115430250Y-103534419D01*
X115451074Y-103529203D01*
X115472309Y-103526053D01*
X115493750Y-103525000D01*
X115931250Y-103525000D01*
X115952691Y-103526053D01*
X115952691Y-103526053D01*
G37*
D17*
X115712500Y-104000000D03*
D16*
G36*
X89027691Y-118601053D02*
G01*
X89048926Y-118604203D01*
X89069750Y-118609419D01*
X89089962Y-118616651D01*
X89109368Y-118625830D01*
X89127781Y-118636866D01*
X89145024Y-118649654D01*
X89160930Y-118664070D01*
X89175346Y-118679976D01*
X89188134Y-118697219D01*
X89199170Y-118715632D01*
X89208349Y-118735038D01*
X89215581Y-118755250D01*
X89220797Y-118776074D01*
X89223947Y-118797309D01*
X89225000Y-118818750D01*
X89225000Y-119256250D01*
X89223947Y-119277691D01*
X89220797Y-119298926D01*
X89215581Y-119319750D01*
X89208349Y-119339962D01*
X89199170Y-119359368D01*
X89188134Y-119377781D01*
X89175346Y-119395024D01*
X89160930Y-119410930D01*
X89145024Y-119425346D01*
X89127781Y-119438134D01*
X89109368Y-119449170D01*
X89089962Y-119458349D01*
X89069750Y-119465581D01*
X89048926Y-119470797D01*
X89027691Y-119473947D01*
X89006250Y-119475000D01*
X88493750Y-119475000D01*
X88472309Y-119473947D01*
X88451074Y-119470797D01*
X88430250Y-119465581D01*
X88410038Y-119458349D01*
X88390632Y-119449170D01*
X88372219Y-119438134D01*
X88354976Y-119425346D01*
X88339070Y-119410930D01*
X88324654Y-119395024D01*
X88311866Y-119377781D01*
X88300830Y-119359368D01*
X88291651Y-119339962D01*
X88284419Y-119319750D01*
X88279203Y-119298926D01*
X88276053Y-119277691D01*
X88275000Y-119256250D01*
X88275000Y-118818750D01*
X88276053Y-118797309D01*
X88279203Y-118776074D01*
X88284419Y-118755250D01*
X88291651Y-118735038D01*
X88300830Y-118715632D01*
X88311866Y-118697219D01*
X88324654Y-118679976D01*
X88339070Y-118664070D01*
X88354976Y-118649654D01*
X88372219Y-118636866D01*
X88390632Y-118625830D01*
X88410038Y-118616651D01*
X88430250Y-118609419D01*
X88451074Y-118604203D01*
X88472309Y-118601053D01*
X88493750Y-118600000D01*
X89006250Y-118600000D01*
X89027691Y-118601053D01*
X89027691Y-118601053D01*
G37*
D17*
X88750000Y-119037500D03*
D16*
G36*
X89027691Y-117026053D02*
G01*
X89048926Y-117029203D01*
X89069750Y-117034419D01*
X89089962Y-117041651D01*
X89109368Y-117050830D01*
X89127781Y-117061866D01*
X89145024Y-117074654D01*
X89160930Y-117089070D01*
X89175346Y-117104976D01*
X89188134Y-117122219D01*
X89199170Y-117140632D01*
X89208349Y-117160038D01*
X89215581Y-117180250D01*
X89220797Y-117201074D01*
X89223947Y-117222309D01*
X89225000Y-117243750D01*
X89225000Y-117681250D01*
X89223947Y-117702691D01*
X89220797Y-117723926D01*
X89215581Y-117744750D01*
X89208349Y-117764962D01*
X89199170Y-117784368D01*
X89188134Y-117802781D01*
X89175346Y-117820024D01*
X89160930Y-117835930D01*
X89145024Y-117850346D01*
X89127781Y-117863134D01*
X89109368Y-117874170D01*
X89089962Y-117883349D01*
X89069750Y-117890581D01*
X89048926Y-117895797D01*
X89027691Y-117898947D01*
X89006250Y-117900000D01*
X88493750Y-117900000D01*
X88472309Y-117898947D01*
X88451074Y-117895797D01*
X88430250Y-117890581D01*
X88410038Y-117883349D01*
X88390632Y-117874170D01*
X88372219Y-117863134D01*
X88354976Y-117850346D01*
X88339070Y-117835930D01*
X88324654Y-117820024D01*
X88311866Y-117802781D01*
X88300830Y-117784368D01*
X88291651Y-117764962D01*
X88284419Y-117744750D01*
X88279203Y-117723926D01*
X88276053Y-117702691D01*
X88275000Y-117681250D01*
X88275000Y-117243750D01*
X88276053Y-117222309D01*
X88279203Y-117201074D01*
X88284419Y-117180250D01*
X88291651Y-117160038D01*
X88300830Y-117140632D01*
X88311866Y-117122219D01*
X88324654Y-117104976D01*
X88339070Y-117089070D01*
X88354976Y-117074654D01*
X88372219Y-117061866D01*
X88390632Y-117050830D01*
X88410038Y-117041651D01*
X88430250Y-117034419D01*
X88451074Y-117029203D01*
X88472309Y-117026053D01*
X88493750Y-117025000D01*
X89006250Y-117025000D01*
X89027691Y-117026053D01*
X89027691Y-117026053D01*
G37*
D17*
X88750000Y-117462500D03*
D16*
G36*
X87027691Y-118601053D02*
G01*
X87048926Y-118604203D01*
X87069750Y-118609419D01*
X87089962Y-118616651D01*
X87109368Y-118625830D01*
X87127781Y-118636866D01*
X87145024Y-118649654D01*
X87160930Y-118664070D01*
X87175346Y-118679976D01*
X87188134Y-118697219D01*
X87199170Y-118715632D01*
X87208349Y-118735038D01*
X87215581Y-118755250D01*
X87220797Y-118776074D01*
X87223947Y-118797309D01*
X87225000Y-118818750D01*
X87225000Y-119256250D01*
X87223947Y-119277691D01*
X87220797Y-119298926D01*
X87215581Y-119319750D01*
X87208349Y-119339962D01*
X87199170Y-119359368D01*
X87188134Y-119377781D01*
X87175346Y-119395024D01*
X87160930Y-119410930D01*
X87145024Y-119425346D01*
X87127781Y-119438134D01*
X87109368Y-119449170D01*
X87089962Y-119458349D01*
X87069750Y-119465581D01*
X87048926Y-119470797D01*
X87027691Y-119473947D01*
X87006250Y-119475000D01*
X86493750Y-119475000D01*
X86472309Y-119473947D01*
X86451074Y-119470797D01*
X86430250Y-119465581D01*
X86410038Y-119458349D01*
X86390632Y-119449170D01*
X86372219Y-119438134D01*
X86354976Y-119425346D01*
X86339070Y-119410930D01*
X86324654Y-119395024D01*
X86311866Y-119377781D01*
X86300830Y-119359368D01*
X86291651Y-119339962D01*
X86284419Y-119319750D01*
X86279203Y-119298926D01*
X86276053Y-119277691D01*
X86275000Y-119256250D01*
X86275000Y-118818750D01*
X86276053Y-118797309D01*
X86279203Y-118776074D01*
X86284419Y-118755250D01*
X86291651Y-118735038D01*
X86300830Y-118715632D01*
X86311866Y-118697219D01*
X86324654Y-118679976D01*
X86339070Y-118664070D01*
X86354976Y-118649654D01*
X86372219Y-118636866D01*
X86390632Y-118625830D01*
X86410038Y-118616651D01*
X86430250Y-118609419D01*
X86451074Y-118604203D01*
X86472309Y-118601053D01*
X86493750Y-118600000D01*
X87006250Y-118600000D01*
X87027691Y-118601053D01*
X87027691Y-118601053D01*
G37*
D17*
X86750000Y-119037500D03*
D16*
G36*
X87027691Y-117026053D02*
G01*
X87048926Y-117029203D01*
X87069750Y-117034419D01*
X87089962Y-117041651D01*
X87109368Y-117050830D01*
X87127781Y-117061866D01*
X87145024Y-117074654D01*
X87160930Y-117089070D01*
X87175346Y-117104976D01*
X87188134Y-117122219D01*
X87199170Y-117140632D01*
X87208349Y-117160038D01*
X87215581Y-117180250D01*
X87220797Y-117201074D01*
X87223947Y-117222309D01*
X87225000Y-117243750D01*
X87225000Y-117681250D01*
X87223947Y-117702691D01*
X87220797Y-117723926D01*
X87215581Y-117744750D01*
X87208349Y-117764962D01*
X87199170Y-117784368D01*
X87188134Y-117802781D01*
X87175346Y-117820024D01*
X87160930Y-117835930D01*
X87145024Y-117850346D01*
X87127781Y-117863134D01*
X87109368Y-117874170D01*
X87089962Y-117883349D01*
X87069750Y-117890581D01*
X87048926Y-117895797D01*
X87027691Y-117898947D01*
X87006250Y-117900000D01*
X86493750Y-117900000D01*
X86472309Y-117898947D01*
X86451074Y-117895797D01*
X86430250Y-117890581D01*
X86410038Y-117883349D01*
X86390632Y-117874170D01*
X86372219Y-117863134D01*
X86354976Y-117850346D01*
X86339070Y-117835930D01*
X86324654Y-117820024D01*
X86311866Y-117802781D01*
X86300830Y-117784368D01*
X86291651Y-117764962D01*
X86284419Y-117744750D01*
X86279203Y-117723926D01*
X86276053Y-117702691D01*
X86275000Y-117681250D01*
X86275000Y-117243750D01*
X86276053Y-117222309D01*
X86279203Y-117201074D01*
X86284419Y-117180250D01*
X86291651Y-117160038D01*
X86300830Y-117140632D01*
X86311866Y-117122219D01*
X86324654Y-117104976D01*
X86339070Y-117089070D01*
X86354976Y-117074654D01*
X86372219Y-117061866D01*
X86390632Y-117050830D01*
X86410038Y-117041651D01*
X86430250Y-117034419D01*
X86451074Y-117029203D01*
X86472309Y-117026053D01*
X86493750Y-117025000D01*
X87006250Y-117025000D01*
X87027691Y-117026053D01*
X87027691Y-117026053D01*
G37*
D17*
X86750000Y-117462500D03*
D16*
G36*
X115952691Y-92276053D02*
G01*
X115973926Y-92279203D01*
X115994750Y-92284419D01*
X116014962Y-92291651D01*
X116034368Y-92300830D01*
X116052781Y-92311866D01*
X116070024Y-92324654D01*
X116085930Y-92339070D01*
X116100346Y-92354976D01*
X116113134Y-92372219D01*
X116124170Y-92390632D01*
X116133349Y-92410038D01*
X116140581Y-92430250D01*
X116145797Y-92451074D01*
X116148947Y-92472309D01*
X116150000Y-92493750D01*
X116150000Y-93006250D01*
X116148947Y-93027691D01*
X116145797Y-93048926D01*
X116140581Y-93069750D01*
X116133349Y-93089962D01*
X116124170Y-93109368D01*
X116113134Y-93127781D01*
X116100346Y-93145024D01*
X116085930Y-93160930D01*
X116070024Y-93175346D01*
X116052781Y-93188134D01*
X116034368Y-93199170D01*
X116014962Y-93208349D01*
X115994750Y-93215581D01*
X115973926Y-93220797D01*
X115952691Y-93223947D01*
X115931250Y-93225000D01*
X115493750Y-93225000D01*
X115472309Y-93223947D01*
X115451074Y-93220797D01*
X115430250Y-93215581D01*
X115410038Y-93208349D01*
X115390632Y-93199170D01*
X115372219Y-93188134D01*
X115354976Y-93175346D01*
X115339070Y-93160930D01*
X115324654Y-93145024D01*
X115311866Y-93127781D01*
X115300830Y-93109368D01*
X115291651Y-93089962D01*
X115284419Y-93069750D01*
X115279203Y-93048926D01*
X115276053Y-93027691D01*
X115275000Y-93006250D01*
X115275000Y-92493750D01*
X115276053Y-92472309D01*
X115279203Y-92451074D01*
X115284419Y-92430250D01*
X115291651Y-92410038D01*
X115300830Y-92390632D01*
X115311866Y-92372219D01*
X115324654Y-92354976D01*
X115339070Y-92339070D01*
X115354976Y-92324654D01*
X115372219Y-92311866D01*
X115390632Y-92300830D01*
X115410038Y-92291651D01*
X115430250Y-92284419D01*
X115451074Y-92279203D01*
X115472309Y-92276053D01*
X115493750Y-92275000D01*
X115931250Y-92275000D01*
X115952691Y-92276053D01*
X115952691Y-92276053D01*
G37*
D17*
X115712500Y-92750000D03*
D16*
G36*
X117527691Y-92276053D02*
G01*
X117548926Y-92279203D01*
X117569750Y-92284419D01*
X117589962Y-92291651D01*
X117609368Y-92300830D01*
X117627781Y-92311866D01*
X117645024Y-92324654D01*
X117660930Y-92339070D01*
X117675346Y-92354976D01*
X117688134Y-92372219D01*
X117699170Y-92390632D01*
X117708349Y-92410038D01*
X117715581Y-92430250D01*
X117720797Y-92451074D01*
X117723947Y-92472309D01*
X117725000Y-92493750D01*
X117725000Y-93006250D01*
X117723947Y-93027691D01*
X117720797Y-93048926D01*
X117715581Y-93069750D01*
X117708349Y-93089962D01*
X117699170Y-93109368D01*
X117688134Y-93127781D01*
X117675346Y-93145024D01*
X117660930Y-93160930D01*
X117645024Y-93175346D01*
X117627781Y-93188134D01*
X117609368Y-93199170D01*
X117589962Y-93208349D01*
X117569750Y-93215581D01*
X117548926Y-93220797D01*
X117527691Y-93223947D01*
X117506250Y-93225000D01*
X117068750Y-93225000D01*
X117047309Y-93223947D01*
X117026074Y-93220797D01*
X117005250Y-93215581D01*
X116985038Y-93208349D01*
X116965632Y-93199170D01*
X116947219Y-93188134D01*
X116929976Y-93175346D01*
X116914070Y-93160930D01*
X116899654Y-93145024D01*
X116886866Y-93127781D01*
X116875830Y-93109368D01*
X116866651Y-93089962D01*
X116859419Y-93069750D01*
X116854203Y-93048926D01*
X116851053Y-93027691D01*
X116850000Y-93006250D01*
X116850000Y-92493750D01*
X116851053Y-92472309D01*
X116854203Y-92451074D01*
X116859419Y-92430250D01*
X116866651Y-92410038D01*
X116875830Y-92390632D01*
X116886866Y-92372219D01*
X116899654Y-92354976D01*
X116914070Y-92339070D01*
X116929976Y-92324654D01*
X116947219Y-92311866D01*
X116965632Y-92300830D01*
X116985038Y-92291651D01*
X117005250Y-92284419D01*
X117026074Y-92279203D01*
X117047309Y-92276053D01*
X117068750Y-92275000D01*
X117506250Y-92275000D01*
X117527691Y-92276053D01*
X117527691Y-92276053D01*
G37*
D17*
X117287500Y-92750000D03*
D16*
G36*
X115915191Y-94276053D02*
G01*
X115936426Y-94279203D01*
X115957250Y-94284419D01*
X115977462Y-94291651D01*
X115996868Y-94300830D01*
X116015281Y-94311866D01*
X116032524Y-94324654D01*
X116048430Y-94339070D01*
X116062846Y-94354976D01*
X116075634Y-94372219D01*
X116086670Y-94390632D01*
X116095849Y-94410038D01*
X116103081Y-94430250D01*
X116108297Y-94451074D01*
X116111447Y-94472309D01*
X116112500Y-94493750D01*
X116112500Y-95006250D01*
X116111447Y-95027691D01*
X116108297Y-95048926D01*
X116103081Y-95069750D01*
X116095849Y-95089962D01*
X116086670Y-95109368D01*
X116075634Y-95127781D01*
X116062846Y-95145024D01*
X116048430Y-95160930D01*
X116032524Y-95175346D01*
X116015281Y-95188134D01*
X115996868Y-95199170D01*
X115977462Y-95208349D01*
X115957250Y-95215581D01*
X115936426Y-95220797D01*
X115915191Y-95223947D01*
X115893750Y-95225000D01*
X115456250Y-95225000D01*
X115434809Y-95223947D01*
X115413574Y-95220797D01*
X115392750Y-95215581D01*
X115372538Y-95208349D01*
X115353132Y-95199170D01*
X115334719Y-95188134D01*
X115317476Y-95175346D01*
X115301570Y-95160930D01*
X115287154Y-95145024D01*
X115274366Y-95127781D01*
X115263330Y-95109368D01*
X115254151Y-95089962D01*
X115246919Y-95069750D01*
X115241703Y-95048926D01*
X115238553Y-95027691D01*
X115237500Y-95006250D01*
X115237500Y-94493750D01*
X115238553Y-94472309D01*
X115241703Y-94451074D01*
X115246919Y-94430250D01*
X115254151Y-94410038D01*
X115263330Y-94390632D01*
X115274366Y-94372219D01*
X115287154Y-94354976D01*
X115301570Y-94339070D01*
X115317476Y-94324654D01*
X115334719Y-94311866D01*
X115353132Y-94300830D01*
X115372538Y-94291651D01*
X115392750Y-94284419D01*
X115413574Y-94279203D01*
X115434809Y-94276053D01*
X115456250Y-94275000D01*
X115893750Y-94275000D01*
X115915191Y-94276053D01*
X115915191Y-94276053D01*
G37*
D17*
X115675000Y-94750000D03*
D16*
G36*
X117490191Y-94276053D02*
G01*
X117511426Y-94279203D01*
X117532250Y-94284419D01*
X117552462Y-94291651D01*
X117571868Y-94300830D01*
X117590281Y-94311866D01*
X117607524Y-94324654D01*
X117623430Y-94339070D01*
X117637846Y-94354976D01*
X117650634Y-94372219D01*
X117661670Y-94390632D01*
X117670849Y-94410038D01*
X117678081Y-94430250D01*
X117683297Y-94451074D01*
X117686447Y-94472309D01*
X117687500Y-94493750D01*
X117687500Y-95006250D01*
X117686447Y-95027691D01*
X117683297Y-95048926D01*
X117678081Y-95069750D01*
X117670849Y-95089962D01*
X117661670Y-95109368D01*
X117650634Y-95127781D01*
X117637846Y-95145024D01*
X117623430Y-95160930D01*
X117607524Y-95175346D01*
X117590281Y-95188134D01*
X117571868Y-95199170D01*
X117552462Y-95208349D01*
X117532250Y-95215581D01*
X117511426Y-95220797D01*
X117490191Y-95223947D01*
X117468750Y-95225000D01*
X117031250Y-95225000D01*
X117009809Y-95223947D01*
X116988574Y-95220797D01*
X116967750Y-95215581D01*
X116947538Y-95208349D01*
X116928132Y-95199170D01*
X116909719Y-95188134D01*
X116892476Y-95175346D01*
X116876570Y-95160930D01*
X116862154Y-95145024D01*
X116849366Y-95127781D01*
X116838330Y-95109368D01*
X116829151Y-95089962D01*
X116821919Y-95069750D01*
X116816703Y-95048926D01*
X116813553Y-95027691D01*
X116812500Y-95006250D01*
X116812500Y-94493750D01*
X116813553Y-94472309D01*
X116816703Y-94451074D01*
X116821919Y-94430250D01*
X116829151Y-94410038D01*
X116838330Y-94390632D01*
X116849366Y-94372219D01*
X116862154Y-94354976D01*
X116876570Y-94339070D01*
X116892476Y-94324654D01*
X116909719Y-94311866D01*
X116928132Y-94300830D01*
X116947538Y-94291651D01*
X116967750Y-94284419D01*
X116988574Y-94279203D01*
X117009809Y-94276053D01*
X117031250Y-94275000D01*
X117468750Y-94275000D01*
X117490191Y-94276053D01*
X117490191Y-94276053D01*
G37*
D17*
X117250000Y-94750000D03*
D16*
G36*
X115952691Y-87026053D02*
G01*
X115973926Y-87029203D01*
X115994750Y-87034419D01*
X116014962Y-87041651D01*
X116034368Y-87050830D01*
X116052781Y-87061866D01*
X116070024Y-87074654D01*
X116085930Y-87089070D01*
X116100346Y-87104976D01*
X116113134Y-87122219D01*
X116124170Y-87140632D01*
X116133349Y-87160038D01*
X116140581Y-87180250D01*
X116145797Y-87201074D01*
X116148947Y-87222309D01*
X116150000Y-87243750D01*
X116150000Y-87756250D01*
X116148947Y-87777691D01*
X116145797Y-87798926D01*
X116140581Y-87819750D01*
X116133349Y-87839962D01*
X116124170Y-87859368D01*
X116113134Y-87877781D01*
X116100346Y-87895024D01*
X116085930Y-87910930D01*
X116070024Y-87925346D01*
X116052781Y-87938134D01*
X116034368Y-87949170D01*
X116014962Y-87958349D01*
X115994750Y-87965581D01*
X115973926Y-87970797D01*
X115952691Y-87973947D01*
X115931250Y-87975000D01*
X115493750Y-87975000D01*
X115472309Y-87973947D01*
X115451074Y-87970797D01*
X115430250Y-87965581D01*
X115410038Y-87958349D01*
X115390632Y-87949170D01*
X115372219Y-87938134D01*
X115354976Y-87925346D01*
X115339070Y-87910930D01*
X115324654Y-87895024D01*
X115311866Y-87877781D01*
X115300830Y-87859368D01*
X115291651Y-87839962D01*
X115284419Y-87819750D01*
X115279203Y-87798926D01*
X115276053Y-87777691D01*
X115275000Y-87756250D01*
X115275000Y-87243750D01*
X115276053Y-87222309D01*
X115279203Y-87201074D01*
X115284419Y-87180250D01*
X115291651Y-87160038D01*
X115300830Y-87140632D01*
X115311866Y-87122219D01*
X115324654Y-87104976D01*
X115339070Y-87089070D01*
X115354976Y-87074654D01*
X115372219Y-87061866D01*
X115390632Y-87050830D01*
X115410038Y-87041651D01*
X115430250Y-87034419D01*
X115451074Y-87029203D01*
X115472309Y-87026053D01*
X115493750Y-87025000D01*
X115931250Y-87025000D01*
X115952691Y-87026053D01*
X115952691Y-87026053D01*
G37*
D17*
X115712500Y-87500000D03*
D16*
G36*
X117527691Y-87026053D02*
G01*
X117548926Y-87029203D01*
X117569750Y-87034419D01*
X117589962Y-87041651D01*
X117609368Y-87050830D01*
X117627781Y-87061866D01*
X117645024Y-87074654D01*
X117660930Y-87089070D01*
X117675346Y-87104976D01*
X117688134Y-87122219D01*
X117699170Y-87140632D01*
X117708349Y-87160038D01*
X117715581Y-87180250D01*
X117720797Y-87201074D01*
X117723947Y-87222309D01*
X117725000Y-87243750D01*
X117725000Y-87756250D01*
X117723947Y-87777691D01*
X117720797Y-87798926D01*
X117715581Y-87819750D01*
X117708349Y-87839962D01*
X117699170Y-87859368D01*
X117688134Y-87877781D01*
X117675346Y-87895024D01*
X117660930Y-87910930D01*
X117645024Y-87925346D01*
X117627781Y-87938134D01*
X117609368Y-87949170D01*
X117589962Y-87958349D01*
X117569750Y-87965581D01*
X117548926Y-87970797D01*
X117527691Y-87973947D01*
X117506250Y-87975000D01*
X117068750Y-87975000D01*
X117047309Y-87973947D01*
X117026074Y-87970797D01*
X117005250Y-87965581D01*
X116985038Y-87958349D01*
X116965632Y-87949170D01*
X116947219Y-87938134D01*
X116929976Y-87925346D01*
X116914070Y-87910930D01*
X116899654Y-87895024D01*
X116886866Y-87877781D01*
X116875830Y-87859368D01*
X116866651Y-87839962D01*
X116859419Y-87819750D01*
X116854203Y-87798926D01*
X116851053Y-87777691D01*
X116850000Y-87756250D01*
X116850000Y-87243750D01*
X116851053Y-87222309D01*
X116854203Y-87201074D01*
X116859419Y-87180250D01*
X116866651Y-87160038D01*
X116875830Y-87140632D01*
X116886866Y-87122219D01*
X116899654Y-87104976D01*
X116914070Y-87089070D01*
X116929976Y-87074654D01*
X116947219Y-87061866D01*
X116965632Y-87050830D01*
X116985038Y-87041651D01*
X117005250Y-87034419D01*
X117026074Y-87029203D01*
X117047309Y-87026053D01*
X117068750Y-87025000D01*
X117506250Y-87025000D01*
X117527691Y-87026053D01*
X117527691Y-87026053D01*
G37*
D17*
X117287500Y-87500000D03*
D16*
G36*
X117527691Y-89026053D02*
G01*
X117548926Y-89029203D01*
X117569750Y-89034419D01*
X117589962Y-89041651D01*
X117609368Y-89050830D01*
X117627781Y-89061866D01*
X117645024Y-89074654D01*
X117660930Y-89089070D01*
X117675346Y-89104976D01*
X117688134Y-89122219D01*
X117699170Y-89140632D01*
X117708349Y-89160038D01*
X117715581Y-89180250D01*
X117720797Y-89201074D01*
X117723947Y-89222309D01*
X117725000Y-89243750D01*
X117725000Y-89756250D01*
X117723947Y-89777691D01*
X117720797Y-89798926D01*
X117715581Y-89819750D01*
X117708349Y-89839962D01*
X117699170Y-89859368D01*
X117688134Y-89877781D01*
X117675346Y-89895024D01*
X117660930Y-89910930D01*
X117645024Y-89925346D01*
X117627781Y-89938134D01*
X117609368Y-89949170D01*
X117589962Y-89958349D01*
X117569750Y-89965581D01*
X117548926Y-89970797D01*
X117527691Y-89973947D01*
X117506250Y-89975000D01*
X117068750Y-89975000D01*
X117047309Y-89973947D01*
X117026074Y-89970797D01*
X117005250Y-89965581D01*
X116985038Y-89958349D01*
X116965632Y-89949170D01*
X116947219Y-89938134D01*
X116929976Y-89925346D01*
X116914070Y-89910930D01*
X116899654Y-89895024D01*
X116886866Y-89877781D01*
X116875830Y-89859368D01*
X116866651Y-89839962D01*
X116859419Y-89819750D01*
X116854203Y-89798926D01*
X116851053Y-89777691D01*
X116850000Y-89756250D01*
X116850000Y-89243750D01*
X116851053Y-89222309D01*
X116854203Y-89201074D01*
X116859419Y-89180250D01*
X116866651Y-89160038D01*
X116875830Y-89140632D01*
X116886866Y-89122219D01*
X116899654Y-89104976D01*
X116914070Y-89089070D01*
X116929976Y-89074654D01*
X116947219Y-89061866D01*
X116965632Y-89050830D01*
X116985038Y-89041651D01*
X117005250Y-89034419D01*
X117026074Y-89029203D01*
X117047309Y-89026053D01*
X117068750Y-89025000D01*
X117506250Y-89025000D01*
X117527691Y-89026053D01*
X117527691Y-89026053D01*
G37*
D17*
X117287500Y-89500000D03*
D16*
G36*
X115952691Y-89026053D02*
G01*
X115973926Y-89029203D01*
X115994750Y-89034419D01*
X116014962Y-89041651D01*
X116034368Y-89050830D01*
X116052781Y-89061866D01*
X116070024Y-89074654D01*
X116085930Y-89089070D01*
X116100346Y-89104976D01*
X116113134Y-89122219D01*
X116124170Y-89140632D01*
X116133349Y-89160038D01*
X116140581Y-89180250D01*
X116145797Y-89201074D01*
X116148947Y-89222309D01*
X116150000Y-89243750D01*
X116150000Y-89756250D01*
X116148947Y-89777691D01*
X116145797Y-89798926D01*
X116140581Y-89819750D01*
X116133349Y-89839962D01*
X116124170Y-89859368D01*
X116113134Y-89877781D01*
X116100346Y-89895024D01*
X116085930Y-89910930D01*
X116070024Y-89925346D01*
X116052781Y-89938134D01*
X116034368Y-89949170D01*
X116014962Y-89958349D01*
X115994750Y-89965581D01*
X115973926Y-89970797D01*
X115952691Y-89973947D01*
X115931250Y-89975000D01*
X115493750Y-89975000D01*
X115472309Y-89973947D01*
X115451074Y-89970797D01*
X115430250Y-89965581D01*
X115410038Y-89958349D01*
X115390632Y-89949170D01*
X115372219Y-89938134D01*
X115354976Y-89925346D01*
X115339070Y-89910930D01*
X115324654Y-89895024D01*
X115311866Y-89877781D01*
X115300830Y-89859368D01*
X115291651Y-89839962D01*
X115284419Y-89819750D01*
X115279203Y-89798926D01*
X115276053Y-89777691D01*
X115275000Y-89756250D01*
X115275000Y-89243750D01*
X115276053Y-89222309D01*
X115279203Y-89201074D01*
X115284419Y-89180250D01*
X115291651Y-89160038D01*
X115300830Y-89140632D01*
X115311866Y-89122219D01*
X115324654Y-89104976D01*
X115339070Y-89089070D01*
X115354976Y-89074654D01*
X115372219Y-89061866D01*
X115390632Y-89050830D01*
X115410038Y-89041651D01*
X115430250Y-89034419D01*
X115451074Y-89029203D01*
X115472309Y-89026053D01*
X115493750Y-89025000D01*
X115931250Y-89025000D01*
X115952691Y-89026053D01*
X115952691Y-89026053D01*
G37*
D17*
X115712500Y-89500000D03*
D18*
X92305000Y-99050000D03*
X93575000Y-99050000D03*
X94845000Y-99050000D03*
X96115000Y-99050000D03*
X97385000Y-99050000D03*
X98655000Y-99050000D03*
X99925000Y-99050000D03*
X101195000Y-99050000D03*
X101195000Y-104450000D03*
X99925000Y-104450000D03*
X98655000Y-104450000D03*
X97385000Y-104450000D03*
X96115000Y-104450000D03*
X94845000Y-104450000D03*
X93575000Y-104450000D03*
X92305000Y-104450000D03*
D19*
X76550000Y-120250000D03*
X76550000Y-117250000D03*
D20*
X77730000Y-122825000D03*
X77730000Y-114675000D03*
D21*
X80600000Y-120050000D03*
X80600000Y-117450000D03*
X80600000Y-119400000D03*
X80600000Y-118100000D03*
X80600000Y-118750000D03*
D22*
X80400000Y-122000000D03*
X80400000Y-115500000D03*
D16*
G36*
X78027691Y-110601053D02*
G01*
X78048926Y-110604203D01*
X78069750Y-110609419D01*
X78089962Y-110616651D01*
X78109368Y-110625830D01*
X78127781Y-110636866D01*
X78145024Y-110649654D01*
X78160930Y-110664070D01*
X78175346Y-110679976D01*
X78188134Y-110697219D01*
X78199170Y-110715632D01*
X78208349Y-110735038D01*
X78215581Y-110755250D01*
X78220797Y-110776074D01*
X78223947Y-110797309D01*
X78225000Y-110818750D01*
X78225000Y-111256250D01*
X78223947Y-111277691D01*
X78220797Y-111298926D01*
X78215581Y-111319750D01*
X78208349Y-111339962D01*
X78199170Y-111359368D01*
X78188134Y-111377781D01*
X78175346Y-111395024D01*
X78160930Y-111410930D01*
X78145024Y-111425346D01*
X78127781Y-111438134D01*
X78109368Y-111449170D01*
X78089962Y-111458349D01*
X78069750Y-111465581D01*
X78048926Y-111470797D01*
X78027691Y-111473947D01*
X78006250Y-111475000D01*
X77493750Y-111475000D01*
X77472309Y-111473947D01*
X77451074Y-111470797D01*
X77430250Y-111465581D01*
X77410038Y-111458349D01*
X77390632Y-111449170D01*
X77372219Y-111438134D01*
X77354976Y-111425346D01*
X77339070Y-111410930D01*
X77324654Y-111395024D01*
X77311866Y-111377781D01*
X77300830Y-111359368D01*
X77291651Y-111339962D01*
X77284419Y-111319750D01*
X77279203Y-111298926D01*
X77276053Y-111277691D01*
X77275000Y-111256250D01*
X77275000Y-110818750D01*
X77276053Y-110797309D01*
X77279203Y-110776074D01*
X77284419Y-110755250D01*
X77291651Y-110735038D01*
X77300830Y-110715632D01*
X77311866Y-110697219D01*
X77324654Y-110679976D01*
X77339070Y-110664070D01*
X77354976Y-110649654D01*
X77372219Y-110636866D01*
X77390632Y-110625830D01*
X77410038Y-110616651D01*
X77430250Y-110609419D01*
X77451074Y-110604203D01*
X77472309Y-110601053D01*
X77493750Y-110600000D01*
X78006250Y-110600000D01*
X78027691Y-110601053D01*
X78027691Y-110601053D01*
G37*
D17*
X77750000Y-111037500D03*
D16*
G36*
X78027691Y-109026053D02*
G01*
X78048926Y-109029203D01*
X78069750Y-109034419D01*
X78089962Y-109041651D01*
X78109368Y-109050830D01*
X78127781Y-109061866D01*
X78145024Y-109074654D01*
X78160930Y-109089070D01*
X78175346Y-109104976D01*
X78188134Y-109122219D01*
X78199170Y-109140632D01*
X78208349Y-109160038D01*
X78215581Y-109180250D01*
X78220797Y-109201074D01*
X78223947Y-109222309D01*
X78225000Y-109243750D01*
X78225000Y-109681250D01*
X78223947Y-109702691D01*
X78220797Y-109723926D01*
X78215581Y-109744750D01*
X78208349Y-109764962D01*
X78199170Y-109784368D01*
X78188134Y-109802781D01*
X78175346Y-109820024D01*
X78160930Y-109835930D01*
X78145024Y-109850346D01*
X78127781Y-109863134D01*
X78109368Y-109874170D01*
X78089962Y-109883349D01*
X78069750Y-109890581D01*
X78048926Y-109895797D01*
X78027691Y-109898947D01*
X78006250Y-109900000D01*
X77493750Y-109900000D01*
X77472309Y-109898947D01*
X77451074Y-109895797D01*
X77430250Y-109890581D01*
X77410038Y-109883349D01*
X77390632Y-109874170D01*
X77372219Y-109863134D01*
X77354976Y-109850346D01*
X77339070Y-109835930D01*
X77324654Y-109820024D01*
X77311866Y-109802781D01*
X77300830Y-109784368D01*
X77291651Y-109764962D01*
X77284419Y-109744750D01*
X77279203Y-109723926D01*
X77276053Y-109702691D01*
X77275000Y-109681250D01*
X77275000Y-109243750D01*
X77276053Y-109222309D01*
X77279203Y-109201074D01*
X77284419Y-109180250D01*
X77291651Y-109160038D01*
X77300830Y-109140632D01*
X77311866Y-109122219D01*
X77324654Y-109104976D01*
X77339070Y-109089070D01*
X77354976Y-109074654D01*
X77372219Y-109061866D01*
X77390632Y-109050830D01*
X77410038Y-109041651D01*
X77430250Y-109034419D01*
X77451074Y-109029203D01*
X77472309Y-109026053D01*
X77493750Y-109025000D01*
X78006250Y-109025000D01*
X78027691Y-109026053D01*
X78027691Y-109026053D01*
G37*
D17*
X77750000Y-109462500D03*
D16*
G36*
X94277691Y-113026053D02*
G01*
X94298926Y-113029203D01*
X94319750Y-113034419D01*
X94339962Y-113041651D01*
X94359368Y-113050830D01*
X94377781Y-113061866D01*
X94395024Y-113074654D01*
X94410930Y-113089070D01*
X94425346Y-113104976D01*
X94438134Y-113122219D01*
X94449170Y-113140632D01*
X94458349Y-113160038D01*
X94465581Y-113180250D01*
X94470797Y-113201074D01*
X94473947Y-113222309D01*
X94475000Y-113243750D01*
X94475000Y-113681250D01*
X94473947Y-113702691D01*
X94470797Y-113723926D01*
X94465581Y-113744750D01*
X94458349Y-113764962D01*
X94449170Y-113784368D01*
X94438134Y-113802781D01*
X94425346Y-113820024D01*
X94410930Y-113835930D01*
X94395024Y-113850346D01*
X94377781Y-113863134D01*
X94359368Y-113874170D01*
X94339962Y-113883349D01*
X94319750Y-113890581D01*
X94298926Y-113895797D01*
X94277691Y-113898947D01*
X94256250Y-113900000D01*
X93743750Y-113900000D01*
X93722309Y-113898947D01*
X93701074Y-113895797D01*
X93680250Y-113890581D01*
X93660038Y-113883349D01*
X93640632Y-113874170D01*
X93622219Y-113863134D01*
X93604976Y-113850346D01*
X93589070Y-113835930D01*
X93574654Y-113820024D01*
X93561866Y-113802781D01*
X93550830Y-113784368D01*
X93541651Y-113764962D01*
X93534419Y-113744750D01*
X93529203Y-113723926D01*
X93526053Y-113702691D01*
X93525000Y-113681250D01*
X93525000Y-113243750D01*
X93526053Y-113222309D01*
X93529203Y-113201074D01*
X93534419Y-113180250D01*
X93541651Y-113160038D01*
X93550830Y-113140632D01*
X93561866Y-113122219D01*
X93574654Y-113104976D01*
X93589070Y-113089070D01*
X93604976Y-113074654D01*
X93622219Y-113061866D01*
X93640632Y-113050830D01*
X93660038Y-113041651D01*
X93680250Y-113034419D01*
X93701074Y-113029203D01*
X93722309Y-113026053D01*
X93743750Y-113025000D01*
X94256250Y-113025000D01*
X94277691Y-113026053D01*
X94277691Y-113026053D01*
G37*
D17*
X94000000Y-113462500D03*
D16*
G36*
X94277691Y-114601053D02*
G01*
X94298926Y-114604203D01*
X94319750Y-114609419D01*
X94339962Y-114616651D01*
X94359368Y-114625830D01*
X94377781Y-114636866D01*
X94395024Y-114649654D01*
X94410930Y-114664070D01*
X94425346Y-114679976D01*
X94438134Y-114697219D01*
X94449170Y-114715632D01*
X94458349Y-114735038D01*
X94465581Y-114755250D01*
X94470797Y-114776074D01*
X94473947Y-114797309D01*
X94475000Y-114818750D01*
X94475000Y-115256250D01*
X94473947Y-115277691D01*
X94470797Y-115298926D01*
X94465581Y-115319750D01*
X94458349Y-115339962D01*
X94449170Y-115359368D01*
X94438134Y-115377781D01*
X94425346Y-115395024D01*
X94410930Y-115410930D01*
X94395024Y-115425346D01*
X94377781Y-115438134D01*
X94359368Y-115449170D01*
X94339962Y-115458349D01*
X94319750Y-115465581D01*
X94298926Y-115470797D01*
X94277691Y-115473947D01*
X94256250Y-115475000D01*
X93743750Y-115475000D01*
X93722309Y-115473947D01*
X93701074Y-115470797D01*
X93680250Y-115465581D01*
X93660038Y-115458349D01*
X93640632Y-115449170D01*
X93622219Y-115438134D01*
X93604976Y-115425346D01*
X93589070Y-115410930D01*
X93574654Y-115395024D01*
X93561866Y-115377781D01*
X93550830Y-115359368D01*
X93541651Y-115339962D01*
X93534419Y-115319750D01*
X93529203Y-115298926D01*
X93526053Y-115277691D01*
X93525000Y-115256250D01*
X93525000Y-114818750D01*
X93526053Y-114797309D01*
X93529203Y-114776074D01*
X93534419Y-114755250D01*
X93541651Y-114735038D01*
X93550830Y-114715632D01*
X93561866Y-114697219D01*
X93574654Y-114679976D01*
X93589070Y-114664070D01*
X93604976Y-114649654D01*
X93622219Y-114636866D01*
X93640632Y-114625830D01*
X93660038Y-114616651D01*
X93680250Y-114609419D01*
X93701074Y-114604203D01*
X93722309Y-114601053D01*
X93743750Y-114600000D01*
X94256250Y-114600000D01*
X94277691Y-114601053D01*
X94277691Y-114601053D01*
G37*
D17*
X94000000Y-115037500D03*
D16*
G36*
X92277691Y-114601053D02*
G01*
X92298926Y-114604203D01*
X92319750Y-114609419D01*
X92339962Y-114616651D01*
X92359368Y-114625830D01*
X92377781Y-114636866D01*
X92395024Y-114649654D01*
X92410930Y-114664070D01*
X92425346Y-114679976D01*
X92438134Y-114697219D01*
X92449170Y-114715632D01*
X92458349Y-114735038D01*
X92465581Y-114755250D01*
X92470797Y-114776074D01*
X92473947Y-114797309D01*
X92475000Y-114818750D01*
X92475000Y-115256250D01*
X92473947Y-115277691D01*
X92470797Y-115298926D01*
X92465581Y-115319750D01*
X92458349Y-115339962D01*
X92449170Y-115359368D01*
X92438134Y-115377781D01*
X92425346Y-115395024D01*
X92410930Y-115410930D01*
X92395024Y-115425346D01*
X92377781Y-115438134D01*
X92359368Y-115449170D01*
X92339962Y-115458349D01*
X92319750Y-115465581D01*
X92298926Y-115470797D01*
X92277691Y-115473947D01*
X92256250Y-115475000D01*
X91743750Y-115475000D01*
X91722309Y-115473947D01*
X91701074Y-115470797D01*
X91680250Y-115465581D01*
X91660038Y-115458349D01*
X91640632Y-115449170D01*
X91622219Y-115438134D01*
X91604976Y-115425346D01*
X91589070Y-115410930D01*
X91574654Y-115395024D01*
X91561866Y-115377781D01*
X91550830Y-115359368D01*
X91541651Y-115339962D01*
X91534419Y-115319750D01*
X91529203Y-115298926D01*
X91526053Y-115277691D01*
X91525000Y-115256250D01*
X91525000Y-114818750D01*
X91526053Y-114797309D01*
X91529203Y-114776074D01*
X91534419Y-114755250D01*
X91541651Y-114735038D01*
X91550830Y-114715632D01*
X91561866Y-114697219D01*
X91574654Y-114679976D01*
X91589070Y-114664070D01*
X91604976Y-114649654D01*
X91622219Y-114636866D01*
X91640632Y-114625830D01*
X91660038Y-114616651D01*
X91680250Y-114609419D01*
X91701074Y-114604203D01*
X91722309Y-114601053D01*
X91743750Y-114600000D01*
X92256250Y-114600000D01*
X92277691Y-114601053D01*
X92277691Y-114601053D01*
G37*
D17*
X92000000Y-115037500D03*
D16*
G36*
X92277691Y-113026053D02*
G01*
X92298926Y-113029203D01*
X92319750Y-113034419D01*
X92339962Y-113041651D01*
X92359368Y-113050830D01*
X92377781Y-113061866D01*
X92395024Y-113074654D01*
X92410930Y-113089070D01*
X92425346Y-113104976D01*
X92438134Y-113122219D01*
X92449170Y-113140632D01*
X92458349Y-113160038D01*
X92465581Y-113180250D01*
X92470797Y-113201074D01*
X92473947Y-113222309D01*
X92475000Y-113243750D01*
X92475000Y-113681250D01*
X92473947Y-113702691D01*
X92470797Y-113723926D01*
X92465581Y-113744750D01*
X92458349Y-113764962D01*
X92449170Y-113784368D01*
X92438134Y-113802781D01*
X92425346Y-113820024D01*
X92410930Y-113835930D01*
X92395024Y-113850346D01*
X92377781Y-113863134D01*
X92359368Y-113874170D01*
X92339962Y-113883349D01*
X92319750Y-113890581D01*
X92298926Y-113895797D01*
X92277691Y-113898947D01*
X92256250Y-113900000D01*
X91743750Y-113900000D01*
X91722309Y-113898947D01*
X91701074Y-113895797D01*
X91680250Y-113890581D01*
X91660038Y-113883349D01*
X91640632Y-113874170D01*
X91622219Y-113863134D01*
X91604976Y-113850346D01*
X91589070Y-113835930D01*
X91574654Y-113820024D01*
X91561866Y-113802781D01*
X91550830Y-113784368D01*
X91541651Y-113764962D01*
X91534419Y-113744750D01*
X91529203Y-113723926D01*
X91526053Y-113702691D01*
X91525000Y-113681250D01*
X91525000Y-113243750D01*
X91526053Y-113222309D01*
X91529203Y-113201074D01*
X91534419Y-113180250D01*
X91541651Y-113160038D01*
X91550830Y-113140632D01*
X91561866Y-113122219D01*
X91574654Y-113104976D01*
X91589070Y-113089070D01*
X91604976Y-113074654D01*
X91622219Y-113061866D01*
X91640632Y-113050830D01*
X91660038Y-113041651D01*
X91680250Y-113034419D01*
X91701074Y-113029203D01*
X91722309Y-113026053D01*
X91743750Y-113025000D01*
X92256250Y-113025000D01*
X92277691Y-113026053D01*
X92277691Y-113026053D01*
G37*
D17*
X92000000Y-113462500D03*
D16*
G36*
X111952691Y-116026053D02*
G01*
X111973926Y-116029203D01*
X111994750Y-116034419D01*
X112014962Y-116041651D01*
X112034368Y-116050830D01*
X112052781Y-116061866D01*
X112070024Y-116074654D01*
X112085930Y-116089070D01*
X112100346Y-116104976D01*
X112113134Y-116122219D01*
X112124170Y-116140632D01*
X112133349Y-116160038D01*
X112140581Y-116180250D01*
X112145797Y-116201074D01*
X112148947Y-116222309D01*
X112150000Y-116243750D01*
X112150000Y-116756250D01*
X112148947Y-116777691D01*
X112145797Y-116798926D01*
X112140581Y-116819750D01*
X112133349Y-116839962D01*
X112124170Y-116859368D01*
X112113134Y-116877781D01*
X112100346Y-116895024D01*
X112085930Y-116910930D01*
X112070024Y-116925346D01*
X112052781Y-116938134D01*
X112034368Y-116949170D01*
X112014962Y-116958349D01*
X111994750Y-116965581D01*
X111973926Y-116970797D01*
X111952691Y-116973947D01*
X111931250Y-116975000D01*
X111493750Y-116975000D01*
X111472309Y-116973947D01*
X111451074Y-116970797D01*
X111430250Y-116965581D01*
X111410038Y-116958349D01*
X111390632Y-116949170D01*
X111372219Y-116938134D01*
X111354976Y-116925346D01*
X111339070Y-116910930D01*
X111324654Y-116895024D01*
X111311866Y-116877781D01*
X111300830Y-116859368D01*
X111291651Y-116839962D01*
X111284419Y-116819750D01*
X111279203Y-116798926D01*
X111276053Y-116777691D01*
X111275000Y-116756250D01*
X111275000Y-116243750D01*
X111276053Y-116222309D01*
X111279203Y-116201074D01*
X111284419Y-116180250D01*
X111291651Y-116160038D01*
X111300830Y-116140632D01*
X111311866Y-116122219D01*
X111324654Y-116104976D01*
X111339070Y-116089070D01*
X111354976Y-116074654D01*
X111372219Y-116061866D01*
X111390632Y-116050830D01*
X111410038Y-116041651D01*
X111430250Y-116034419D01*
X111451074Y-116029203D01*
X111472309Y-116026053D01*
X111493750Y-116025000D01*
X111931250Y-116025000D01*
X111952691Y-116026053D01*
X111952691Y-116026053D01*
G37*
D17*
X111712500Y-116500000D03*
D16*
G36*
X113527691Y-116026053D02*
G01*
X113548926Y-116029203D01*
X113569750Y-116034419D01*
X113589962Y-116041651D01*
X113609368Y-116050830D01*
X113627781Y-116061866D01*
X113645024Y-116074654D01*
X113660930Y-116089070D01*
X113675346Y-116104976D01*
X113688134Y-116122219D01*
X113699170Y-116140632D01*
X113708349Y-116160038D01*
X113715581Y-116180250D01*
X113720797Y-116201074D01*
X113723947Y-116222309D01*
X113725000Y-116243750D01*
X113725000Y-116756250D01*
X113723947Y-116777691D01*
X113720797Y-116798926D01*
X113715581Y-116819750D01*
X113708349Y-116839962D01*
X113699170Y-116859368D01*
X113688134Y-116877781D01*
X113675346Y-116895024D01*
X113660930Y-116910930D01*
X113645024Y-116925346D01*
X113627781Y-116938134D01*
X113609368Y-116949170D01*
X113589962Y-116958349D01*
X113569750Y-116965581D01*
X113548926Y-116970797D01*
X113527691Y-116973947D01*
X113506250Y-116975000D01*
X113068750Y-116975000D01*
X113047309Y-116973947D01*
X113026074Y-116970797D01*
X113005250Y-116965581D01*
X112985038Y-116958349D01*
X112965632Y-116949170D01*
X112947219Y-116938134D01*
X112929976Y-116925346D01*
X112914070Y-116910930D01*
X112899654Y-116895024D01*
X112886866Y-116877781D01*
X112875830Y-116859368D01*
X112866651Y-116839962D01*
X112859419Y-116819750D01*
X112854203Y-116798926D01*
X112851053Y-116777691D01*
X112850000Y-116756250D01*
X112850000Y-116243750D01*
X112851053Y-116222309D01*
X112854203Y-116201074D01*
X112859419Y-116180250D01*
X112866651Y-116160038D01*
X112875830Y-116140632D01*
X112886866Y-116122219D01*
X112899654Y-116104976D01*
X112914070Y-116089070D01*
X112929976Y-116074654D01*
X112947219Y-116061866D01*
X112965632Y-116050830D01*
X112985038Y-116041651D01*
X113005250Y-116034419D01*
X113026074Y-116029203D01*
X113047309Y-116026053D01*
X113068750Y-116025000D01*
X113506250Y-116025000D01*
X113527691Y-116026053D01*
X113527691Y-116026053D01*
G37*
D17*
X113287500Y-116500000D03*
D16*
G36*
X111952691Y-118026053D02*
G01*
X111973926Y-118029203D01*
X111994750Y-118034419D01*
X112014962Y-118041651D01*
X112034368Y-118050830D01*
X112052781Y-118061866D01*
X112070024Y-118074654D01*
X112085930Y-118089070D01*
X112100346Y-118104976D01*
X112113134Y-118122219D01*
X112124170Y-118140632D01*
X112133349Y-118160038D01*
X112140581Y-118180250D01*
X112145797Y-118201074D01*
X112148947Y-118222309D01*
X112150000Y-118243750D01*
X112150000Y-118756250D01*
X112148947Y-118777691D01*
X112145797Y-118798926D01*
X112140581Y-118819750D01*
X112133349Y-118839962D01*
X112124170Y-118859368D01*
X112113134Y-118877781D01*
X112100346Y-118895024D01*
X112085930Y-118910930D01*
X112070024Y-118925346D01*
X112052781Y-118938134D01*
X112034368Y-118949170D01*
X112014962Y-118958349D01*
X111994750Y-118965581D01*
X111973926Y-118970797D01*
X111952691Y-118973947D01*
X111931250Y-118975000D01*
X111493750Y-118975000D01*
X111472309Y-118973947D01*
X111451074Y-118970797D01*
X111430250Y-118965581D01*
X111410038Y-118958349D01*
X111390632Y-118949170D01*
X111372219Y-118938134D01*
X111354976Y-118925346D01*
X111339070Y-118910930D01*
X111324654Y-118895024D01*
X111311866Y-118877781D01*
X111300830Y-118859368D01*
X111291651Y-118839962D01*
X111284419Y-118819750D01*
X111279203Y-118798926D01*
X111276053Y-118777691D01*
X111275000Y-118756250D01*
X111275000Y-118243750D01*
X111276053Y-118222309D01*
X111279203Y-118201074D01*
X111284419Y-118180250D01*
X111291651Y-118160038D01*
X111300830Y-118140632D01*
X111311866Y-118122219D01*
X111324654Y-118104976D01*
X111339070Y-118089070D01*
X111354976Y-118074654D01*
X111372219Y-118061866D01*
X111390632Y-118050830D01*
X111410038Y-118041651D01*
X111430250Y-118034419D01*
X111451074Y-118029203D01*
X111472309Y-118026053D01*
X111493750Y-118025000D01*
X111931250Y-118025000D01*
X111952691Y-118026053D01*
X111952691Y-118026053D01*
G37*
D17*
X111712500Y-118500000D03*
D16*
G36*
X113527691Y-118026053D02*
G01*
X113548926Y-118029203D01*
X113569750Y-118034419D01*
X113589962Y-118041651D01*
X113609368Y-118050830D01*
X113627781Y-118061866D01*
X113645024Y-118074654D01*
X113660930Y-118089070D01*
X113675346Y-118104976D01*
X113688134Y-118122219D01*
X113699170Y-118140632D01*
X113708349Y-118160038D01*
X113715581Y-118180250D01*
X113720797Y-118201074D01*
X113723947Y-118222309D01*
X113725000Y-118243750D01*
X113725000Y-118756250D01*
X113723947Y-118777691D01*
X113720797Y-118798926D01*
X113715581Y-118819750D01*
X113708349Y-118839962D01*
X113699170Y-118859368D01*
X113688134Y-118877781D01*
X113675346Y-118895024D01*
X113660930Y-118910930D01*
X113645024Y-118925346D01*
X113627781Y-118938134D01*
X113609368Y-118949170D01*
X113589962Y-118958349D01*
X113569750Y-118965581D01*
X113548926Y-118970797D01*
X113527691Y-118973947D01*
X113506250Y-118975000D01*
X113068750Y-118975000D01*
X113047309Y-118973947D01*
X113026074Y-118970797D01*
X113005250Y-118965581D01*
X112985038Y-118958349D01*
X112965632Y-118949170D01*
X112947219Y-118938134D01*
X112929976Y-118925346D01*
X112914070Y-118910930D01*
X112899654Y-118895024D01*
X112886866Y-118877781D01*
X112875830Y-118859368D01*
X112866651Y-118839962D01*
X112859419Y-118819750D01*
X112854203Y-118798926D01*
X112851053Y-118777691D01*
X112850000Y-118756250D01*
X112850000Y-118243750D01*
X112851053Y-118222309D01*
X112854203Y-118201074D01*
X112859419Y-118180250D01*
X112866651Y-118160038D01*
X112875830Y-118140632D01*
X112886866Y-118122219D01*
X112899654Y-118104976D01*
X112914070Y-118089070D01*
X112929976Y-118074654D01*
X112947219Y-118061866D01*
X112965632Y-118050830D01*
X112985038Y-118041651D01*
X113005250Y-118034419D01*
X113026074Y-118029203D01*
X113047309Y-118026053D01*
X113068750Y-118025000D01*
X113506250Y-118025000D01*
X113527691Y-118026053D01*
X113527691Y-118026053D01*
G37*
D17*
X113287500Y-118500000D03*
D16*
G36*
X113527691Y-120026053D02*
G01*
X113548926Y-120029203D01*
X113569750Y-120034419D01*
X113589962Y-120041651D01*
X113609368Y-120050830D01*
X113627781Y-120061866D01*
X113645024Y-120074654D01*
X113660930Y-120089070D01*
X113675346Y-120104976D01*
X113688134Y-120122219D01*
X113699170Y-120140632D01*
X113708349Y-120160038D01*
X113715581Y-120180250D01*
X113720797Y-120201074D01*
X113723947Y-120222309D01*
X113725000Y-120243750D01*
X113725000Y-120756250D01*
X113723947Y-120777691D01*
X113720797Y-120798926D01*
X113715581Y-120819750D01*
X113708349Y-120839962D01*
X113699170Y-120859368D01*
X113688134Y-120877781D01*
X113675346Y-120895024D01*
X113660930Y-120910930D01*
X113645024Y-120925346D01*
X113627781Y-120938134D01*
X113609368Y-120949170D01*
X113589962Y-120958349D01*
X113569750Y-120965581D01*
X113548926Y-120970797D01*
X113527691Y-120973947D01*
X113506250Y-120975000D01*
X113068750Y-120975000D01*
X113047309Y-120973947D01*
X113026074Y-120970797D01*
X113005250Y-120965581D01*
X112985038Y-120958349D01*
X112965632Y-120949170D01*
X112947219Y-120938134D01*
X112929976Y-120925346D01*
X112914070Y-120910930D01*
X112899654Y-120895024D01*
X112886866Y-120877781D01*
X112875830Y-120859368D01*
X112866651Y-120839962D01*
X112859419Y-120819750D01*
X112854203Y-120798926D01*
X112851053Y-120777691D01*
X112850000Y-120756250D01*
X112850000Y-120243750D01*
X112851053Y-120222309D01*
X112854203Y-120201074D01*
X112859419Y-120180250D01*
X112866651Y-120160038D01*
X112875830Y-120140632D01*
X112886866Y-120122219D01*
X112899654Y-120104976D01*
X112914070Y-120089070D01*
X112929976Y-120074654D01*
X112947219Y-120061866D01*
X112965632Y-120050830D01*
X112985038Y-120041651D01*
X113005250Y-120034419D01*
X113026074Y-120029203D01*
X113047309Y-120026053D01*
X113068750Y-120025000D01*
X113506250Y-120025000D01*
X113527691Y-120026053D01*
X113527691Y-120026053D01*
G37*
D17*
X113287500Y-120500000D03*
D16*
G36*
X111952691Y-120026053D02*
G01*
X111973926Y-120029203D01*
X111994750Y-120034419D01*
X112014962Y-120041651D01*
X112034368Y-120050830D01*
X112052781Y-120061866D01*
X112070024Y-120074654D01*
X112085930Y-120089070D01*
X112100346Y-120104976D01*
X112113134Y-120122219D01*
X112124170Y-120140632D01*
X112133349Y-120160038D01*
X112140581Y-120180250D01*
X112145797Y-120201074D01*
X112148947Y-120222309D01*
X112150000Y-120243750D01*
X112150000Y-120756250D01*
X112148947Y-120777691D01*
X112145797Y-120798926D01*
X112140581Y-120819750D01*
X112133349Y-120839962D01*
X112124170Y-120859368D01*
X112113134Y-120877781D01*
X112100346Y-120895024D01*
X112085930Y-120910930D01*
X112070024Y-120925346D01*
X112052781Y-120938134D01*
X112034368Y-120949170D01*
X112014962Y-120958349D01*
X111994750Y-120965581D01*
X111973926Y-120970797D01*
X111952691Y-120973947D01*
X111931250Y-120975000D01*
X111493750Y-120975000D01*
X111472309Y-120973947D01*
X111451074Y-120970797D01*
X111430250Y-120965581D01*
X111410038Y-120958349D01*
X111390632Y-120949170D01*
X111372219Y-120938134D01*
X111354976Y-120925346D01*
X111339070Y-120910930D01*
X111324654Y-120895024D01*
X111311866Y-120877781D01*
X111300830Y-120859368D01*
X111291651Y-120839962D01*
X111284419Y-120819750D01*
X111279203Y-120798926D01*
X111276053Y-120777691D01*
X111275000Y-120756250D01*
X111275000Y-120243750D01*
X111276053Y-120222309D01*
X111279203Y-120201074D01*
X111284419Y-120180250D01*
X111291651Y-120160038D01*
X111300830Y-120140632D01*
X111311866Y-120122219D01*
X111324654Y-120104976D01*
X111339070Y-120089070D01*
X111354976Y-120074654D01*
X111372219Y-120061866D01*
X111390632Y-120050830D01*
X111410038Y-120041651D01*
X111430250Y-120034419D01*
X111451074Y-120029203D01*
X111472309Y-120026053D01*
X111493750Y-120025000D01*
X111931250Y-120025000D01*
X111952691Y-120026053D01*
X111952691Y-120026053D01*
G37*
D17*
X111712500Y-120500000D03*
D16*
G36*
X113527691Y-122026053D02*
G01*
X113548926Y-122029203D01*
X113569750Y-122034419D01*
X113589962Y-122041651D01*
X113609368Y-122050830D01*
X113627781Y-122061866D01*
X113645024Y-122074654D01*
X113660930Y-122089070D01*
X113675346Y-122104976D01*
X113688134Y-122122219D01*
X113699170Y-122140632D01*
X113708349Y-122160038D01*
X113715581Y-122180250D01*
X113720797Y-122201074D01*
X113723947Y-122222309D01*
X113725000Y-122243750D01*
X113725000Y-122756250D01*
X113723947Y-122777691D01*
X113720797Y-122798926D01*
X113715581Y-122819750D01*
X113708349Y-122839962D01*
X113699170Y-122859368D01*
X113688134Y-122877781D01*
X113675346Y-122895024D01*
X113660930Y-122910930D01*
X113645024Y-122925346D01*
X113627781Y-122938134D01*
X113609368Y-122949170D01*
X113589962Y-122958349D01*
X113569750Y-122965581D01*
X113548926Y-122970797D01*
X113527691Y-122973947D01*
X113506250Y-122975000D01*
X113068750Y-122975000D01*
X113047309Y-122973947D01*
X113026074Y-122970797D01*
X113005250Y-122965581D01*
X112985038Y-122958349D01*
X112965632Y-122949170D01*
X112947219Y-122938134D01*
X112929976Y-122925346D01*
X112914070Y-122910930D01*
X112899654Y-122895024D01*
X112886866Y-122877781D01*
X112875830Y-122859368D01*
X112866651Y-122839962D01*
X112859419Y-122819750D01*
X112854203Y-122798926D01*
X112851053Y-122777691D01*
X112850000Y-122756250D01*
X112850000Y-122243750D01*
X112851053Y-122222309D01*
X112854203Y-122201074D01*
X112859419Y-122180250D01*
X112866651Y-122160038D01*
X112875830Y-122140632D01*
X112886866Y-122122219D01*
X112899654Y-122104976D01*
X112914070Y-122089070D01*
X112929976Y-122074654D01*
X112947219Y-122061866D01*
X112965632Y-122050830D01*
X112985038Y-122041651D01*
X113005250Y-122034419D01*
X113026074Y-122029203D01*
X113047309Y-122026053D01*
X113068750Y-122025000D01*
X113506250Y-122025000D01*
X113527691Y-122026053D01*
X113527691Y-122026053D01*
G37*
D17*
X113287500Y-122500000D03*
D16*
G36*
X111952691Y-122026053D02*
G01*
X111973926Y-122029203D01*
X111994750Y-122034419D01*
X112014962Y-122041651D01*
X112034368Y-122050830D01*
X112052781Y-122061866D01*
X112070024Y-122074654D01*
X112085930Y-122089070D01*
X112100346Y-122104976D01*
X112113134Y-122122219D01*
X112124170Y-122140632D01*
X112133349Y-122160038D01*
X112140581Y-122180250D01*
X112145797Y-122201074D01*
X112148947Y-122222309D01*
X112150000Y-122243750D01*
X112150000Y-122756250D01*
X112148947Y-122777691D01*
X112145797Y-122798926D01*
X112140581Y-122819750D01*
X112133349Y-122839962D01*
X112124170Y-122859368D01*
X112113134Y-122877781D01*
X112100346Y-122895024D01*
X112085930Y-122910930D01*
X112070024Y-122925346D01*
X112052781Y-122938134D01*
X112034368Y-122949170D01*
X112014962Y-122958349D01*
X111994750Y-122965581D01*
X111973926Y-122970797D01*
X111952691Y-122973947D01*
X111931250Y-122975000D01*
X111493750Y-122975000D01*
X111472309Y-122973947D01*
X111451074Y-122970797D01*
X111430250Y-122965581D01*
X111410038Y-122958349D01*
X111390632Y-122949170D01*
X111372219Y-122938134D01*
X111354976Y-122925346D01*
X111339070Y-122910930D01*
X111324654Y-122895024D01*
X111311866Y-122877781D01*
X111300830Y-122859368D01*
X111291651Y-122839962D01*
X111284419Y-122819750D01*
X111279203Y-122798926D01*
X111276053Y-122777691D01*
X111275000Y-122756250D01*
X111275000Y-122243750D01*
X111276053Y-122222309D01*
X111279203Y-122201074D01*
X111284419Y-122180250D01*
X111291651Y-122160038D01*
X111300830Y-122140632D01*
X111311866Y-122122219D01*
X111324654Y-122104976D01*
X111339070Y-122089070D01*
X111354976Y-122074654D01*
X111372219Y-122061866D01*
X111390632Y-122050830D01*
X111410038Y-122041651D01*
X111430250Y-122034419D01*
X111451074Y-122029203D01*
X111472309Y-122026053D01*
X111493750Y-122025000D01*
X111931250Y-122025000D01*
X111952691Y-122026053D01*
X111952691Y-122026053D01*
G37*
D17*
X111712500Y-122500000D03*
D16*
G36*
X99527691Y-113026053D02*
G01*
X99548926Y-113029203D01*
X99569750Y-113034419D01*
X99589962Y-113041651D01*
X99609368Y-113050830D01*
X99627781Y-113061866D01*
X99645024Y-113074654D01*
X99660930Y-113089070D01*
X99675346Y-113104976D01*
X99688134Y-113122219D01*
X99699170Y-113140632D01*
X99708349Y-113160038D01*
X99715581Y-113180250D01*
X99720797Y-113201074D01*
X99723947Y-113222309D01*
X99725000Y-113243750D01*
X99725000Y-113681250D01*
X99723947Y-113702691D01*
X99720797Y-113723926D01*
X99715581Y-113744750D01*
X99708349Y-113764962D01*
X99699170Y-113784368D01*
X99688134Y-113802781D01*
X99675346Y-113820024D01*
X99660930Y-113835930D01*
X99645024Y-113850346D01*
X99627781Y-113863134D01*
X99609368Y-113874170D01*
X99589962Y-113883349D01*
X99569750Y-113890581D01*
X99548926Y-113895797D01*
X99527691Y-113898947D01*
X99506250Y-113900000D01*
X98993750Y-113900000D01*
X98972309Y-113898947D01*
X98951074Y-113895797D01*
X98930250Y-113890581D01*
X98910038Y-113883349D01*
X98890632Y-113874170D01*
X98872219Y-113863134D01*
X98854976Y-113850346D01*
X98839070Y-113835930D01*
X98824654Y-113820024D01*
X98811866Y-113802781D01*
X98800830Y-113784368D01*
X98791651Y-113764962D01*
X98784419Y-113744750D01*
X98779203Y-113723926D01*
X98776053Y-113702691D01*
X98775000Y-113681250D01*
X98775000Y-113243750D01*
X98776053Y-113222309D01*
X98779203Y-113201074D01*
X98784419Y-113180250D01*
X98791651Y-113160038D01*
X98800830Y-113140632D01*
X98811866Y-113122219D01*
X98824654Y-113104976D01*
X98839070Y-113089070D01*
X98854976Y-113074654D01*
X98872219Y-113061866D01*
X98890632Y-113050830D01*
X98910038Y-113041651D01*
X98930250Y-113034419D01*
X98951074Y-113029203D01*
X98972309Y-113026053D01*
X98993750Y-113025000D01*
X99506250Y-113025000D01*
X99527691Y-113026053D01*
X99527691Y-113026053D01*
G37*
D17*
X99250000Y-113462500D03*
D16*
G36*
X99527691Y-114601053D02*
G01*
X99548926Y-114604203D01*
X99569750Y-114609419D01*
X99589962Y-114616651D01*
X99609368Y-114625830D01*
X99627781Y-114636866D01*
X99645024Y-114649654D01*
X99660930Y-114664070D01*
X99675346Y-114679976D01*
X99688134Y-114697219D01*
X99699170Y-114715632D01*
X99708349Y-114735038D01*
X99715581Y-114755250D01*
X99720797Y-114776074D01*
X99723947Y-114797309D01*
X99725000Y-114818750D01*
X99725000Y-115256250D01*
X99723947Y-115277691D01*
X99720797Y-115298926D01*
X99715581Y-115319750D01*
X99708349Y-115339962D01*
X99699170Y-115359368D01*
X99688134Y-115377781D01*
X99675346Y-115395024D01*
X99660930Y-115410930D01*
X99645024Y-115425346D01*
X99627781Y-115438134D01*
X99609368Y-115449170D01*
X99589962Y-115458349D01*
X99569750Y-115465581D01*
X99548926Y-115470797D01*
X99527691Y-115473947D01*
X99506250Y-115475000D01*
X98993750Y-115475000D01*
X98972309Y-115473947D01*
X98951074Y-115470797D01*
X98930250Y-115465581D01*
X98910038Y-115458349D01*
X98890632Y-115449170D01*
X98872219Y-115438134D01*
X98854976Y-115425346D01*
X98839070Y-115410930D01*
X98824654Y-115395024D01*
X98811866Y-115377781D01*
X98800830Y-115359368D01*
X98791651Y-115339962D01*
X98784419Y-115319750D01*
X98779203Y-115298926D01*
X98776053Y-115277691D01*
X98775000Y-115256250D01*
X98775000Y-114818750D01*
X98776053Y-114797309D01*
X98779203Y-114776074D01*
X98784419Y-114755250D01*
X98791651Y-114735038D01*
X98800830Y-114715632D01*
X98811866Y-114697219D01*
X98824654Y-114679976D01*
X98839070Y-114664070D01*
X98854976Y-114649654D01*
X98872219Y-114636866D01*
X98890632Y-114625830D01*
X98910038Y-114616651D01*
X98930250Y-114609419D01*
X98951074Y-114604203D01*
X98972309Y-114601053D01*
X98993750Y-114600000D01*
X99506250Y-114600000D01*
X99527691Y-114601053D01*
X99527691Y-114601053D01*
G37*
D17*
X99250000Y-115037500D03*
D16*
G36*
X97527691Y-114601053D02*
G01*
X97548926Y-114604203D01*
X97569750Y-114609419D01*
X97589962Y-114616651D01*
X97609368Y-114625830D01*
X97627781Y-114636866D01*
X97645024Y-114649654D01*
X97660930Y-114664070D01*
X97675346Y-114679976D01*
X97688134Y-114697219D01*
X97699170Y-114715632D01*
X97708349Y-114735038D01*
X97715581Y-114755250D01*
X97720797Y-114776074D01*
X97723947Y-114797309D01*
X97725000Y-114818750D01*
X97725000Y-115256250D01*
X97723947Y-115277691D01*
X97720797Y-115298926D01*
X97715581Y-115319750D01*
X97708349Y-115339962D01*
X97699170Y-115359368D01*
X97688134Y-115377781D01*
X97675346Y-115395024D01*
X97660930Y-115410930D01*
X97645024Y-115425346D01*
X97627781Y-115438134D01*
X97609368Y-115449170D01*
X97589962Y-115458349D01*
X97569750Y-115465581D01*
X97548926Y-115470797D01*
X97527691Y-115473947D01*
X97506250Y-115475000D01*
X96993750Y-115475000D01*
X96972309Y-115473947D01*
X96951074Y-115470797D01*
X96930250Y-115465581D01*
X96910038Y-115458349D01*
X96890632Y-115449170D01*
X96872219Y-115438134D01*
X96854976Y-115425346D01*
X96839070Y-115410930D01*
X96824654Y-115395024D01*
X96811866Y-115377781D01*
X96800830Y-115359368D01*
X96791651Y-115339962D01*
X96784419Y-115319750D01*
X96779203Y-115298926D01*
X96776053Y-115277691D01*
X96775000Y-115256250D01*
X96775000Y-114818750D01*
X96776053Y-114797309D01*
X96779203Y-114776074D01*
X96784419Y-114755250D01*
X96791651Y-114735038D01*
X96800830Y-114715632D01*
X96811866Y-114697219D01*
X96824654Y-114679976D01*
X96839070Y-114664070D01*
X96854976Y-114649654D01*
X96872219Y-114636866D01*
X96890632Y-114625830D01*
X96910038Y-114616651D01*
X96930250Y-114609419D01*
X96951074Y-114604203D01*
X96972309Y-114601053D01*
X96993750Y-114600000D01*
X97506250Y-114600000D01*
X97527691Y-114601053D01*
X97527691Y-114601053D01*
G37*
D17*
X97250000Y-115037500D03*
D16*
G36*
X97527691Y-113026053D02*
G01*
X97548926Y-113029203D01*
X97569750Y-113034419D01*
X97589962Y-113041651D01*
X97609368Y-113050830D01*
X97627781Y-113061866D01*
X97645024Y-113074654D01*
X97660930Y-113089070D01*
X97675346Y-113104976D01*
X97688134Y-113122219D01*
X97699170Y-113140632D01*
X97708349Y-113160038D01*
X97715581Y-113180250D01*
X97720797Y-113201074D01*
X97723947Y-113222309D01*
X97725000Y-113243750D01*
X97725000Y-113681250D01*
X97723947Y-113702691D01*
X97720797Y-113723926D01*
X97715581Y-113744750D01*
X97708349Y-113764962D01*
X97699170Y-113784368D01*
X97688134Y-113802781D01*
X97675346Y-113820024D01*
X97660930Y-113835930D01*
X97645024Y-113850346D01*
X97627781Y-113863134D01*
X97609368Y-113874170D01*
X97589962Y-113883349D01*
X97569750Y-113890581D01*
X97548926Y-113895797D01*
X97527691Y-113898947D01*
X97506250Y-113900000D01*
X96993750Y-113900000D01*
X96972309Y-113898947D01*
X96951074Y-113895797D01*
X96930250Y-113890581D01*
X96910038Y-113883349D01*
X96890632Y-113874170D01*
X96872219Y-113863134D01*
X96854976Y-113850346D01*
X96839070Y-113835930D01*
X96824654Y-113820024D01*
X96811866Y-113802781D01*
X96800830Y-113784368D01*
X96791651Y-113764962D01*
X96784419Y-113744750D01*
X96779203Y-113723926D01*
X96776053Y-113702691D01*
X96775000Y-113681250D01*
X96775000Y-113243750D01*
X96776053Y-113222309D01*
X96779203Y-113201074D01*
X96784419Y-113180250D01*
X96791651Y-113160038D01*
X96800830Y-113140632D01*
X96811866Y-113122219D01*
X96824654Y-113104976D01*
X96839070Y-113089070D01*
X96854976Y-113074654D01*
X96872219Y-113061866D01*
X96890632Y-113050830D01*
X96910038Y-113041651D01*
X96930250Y-113034419D01*
X96951074Y-113029203D01*
X96972309Y-113026053D01*
X96993750Y-113025000D01*
X97506250Y-113025000D01*
X97527691Y-113026053D01*
X97527691Y-113026053D01*
G37*
D17*
X97250000Y-113462500D03*
D16*
G36*
X104777691Y-113026053D02*
G01*
X104798926Y-113029203D01*
X104819750Y-113034419D01*
X104839962Y-113041651D01*
X104859368Y-113050830D01*
X104877781Y-113061866D01*
X104895024Y-113074654D01*
X104910930Y-113089070D01*
X104925346Y-113104976D01*
X104938134Y-113122219D01*
X104949170Y-113140632D01*
X104958349Y-113160038D01*
X104965581Y-113180250D01*
X104970797Y-113201074D01*
X104973947Y-113222309D01*
X104975000Y-113243750D01*
X104975000Y-113681250D01*
X104973947Y-113702691D01*
X104970797Y-113723926D01*
X104965581Y-113744750D01*
X104958349Y-113764962D01*
X104949170Y-113784368D01*
X104938134Y-113802781D01*
X104925346Y-113820024D01*
X104910930Y-113835930D01*
X104895024Y-113850346D01*
X104877781Y-113863134D01*
X104859368Y-113874170D01*
X104839962Y-113883349D01*
X104819750Y-113890581D01*
X104798926Y-113895797D01*
X104777691Y-113898947D01*
X104756250Y-113900000D01*
X104243750Y-113900000D01*
X104222309Y-113898947D01*
X104201074Y-113895797D01*
X104180250Y-113890581D01*
X104160038Y-113883349D01*
X104140632Y-113874170D01*
X104122219Y-113863134D01*
X104104976Y-113850346D01*
X104089070Y-113835930D01*
X104074654Y-113820024D01*
X104061866Y-113802781D01*
X104050830Y-113784368D01*
X104041651Y-113764962D01*
X104034419Y-113744750D01*
X104029203Y-113723926D01*
X104026053Y-113702691D01*
X104025000Y-113681250D01*
X104025000Y-113243750D01*
X104026053Y-113222309D01*
X104029203Y-113201074D01*
X104034419Y-113180250D01*
X104041651Y-113160038D01*
X104050830Y-113140632D01*
X104061866Y-113122219D01*
X104074654Y-113104976D01*
X104089070Y-113089070D01*
X104104976Y-113074654D01*
X104122219Y-113061866D01*
X104140632Y-113050830D01*
X104160038Y-113041651D01*
X104180250Y-113034419D01*
X104201074Y-113029203D01*
X104222309Y-113026053D01*
X104243750Y-113025000D01*
X104756250Y-113025000D01*
X104777691Y-113026053D01*
X104777691Y-113026053D01*
G37*
D17*
X104500000Y-113462500D03*
D16*
G36*
X104777691Y-114601053D02*
G01*
X104798926Y-114604203D01*
X104819750Y-114609419D01*
X104839962Y-114616651D01*
X104859368Y-114625830D01*
X104877781Y-114636866D01*
X104895024Y-114649654D01*
X104910930Y-114664070D01*
X104925346Y-114679976D01*
X104938134Y-114697219D01*
X104949170Y-114715632D01*
X104958349Y-114735038D01*
X104965581Y-114755250D01*
X104970797Y-114776074D01*
X104973947Y-114797309D01*
X104975000Y-114818750D01*
X104975000Y-115256250D01*
X104973947Y-115277691D01*
X104970797Y-115298926D01*
X104965581Y-115319750D01*
X104958349Y-115339962D01*
X104949170Y-115359368D01*
X104938134Y-115377781D01*
X104925346Y-115395024D01*
X104910930Y-115410930D01*
X104895024Y-115425346D01*
X104877781Y-115438134D01*
X104859368Y-115449170D01*
X104839962Y-115458349D01*
X104819750Y-115465581D01*
X104798926Y-115470797D01*
X104777691Y-115473947D01*
X104756250Y-115475000D01*
X104243750Y-115475000D01*
X104222309Y-115473947D01*
X104201074Y-115470797D01*
X104180250Y-115465581D01*
X104160038Y-115458349D01*
X104140632Y-115449170D01*
X104122219Y-115438134D01*
X104104976Y-115425346D01*
X104089070Y-115410930D01*
X104074654Y-115395024D01*
X104061866Y-115377781D01*
X104050830Y-115359368D01*
X104041651Y-115339962D01*
X104034419Y-115319750D01*
X104029203Y-115298926D01*
X104026053Y-115277691D01*
X104025000Y-115256250D01*
X104025000Y-114818750D01*
X104026053Y-114797309D01*
X104029203Y-114776074D01*
X104034419Y-114755250D01*
X104041651Y-114735038D01*
X104050830Y-114715632D01*
X104061866Y-114697219D01*
X104074654Y-114679976D01*
X104089070Y-114664070D01*
X104104976Y-114649654D01*
X104122219Y-114636866D01*
X104140632Y-114625830D01*
X104160038Y-114616651D01*
X104180250Y-114609419D01*
X104201074Y-114604203D01*
X104222309Y-114601053D01*
X104243750Y-114600000D01*
X104756250Y-114600000D01*
X104777691Y-114601053D01*
X104777691Y-114601053D01*
G37*
D17*
X104500000Y-115037500D03*
D16*
G36*
X102777691Y-114601053D02*
G01*
X102798926Y-114604203D01*
X102819750Y-114609419D01*
X102839962Y-114616651D01*
X102859368Y-114625830D01*
X102877781Y-114636866D01*
X102895024Y-114649654D01*
X102910930Y-114664070D01*
X102925346Y-114679976D01*
X102938134Y-114697219D01*
X102949170Y-114715632D01*
X102958349Y-114735038D01*
X102965581Y-114755250D01*
X102970797Y-114776074D01*
X102973947Y-114797309D01*
X102975000Y-114818750D01*
X102975000Y-115256250D01*
X102973947Y-115277691D01*
X102970797Y-115298926D01*
X102965581Y-115319750D01*
X102958349Y-115339962D01*
X102949170Y-115359368D01*
X102938134Y-115377781D01*
X102925346Y-115395024D01*
X102910930Y-115410930D01*
X102895024Y-115425346D01*
X102877781Y-115438134D01*
X102859368Y-115449170D01*
X102839962Y-115458349D01*
X102819750Y-115465581D01*
X102798926Y-115470797D01*
X102777691Y-115473947D01*
X102756250Y-115475000D01*
X102243750Y-115475000D01*
X102222309Y-115473947D01*
X102201074Y-115470797D01*
X102180250Y-115465581D01*
X102160038Y-115458349D01*
X102140632Y-115449170D01*
X102122219Y-115438134D01*
X102104976Y-115425346D01*
X102089070Y-115410930D01*
X102074654Y-115395024D01*
X102061866Y-115377781D01*
X102050830Y-115359368D01*
X102041651Y-115339962D01*
X102034419Y-115319750D01*
X102029203Y-115298926D01*
X102026053Y-115277691D01*
X102025000Y-115256250D01*
X102025000Y-114818750D01*
X102026053Y-114797309D01*
X102029203Y-114776074D01*
X102034419Y-114755250D01*
X102041651Y-114735038D01*
X102050830Y-114715632D01*
X102061866Y-114697219D01*
X102074654Y-114679976D01*
X102089070Y-114664070D01*
X102104976Y-114649654D01*
X102122219Y-114636866D01*
X102140632Y-114625830D01*
X102160038Y-114616651D01*
X102180250Y-114609419D01*
X102201074Y-114604203D01*
X102222309Y-114601053D01*
X102243750Y-114600000D01*
X102756250Y-114600000D01*
X102777691Y-114601053D01*
X102777691Y-114601053D01*
G37*
D17*
X102500000Y-115037500D03*
D16*
G36*
X102777691Y-113026053D02*
G01*
X102798926Y-113029203D01*
X102819750Y-113034419D01*
X102839962Y-113041651D01*
X102859368Y-113050830D01*
X102877781Y-113061866D01*
X102895024Y-113074654D01*
X102910930Y-113089070D01*
X102925346Y-113104976D01*
X102938134Y-113122219D01*
X102949170Y-113140632D01*
X102958349Y-113160038D01*
X102965581Y-113180250D01*
X102970797Y-113201074D01*
X102973947Y-113222309D01*
X102975000Y-113243750D01*
X102975000Y-113681250D01*
X102973947Y-113702691D01*
X102970797Y-113723926D01*
X102965581Y-113744750D01*
X102958349Y-113764962D01*
X102949170Y-113784368D01*
X102938134Y-113802781D01*
X102925346Y-113820024D01*
X102910930Y-113835930D01*
X102895024Y-113850346D01*
X102877781Y-113863134D01*
X102859368Y-113874170D01*
X102839962Y-113883349D01*
X102819750Y-113890581D01*
X102798926Y-113895797D01*
X102777691Y-113898947D01*
X102756250Y-113900000D01*
X102243750Y-113900000D01*
X102222309Y-113898947D01*
X102201074Y-113895797D01*
X102180250Y-113890581D01*
X102160038Y-113883349D01*
X102140632Y-113874170D01*
X102122219Y-113863134D01*
X102104976Y-113850346D01*
X102089070Y-113835930D01*
X102074654Y-113820024D01*
X102061866Y-113802781D01*
X102050830Y-113784368D01*
X102041651Y-113764962D01*
X102034419Y-113744750D01*
X102029203Y-113723926D01*
X102026053Y-113702691D01*
X102025000Y-113681250D01*
X102025000Y-113243750D01*
X102026053Y-113222309D01*
X102029203Y-113201074D01*
X102034419Y-113180250D01*
X102041651Y-113160038D01*
X102050830Y-113140632D01*
X102061866Y-113122219D01*
X102074654Y-113104976D01*
X102089070Y-113089070D01*
X102104976Y-113074654D01*
X102122219Y-113061866D01*
X102140632Y-113050830D01*
X102160038Y-113041651D01*
X102180250Y-113034419D01*
X102201074Y-113029203D01*
X102222309Y-113026053D01*
X102243750Y-113025000D01*
X102756250Y-113025000D01*
X102777691Y-113026053D01*
X102777691Y-113026053D01*
G37*
D17*
X102500000Y-113462500D03*
D16*
G36*
X111952691Y-106776053D02*
G01*
X111973926Y-106779203D01*
X111994750Y-106784419D01*
X112014962Y-106791651D01*
X112034368Y-106800830D01*
X112052781Y-106811866D01*
X112070024Y-106824654D01*
X112085930Y-106839070D01*
X112100346Y-106854976D01*
X112113134Y-106872219D01*
X112124170Y-106890632D01*
X112133349Y-106910038D01*
X112140581Y-106930250D01*
X112145797Y-106951074D01*
X112148947Y-106972309D01*
X112150000Y-106993750D01*
X112150000Y-107506250D01*
X112148947Y-107527691D01*
X112145797Y-107548926D01*
X112140581Y-107569750D01*
X112133349Y-107589962D01*
X112124170Y-107609368D01*
X112113134Y-107627781D01*
X112100346Y-107645024D01*
X112085930Y-107660930D01*
X112070024Y-107675346D01*
X112052781Y-107688134D01*
X112034368Y-107699170D01*
X112014962Y-107708349D01*
X111994750Y-107715581D01*
X111973926Y-107720797D01*
X111952691Y-107723947D01*
X111931250Y-107725000D01*
X111493750Y-107725000D01*
X111472309Y-107723947D01*
X111451074Y-107720797D01*
X111430250Y-107715581D01*
X111410038Y-107708349D01*
X111390632Y-107699170D01*
X111372219Y-107688134D01*
X111354976Y-107675346D01*
X111339070Y-107660930D01*
X111324654Y-107645024D01*
X111311866Y-107627781D01*
X111300830Y-107609368D01*
X111291651Y-107589962D01*
X111284419Y-107569750D01*
X111279203Y-107548926D01*
X111276053Y-107527691D01*
X111275000Y-107506250D01*
X111275000Y-106993750D01*
X111276053Y-106972309D01*
X111279203Y-106951074D01*
X111284419Y-106930250D01*
X111291651Y-106910038D01*
X111300830Y-106890632D01*
X111311866Y-106872219D01*
X111324654Y-106854976D01*
X111339070Y-106839070D01*
X111354976Y-106824654D01*
X111372219Y-106811866D01*
X111390632Y-106800830D01*
X111410038Y-106791651D01*
X111430250Y-106784419D01*
X111451074Y-106779203D01*
X111472309Y-106776053D01*
X111493750Y-106775000D01*
X111931250Y-106775000D01*
X111952691Y-106776053D01*
X111952691Y-106776053D01*
G37*
D17*
X111712500Y-107250000D03*
D16*
G36*
X113527691Y-106776053D02*
G01*
X113548926Y-106779203D01*
X113569750Y-106784419D01*
X113589962Y-106791651D01*
X113609368Y-106800830D01*
X113627781Y-106811866D01*
X113645024Y-106824654D01*
X113660930Y-106839070D01*
X113675346Y-106854976D01*
X113688134Y-106872219D01*
X113699170Y-106890632D01*
X113708349Y-106910038D01*
X113715581Y-106930250D01*
X113720797Y-106951074D01*
X113723947Y-106972309D01*
X113725000Y-106993750D01*
X113725000Y-107506250D01*
X113723947Y-107527691D01*
X113720797Y-107548926D01*
X113715581Y-107569750D01*
X113708349Y-107589962D01*
X113699170Y-107609368D01*
X113688134Y-107627781D01*
X113675346Y-107645024D01*
X113660930Y-107660930D01*
X113645024Y-107675346D01*
X113627781Y-107688134D01*
X113609368Y-107699170D01*
X113589962Y-107708349D01*
X113569750Y-107715581D01*
X113548926Y-107720797D01*
X113527691Y-107723947D01*
X113506250Y-107725000D01*
X113068750Y-107725000D01*
X113047309Y-107723947D01*
X113026074Y-107720797D01*
X113005250Y-107715581D01*
X112985038Y-107708349D01*
X112965632Y-107699170D01*
X112947219Y-107688134D01*
X112929976Y-107675346D01*
X112914070Y-107660930D01*
X112899654Y-107645024D01*
X112886866Y-107627781D01*
X112875830Y-107609368D01*
X112866651Y-107589962D01*
X112859419Y-107569750D01*
X112854203Y-107548926D01*
X112851053Y-107527691D01*
X112850000Y-107506250D01*
X112850000Y-106993750D01*
X112851053Y-106972309D01*
X112854203Y-106951074D01*
X112859419Y-106930250D01*
X112866651Y-106910038D01*
X112875830Y-106890632D01*
X112886866Y-106872219D01*
X112899654Y-106854976D01*
X112914070Y-106839070D01*
X112929976Y-106824654D01*
X112947219Y-106811866D01*
X112965632Y-106800830D01*
X112985038Y-106791651D01*
X113005250Y-106784419D01*
X113026074Y-106779203D01*
X113047309Y-106776053D01*
X113068750Y-106775000D01*
X113506250Y-106775000D01*
X113527691Y-106776053D01*
X113527691Y-106776053D01*
G37*
D17*
X113287500Y-107250000D03*
D16*
G36*
X111952691Y-108776053D02*
G01*
X111973926Y-108779203D01*
X111994750Y-108784419D01*
X112014962Y-108791651D01*
X112034368Y-108800830D01*
X112052781Y-108811866D01*
X112070024Y-108824654D01*
X112085930Y-108839070D01*
X112100346Y-108854976D01*
X112113134Y-108872219D01*
X112124170Y-108890632D01*
X112133349Y-108910038D01*
X112140581Y-108930250D01*
X112145797Y-108951074D01*
X112148947Y-108972309D01*
X112150000Y-108993750D01*
X112150000Y-109506250D01*
X112148947Y-109527691D01*
X112145797Y-109548926D01*
X112140581Y-109569750D01*
X112133349Y-109589962D01*
X112124170Y-109609368D01*
X112113134Y-109627781D01*
X112100346Y-109645024D01*
X112085930Y-109660930D01*
X112070024Y-109675346D01*
X112052781Y-109688134D01*
X112034368Y-109699170D01*
X112014962Y-109708349D01*
X111994750Y-109715581D01*
X111973926Y-109720797D01*
X111952691Y-109723947D01*
X111931250Y-109725000D01*
X111493750Y-109725000D01*
X111472309Y-109723947D01*
X111451074Y-109720797D01*
X111430250Y-109715581D01*
X111410038Y-109708349D01*
X111390632Y-109699170D01*
X111372219Y-109688134D01*
X111354976Y-109675346D01*
X111339070Y-109660930D01*
X111324654Y-109645024D01*
X111311866Y-109627781D01*
X111300830Y-109609368D01*
X111291651Y-109589962D01*
X111284419Y-109569750D01*
X111279203Y-109548926D01*
X111276053Y-109527691D01*
X111275000Y-109506250D01*
X111275000Y-108993750D01*
X111276053Y-108972309D01*
X111279203Y-108951074D01*
X111284419Y-108930250D01*
X111291651Y-108910038D01*
X111300830Y-108890632D01*
X111311866Y-108872219D01*
X111324654Y-108854976D01*
X111339070Y-108839070D01*
X111354976Y-108824654D01*
X111372219Y-108811866D01*
X111390632Y-108800830D01*
X111410038Y-108791651D01*
X111430250Y-108784419D01*
X111451074Y-108779203D01*
X111472309Y-108776053D01*
X111493750Y-108775000D01*
X111931250Y-108775000D01*
X111952691Y-108776053D01*
X111952691Y-108776053D01*
G37*
D17*
X111712500Y-109250000D03*
D16*
G36*
X113527691Y-108776053D02*
G01*
X113548926Y-108779203D01*
X113569750Y-108784419D01*
X113589962Y-108791651D01*
X113609368Y-108800830D01*
X113627781Y-108811866D01*
X113645024Y-108824654D01*
X113660930Y-108839070D01*
X113675346Y-108854976D01*
X113688134Y-108872219D01*
X113699170Y-108890632D01*
X113708349Y-108910038D01*
X113715581Y-108930250D01*
X113720797Y-108951074D01*
X113723947Y-108972309D01*
X113725000Y-108993750D01*
X113725000Y-109506250D01*
X113723947Y-109527691D01*
X113720797Y-109548926D01*
X113715581Y-109569750D01*
X113708349Y-109589962D01*
X113699170Y-109609368D01*
X113688134Y-109627781D01*
X113675346Y-109645024D01*
X113660930Y-109660930D01*
X113645024Y-109675346D01*
X113627781Y-109688134D01*
X113609368Y-109699170D01*
X113589962Y-109708349D01*
X113569750Y-109715581D01*
X113548926Y-109720797D01*
X113527691Y-109723947D01*
X113506250Y-109725000D01*
X113068750Y-109725000D01*
X113047309Y-109723947D01*
X113026074Y-109720797D01*
X113005250Y-109715581D01*
X112985038Y-109708349D01*
X112965632Y-109699170D01*
X112947219Y-109688134D01*
X112929976Y-109675346D01*
X112914070Y-109660930D01*
X112899654Y-109645024D01*
X112886866Y-109627781D01*
X112875830Y-109609368D01*
X112866651Y-109589962D01*
X112859419Y-109569750D01*
X112854203Y-109548926D01*
X112851053Y-109527691D01*
X112850000Y-109506250D01*
X112850000Y-108993750D01*
X112851053Y-108972309D01*
X112854203Y-108951074D01*
X112859419Y-108930250D01*
X112866651Y-108910038D01*
X112875830Y-108890632D01*
X112886866Y-108872219D01*
X112899654Y-108854976D01*
X112914070Y-108839070D01*
X112929976Y-108824654D01*
X112947219Y-108811866D01*
X112965632Y-108800830D01*
X112985038Y-108791651D01*
X113005250Y-108784419D01*
X113026074Y-108779203D01*
X113047309Y-108776053D01*
X113068750Y-108775000D01*
X113506250Y-108775000D01*
X113527691Y-108776053D01*
X113527691Y-108776053D01*
G37*
D17*
X113287500Y-109250000D03*
D16*
G36*
X113527691Y-110776053D02*
G01*
X113548926Y-110779203D01*
X113569750Y-110784419D01*
X113589962Y-110791651D01*
X113609368Y-110800830D01*
X113627781Y-110811866D01*
X113645024Y-110824654D01*
X113660930Y-110839070D01*
X113675346Y-110854976D01*
X113688134Y-110872219D01*
X113699170Y-110890632D01*
X113708349Y-110910038D01*
X113715581Y-110930250D01*
X113720797Y-110951074D01*
X113723947Y-110972309D01*
X113725000Y-110993750D01*
X113725000Y-111506250D01*
X113723947Y-111527691D01*
X113720797Y-111548926D01*
X113715581Y-111569750D01*
X113708349Y-111589962D01*
X113699170Y-111609368D01*
X113688134Y-111627781D01*
X113675346Y-111645024D01*
X113660930Y-111660930D01*
X113645024Y-111675346D01*
X113627781Y-111688134D01*
X113609368Y-111699170D01*
X113589962Y-111708349D01*
X113569750Y-111715581D01*
X113548926Y-111720797D01*
X113527691Y-111723947D01*
X113506250Y-111725000D01*
X113068750Y-111725000D01*
X113047309Y-111723947D01*
X113026074Y-111720797D01*
X113005250Y-111715581D01*
X112985038Y-111708349D01*
X112965632Y-111699170D01*
X112947219Y-111688134D01*
X112929976Y-111675346D01*
X112914070Y-111660930D01*
X112899654Y-111645024D01*
X112886866Y-111627781D01*
X112875830Y-111609368D01*
X112866651Y-111589962D01*
X112859419Y-111569750D01*
X112854203Y-111548926D01*
X112851053Y-111527691D01*
X112850000Y-111506250D01*
X112850000Y-110993750D01*
X112851053Y-110972309D01*
X112854203Y-110951074D01*
X112859419Y-110930250D01*
X112866651Y-110910038D01*
X112875830Y-110890632D01*
X112886866Y-110872219D01*
X112899654Y-110854976D01*
X112914070Y-110839070D01*
X112929976Y-110824654D01*
X112947219Y-110811866D01*
X112965632Y-110800830D01*
X112985038Y-110791651D01*
X113005250Y-110784419D01*
X113026074Y-110779203D01*
X113047309Y-110776053D01*
X113068750Y-110775000D01*
X113506250Y-110775000D01*
X113527691Y-110776053D01*
X113527691Y-110776053D01*
G37*
D17*
X113287500Y-111250000D03*
D16*
G36*
X111952691Y-110776053D02*
G01*
X111973926Y-110779203D01*
X111994750Y-110784419D01*
X112014962Y-110791651D01*
X112034368Y-110800830D01*
X112052781Y-110811866D01*
X112070024Y-110824654D01*
X112085930Y-110839070D01*
X112100346Y-110854976D01*
X112113134Y-110872219D01*
X112124170Y-110890632D01*
X112133349Y-110910038D01*
X112140581Y-110930250D01*
X112145797Y-110951074D01*
X112148947Y-110972309D01*
X112150000Y-110993750D01*
X112150000Y-111506250D01*
X112148947Y-111527691D01*
X112145797Y-111548926D01*
X112140581Y-111569750D01*
X112133349Y-111589962D01*
X112124170Y-111609368D01*
X112113134Y-111627781D01*
X112100346Y-111645024D01*
X112085930Y-111660930D01*
X112070024Y-111675346D01*
X112052781Y-111688134D01*
X112034368Y-111699170D01*
X112014962Y-111708349D01*
X111994750Y-111715581D01*
X111973926Y-111720797D01*
X111952691Y-111723947D01*
X111931250Y-111725000D01*
X111493750Y-111725000D01*
X111472309Y-111723947D01*
X111451074Y-111720797D01*
X111430250Y-111715581D01*
X111410038Y-111708349D01*
X111390632Y-111699170D01*
X111372219Y-111688134D01*
X111354976Y-111675346D01*
X111339070Y-111660930D01*
X111324654Y-111645024D01*
X111311866Y-111627781D01*
X111300830Y-111609368D01*
X111291651Y-111589962D01*
X111284419Y-111569750D01*
X111279203Y-111548926D01*
X111276053Y-111527691D01*
X111275000Y-111506250D01*
X111275000Y-110993750D01*
X111276053Y-110972309D01*
X111279203Y-110951074D01*
X111284419Y-110930250D01*
X111291651Y-110910038D01*
X111300830Y-110890632D01*
X111311866Y-110872219D01*
X111324654Y-110854976D01*
X111339070Y-110839070D01*
X111354976Y-110824654D01*
X111372219Y-110811866D01*
X111390632Y-110800830D01*
X111410038Y-110791651D01*
X111430250Y-110784419D01*
X111451074Y-110779203D01*
X111472309Y-110776053D01*
X111493750Y-110775000D01*
X111931250Y-110775000D01*
X111952691Y-110776053D01*
X111952691Y-110776053D01*
G37*
D17*
X111712500Y-111250000D03*
D16*
G36*
X113527691Y-112776053D02*
G01*
X113548926Y-112779203D01*
X113569750Y-112784419D01*
X113589962Y-112791651D01*
X113609368Y-112800830D01*
X113627781Y-112811866D01*
X113645024Y-112824654D01*
X113660930Y-112839070D01*
X113675346Y-112854976D01*
X113688134Y-112872219D01*
X113699170Y-112890632D01*
X113708349Y-112910038D01*
X113715581Y-112930250D01*
X113720797Y-112951074D01*
X113723947Y-112972309D01*
X113725000Y-112993750D01*
X113725000Y-113506250D01*
X113723947Y-113527691D01*
X113720797Y-113548926D01*
X113715581Y-113569750D01*
X113708349Y-113589962D01*
X113699170Y-113609368D01*
X113688134Y-113627781D01*
X113675346Y-113645024D01*
X113660930Y-113660930D01*
X113645024Y-113675346D01*
X113627781Y-113688134D01*
X113609368Y-113699170D01*
X113589962Y-113708349D01*
X113569750Y-113715581D01*
X113548926Y-113720797D01*
X113527691Y-113723947D01*
X113506250Y-113725000D01*
X113068750Y-113725000D01*
X113047309Y-113723947D01*
X113026074Y-113720797D01*
X113005250Y-113715581D01*
X112985038Y-113708349D01*
X112965632Y-113699170D01*
X112947219Y-113688134D01*
X112929976Y-113675346D01*
X112914070Y-113660930D01*
X112899654Y-113645024D01*
X112886866Y-113627781D01*
X112875830Y-113609368D01*
X112866651Y-113589962D01*
X112859419Y-113569750D01*
X112854203Y-113548926D01*
X112851053Y-113527691D01*
X112850000Y-113506250D01*
X112850000Y-112993750D01*
X112851053Y-112972309D01*
X112854203Y-112951074D01*
X112859419Y-112930250D01*
X112866651Y-112910038D01*
X112875830Y-112890632D01*
X112886866Y-112872219D01*
X112899654Y-112854976D01*
X112914070Y-112839070D01*
X112929976Y-112824654D01*
X112947219Y-112811866D01*
X112965632Y-112800830D01*
X112985038Y-112791651D01*
X113005250Y-112784419D01*
X113026074Y-112779203D01*
X113047309Y-112776053D01*
X113068750Y-112775000D01*
X113506250Y-112775000D01*
X113527691Y-112776053D01*
X113527691Y-112776053D01*
G37*
D17*
X113287500Y-113250000D03*
D16*
G36*
X111952691Y-112776053D02*
G01*
X111973926Y-112779203D01*
X111994750Y-112784419D01*
X112014962Y-112791651D01*
X112034368Y-112800830D01*
X112052781Y-112811866D01*
X112070024Y-112824654D01*
X112085930Y-112839070D01*
X112100346Y-112854976D01*
X112113134Y-112872219D01*
X112124170Y-112890632D01*
X112133349Y-112910038D01*
X112140581Y-112930250D01*
X112145797Y-112951074D01*
X112148947Y-112972309D01*
X112150000Y-112993750D01*
X112150000Y-113506250D01*
X112148947Y-113527691D01*
X112145797Y-113548926D01*
X112140581Y-113569750D01*
X112133349Y-113589962D01*
X112124170Y-113609368D01*
X112113134Y-113627781D01*
X112100346Y-113645024D01*
X112085930Y-113660930D01*
X112070024Y-113675346D01*
X112052781Y-113688134D01*
X112034368Y-113699170D01*
X112014962Y-113708349D01*
X111994750Y-113715581D01*
X111973926Y-113720797D01*
X111952691Y-113723947D01*
X111931250Y-113725000D01*
X111493750Y-113725000D01*
X111472309Y-113723947D01*
X111451074Y-113720797D01*
X111430250Y-113715581D01*
X111410038Y-113708349D01*
X111390632Y-113699170D01*
X111372219Y-113688134D01*
X111354976Y-113675346D01*
X111339070Y-113660930D01*
X111324654Y-113645024D01*
X111311866Y-113627781D01*
X111300830Y-113609368D01*
X111291651Y-113589962D01*
X111284419Y-113569750D01*
X111279203Y-113548926D01*
X111276053Y-113527691D01*
X111275000Y-113506250D01*
X111275000Y-112993750D01*
X111276053Y-112972309D01*
X111279203Y-112951074D01*
X111284419Y-112930250D01*
X111291651Y-112910038D01*
X111300830Y-112890632D01*
X111311866Y-112872219D01*
X111324654Y-112854976D01*
X111339070Y-112839070D01*
X111354976Y-112824654D01*
X111372219Y-112811866D01*
X111390632Y-112800830D01*
X111410038Y-112791651D01*
X111430250Y-112784419D01*
X111451074Y-112779203D01*
X111472309Y-112776053D01*
X111493750Y-112775000D01*
X111931250Y-112775000D01*
X111952691Y-112776053D01*
X111952691Y-112776053D01*
G37*
D17*
X111712500Y-113250000D03*
D16*
G36*
X113527691Y-97526053D02*
G01*
X113548926Y-97529203D01*
X113569750Y-97534419D01*
X113589962Y-97541651D01*
X113609368Y-97550830D01*
X113627781Y-97561866D01*
X113645024Y-97574654D01*
X113660930Y-97589070D01*
X113675346Y-97604976D01*
X113688134Y-97622219D01*
X113699170Y-97640632D01*
X113708349Y-97660038D01*
X113715581Y-97680250D01*
X113720797Y-97701074D01*
X113723947Y-97722309D01*
X113725000Y-97743750D01*
X113725000Y-98256250D01*
X113723947Y-98277691D01*
X113720797Y-98298926D01*
X113715581Y-98319750D01*
X113708349Y-98339962D01*
X113699170Y-98359368D01*
X113688134Y-98377781D01*
X113675346Y-98395024D01*
X113660930Y-98410930D01*
X113645024Y-98425346D01*
X113627781Y-98438134D01*
X113609368Y-98449170D01*
X113589962Y-98458349D01*
X113569750Y-98465581D01*
X113548926Y-98470797D01*
X113527691Y-98473947D01*
X113506250Y-98475000D01*
X113068750Y-98475000D01*
X113047309Y-98473947D01*
X113026074Y-98470797D01*
X113005250Y-98465581D01*
X112985038Y-98458349D01*
X112965632Y-98449170D01*
X112947219Y-98438134D01*
X112929976Y-98425346D01*
X112914070Y-98410930D01*
X112899654Y-98395024D01*
X112886866Y-98377781D01*
X112875830Y-98359368D01*
X112866651Y-98339962D01*
X112859419Y-98319750D01*
X112854203Y-98298926D01*
X112851053Y-98277691D01*
X112850000Y-98256250D01*
X112850000Y-97743750D01*
X112851053Y-97722309D01*
X112854203Y-97701074D01*
X112859419Y-97680250D01*
X112866651Y-97660038D01*
X112875830Y-97640632D01*
X112886866Y-97622219D01*
X112899654Y-97604976D01*
X112914070Y-97589070D01*
X112929976Y-97574654D01*
X112947219Y-97561866D01*
X112965632Y-97550830D01*
X112985038Y-97541651D01*
X113005250Y-97534419D01*
X113026074Y-97529203D01*
X113047309Y-97526053D01*
X113068750Y-97525000D01*
X113506250Y-97525000D01*
X113527691Y-97526053D01*
X113527691Y-97526053D01*
G37*
D17*
X113287500Y-98000000D03*
D16*
G36*
X111952691Y-97526053D02*
G01*
X111973926Y-97529203D01*
X111994750Y-97534419D01*
X112014962Y-97541651D01*
X112034368Y-97550830D01*
X112052781Y-97561866D01*
X112070024Y-97574654D01*
X112085930Y-97589070D01*
X112100346Y-97604976D01*
X112113134Y-97622219D01*
X112124170Y-97640632D01*
X112133349Y-97660038D01*
X112140581Y-97680250D01*
X112145797Y-97701074D01*
X112148947Y-97722309D01*
X112150000Y-97743750D01*
X112150000Y-98256250D01*
X112148947Y-98277691D01*
X112145797Y-98298926D01*
X112140581Y-98319750D01*
X112133349Y-98339962D01*
X112124170Y-98359368D01*
X112113134Y-98377781D01*
X112100346Y-98395024D01*
X112085930Y-98410930D01*
X112070024Y-98425346D01*
X112052781Y-98438134D01*
X112034368Y-98449170D01*
X112014962Y-98458349D01*
X111994750Y-98465581D01*
X111973926Y-98470797D01*
X111952691Y-98473947D01*
X111931250Y-98475000D01*
X111493750Y-98475000D01*
X111472309Y-98473947D01*
X111451074Y-98470797D01*
X111430250Y-98465581D01*
X111410038Y-98458349D01*
X111390632Y-98449170D01*
X111372219Y-98438134D01*
X111354976Y-98425346D01*
X111339070Y-98410930D01*
X111324654Y-98395024D01*
X111311866Y-98377781D01*
X111300830Y-98359368D01*
X111291651Y-98339962D01*
X111284419Y-98319750D01*
X111279203Y-98298926D01*
X111276053Y-98277691D01*
X111275000Y-98256250D01*
X111275000Y-97743750D01*
X111276053Y-97722309D01*
X111279203Y-97701074D01*
X111284419Y-97680250D01*
X111291651Y-97660038D01*
X111300830Y-97640632D01*
X111311866Y-97622219D01*
X111324654Y-97604976D01*
X111339070Y-97589070D01*
X111354976Y-97574654D01*
X111372219Y-97561866D01*
X111390632Y-97550830D01*
X111410038Y-97541651D01*
X111430250Y-97534419D01*
X111451074Y-97529203D01*
X111472309Y-97526053D01*
X111493750Y-97525000D01*
X111931250Y-97525000D01*
X111952691Y-97526053D01*
X111952691Y-97526053D01*
G37*
D17*
X111712500Y-98000000D03*
D16*
G36*
X111952691Y-99526053D02*
G01*
X111973926Y-99529203D01*
X111994750Y-99534419D01*
X112014962Y-99541651D01*
X112034368Y-99550830D01*
X112052781Y-99561866D01*
X112070024Y-99574654D01*
X112085930Y-99589070D01*
X112100346Y-99604976D01*
X112113134Y-99622219D01*
X112124170Y-99640632D01*
X112133349Y-99660038D01*
X112140581Y-99680250D01*
X112145797Y-99701074D01*
X112148947Y-99722309D01*
X112150000Y-99743750D01*
X112150000Y-100256250D01*
X112148947Y-100277691D01*
X112145797Y-100298926D01*
X112140581Y-100319750D01*
X112133349Y-100339962D01*
X112124170Y-100359368D01*
X112113134Y-100377781D01*
X112100346Y-100395024D01*
X112085930Y-100410930D01*
X112070024Y-100425346D01*
X112052781Y-100438134D01*
X112034368Y-100449170D01*
X112014962Y-100458349D01*
X111994750Y-100465581D01*
X111973926Y-100470797D01*
X111952691Y-100473947D01*
X111931250Y-100475000D01*
X111493750Y-100475000D01*
X111472309Y-100473947D01*
X111451074Y-100470797D01*
X111430250Y-100465581D01*
X111410038Y-100458349D01*
X111390632Y-100449170D01*
X111372219Y-100438134D01*
X111354976Y-100425346D01*
X111339070Y-100410930D01*
X111324654Y-100395024D01*
X111311866Y-100377781D01*
X111300830Y-100359368D01*
X111291651Y-100339962D01*
X111284419Y-100319750D01*
X111279203Y-100298926D01*
X111276053Y-100277691D01*
X111275000Y-100256250D01*
X111275000Y-99743750D01*
X111276053Y-99722309D01*
X111279203Y-99701074D01*
X111284419Y-99680250D01*
X111291651Y-99660038D01*
X111300830Y-99640632D01*
X111311866Y-99622219D01*
X111324654Y-99604976D01*
X111339070Y-99589070D01*
X111354976Y-99574654D01*
X111372219Y-99561866D01*
X111390632Y-99550830D01*
X111410038Y-99541651D01*
X111430250Y-99534419D01*
X111451074Y-99529203D01*
X111472309Y-99526053D01*
X111493750Y-99525000D01*
X111931250Y-99525000D01*
X111952691Y-99526053D01*
X111952691Y-99526053D01*
G37*
D17*
X111712500Y-100000000D03*
D16*
G36*
X113527691Y-99526053D02*
G01*
X113548926Y-99529203D01*
X113569750Y-99534419D01*
X113589962Y-99541651D01*
X113609368Y-99550830D01*
X113627781Y-99561866D01*
X113645024Y-99574654D01*
X113660930Y-99589070D01*
X113675346Y-99604976D01*
X113688134Y-99622219D01*
X113699170Y-99640632D01*
X113708349Y-99660038D01*
X113715581Y-99680250D01*
X113720797Y-99701074D01*
X113723947Y-99722309D01*
X113725000Y-99743750D01*
X113725000Y-100256250D01*
X113723947Y-100277691D01*
X113720797Y-100298926D01*
X113715581Y-100319750D01*
X113708349Y-100339962D01*
X113699170Y-100359368D01*
X113688134Y-100377781D01*
X113675346Y-100395024D01*
X113660930Y-100410930D01*
X113645024Y-100425346D01*
X113627781Y-100438134D01*
X113609368Y-100449170D01*
X113589962Y-100458349D01*
X113569750Y-100465581D01*
X113548926Y-100470797D01*
X113527691Y-100473947D01*
X113506250Y-100475000D01*
X113068750Y-100475000D01*
X113047309Y-100473947D01*
X113026074Y-100470797D01*
X113005250Y-100465581D01*
X112985038Y-100458349D01*
X112965632Y-100449170D01*
X112947219Y-100438134D01*
X112929976Y-100425346D01*
X112914070Y-100410930D01*
X112899654Y-100395024D01*
X112886866Y-100377781D01*
X112875830Y-100359368D01*
X112866651Y-100339962D01*
X112859419Y-100319750D01*
X112854203Y-100298926D01*
X112851053Y-100277691D01*
X112850000Y-100256250D01*
X112850000Y-99743750D01*
X112851053Y-99722309D01*
X112854203Y-99701074D01*
X112859419Y-99680250D01*
X112866651Y-99660038D01*
X112875830Y-99640632D01*
X112886866Y-99622219D01*
X112899654Y-99604976D01*
X112914070Y-99589070D01*
X112929976Y-99574654D01*
X112947219Y-99561866D01*
X112965632Y-99550830D01*
X112985038Y-99541651D01*
X113005250Y-99534419D01*
X113026074Y-99529203D01*
X113047309Y-99526053D01*
X113068750Y-99525000D01*
X113506250Y-99525000D01*
X113527691Y-99526053D01*
X113527691Y-99526053D01*
G37*
D17*
X113287500Y-100000000D03*
D16*
G36*
X113527691Y-101526053D02*
G01*
X113548926Y-101529203D01*
X113569750Y-101534419D01*
X113589962Y-101541651D01*
X113609368Y-101550830D01*
X113627781Y-101561866D01*
X113645024Y-101574654D01*
X113660930Y-101589070D01*
X113675346Y-101604976D01*
X113688134Y-101622219D01*
X113699170Y-101640632D01*
X113708349Y-101660038D01*
X113715581Y-101680250D01*
X113720797Y-101701074D01*
X113723947Y-101722309D01*
X113725000Y-101743750D01*
X113725000Y-102256250D01*
X113723947Y-102277691D01*
X113720797Y-102298926D01*
X113715581Y-102319750D01*
X113708349Y-102339962D01*
X113699170Y-102359368D01*
X113688134Y-102377781D01*
X113675346Y-102395024D01*
X113660930Y-102410930D01*
X113645024Y-102425346D01*
X113627781Y-102438134D01*
X113609368Y-102449170D01*
X113589962Y-102458349D01*
X113569750Y-102465581D01*
X113548926Y-102470797D01*
X113527691Y-102473947D01*
X113506250Y-102475000D01*
X113068750Y-102475000D01*
X113047309Y-102473947D01*
X113026074Y-102470797D01*
X113005250Y-102465581D01*
X112985038Y-102458349D01*
X112965632Y-102449170D01*
X112947219Y-102438134D01*
X112929976Y-102425346D01*
X112914070Y-102410930D01*
X112899654Y-102395024D01*
X112886866Y-102377781D01*
X112875830Y-102359368D01*
X112866651Y-102339962D01*
X112859419Y-102319750D01*
X112854203Y-102298926D01*
X112851053Y-102277691D01*
X112850000Y-102256250D01*
X112850000Y-101743750D01*
X112851053Y-101722309D01*
X112854203Y-101701074D01*
X112859419Y-101680250D01*
X112866651Y-101660038D01*
X112875830Y-101640632D01*
X112886866Y-101622219D01*
X112899654Y-101604976D01*
X112914070Y-101589070D01*
X112929976Y-101574654D01*
X112947219Y-101561866D01*
X112965632Y-101550830D01*
X112985038Y-101541651D01*
X113005250Y-101534419D01*
X113026074Y-101529203D01*
X113047309Y-101526053D01*
X113068750Y-101525000D01*
X113506250Y-101525000D01*
X113527691Y-101526053D01*
X113527691Y-101526053D01*
G37*
D17*
X113287500Y-102000000D03*
D16*
G36*
X111952691Y-101526053D02*
G01*
X111973926Y-101529203D01*
X111994750Y-101534419D01*
X112014962Y-101541651D01*
X112034368Y-101550830D01*
X112052781Y-101561866D01*
X112070024Y-101574654D01*
X112085930Y-101589070D01*
X112100346Y-101604976D01*
X112113134Y-101622219D01*
X112124170Y-101640632D01*
X112133349Y-101660038D01*
X112140581Y-101680250D01*
X112145797Y-101701074D01*
X112148947Y-101722309D01*
X112150000Y-101743750D01*
X112150000Y-102256250D01*
X112148947Y-102277691D01*
X112145797Y-102298926D01*
X112140581Y-102319750D01*
X112133349Y-102339962D01*
X112124170Y-102359368D01*
X112113134Y-102377781D01*
X112100346Y-102395024D01*
X112085930Y-102410930D01*
X112070024Y-102425346D01*
X112052781Y-102438134D01*
X112034368Y-102449170D01*
X112014962Y-102458349D01*
X111994750Y-102465581D01*
X111973926Y-102470797D01*
X111952691Y-102473947D01*
X111931250Y-102475000D01*
X111493750Y-102475000D01*
X111472309Y-102473947D01*
X111451074Y-102470797D01*
X111430250Y-102465581D01*
X111410038Y-102458349D01*
X111390632Y-102449170D01*
X111372219Y-102438134D01*
X111354976Y-102425346D01*
X111339070Y-102410930D01*
X111324654Y-102395024D01*
X111311866Y-102377781D01*
X111300830Y-102359368D01*
X111291651Y-102339962D01*
X111284419Y-102319750D01*
X111279203Y-102298926D01*
X111276053Y-102277691D01*
X111275000Y-102256250D01*
X111275000Y-101743750D01*
X111276053Y-101722309D01*
X111279203Y-101701074D01*
X111284419Y-101680250D01*
X111291651Y-101660038D01*
X111300830Y-101640632D01*
X111311866Y-101622219D01*
X111324654Y-101604976D01*
X111339070Y-101589070D01*
X111354976Y-101574654D01*
X111372219Y-101561866D01*
X111390632Y-101550830D01*
X111410038Y-101541651D01*
X111430250Y-101534419D01*
X111451074Y-101529203D01*
X111472309Y-101526053D01*
X111493750Y-101525000D01*
X111931250Y-101525000D01*
X111952691Y-101526053D01*
X111952691Y-101526053D01*
G37*
D17*
X111712500Y-102000000D03*
D16*
G36*
X111952691Y-103526053D02*
G01*
X111973926Y-103529203D01*
X111994750Y-103534419D01*
X112014962Y-103541651D01*
X112034368Y-103550830D01*
X112052781Y-103561866D01*
X112070024Y-103574654D01*
X112085930Y-103589070D01*
X112100346Y-103604976D01*
X112113134Y-103622219D01*
X112124170Y-103640632D01*
X112133349Y-103660038D01*
X112140581Y-103680250D01*
X112145797Y-103701074D01*
X112148947Y-103722309D01*
X112150000Y-103743750D01*
X112150000Y-104256250D01*
X112148947Y-104277691D01*
X112145797Y-104298926D01*
X112140581Y-104319750D01*
X112133349Y-104339962D01*
X112124170Y-104359368D01*
X112113134Y-104377781D01*
X112100346Y-104395024D01*
X112085930Y-104410930D01*
X112070024Y-104425346D01*
X112052781Y-104438134D01*
X112034368Y-104449170D01*
X112014962Y-104458349D01*
X111994750Y-104465581D01*
X111973926Y-104470797D01*
X111952691Y-104473947D01*
X111931250Y-104475000D01*
X111493750Y-104475000D01*
X111472309Y-104473947D01*
X111451074Y-104470797D01*
X111430250Y-104465581D01*
X111410038Y-104458349D01*
X111390632Y-104449170D01*
X111372219Y-104438134D01*
X111354976Y-104425346D01*
X111339070Y-104410930D01*
X111324654Y-104395024D01*
X111311866Y-104377781D01*
X111300830Y-104359368D01*
X111291651Y-104339962D01*
X111284419Y-104319750D01*
X111279203Y-104298926D01*
X111276053Y-104277691D01*
X111275000Y-104256250D01*
X111275000Y-103743750D01*
X111276053Y-103722309D01*
X111279203Y-103701074D01*
X111284419Y-103680250D01*
X111291651Y-103660038D01*
X111300830Y-103640632D01*
X111311866Y-103622219D01*
X111324654Y-103604976D01*
X111339070Y-103589070D01*
X111354976Y-103574654D01*
X111372219Y-103561866D01*
X111390632Y-103550830D01*
X111410038Y-103541651D01*
X111430250Y-103534419D01*
X111451074Y-103529203D01*
X111472309Y-103526053D01*
X111493750Y-103525000D01*
X111931250Y-103525000D01*
X111952691Y-103526053D01*
X111952691Y-103526053D01*
G37*
D17*
X111712500Y-104000000D03*
D16*
G36*
X113527691Y-103526053D02*
G01*
X113548926Y-103529203D01*
X113569750Y-103534419D01*
X113589962Y-103541651D01*
X113609368Y-103550830D01*
X113627781Y-103561866D01*
X113645024Y-103574654D01*
X113660930Y-103589070D01*
X113675346Y-103604976D01*
X113688134Y-103622219D01*
X113699170Y-103640632D01*
X113708349Y-103660038D01*
X113715581Y-103680250D01*
X113720797Y-103701074D01*
X113723947Y-103722309D01*
X113725000Y-103743750D01*
X113725000Y-104256250D01*
X113723947Y-104277691D01*
X113720797Y-104298926D01*
X113715581Y-104319750D01*
X113708349Y-104339962D01*
X113699170Y-104359368D01*
X113688134Y-104377781D01*
X113675346Y-104395024D01*
X113660930Y-104410930D01*
X113645024Y-104425346D01*
X113627781Y-104438134D01*
X113609368Y-104449170D01*
X113589962Y-104458349D01*
X113569750Y-104465581D01*
X113548926Y-104470797D01*
X113527691Y-104473947D01*
X113506250Y-104475000D01*
X113068750Y-104475000D01*
X113047309Y-104473947D01*
X113026074Y-104470797D01*
X113005250Y-104465581D01*
X112985038Y-104458349D01*
X112965632Y-104449170D01*
X112947219Y-104438134D01*
X112929976Y-104425346D01*
X112914070Y-104410930D01*
X112899654Y-104395024D01*
X112886866Y-104377781D01*
X112875830Y-104359368D01*
X112866651Y-104339962D01*
X112859419Y-104319750D01*
X112854203Y-104298926D01*
X112851053Y-104277691D01*
X112850000Y-104256250D01*
X112850000Y-103743750D01*
X112851053Y-103722309D01*
X112854203Y-103701074D01*
X112859419Y-103680250D01*
X112866651Y-103660038D01*
X112875830Y-103640632D01*
X112886866Y-103622219D01*
X112899654Y-103604976D01*
X112914070Y-103589070D01*
X112929976Y-103574654D01*
X112947219Y-103561866D01*
X112965632Y-103550830D01*
X112985038Y-103541651D01*
X113005250Y-103534419D01*
X113026074Y-103529203D01*
X113047309Y-103526053D01*
X113068750Y-103525000D01*
X113506250Y-103525000D01*
X113527691Y-103526053D01*
X113527691Y-103526053D01*
G37*
D17*
X113287500Y-104000000D03*
D16*
G36*
X89027691Y-113026053D02*
G01*
X89048926Y-113029203D01*
X89069750Y-113034419D01*
X89089962Y-113041651D01*
X89109368Y-113050830D01*
X89127781Y-113061866D01*
X89145024Y-113074654D01*
X89160930Y-113089070D01*
X89175346Y-113104976D01*
X89188134Y-113122219D01*
X89199170Y-113140632D01*
X89208349Y-113160038D01*
X89215581Y-113180250D01*
X89220797Y-113201074D01*
X89223947Y-113222309D01*
X89225000Y-113243750D01*
X89225000Y-113681250D01*
X89223947Y-113702691D01*
X89220797Y-113723926D01*
X89215581Y-113744750D01*
X89208349Y-113764962D01*
X89199170Y-113784368D01*
X89188134Y-113802781D01*
X89175346Y-113820024D01*
X89160930Y-113835930D01*
X89145024Y-113850346D01*
X89127781Y-113863134D01*
X89109368Y-113874170D01*
X89089962Y-113883349D01*
X89069750Y-113890581D01*
X89048926Y-113895797D01*
X89027691Y-113898947D01*
X89006250Y-113900000D01*
X88493750Y-113900000D01*
X88472309Y-113898947D01*
X88451074Y-113895797D01*
X88430250Y-113890581D01*
X88410038Y-113883349D01*
X88390632Y-113874170D01*
X88372219Y-113863134D01*
X88354976Y-113850346D01*
X88339070Y-113835930D01*
X88324654Y-113820024D01*
X88311866Y-113802781D01*
X88300830Y-113784368D01*
X88291651Y-113764962D01*
X88284419Y-113744750D01*
X88279203Y-113723926D01*
X88276053Y-113702691D01*
X88275000Y-113681250D01*
X88275000Y-113243750D01*
X88276053Y-113222309D01*
X88279203Y-113201074D01*
X88284419Y-113180250D01*
X88291651Y-113160038D01*
X88300830Y-113140632D01*
X88311866Y-113122219D01*
X88324654Y-113104976D01*
X88339070Y-113089070D01*
X88354976Y-113074654D01*
X88372219Y-113061866D01*
X88390632Y-113050830D01*
X88410038Y-113041651D01*
X88430250Y-113034419D01*
X88451074Y-113029203D01*
X88472309Y-113026053D01*
X88493750Y-113025000D01*
X89006250Y-113025000D01*
X89027691Y-113026053D01*
X89027691Y-113026053D01*
G37*
D17*
X88750000Y-113462500D03*
D16*
G36*
X89027691Y-114601053D02*
G01*
X89048926Y-114604203D01*
X89069750Y-114609419D01*
X89089962Y-114616651D01*
X89109368Y-114625830D01*
X89127781Y-114636866D01*
X89145024Y-114649654D01*
X89160930Y-114664070D01*
X89175346Y-114679976D01*
X89188134Y-114697219D01*
X89199170Y-114715632D01*
X89208349Y-114735038D01*
X89215581Y-114755250D01*
X89220797Y-114776074D01*
X89223947Y-114797309D01*
X89225000Y-114818750D01*
X89225000Y-115256250D01*
X89223947Y-115277691D01*
X89220797Y-115298926D01*
X89215581Y-115319750D01*
X89208349Y-115339962D01*
X89199170Y-115359368D01*
X89188134Y-115377781D01*
X89175346Y-115395024D01*
X89160930Y-115410930D01*
X89145024Y-115425346D01*
X89127781Y-115438134D01*
X89109368Y-115449170D01*
X89089962Y-115458349D01*
X89069750Y-115465581D01*
X89048926Y-115470797D01*
X89027691Y-115473947D01*
X89006250Y-115475000D01*
X88493750Y-115475000D01*
X88472309Y-115473947D01*
X88451074Y-115470797D01*
X88430250Y-115465581D01*
X88410038Y-115458349D01*
X88390632Y-115449170D01*
X88372219Y-115438134D01*
X88354976Y-115425346D01*
X88339070Y-115410930D01*
X88324654Y-115395024D01*
X88311866Y-115377781D01*
X88300830Y-115359368D01*
X88291651Y-115339962D01*
X88284419Y-115319750D01*
X88279203Y-115298926D01*
X88276053Y-115277691D01*
X88275000Y-115256250D01*
X88275000Y-114818750D01*
X88276053Y-114797309D01*
X88279203Y-114776074D01*
X88284419Y-114755250D01*
X88291651Y-114735038D01*
X88300830Y-114715632D01*
X88311866Y-114697219D01*
X88324654Y-114679976D01*
X88339070Y-114664070D01*
X88354976Y-114649654D01*
X88372219Y-114636866D01*
X88390632Y-114625830D01*
X88410038Y-114616651D01*
X88430250Y-114609419D01*
X88451074Y-114604203D01*
X88472309Y-114601053D01*
X88493750Y-114600000D01*
X89006250Y-114600000D01*
X89027691Y-114601053D01*
X89027691Y-114601053D01*
G37*
D17*
X88750000Y-115037500D03*
D16*
G36*
X87027691Y-114601053D02*
G01*
X87048926Y-114604203D01*
X87069750Y-114609419D01*
X87089962Y-114616651D01*
X87109368Y-114625830D01*
X87127781Y-114636866D01*
X87145024Y-114649654D01*
X87160930Y-114664070D01*
X87175346Y-114679976D01*
X87188134Y-114697219D01*
X87199170Y-114715632D01*
X87208349Y-114735038D01*
X87215581Y-114755250D01*
X87220797Y-114776074D01*
X87223947Y-114797309D01*
X87225000Y-114818750D01*
X87225000Y-115256250D01*
X87223947Y-115277691D01*
X87220797Y-115298926D01*
X87215581Y-115319750D01*
X87208349Y-115339962D01*
X87199170Y-115359368D01*
X87188134Y-115377781D01*
X87175346Y-115395024D01*
X87160930Y-115410930D01*
X87145024Y-115425346D01*
X87127781Y-115438134D01*
X87109368Y-115449170D01*
X87089962Y-115458349D01*
X87069750Y-115465581D01*
X87048926Y-115470797D01*
X87027691Y-115473947D01*
X87006250Y-115475000D01*
X86493750Y-115475000D01*
X86472309Y-115473947D01*
X86451074Y-115470797D01*
X86430250Y-115465581D01*
X86410038Y-115458349D01*
X86390632Y-115449170D01*
X86372219Y-115438134D01*
X86354976Y-115425346D01*
X86339070Y-115410930D01*
X86324654Y-115395024D01*
X86311866Y-115377781D01*
X86300830Y-115359368D01*
X86291651Y-115339962D01*
X86284419Y-115319750D01*
X86279203Y-115298926D01*
X86276053Y-115277691D01*
X86275000Y-115256250D01*
X86275000Y-114818750D01*
X86276053Y-114797309D01*
X86279203Y-114776074D01*
X86284419Y-114755250D01*
X86291651Y-114735038D01*
X86300830Y-114715632D01*
X86311866Y-114697219D01*
X86324654Y-114679976D01*
X86339070Y-114664070D01*
X86354976Y-114649654D01*
X86372219Y-114636866D01*
X86390632Y-114625830D01*
X86410038Y-114616651D01*
X86430250Y-114609419D01*
X86451074Y-114604203D01*
X86472309Y-114601053D01*
X86493750Y-114600000D01*
X87006250Y-114600000D01*
X87027691Y-114601053D01*
X87027691Y-114601053D01*
G37*
D17*
X86750000Y-115037500D03*
D16*
G36*
X87027691Y-113026053D02*
G01*
X87048926Y-113029203D01*
X87069750Y-113034419D01*
X87089962Y-113041651D01*
X87109368Y-113050830D01*
X87127781Y-113061866D01*
X87145024Y-113074654D01*
X87160930Y-113089070D01*
X87175346Y-113104976D01*
X87188134Y-113122219D01*
X87199170Y-113140632D01*
X87208349Y-113160038D01*
X87215581Y-113180250D01*
X87220797Y-113201074D01*
X87223947Y-113222309D01*
X87225000Y-113243750D01*
X87225000Y-113681250D01*
X87223947Y-113702691D01*
X87220797Y-113723926D01*
X87215581Y-113744750D01*
X87208349Y-113764962D01*
X87199170Y-113784368D01*
X87188134Y-113802781D01*
X87175346Y-113820024D01*
X87160930Y-113835930D01*
X87145024Y-113850346D01*
X87127781Y-113863134D01*
X87109368Y-113874170D01*
X87089962Y-113883349D01*
X87069750Y-113890581D01*
X87048926Y-113895797D01*
X87027691Y-113898947D01*
X87006250Y-113900000D01*
X86493750Y-113900000D01*
X86472309Y-113898947D01*
X86451074Y-113895797D01*
X86430250Y-113890581D01*
X86410038Y-113883349D01*
X86390632Y-113874170D01*
X86372219Y-113863134D01*
X86354976Y-113850346D01*
X86339070Y-113835930D01*
X86324654Y-113820024D01*
X86311866Y-113802781D01*
X86300830Y-113784368D01*
X86291651Y-113764962D01*
X86284419Y-113744750D01*
X86279203Y-113723926D01*
X86276053Y-113702691D01*
X86275000Y-113681250D01*
X86275000Y-113243750D01*
X86276053Y-113222309D01*
X86279203Y-113201074D01*
X86284419Y-113180250D01*
X86291651Y-113160038D01*
X86300830Y-113140632D01*
X86311866Y-113122219D01*
X86324654Y-113104976D01*
X86339070Y-113089070D01*
X86354976Y-113074654D01*
X86372219Y-113061866D01*
X86390632Y-113050830D01*
X86410038Y-113041651D01*
X86430250Y-113034419D01*
X86451074Y-113029203D01*
X86472309Y-113026053D01*
X86493750Y-113025000D01*
X87006250Y-113025000D01*
X87027691Y-113026053D01*
X87027691Y-113026053D01*
G37*
D17*
X86750000Y-113462500D03*
D16*
G36*
X111952691Y-92276053D02*
G01*
X111973926Y-92279203D01*
X111994750Y-92284419D01*
X112014962Y-92291651D01*
X112034368Y-92300830D01*
X112052781Y-92311866D01*
X112070024Y-92324654D01*
X112085930Y-92339070D01*
X112100346Y-92354976D01*
X112113134Y-92372219D01*
X112124170Y-92390632D01*
X112133349Y-92410038D01*
X112140581Y-92430250D01*
X112145797Y-92451074D01*
X112148947Y-92472309D01*
X112150000Y-92493750D01*
X112150000Y-93006250D01*
X112148947Y-93027691D01*
X112145797Y-93048926D01*
X112140581Y-93069750D01*
X112133349Y-93089962D01*
X112124170Y-93109368D01*
X112113134Y-93127781D01*
X112100346Y-93145024D01*
X112085930Y-93160930D01*
X112070024Y-93175346D01*
X112052781Y-93188134D01*
X112034368Y-93199170D01*
X112014962Y-93208349D01*
X111994750Y-93215581D01*
X111973926Y-93220797D01*
X111952691Y-93223947D01*
X111931250Y-93225000D01*
X111493750Y-93225000D01*
X111472309Y-93223947D01*
X111451074Y-93220797D01*
X111430250Y-93215581D01*
X111410038Y-93208349D01*
X111390632Y-93199170D01*
X111372219Y-93188134D01*
X111354976Y-93175346D01*
X111339070Y-93160930D01*
X111324654Y-93145024D01*
X111311866Y-93127781D01*
X111300830Y-93109368D01*
X111291651Y-93089962D01*
X111284419Y-93069750D01*
X111279203Y-93048926D01*
X111276053Y-93027691D01*
X111275000Y-93006250D01*
X111275000Y-92493750D01*
X111276053Y-92472309D01*
X111279203Y-92451074D01*
X111284419Y-92430250D01*
X111291651Y-92410038D01*
X111300830Y-92390632D01*
X111311866Y-92372219D01*
X111324654Y-92354976D01*
X111339070Y-92339070D01*
X111354976Y-92324654D01*
X111372219Y-92311866D01*
X111390632Y-92300830D01*
X111410038Y-92291651D01*
X111430250Y-92284419D01*
X111451074Y-92279203D01*
X111472309Y-92276053D01*
X111493750Y-92275000D01*
X111931250Y-92275000D01*
X111952691Y-92276053D01*
X111952691Y-92276053D01*
G37*
D17*
X111712500Y-92750000D03*
D16*
G36*
X113527691Y-92276053D02*
G01*
X113548926Y-92279203D01*
X113569750Y-92284419D01*
X113589962Y-92291651D01*
X113609368Y-92300830D01*
X113627781Y-92311866D01*
X113645024Y-92324654D01*
X113660930Y-92339070D01*
X113675346Y-92354976D01*
X113688134Y-92372219D01*
X113699170Y-92390632D01*
X113708349Y-92410038D01*
X113715581Y-92430250D01*
X113720797Y-92451074D01*
X113723947Y-92472309D01*
X113725000Y-92493750D01*
X113725000Y-93006250D01*
X113723947Y-93027691D01*
X113720797Y-93048926D01*
X113715581Y-93069750D01*
X113708349Y-93089962D01*
X113699170Y-93109368D01*
X113688134Y-93127781D01*
X113675346Y-93145024D01*
X113660930Y-93160930D01*
X113645024Y-93175346D01*
X113627781Y-93188134D01*
X113609368Y-93199170D01*
X113589962Y-93208349D01*
X113569750Y-93215581D01*
X113548926Y-93220797D01*
X113527691Y-93223947D01*
X113506250Y-93225000D01*
X113068750Y-93225000D01*
X113047309Y-93223947D01*
X113026074Y-93220797D01*
X113005250Y-93215581D01*
X112985038Y-93208349D01*
X112965632Y-93199170D01*
X112947219Y-93188134D01*
X112929976Y-93175346D01*
X112914070Y-93160930D01*
X112899654Y-93145024D01*
X112886866Y-93127781D01*
X112875830Y-93109368D01*
X112866651Y-93089962D01*
X112859419Y-93069750D01*
X112854203Y-93048926D01*
X112851053Y-93027691D01*
X112850000Y-93006250D01*
X112850000Y-92493750D01*
X112851053Y-92472309D01*
X112854203Y-92451074D01*
X112859419Y-92430250D01*
X112866651Y-92410038D01*
X112875830Y-92390632D01*
X112886866Y-92372219D01*
X112899654Y-92354976D01*
X112914070Y-92339070D01*
X112929976Y-92324654D01*
X112947219Y-92311866D01*
X112965632Y-92300830D01*
X112985038Y-92291651D01*
X113005250Y-92284419D01*
X113026074Y-92279203D01*
X113047309Y-92276053D01*
X113068750Y-92275000D01*
X113506250Y-92275000D01*
X113527691Y-92276053D01*
X113527691Y-92276053D01*
G37*
D17*
X113287500Y-92750000D03*
D16*
G36*
X113527691Y-94276053D02*
G01*
X113548926Y-94279203D01*
X113569750Y-94284419D01*
X113589962Y-94291651D01*
X113609368Y-94300830D01*
X113627781Y-94311866D01*
X113645024Y-94324654D01*
X113660930Y-94339070D01*
X113675346Y-94354976D01*
X113688134Y-94372219D01*
X113699170Y-94390632D01*
X113708349Y-94410038D01*
X113715581Y-94430250D01*
X113720797Y-94451074D01*
X113723947Y-94472309D01*
X113725000Y-94493750D01*
X113725000Y-95006250D01*
X113723947Y-95027691D01*
X113720797Y-95048926D01*
X113715581Y-95069750D01*
X113708349Y-95089962D01*
X113699170Y-95109368D01*
X113688134Y-95127781D01*
X113675346Y-95145024D01*
X113660930Y-95160930D01*
X113645024Y-95175346D01*
X113627781Y-95188134D01*
X113609368Y-95199170D01*
X113589962Y-95208349D01*
X113569750Y-95215581D01*
X113548926Y-95220797D01*
X113527691Y-95223947D01*
X113506250Y-95225000D01*
X113068750Y-95225000D01*
X113047309Y-95223947D01*
X113026074Y-95220797D01*
X113005250Y-95215581D01*
X112985038Y-95208349D01*
X112965632Y-95199170D01*
X112947219Y-95188134D01*
X112929976Y-95175346D01*
X112914070Y-95160930D01*
X112899654Y-95145024D01*
X112886866Y-95127781D01*
X112875830Y-95109368D01*
X112866651Y-95089962D01*
X112859419Y-95069750D01*
X112854203Y-95048926D01*
X112851053Y-95027691D01*
X112850000Y-95006250D01*
X112850000Y-94493750D01*
X112851053Y-94472309D01*
X112854203Y-94451074D01*
X112859419Y-94430250D01*
X112866651Y-94410038D01*
X112875830Y-94390632D01*
X112886866Y-94372219D01*
X112899654Y-94354976D01*
X112914070Y-94339070D01*
X112929976Y-94324654D01*
X112947219Y-94311866D01*
X112965632Y-94300830D01*
X112985038Y-94291651D01*
X113005250Y-94284419D01*
X113026074Y-94279203D01*
X113047309Y-94276053D01*
X113068750Y-94275000D01*
X113506250Y-94275000D01*
X113527691Y-94276053D01*
X113527691Y-94276053D01*
G37*
D17*
X113287500Y-94750000D03*
D16*
G36*
X111952691Y-94276053D02*
G01*
X111973926Y-94279203D01*
X111994750Y-94284419D01*
X112014962Y-94291651D01*
X112034368Y-94300830D01*
X112052781Y-94311866D01*
X112070024Y-94324654D01*
X112085930Y-94339070D01*
X112100346Y-94354976D01*
X112113134Y-94372219D01*
X112124170Y-94390632D01*
X112133349Y-94410038D01*
X112140581Y-94430250D01*
X112145797Y-94451074D01*
X112148947Y-94472309D01*
X112150000Y-94493750D01*
X112150000Y-95006250D01*
X112148947Y-95027691D01*
X112145797Y-95048926D01*
X112140581Y-95069750D01*
X112133349Y-95089962D01*
X112124170Y-95109368D01*
X112113134Y-95127781D01*
X112100346Y-95145024D01*
X112085930Y-95160930D01*
X112070024Y-95175346D01*
X112052781Y-95188134D01*
X112034368Y-95199170D01*
X112014962Y-95208349D01*
X111994750Y-95215581D01*
X111973926Y-95220797D01*
X111952691Y-95223947D01*
X111931250Y-95225000D01*
X111493750Y-95225000D01*
X111472309Y-95223947D01*
X111451074Y-95220797D01*
X111430250Y-95215581D01*
X111410038Y-95208349D01*
X111390632Y-95199170D01*
X111372219Y-95188134D01*
X111354976Y-95175346D01*
X111339070Y-95160930D01*
X111324654Y-95145024D01*
X111311866Y-95127781D01*
X111300830Y-95109368D01*
X111291651Y-95089962D01*
X111284419Y-95069750D01*
X111279203Y-95048926D01*
X111276053Y-95027691D01*
X111275000Y-95006250D01*
X111275000Y-94493750D01*
X111276053Y-94472309D01*
X111279203Y-94451074D01*
X111284419Y-94430250D01*
X111291651Y-94410038D01*
X111300830Y-94390632D01*
X111311866Y-94372219D01*
X111324654Y-94354976D01*
X111339070Y-94339070D01*
X111354976Y-94324654D01*
X111372219Y-94311866D01*
X111390632Y-94300830D01*
X111410038Y-94291651D01*
X111430250Y-94284419D01*
X111451074Y-94279203D01*
X111472309Y-94276053D01*
X111493750Y-94275000D01*
X111931250Y-94275000D01*
X111952691Y-94276053D01*
X111952691Y-94276053D01*
G37*
D17*
X111712500Y-94750000D03*
D16*
G36*
X111952691Y-87026053D02*
G01*
X111973926Y-87029203D01*
X111994750Y-87034419D01*
X112014962Y-87041651D01*
X112034368Y-87050830D01*
X112052781Y-87061866D01*
X112070024Y-87074654D01*
X112085930Y-87089070D01*
X112100346Y-87104976D01*
X112113134Y-87122219D01*
X112124170Y-87140632D01*
X112133349Y-87160038D01*
X112140581Y-87180250D01*
X112145797Y-87201074D01*
X112148947Y-87222309D01*
X112150000Y-87243750D01*
X112150000Y-87756250D01*
X112148947Y-87777691D01*
X112145797Y-87798926D01*
X112140581Y-87819750D01*
X112133349Y-87839962D01*
X112124170Y-87859368D01*
X112113134Y-87877781D01*
X112100346Y-87895024D01*
X112085930Y-87910930D01*
X112070024Y-87925346D01*
X112052781Y-87938134D01*
X112034368Y-87949170D01*
X112014962Y-87958349D01*
X111994750Y-87965581D01*
X111973926Y-87970797D01*
X111952691Y-87973947D01*
X111931250Y-87975000D01*
X111493750Y-87975000D01*
X111472309Y-87973947D01*
X111451074Y-87970797D01*
X111430250Y-87965581D01*
X111410038Y-87958349D01*
X111390632Y-87949170D01*
X111372219Y-87938134D01*
X111354976Y-87925346D01*
X111339070Y-87910930D01*
X111324654Y-87895024D01*
X111311866Y-87877781D01*
X111300830Y-87859368D01*
X111291651Y-87839962D01*
X111284419Y-87819750D01*
X111279203Y-87798926D01*
X111276053Y-87777691D01*
X111275000Y-87756250D01*
X111275000Y-87243750D01*
X111276053Y-87222309D01*
X111279203Y-87201074D01*
X111284419Y-87180250D01*
X111291651Y-87160038D01*
X111300830Y-87140632D01*
X111311866Y-87122219D01*
X111324654Y-87104976D01*
X111339070Y-87089070D01*
X111354976Y-87074654D01*
X111372219Y-87061866D01*
X111390632Y-87050830D01*
X111410038Y-87041651D01*
X111430250Y-87034419D01*
X111451074Y-87029203D01*
X111472309Y-87026053D01*
X111493750Y-87025000D01*
X111931250Y-87025000D01*
X111952691Y-87026053D01*
X111952691Y-87026053D01*
G37*
D17*
X111712500Y-87500000D03*
D16*
G36*
X113527691Y-87026053D02*
G01*
X113548926Y-87029203D01*
X113569750Y-87034419D01*
X113589962Y-87041651D01*
X113609368Y-87050830D01*
X113627781Y-87061866D01*
X113645024Y-87074654D01*
X113660930Y-87089070D01*
X113675346Y-87104976D01*
X113688134Y-87122219D01*
X113699170Y-87140632D01*
X113708349Y-87160038D01*
X113715581Y-87180250D01*
X113720797Y-87201074D01*
X113723947Y-87222309D01*
X113725000Y-87243750D01*
X113725000Y-87756250D01*
X113723947Y-87777691D01*
X113720797Y-87798926D01*
X113715581Y-87819750D01*
X113708349Y-87839962D01*
X113699170Y-87859368D01*
X113688134Y-87877781D01*
X113675346Y-87895024D01*
X113660930Y-87910930D01*
X113645024Y-87925346D01*
X113627781Y-87938134D01*
X113609368Y-87949170D01*
X113589962Y-87958349D01*
X113569750Y-87965581D01*
X113548926Y-87970797D01*
X113527691Y-87973947D01*
X113506250Y-87975000D01*
X113068750Y-87975000D01*
X113047309Y-87973947D01*
X113026074Y-87970797D01*
X113005250Y-87965581D01*
X112985038Y-87958349D01*
X112965632Y-87949170D01*
X112947219Y-87938134D01*
X112929976Y-87925346D01*
X112914070Y-87910930D01*
X112899654Y-87895024D01*
X112886866Y-87877781D01*
X112875830Y-87859368D01*
X112866651Y-87839962D01*
X112859419Y-87819750D01*
X112854203Y-87798926D01*
X112851053Y-87777691D01*
X112850000Y-87756250D01*
X112850000Y-87243750D01*
X112851053Y-87222309D01*
X112854203Y-87201074D01*
X112859419Y-87180250D01*
X112866651Y-87160038D01*
X112875830Y-87140632D01*
X112886866Y-87122219D01*
X112899654Y-87104976D01*
X112914070Y-87089070D01*
X112929976Y-87074654D01*
X112947219Y-87061866D01*
X112965632Y-87050830D01*
X112985038Y-87041651D01*
X113005250Y-87034419D01*
X113026074Y-87029203D01*
X113047309Y-87026053D01*
X113068750Y-87025000D01*
X113506250Y-87025000D01*
X113527691Y-87026053D01*
X113527691Y-87026053D01*
G37*
D17*
X113287500Y-87500000D03*
D16*
G36*
X113527691Y-89026053D02*
G01*
X113548926Y-89029203D01*
X113569750Y-89034419D01*
X113589962Y-89041651D01*
X113609368Y-89050830D01*
X113627781Y-89061866D01*
X113645024Y-89074654D01*
X113660930Y-89089070D01*
X113675346Y-89104976D01*
X113688134Y-89122219D01*
X113699170Y-89140632D01*
X113708349Y-89160038D01*
X113715581Y-89180250D01*
X113720797Y-89201074D01*
X113723947Y-89222309D01*
X113725000Y-89243750D01*
X113725000Y-89756250D01*
X113723947Y-89777691D01*
X113720797Y-89798926D01*
X113715581Y-89819750D01*
X113708349Y-89839962D01*
X113699170Y-89859368D01*
X113688134Y-89877781D01*
X113675346Y-89895024D01*
X113660930Y-89910930D01*
X113645024Y-89925346D01*
X113627781Y-89938134D01*
X113609368Y-89949170D01*
X113589962Y-89958349D01*
X113569750Y-89965581D01*
X113548926Y-89970797D01*
X113527691Y-89973947D01*
X113506250Y-89975000D01*
X113068750Y-89975000D01*
X113047309Y-89973947D01*
X113026074Y-89970797D01*
X113005250Y-89965581D01*
X112985038Y-89958349D01*
X112965632Y-89949170D01*
X112947219Y-89938134D01*
X112929976Y-89925346D01*
X112914070Y-89910930D01*
X112899654Y-89895024D01*
X112886866Y-89877781D01*
X112875830Y-89859368D01*
X112866651Y-89839962D01*
X112859419Y-89819750D01*
X112854203Y-89798926D01*
X112851053Y-89777691D01*
X112850000Y-89756250D01*
X112850000Y-89243750D01*
X112851053Y-89222309D01*
X112854203Y-89201074D01*
X112859419Y-89180250D01*
X112866651Y-89160038D01*
X112875830Y-89140632D01*
X112886866Y-89122219D01*
X112899654Y-89104976D01*
X112914070Y-89089070D01*
X112929976Y-89074654D01*
X112947219Y-89061866D01*
X112965632Y-89050830D01*
X112985038Y-89041651D01*
X113005250Y-89034419D01*
X113026074Y-89029203D01*
X113047309Y-89026053D01*
X113068750Y-89025000D01*
X113506250Y-89025000D01*
X113527691Y-89026053D01*
X113527691Y-89026053D01*
G37*
D17*
X113287500Y-89500000D03*
D16*
G36*
X111952691Y-89026053D02*
G01*
X111973926Y-89029203D01*
X111994750Y-89034419D01*
X112014962Y-89041651D01*
X112034368Y-89050830D01*
X112052781Y-89061866D01*
X112070024Y-89074654D01*
X112085930Y-89089070D01*
X112100346Y-89104976D01*
X112113134Y-89122219D01*
X112124170Y-89140632D01*
X112133349Y-89160038D01*
X112140581Y-89180250D01*
X112145797Y-89201074D01*
X112148947Y-89222309D01*
X112150000Y-89243750D01*
X112150000Y-89756250D01*
X112148947Y-89777691D01*
X112145797Y-89798926D01*
X112140581Y-89819750D01*
X112133349Y-89839962D01*
X112124170Y-89859368D01*
X112113134Y-89877781D01*
X112100346Y-89895024D01*
X112085930Y-89910930D01*
X112070024Y-89925346D01*
X112052781Y-89938134D01*
X112034368Y-89949170D01*
X112014962Y-89958349D01*
X111994750Y-89965581D01*
X111973926Y-89970797D01*
X111952691Y-89973947D01*
X111931250Y-89975000D01*
X111493750Y-89975000D01*
X111472309Y-89973947D01*
X111451074Y-89970797D01*
X111430250Y-89965581D01*
X111410038Y-89958349D01*
X111390632Y-89949170D01*
X111372219Y-89938134D01*
X111354976Y-89925346D01*
X111339070Y-89910930D01*
X111324654Y-89895024D01*
X111311866Y-89877781D01*
X111300830Y-89859368D01*
X111291651Y-89839962D01*
X111284419Y-89819750D01*
X111279203Y-89798926D01*
X111276053Y-89777691D01*
X111275000Y-89756250D01*
X111275000Y-89243750D01*
X111276053Y-89222309D01*
X111279203Y-89201074D01*
X111284419Y-89180250D01*
X111291651Y-89160038D01*
X111300830Y-89140632D01*
X111311866Y-89122219D01*
X111324654Y-89104976D01*
X111339070Y-89089070D01*
X111354976Y-89074654D01*
X111372219Y-89061866D01*
X111390632Y-89050830D01*
X111410038Y-89041651D01*
X111430250Y-89034419D01*
X111451074Y-89029203D01*
X111472309Y-89026053D01*
X111493750Y-89025000D01*
X111931250Y-89025000D01*
X111952691Y-89026053D01*
X111952691Y-89026053D01*
G37*
D17*
X111712500Y-89500000D03*
D23*
X94845000Y-96307500D02*
X94787500Y-96250000D01*
D24*
X94845000Y-99050000D02*
X94845000Y-96307500D01*
X94845000Y-99050000D02*
X94845000Y-100050000D01*
X90287500Y-98750000D02*
X90287500Y-99787500D01*
X90947500Y-100447500D02*
X94447500Y-100447500D01*
X90287500Y-99787500D02*
X90947500Y-100447500D01*
X94845000Y-100050000D02*
X94447500Y-100447500D01*
X94787500Y-96250000D02*
X94787500Y-93537500D01*
X82750000Y-81500000D02*
X79000000Y-81500000D01*
X94787500Y-93537500D02*
X82750000Y-81500000D01*
X76000000Y-113020000D02*
X77655000Y-114675000D01*
X76000000Y-83400000D02*
X76000000Y-113020000D01*
X77900000Y-81500000D02*
X76000000Y-83400000D01*
X79000000Y-81500000D02*
X77900000Y-81500000D01*
X76550000Y-116450000D02*
X76550000Y-117250000D01*
X76550000Y-115780000D02*
X76550000Y-116450000D01*
X77655000Y-114675000D02*
X76550000Y-115780000D01*
D23*
X77730000Y-114675000D02*
X77655000Y-114675000D01*
D24*
X76550000Y-118050000D02*
X76550000Y-120250000D01*
X76550000Y-117250000D02*
X76550000Y-118050000D01*
D23*
X77655000Y-122825000D02*
X77730000Y-122825000D01*
D24*
X76550000Y-121720000D02*
X77655000Y-122825000D01*
X76550000Y-120250000D02*
X76550000Y-121720000D01*
X79575000Y-122825000D02*
X80400000Y-122000000D01*
X77730000Y-122825000D02*
X79575000Y-122825000D01*
X81350000Y-122000000D02*
X82750000Y-120600000D01*
X80400000Y-122000000D02*
X81350000Y-122000000D01*
X82750000Y-120600000D02*
X82750000Y-120000000D01*
X82700000Y-120050000D02*
X80600000Y-120050000D01*
D23*
X82750000Y-120000000D02*
X82700000Y-120050000D01*
D24*
X85787500Y-120000000D02*
X86750000Y-119037500D01*
X82750000Y-120000000D02*
X85787500Y-120000000D01*
X86750000Y-119037500D02*
X104500000Y-119037500D01*
X104500000Y-119037500D02*
X109212500Y-123750000D01*
X109212500Y-123750000D02*
X116750000Y-123750000D01*
X116750000Y-123750000D02*
X117500000Y-123000000D01*
D23*
X117287500Y-122787500D02*
X117287500Y-122500000D01*
D24*
X117500000Y-123000000D02*
X117287500Y-122787500D01*
X106312500Y-96287500D02*
X117287500Y-96287500D01*
X105750000Y-96850000D02*
X106312500Y-96287500D01*
X104750000Y-96850000D02*
X105750000Y-96850000D01*
X117287500Y-122500000D02*
X117287500Y-96287500D01*
X117287500Y-96287500D02*
X117287500Y-87500000D01*
X117287500Y-87500000D02*
X117287500Y-86287500D01*
X117287500Y-86287500D02*
X115750000Y-84750000D01*
X103575000Y-84750000D02*
X94787500Y-93537500D01*
X115750000Y-84750000D02*
X103575000Y-84750000D01*
D23*
X88712500Y-101037500D02*
X88712500Y-98750000D01*
X83150000Y-109500000D02*
X83150000Y-106600000D01*
X83150000Y-106600000D02*
X88712500Y-101037500D01*
X88712500Y-98750000D02*
X88712500Y-97787500D01*
X88712500Y-97787500D02*
X89000000Y-97500000D01*
X92305000Y-98600000D02*
X92305000Y-99050000D01*
X91205000Y-97500000D02*
X92305000Y-98600000D01*
X89000000Y-97500000D02*
X91205000Y-97500000D01*
X93212500Y-96250000D02*
X93212500Y-96962500D01*
X93575000Y-97325000D02*
X93575000Y-99050000D01*
X93212500Y-96962500D02*
X93575000Y-97325000D01*
X93575000Y-99050000D02*
X93575000Y-98050000D01*
X92675000Y-96250000D02*
X93212500Y-96250000D01*
X83930000Y-96250000D02*
X92675000Y-96250000D01*
X81180000Y-99000000D02*
X83930000Y-96250000D01*
X80080000Y-99000000D02*
X81180000Y-99000000D01*
X94000000Y-115037500D02*
X94000000Y-117462500D01*
X92000000Y-115037500D02*
X92000000Y-117462500D01*
X113287500Y-116500000D02*
X115712500Y-116500000D01*
X113287500Y-118500000D02*
X115712500Y-118500000D01*
X113287500Y-120500000D02*
X115712500Y-120500000D01*
X113287500Y-122500000D02*
X115712500Y-122500000D01*
X99250000Y-115037500D02*
X99250000Y-117462500D01*
X97250000Y-115037500D02*
X97250000Y-117462500D01*
X104500000Y-115037500D02*
X104500000Y-117462500D01*
X102500000Y-115037500D02*
X102500000Y-117462500D01*
X113287500Y-107250000D02*
X115712500Y-107250000D01*
X113287500Y-109250000D02*
X115712500Y-109250000D01*
X113287500Y-111250000D02*
X115712500Y-111250000D01*
X113287500Y-113250000D02*
X115712500Y-113250000D01*
X113287500Y-98000000D02*
X115712500Y-98000000D01*
X113287500Y-100000000D02*
X115712500Y-100000000D01*
X113287500Y-102000000D02*
X115712500Y-102000000D01*
X113287500Y-104000000D02*
X115712500Y-104000000D01*
X88750000Y-115037500D02*
X88750000Y-117462500D01*
X86750000Y-115037500D02*
X86750000Y-117462500D01*
X113287500Y-92750000D02*
X115712500Y-92750000D01*
X113287500Y-94750000D02*
X115675000Y-94750000D01*
X113287500Y-87500000D02*
X115712500Y-87500000D01*
X113287500Y-89500000D02*
X115712500Y-89500000D01*
X81750000Y-118100000D02*
X80600000Y-118100000D01*
X83250000Y-116600000D02*
X81750000Y-118100000D01*
X83250000Y-113250000D02*
X83250000Y-116600000D01*
X96115000Y-99050000D02*
X96115000Y-100135000D01*
X96115000Y-100135000D02*
X95000000Y-101250000D01*
X95000000Y-101250000D02*
X90000000Y-101250000D01*
X90000000Y-101250000D02*
X87500000Y-103750000D01*
X87500000Y-103750000D02*
X87500000Y-109000000D01*
X87500000Y-109000000D02*
X83250000Y-113250000D01*
X79450000Y-118750000D02*
X79000000Y-118300000D01*
X80600000Y-118750000D02*
X79450000Y-118750000D01*
X79000000Y-112287500D02*
X77750000Y-111037500D01*
X79000000Y-118300000D02*
X79000000Y-112287500D01*
X83750000Y-117000000D02*
X82000000Y-118750000D01*
X83750000Y-113500000D02*
X83750000Y-117000000D01*
X82000000Y-118750000D02*
X80600000Y-118750000D01*
X88000000Y-109250000D02*
X83750000Y-113500000D01*
X97385000Y-99050000D02*
X97385000Y-100615000D01*
X97385000Y-100615000D02*
X96250000Y-101750000D01*
X96250000Y-101750000D02*
X90250000Y-101750000D01*
X88000000Y-104000000D02*
X88000000Y-104250000D01*
X90250000Y-101750000D02*
X88000000Y-104000000D01*
X88000000Y-104250000D02*
X88000000Y-109250000D01*
X111712500Y-89500000D02*
X111712500Y-87500000D01*
X98655000Y-98050000D02*
X104455000Y-92250000D01*
X98655000Y-99050000D02*
X98655000Y-98050000D01*
X106962500Y-92250000D02*
X111712500Y-87500000D01*
X104455000Y-92250000D02*
X106962500Y-92250000D01*
X111712500Y-94750000D02*
X111712500Y-92750000D01*
X111175000Y-92750000D02*
X111712500Y-92750000D01*
X105225000Y-92750000D02*
X111175000Y-92750000D01*
X99925000Y-98050000D02*
X105225000Y-92750000D01*
X99925000Y-99050000D02*
X99925000Y-98050000D01*
X101195000Y-99050000D02*
X102300000Y-99050000D01*
X102900000Y-99650000D02*
X104750000Y-99650000D01*
X102300000Y-99050000D02*
X102900000Y-99650000D01*
X111712500Y-113250000D02*
X111712500Y-107250000D01*
X108912500Y-104450000D02*
X111712500Y-107250000D01*
X101195000Y-104450000D02*
X108912500Y-104450000D01*
X111712500Y-104000000D02*
X111712500Y-98000000D01*
X99925000Y-103450000D02*
X100875000Y-102500000D01*
X99925000Y-104450000D02*
X99925000Y-103450000D01*
X107212500Y-102500000D02*
X111712500Y-98000000D01*
X100875000Y-102500000D02*
X107212500Y-102500000D01*
X102500000Y-113462500D02*
X104500000Y-113462500D01*
X97385000Y-106347500D02*
X104500000Y-113462500D01*
X97385000Y-106347500D02*
X97385000Y-104450000D01*
X97250000Y-113462500D02*
X99250000Y-113462500D01*
X96115000Y-110327500D02*
X99250000Y-113462500D01*
X96115000Y-110327500D02*
X96115000Y-104450000D01*
X111712500Y-122500000D02*
X111712500Y-116500000D01*
X94845000Y-104450000D02*
X94845000Y-104000000D01*
X94845000Y-104450000D02*
X94845000Y-103155000D01*
X94845000Y-103155000D02*
X95000000Y-103000000D01*
X99280001Y-103439999D02*
X99280001Y-105780001D01*
X95000000Y-103000000D02*
X98840002Y-103000000D01*
X98840002Y-103000000D02*
X99280001Y-103439999D01*
X110000000Y-116500000D02*
X111712500Y-116500000D01*
X99280001Y-105780001D02*
X110000000Y-116500000D01*
X92000000Y-113462500D02*
X94000000Y-113462500D01*
X93575000Y-107075000D02*
X93575000Y-104450000D01*
X94000000Y-113462500D02*
X94000000Y-107500000D01*
X94000000Y-107500000D02*
X93575000Y-107075000D01*
X86750000Y-113462500D02*
X88750000Y-113462500D01*
X92305000Y-109907500D02*
X88750000Y-113462500D01*
X92305000Y-109907500D02*
X92305000Y-104450000D01*
X81250000Y-100500000D02*
X80080000Y-100500000D01*
X81750000Y-101000000D02*
X81250000Y-100500000D01*
X81750000Y-117000000D02*
X81750000Y-101000000D01*
X80600000Y-117450000D02*
X81300000Y-117450000D01*
X81300000Y-117450000D02*
X81750000Y-117000000D01*
X81180000Y-96000000D02*
X81500000Y-95680000D01*
X80080000Y-96000000D02*
X81180000Y-96000000D01*
X81500000Y-86540000D02*
X79000000Y-84040000D01*
X81500000Y-95680000D02*
X81500000Y-86540000D01*
X77787500Y-109500000D02*
X77750000Y-109462500D01*
X80350000Y-109500000D02*
X77787500Y-109500000D01*
M02*
