G04 #@! TF.GenerationSoftware,KiCad,Pcbnew,(5.1.0)-1*
G04 #@! TF.CreationDate,2020-03-21T23:41:27-05:00*
G04 #@! TF.ProjectId,dev,6465762e-6b69-4636-9164-5f7063625858,rev?*
G04 #@! TF.SameCoordinates,Original*
G04 #@! TF.FileFunction,Soldermask,Top*
G04 #@! TF.FilePolarity,Negative*
%FSLAX46Y46*%
G04 Gerber Fmt 4.6, Leading zero omitted, Abs format (unit mm)*
G04 Created by KiCad (PCBNEW (5.1.0)-1) date 2020-03-21 23:41:27*
%MOMM*%
%LPD*%
G04 APERTURE LIST*
%ADD10C,0.100000*%
G04 APERTURE END LIST*
D10*
G36*
X78531000Y-123551000D02*
G01*
X76929000Y-123551000D01*
X76929000Y-122099000D01*
X78531000Y-122099000D01*
X78531000Y-123551000D01*
X78531000Y-123551000D01*
G37*
G36*
X117629591Y-121978085D02*
G01*
X117663569Y-121988393D01*
X117694890Y-122005134D01*
X117722339Y-122027661D01*
X117744866Y-122055110D01*
X117761607Y-122086431D01*
X117771915Y-122120409D01*
X117776000Y-122161890D01*
X117776000Y-122838110D01*
X117771915Y-122879591D01*
X117761607Y-122913569D01*
X117744866Y-122944890D01*
X117722339Y-122972339D01*
X117694890Y-122994866D01*
X117663569Y-123011607D01*
X117629591Y-123021915D01*
X117588110Y-123026000D01*
X116986890Y-123026000D01*
X116945409Y-123021915D01*
X116911431Y-123011607D01*
X116880110Y-122994866D01*
X116852661Y-122972339D01*
X116830134Y-122944890D01*
X116813393Y-122913569D01*
X116803085Y-122879591D01*
X116799000Y-122838110D01*
X116799000Y-122161890D01*
X116803085Y-122120409D01*
X116813393Y-122086431D01*
X116830134Y-122055110D01*
X116852661Y-122027661D01*
X116880110Y-122005134D01*
X116911431Y-121988393D01*
X116945409Y-121978085D01*
X116986890Y-121974000D01*
X117588110Y-121974000D01*
X117629591Y-121978085D01*
X117629591Y-121978085D01*
G37*
G36*
X116054591Y-121978085D02*
G01*
X116088569Y-121988393D01*
X116119890Y-122005134D01*
X116147339Y-122027661D01*
X116169866Y-122055110D01*
X116186607Y-122086431D01*
X116196915Y-122120409D01*
X116201000Y-122161890D01*
X116201000Y-122838110D01*
X116196915Y-122879591D01*
X116186607Y-122913569D01*
X116169866Y-122944890D01*
X116147339Y-122972339D01*
X116119890Y-122994866D01*
X116088569Y-123011607D01*
X116054591Y-123021915D01*
X116013110Y-123026000D01*
X115411890Y-123026000D01*
X115370409Y-123021915D01*
X115336431Y-123011607D01*
X115305110Y-122994866D01*
X115277661Y-122972339D01*
X115255134Y-122944890D01*
X115238393Y-122913569D01*
X115228085Y-122879591D01*
X115224000Y-122838110D01*
X115224000Y-122161890D01*
X115228085Y-122120409D01*
X115238393Y-122086431D01*
X115255134Y-122055110D01*
X115277661Y-122027661D01*
X115305110Y-122005134D01*
X115336431Y-121988393D01*
X115370409Y-121978085D01*
X115411890Y-121974000D01*
X116013110Y-121974000D01*
X116054591Y-121978085D01*
X116054591Y-121978085D01*
G37*
G36*
X113629591Y-121978085D02*
G01*
X113663569Y-121988393D01*
X113694890Y-122005134D01*
X113722339Y-122027661D01*
X113744866Y-122055110D01*
X113761607Y-122086431D01*
X113771915Y-122120409D01*
X113776000Y-122161890D01*
X113776000Y-122838110D01*
X113771915Y-122879591D01*
X113761607Y-122913569D01*
X113744866Y-122944890D01*
X113722339Y-122972339D01*
X113694890Y-122994866D01*
X113663569Y-123011607D01*
X113629591Y-123021915D01*
X113588110Y-123026000D01*
X112986890Y-123026000D01*
X112945409Y-123021915D01*
X112911431Y-123011607D01*
X112880110Y-122994866D01*
X112852661Y-122972339D01*
X112830134Y-122944890D01*
X112813393Y-122913569D01*
X112803085Y-122879591D01*
X112799000Y-122838110D01*
X112799000Y-122161890D01*
X112803085Y-122120409D01*
X112813393Y-122086431D01*
X112830134Y-122055110D01*
X112852661Y-122027661D01*
X112880110Y-122005134D01*
X112911431Y-121988393D01*
X112945409Y-121978085D01*
X112986890Y-121974000D01*
X113588110Y-121974000D01*
X113629591Y-121978085D01*
X113629591Y-121978085D01*
G37*
G36*
X112054591Y-121978085D02*
G01*
X112088569Y-121988393D01*
X112119890Y-122005134D01*
X112147339Y-122027661D01*
X112169866Y-122055110D01*
X112186607Y-122086431D01*
X112196915Y-122120409D01*
X112201000Y-122161890D01*
X112201000Y-122838110D01*
X112196915Y-122879591D01*
X112186607Y-122913569D01*
X112169866Y-122944890D01*
X112147339Y-122972339D01*
X112119890Y-122994866D01*
X112088569Y-123011607D01*
X112054591Y-123021915D01*
X112013110Y-123026000D01*
X111411890Y-123026000D01*
X111370409Y-123021915D01*
X111336431Y-123011607D01*
X111305110Y-122994866D01*
X111277661Y-122972339D01*
X111255134Y-122944890D01*
X111238393Y-122913569D01*
X111228085Y-122879591D01*
X111224000Y-122838110D01*
X111224000Y-122161890D01*
X111228085Y-122120409D01*
X111238393Y-122086431D01*
X111255134Y-122055110D01*
X111277661Y-122027661D01*
X111305110Y-122005134D01*
X111336431Y-121988393D01*
X111370409Y-121978085D01*
X111411890Y-121974000D01*
X112013110Y-121974000D01*
X112054591Y-121978085D01*
X112054591Y-121978085D01*
G37*
G36*
X81151000Y-116301000D02*
G01*
X80228452Y-116301000D01*
X80204066Y-116303402D01*
X80180617Y-116310515D01*
X80159006Y-116322066D01*
X80140064Y-116337611D01*
X80124519Y-116356553D01*
X80112968Y-116378164D01*
X80105855Y-116401613D01*
X80103453Y-116425999D01*
X80105855Y-116450385D01*
X80112968Y-116473834D01*
X80124519Y-116495445D01*
X80140064Y-116514387D01*
X80141873Y-116516196D01*
X80141876Y-116516198D01*
X80183802Y-116558124D01*
X80216742Y-116607423D01*
X80216743Y-116607425D01*
X80239433Y-116662203D01*
X80251000Y-116720353D01*
X80251000Y-116779647D01*
X80239433Y-116837797D01*
X80222121Y-116879591D01*
X80216742Y-116892577D01*
X80183802Y-116941876D01*
X80141876Y-116983802D01*
X80141873Y-116983804D01*
X80140064Y-116985613D01*
X80124519Y-117004555D01*
X80112968Y-117026166D01*
X80105855Y-117049615D01*
X80103453Y-117074001D01*
X80105855Y-117098387D01*
X80112968Y-117121836D01*
X80124519Y-117143447D01*
X80140064Y-117162389D01*
X80159006Y-117177934D01*
X80180617Y-117189485D01*
X80204066Y-117196598D01*
X80228452Y-117199000D01*
X81551000Y-117199000D01*
X81551000Y-120301000D01*
X80228452Y-120301000D01*
X80204066Y-120303402D01*
X80180617Y-120310515D01*
X80159006Y-120322066D01*
X80140064Y-120337611D01*
X80124519Y-120356553D01*
X80112968Y-120378164D01*
X80105855Y-120401613D01*
X80103453Y-120425999D01*
X80105855Y-120450385D01*
X80112968Y-120473834D01*
X80124519Y-120495445D01*
X80140064Y-120514387D01*
X80141873Y-120516196D01*
X80141876Y-120516198D01*
X80183802Y-120558124D01*
X80216742Y-120607423D01*
X80216743Y-120607425D01*
X80239433Y-120662203D01*
X80251000Y-120720353D01*
X80251000Y-120779647D01*
X80239433Y-120837797D01*
X80222121Y-120879591D01*
X80216742Y-120892577D01*
X80183802Y-120941876D01*
X80141876Y-120983802D01*
X80141873Y-120983804D01*
X80140064Y-120985613D01*
X80124519Y-121004555D01*
X80112968Y-121026166D01*
X80105855Y-121049615D01*
X80103453Y-121074001D01*
X80105855Y-121098387D01*
X80112968Y-121121836D01*
X80124519Y-121143447D01*
X80140064Y-121162389D01*
X80159006Y-121177934D01*
X80180617Y-121189485D01*
X80204066Y-121196598D01*
X80228452Y-121199000D01*
X81151000Y-121199000D01*
X81151000Y-122801000D01*
X79649000Y-122801000D01*
X79649000Y-121199000D01*
X79671548Y-121199000D01*
X79695934Y-121196598D01*
X79719383Y-121189485D01*
X79740994Y-121177934D01*
X79759936Y-121162389D01*
X79775481Y-121143447D01*
X79787032Y-121121836D01*
X79794145Y-121098387D01*
X79796547Y-121074001D01*
X79794145Y-121049615D01*
X79787032Y-121026166D01*
X79775481Y-121004555D01*
X79759936Y-120985613D01*
X79758127Y-120983804D01*
X79758124Y-120983802D01*
X79716198Y-120941876D01*
X79683258Y-120892577D01*
X79677879Y-120879591D01*
X79660567Y-120837797D01*
X79649000Y-120779647D01*
X79649000Y-120720353D01*
X79660567Y-120662203D01*
X79683257Y-120607425D01*
X79683258Y-120607423D01*
X79716198Y-120558124D01*
X79758124Y-120516198D01*
X79758127Y-120516196D01*
X79759936Y-120514387D01*
X79775481Y-120495445D01*
X79787032Y-120473834D01*
X79794145Y-120450385D01*
X79796547Y-120425999D01*
X79794145Y-120401613D01*
X79787032Y-120378164D01*
X79775481Y-120356553D01*
X79759936Y-120337611D01*
X79740994Y-120322066D01*
X79719383Y-120310515D01*
X79695934Y-120303402D01*
X79671548Y-120301000D01*
X79649000Y-120301000D01*
X79649000Y-117199000D01*
X79671548Y-117199000D01*
X79695934Y-117196598D01*
X79719383Y-117189485D01*
X79740994Y-117177934D01*
X79759936Y-117162389D01*
X79775481Y-117143447D01*
X79787032Y-117121836D01*
X79794145Y-117098387D01*
X79796547Y-117074001D01*
X79794145Y-117049615D01*
X79787032Y-117026166D01*
X79775481Y-117004555D01*
X79759936Y-116985613D01*
X79758127Y-116983804D01*
X79758124Y-116983802D01*
X79716198Y-116941876D01*
X79683258Y-116892577D01*
X79677879Y-116879591D01*
X79660567Y-116837797D01*
X79649000Y-116779647D01*
X79649000Y-116720353D01*
X79660567Y-116662203D01*
X79683257Y-116607425D01*
X79683258Y-116607423D01*
X79716198Y-116558124D01*
X79758124Y-116516198D01*
X79758127Y-116516196D01*
X79759936Y-116514387D01*
X79775481Y-116495445D01*
X79787032Y-116473834D01*
X79794145Y-116450385D01*
X79796547Y-116425999D01*
X79794145Y-116401613D01*
X79787032Y-116378164D01*
X79775481Y-116356553D01*
X79759936Y-116337611D01*
X79740994Y-116322066D01*
X79719383Y-116310515D01*
X79695934Y-116303402D01*
X79671548Y-116301000D01*
X79649000Y-116301000D01*
X79649000Y-114699000D01*
X81151000Y-114699000D01*
X81151000Y-116301000D01*
X81151000Y-116301000D01*
G37*
G36*
X117629591Y-119978085D02*
G01*
X117663569Y-119988393D01*
X117694890Y-120005134D01*
X117722339Y-120027661D01*
X117744866Y-120055110D01*
X117761607Y-120086431D01*
X117771915Y-120120409D01*
X117776000Y-120161890D01*
X117776000Y-120838110D01*
X117771915Y-120879591D01*
X117761607Y-120913569D01*
X117744866Y-120944890D01*
X117722339Y-120972339D01*
X117694890Y-120994866D01*
X117663569Y-121011607D01*
X117629591Y-121021915D01*
X117588110Y-121026000D01*
X116986890Y-121026000D01*
X116945409Y-121021915D01*
X116911431Y-121011607D01*
X116880110Y-120994866D01*
X116852661Y-120972339D01*
X116830134Y-120944890D01*
X116813393Y-120913569D01*
X116803085Y-120879591D01*
X116799000Y-120838110D01*
X116799000Y-120161890D01*
X116803085Y-120120409D01*
X116813393Y-120086431D01*
X116830134Y-120055110D01*
X116852661Y-120027661D01*
X116880110Y-120005134D01*
X116911431Y-119988393D01*
X116945409Y-119978085D01*
X116986890Y-119974000D01*
X117588110Y-119974000D01*
X117629591Y-119978085D01*
X117629591Y-119978085D01*
G37*
G36*
X112054591Y-119978085D02*
G01*
X112088569Y-119988393D01*
X112119890Y-120005134D01*
X112147339Y-120027661D01*
X112169866Y-120055110D01*
X112186607Y-120086431D01*
X112196915Y-120120409D01*
X112201000Y-120161890D01*
X112201000Y-120838110D01*
X112196915Y-120879591D01*
X112186607Y-120913569D01*
X112169866Y-120944890D01*
X112147339Y-120972339D01*
X112119890Y-120994866D01*
X112088569Y-121011607D01*
X112054591Y-121021915D01*
X112013110Y-121026000D01*
X111411890Y-121026000D01*
X111370409Y-121021915D01*
X111336431Y-121011607D01*
X111305110Y-120994866D01*
X111277661Y-120972339D01*
X111255134Y-120944890D01*
X111238393Y-120913569D01*
X111228085Y-120879591D01*
X111224000Y-120838110D01*
X111224000Y-120161890D01*
X111228085Y-120120409D01*
X111238393Y-120086431D01*
X111255134Y-120055110D01*
X111277661Y-120027661D01*
X111305110Y-120005134D01*
X111336431Y-119988393D01*
X111370409Y-119978085D01*
X111411890Y-119974000D01*
X112013110Y-119974000D01*
X112054591Y-119978085D01*
X112054591Y-119978085D01*
G37*
G36*
X113629591Y-119978085D02*
G01*
X113663569Y-119988393D01*
X113694890Y-120005134D01*
X113722339Y-120027661D01*
X113744866Y-120055110D01*
X113761607Y-120086431D01*
X113771915Y-120120409D01*
X113776000Y-120161890D01*
X113776000Y-120838110D01*
X113771915Y-120879591D01*
X113761607Y-120913569D01*
X113744866Y-120944890D01*
X113722339Y-120972339D01*
X113694890Y-120994866D01*
X113663569Y-121011607D01*
X113629591Y-121021915D01*
X113588110Y-121026000D01*
X112986890Y-121026000D01*
X112945409Y-121021915D01*
X112911431Y-121011607D01*
X112880110Y-120994866D01*
X112852661Y-120972339D01*
X112830134Y-120944890D01*
X112813393Y-120913569D01*
X112803085Y-120879591D01*
X112799000Y-120838110D01*
X112799000Y-120161890D01*
X112803085Y-120120409D01*
X112813393Y-120086431D01*
X112830134Y-120055110D01*
X112852661Y-120027661D01*
X112880110Y-120005134D01*
X112911431Y-119988393D01*
X112945409Y-119978085D01*
X112986890Y-119974000D01*
X113588110Y-119974000D01*
X113629591Y-119978085D01*
X113629591Y-119978085D01*
G37*
G36*
X116054591Y-119978085D02*
G01*
X116088569Y-119988393D01*
X116119890Y-120005134D01*
X116147339Y-120027661D01*
X116169866Y-120055110D01*
X116186607Y-120086431D01*
X116196915Y-120120409D01*
X116201000Y-120161890D01*
X116201000Y-120838110D01*
X116196915Y-120879591D01*
X116186607Y-120913569D01*
X116169866Y-120944890D01*
X116147339Y-120972339D01*
X116119890Y-120994866D01*
X116088569Y-121011607D01*
X116054591Y-121021915D01*
X116013110Y-121026000D01*
X115411890Y-121026000D01*
X115370409Y-121021915D01*
X115336431Y-121011607D01*
X115305110Y-120994866D01*
X115277661Y-120972339D01*
X115255134Y-120944890D01*
X115238393Y-120913569D01*
X115228085Y-120879591D01*
X115224000Y-120838110D01*
X115224000Y-120161890D01*
X115228085Y-120120409D01*
X115238393Y-120086431D01*
X115255134Y-120055110D01*
X115277661Y-120027661D01*
X115305110Y-120005134D01*
X115336431Y-119988393D01*
X115370409Y-119978085D01*
X115411890Y-119974000D01*
X116013110Y-119974000D01*
X116054591Y-119978085D01*
X116054591Y-119978085D01*
G37*
G36*
X77101000Y-120851000D02*
G01*
X75999000Y-120851000D01*
X75999000Y-119649000D01*
X77101000Y-119649000D01*
X77101000Y-120851000D01*
X77101000Y-120851000D01*
G37*
G36*
X89129591Y-118553085D02*
G01*
X89163569Y-118563393D01*
X89194890Y-118580134D01*
X89222339Y-118602661D01*
X89244866Y-118630110D01*
X89261607Y-118661431D01*
X89271915Y-118695409D01*
X89276000Y-118736890D01*
X89276000Y-119338110D01*
X89271915Y-119379591D01*
X89261607Y-119413569D01*
X89244866Y-119444890D01*
X89222339Y-119472339D01*
X89194890Y-119494866D01*
X89163569Y-119511607D01*
X89129591Y-119521915D01*
X89088110Y-119526000D01*
X88411890Y-119526000D01*
X88370409Y-119521915D01*
X88336431Y-119511607D01*
X88305110Y-119494866D01*
X88277661Y-119472339D01*
X88255134Y-119444890D01*
X88238393Y-119413569D01*
X88228085Y-119379591D01*
X88224000Y-119338110D01*
X88224000Y-118736890D01*
X88228085Y-118695409D01*
X88238393Y-118661431D01*
X88255134Y-118630110D01*
X88277661Y-118602661D01*
X88305110Y-118580134D01*
X88336431Y-118563393D01*
X88370409Y-118553085D01*
X88411890Y-118549000D01*
X89088110Y-118549000D01*
X89129591Y-118553085D01*
X89129591Y-118553085D01*
G37*
G36*
X99629591Y-118553085D02*
G01*
X99663569Y-118563393D01*
X99694890Y-118580134D01*
X99722339Y-118602661D01*
X99744866Y-118630110D01*
X99761607Y-118661431D01*
X99771915Y-118695409D01*
X99776000Y-118736890D01*
X99776000Y-119338110D01*
X99771915Y-119379591D01*
X99761607Y-119413569D01*
X99744866Y-119444890D01*
X99722339Y-119472339D01*
X99694890Y-119494866D01*
X99663569Y-119511607D01*
X99629591Y-119521915D01*
X99588110Y-119526000D01*
X98911890Y-119526000D01*
X98870409Y-119521915D01*
X98836431Y-119511607D01*
X98805110Y-119494866D01*
X98777661Y-119472339D01*
X98755134Y-119444890D01*
X98738393Y-119413569D01*
X98728085Y-119379591D01*
X98724000Y-119338110D01*
X98724000Y-118736890D01*
X98728085Y-118695409D01*
X98738393Y-118661431D01*
X98755134Y-118630110D01*
X98777661Y-118602661D01*
X98805110Y-118580134D01*
X98836431Y-118563393D01*
X98870409Y-118553085D01*
X98911890Y-118549000D01*
X99588110Y-118549000D01*
X99629591Y-118553085D01*
X99629591Y-118553085D01*
G37*
G36*
X102879591Y-118553085D02*
G01*
X102913569Y-118563393D01*
X102944890Y-118580134D01*
X102972339Y-118602661D01*
X102994866Y-118630110D01*
X103011607Y-118661431D01*
X103021915Y-118695409D01*
X103026000Y-118736890D01*
X103026000Y-119338110D01*
X103021915Y-119379591D01*
X103011607Y-119413569D01*
X102994866Y-119444890D01*
X102972339Y-119472339D01*
X102944890Y-119494866D01*
X102913569Y-119511607D01*
X102879591Y-119521915D01*
X102838110Y-119526000D01*
X102161890Y-119526000D01*
X102120409Y-119521915D01*
X102086431Y-119511607D01*
X102055110Y-119494866D01*
X102027661Y-119472339D01*
X102005134Y-119444890D01*
X101988393Y-119413569D01*
X101978085Y-119379591D01*
X101974000Y-119338110D01*
X101974000Y-118736890D01*
X101978085Y-118695409D01*
X101988393Y-118661431D01*
X102005134Y-118630110D01*
X102027661Y-118602661D01*
X102055110Y-118580134D01*
X102086431Y-118563393D01*
X102120409Y-118553085D01*
X102161890Y-118549000D01*
X102838110Y-118549000D01*
X102879591Y-118553085D01*
X102879591Y-118553085D01*
G37*
G36*
X87129591Y-118553085D02*
G01*
X87163569Y-118563393D01*
X87194890Y-118580134D01*
X87222339Y-118602661D01*
X87244866Y-118630110D01*
X87261607Y-118661431D01*
X87271915Y-118695409D01*
X87276000Y-118736890D01*
X87276000Y-119338110D01*
X87271915Y-119379591D01*
X87261607Y-119413569D01*
X87244866Y-119444890D01*
X87222339Y-119472339D01*
X87194890Y-119494866D01*
X87163569Y-119511607D01*
X87129591Y-119521915D01*
X87088110Y-119526000D01*
X86411890Y-119526000D01*
X86370409Y-119521915D01*
X86336431Y-119511607D01*
X86305110Y-119494866D01*
X86277661Y-119472339D01*
X86255134Y-119444890D01*
X86238393Y-119413569D01*
X86228085Y-119379591D01*
X86224000Y-119338110D01*
X86224000Y-118736890D01*
X86228085Y-118695409D01*
X86238393Y-118661431D01*
X86255134Y-118630110D01*
X86277661Y-118602661D01*
X86305110Y-118580134D01*
X86336431Y-118563393D01*
X86370409Y-118553085D01*
X86411890Y-118549000D01*
X87088110Y-118549000D01*
X87129591Y-118553085D01*
X87129591Y-118553085D01*
G37*
G36*
X92379591Y-118553085D02*
G01*
X92413569Y-118563393D01*
X92444890Y-118580134D01*
X92472339Y-118602661D01*
X92494866Y-118630110D01*
X92511607Y-118661431D01*
X92521915Y-118695409D01*
X92526000Y-118736890D01*
X92526000Y-119338110D01*
X92521915Y-119379591D01*
X92511607Y-119413569D01*
X92494866Y-119444890D01*
X92472339Y-119472339D01*
X92444890Y-119494866D01*
X92413569Y-119511607D01*
X92379591Y-119521915D01*
X92338110Y-119526000D01*
X91661890Y-119526000D01*
X91620409Y-119521915D01*
X91586431Y-119511607D01*
X91555110Y-119494866D01*
X91527661Y-119472339D01*
X91505134Y-119444890D01*
X91488393Y-119413569D01*
X91478085Y-119379591D01*
X91474000Y-119338110D01*
X91474000Y-118736890D01*
X91478085Y-118695409D01*
X91488393Y-118661431D01*
X91505134Y-118630110D01*
X91527661Y-118602661D01*
X91555110Y-118580134D01*
X91586431Y-118563393D01*
X91620409Y-118553085D01*
X91661890Y-118549000D01*
X92338110Y-118549000D01*
X92379591Y-118553085D01*
X92379591Y-118553085D01*
G37*
G36*
X97629591Y-118553085D02*
G01*
X97663569Y-118563393D01*
X97694890Y-118580134D01*
X97722339Y-118602661D01*
X97744866Y-118630110D01*
X97761607Y-118661431D01*
X97771915Y-118695409D01*
X97776000Y-118736890D01*
X97776000Y-119338110D01*
X97771915Y-119379591D01*
X97761607Y-119413569D01*
X97744866Y-119444890D01*
X97722339Y-119472339D01*
X97694890Y-119494866D01*
X97663569Y-119511607D01*
X97629591Y-119521915D01*
X97588110Y-119526000D01*
X96911890Y-119526000D01*
X96870409Y-119521915D01*
X96836431Y-119511607D01*
X96805110Y-119494866D01*
X96777661Y-119472339D01*
X96755134Y-119444890D01*
X96738393Y-119413569D01*
X96728085Y-119379591D01*
X96724000Y-119338110D01*
X96724000Y-118736890D01*
X96728085Y-118695409D01*
X96738393Y-118661431D01*
X96755134Y-118630110D01*
X96777661Y-118602661D01*
X96805110Y-118580134D01*
X96836431Y-118563393D01*
X96870409Y-118553085D01*
X96911890Y-118549000D01*
X97588110Y-118549000D01*
X97629591Y-118553085D01*
X97629591Y-118553085D01*
G37*
G36*
X104879591Y-118553085D02*
G01*
X104913569Y-118563393D01*
X104944890Y-118580134D01*
X104972339Y-118602661D01*
X104994866Y-118630110D01*
X105011607Y-118661431D01*
X105021915Y-118695409D01*
X105026000Y-118736890D01*
X105026000Y-119338110D01*
X105021915Y-119379591D01*
X105011607Y-119413569D01*
X104994866Y-119444890D01*
X104972339Y-119472339D01*
X104944890Y-119494866D01*
X104913569Y-119511607D01*
X104879591Y-119521915D01*
X104838110Y-119526000D01*
X104161890Y-119526000D01*
X104120409Y-119521915D01*
X104086431Y-119511607D01*
X104055110Y-119494866D01*
X104027661Y-119472339D01*
X104005134Y-119444890D01*
X103988393Y-119413569D01*
X103978085Y-119379591D01*
X103974000Y-119338110D01*
X103974000Y-118736890D01*
X103978085Y-118695409D01*
X103988393Y-118661431D01*
X104005134Y-118630110D01*
X104027661Y-118602661D01*
X104055110Y-118580134D01*
X104086431Y-118563393D01*
X104120409Y-118553085D01*
X104161890Y-118549000D01*
X104838110Y-118549000D01*
X104879591Y-118553085D01*
X104879591Y-118553085D01*
G37*
G36*
X94379591Y-118553085D02*
G01*
X94413569Y-118563393D01*
X94444890Y-118580134D01*
X94472339Y-118602661D01*
X94494866Y-118630110D01*
X94511607Y-118661431D01*
X94521915Y-118695409D01*
X94526000Y-118736890D01*
X94526000Y-119338110D01*
X94521915Y-119379591D01*
X94511607Y-119413569D01*
X94494866Y-119444890D01*
X94472339Y-119472339D01*
X94444890Y-119494866D01*
X94413569Y-119511607D01*
X94379591Y-119521915D01*
X94338110Y-119526000D01*
X93661890Y-119526000D01*
X93620409Y-119521915D01*
X93586431Y-119511607D01*
X93555110Y-119494866D01*
X93527661Y-119472339D01*
X93505134Y-119444890D01*
X93488393Y-119413569D01*
X93478085Y-119379591D01*
X93474000Y-119338110D01*
X93474000Y-118736890D01*
X93478085Y-118695409D01*
X93488393Y-118661431D01*
X93505134Y-118630110D01*
X93527661Y-118602661D01*
X93555110Y-118580134D01*
X93586431Y-118563393D01*
X93620409Y-118553085D01*
X93661890Y-118549000D01*
X94338110Y-118549000D01*
X94379591Y-118553085D01*
X94379591Y-118553085D01*
G37*
G36*
X113629591Y-117978085D02*
G01*
X113663569Y-117988393D01*
X113694890Y-118005134D01*
X113722339Y-118027661D01*
X113744866Y-118055110D01*
X113761607Y-118086431D01*
X113771915Y-118120409D01*
X113776000Y-118161890D01*
X113776000Y-118838110D01*
X113771915Y-118879591D01*
X113761607Y-118913569D01*
X113744866Y-118944890D01*
X113722339Y-118972339D01*
X113694890Y-118994866D01*
X113663569Y-119011607D01*
X113629591Y-119021915D01*
X113588110Y-119026000D01*
X112986890Y-119026000D01*
X112945409Y-119021915D01*
X112911431Y-119011607D01*
X112880110Y-118994866D01*
X112852661Y-118972339D01*
X112830134Y-118944890D01*
X112813393Y-118913569D01*
X112803085Y-118879591D01*
X112799000Y-118838110D01*
X112799000Y-118161890D01*
X112803085Y-118120409D01*
X112813393Y-118086431D01*
X112830134Y-118055110D01*
X112852661Y-118027661D01*
X112880110Y-118005134D01*
X112911431Y-117988393D01*
X112945409Y-117978085D01*
X112986890Y-117974000D01*
X113588110Y-117974000D01*
X113629591Y-117978085D01*
X113629591Y-117978085D01*
G37*
G36*
X117629591Y-117978085D02*
G01*
X117663569Y-117988393D01*
X117694890Y-118005134D01*
X117722339Y-118027661D01*
X117744866Y-118055110D01*
X117761607Y-118086431D01*
X117771915Y-118120409D01*
X117776000Y-118161890D01*
X117776000Y-118838110D01*
X117771915Y-118879591D01*
X117761607Y-118913569D01*
X117744866Y-118944890D01*
X117722339Y-118972339D01*
X117694890Y-118994866D01*
X117663569Y-119011607D01*
X117629591Y-119021915D01*
X117588110Y-119026000D01*
X116986890Y-119026000D01*
X116945409Y-119021915D01*
X116911431Y-119011607D01*
X116880110Y-118994866D01*
X116852661Y-118972339D01*
X116830134Y-118944890D01*
X116813393Y-118913569D01*
X116803085Y-118879591D01*
X116799000Y-118838110D01*
X116799000Y-118161890D01*
X116803085Y-118120409D01*
X116813393Y-118086431D01*
X116830134Y-118055110D01*
X116852661Y-118027661D01*
X116880110Y-118005134D01*
X116911431Y-117988393D01*
X116945409Y-117978085D01*
X116986890Y-117974000D01*
X117588110Y-117974000D01*
X117629591Y-117978085D01*
X117629591Y-117978085D01*
G37*
G36*
X116054591Y-117978085D02*
G01*
X116088569Y-117988393D01*
X116119890Y-118005134D01*
X116147339Y-118027661D01*
X116169866Y-118055110D01*
X116186607Y-118086431D01*
X116196915Y-118120409D01*
X116201000Y-118161890D01*
X116201000Y-118838110D01*
X116196915Y-118879591D01*
X116186607Y-118913569D01*
X116169866Y-118944890D01*
X116147339Y-118972339D01*
X116119890Y-118994866D01*
X116088569Y-119011607D01*
X116054591Y-119021915D01*
X116013110Y-119026000D01*
X115411890Y-119026000D01*
X115370409Y-119021915D01*
X115336431Y-119011607D01*
X115305110Y-118994866D01*
X115277661Y-118972339D01*
X115255134Y-118944890D01*
X115238393Y-118913569D01*
X115228085Y-118879591D01*
X115224000Y-118838110D01*
X115224000Y-118161890D01*
X115228085Y-118120409D01*
X115238393Y-118086431D01*
X115255134Y-118055110D01*
X115277661Y-118027661D01*
X115305110Y-118005134D01*
X115336431Y-117988393D01*
X115370409Y-117978085D01*
X115411890Y-117974000D01*
X116013110Y-117974000D01*
X116054591Y-117978085D01*
X116054591Y-117978085D01*
G37*
G36*
X112054591Y-117978085D02*
G01*
X112088569Y-117988393D01*
X112119890Y-118005134D01*
X112147339Y-118027661D01*
X112169866Y-118055110D01*
X112186607Y-118086431D01*
X112196915Y-118120409D01*
X112201000Y-118161890D01*
X112201000Y-118838110D01*
X112196915Y-118879591D01*
X112186607Y-118913569D01*
X112169866Y-118944890D01*
X112147339Y-118972339D01*
X112119890Y-118994866D01*
X112088569Y-119011607D01*
X112054591Y-119021915D01*
X112013110Y-119026000D01*
X111411890Y-119026000D01*
X111370409Y-119021915D01*
X111336431Y-119011607D01*
X111305110Y-118994866D01*
X111277661Y-118972339D01*
X111255134Y-118944890D01*
X111238393Y-118913569D01*
X111228085Y-118879591D01*
X111224000Y-118838110D01*
X111224000Y-118161890D01*
X111228085Y-118120409D01*
X111238393Y-118086431D01*
X111255134Y-118055110D01*
X111277661Y-118027661D01*
X111305110Y-118005134D01*
X111336431Y-117988393D01*
X111370409Y-117978085D01*
X111411890Y-117974000D01*
X112013110Y-117974000D01*
X112054591Y-117978085D01*
X112054591Y-117978085D01*
G37*
G36*
X97629591Y-116978085D02*
G01*
X97663569Y-116988393D01*
X97694890Y-117005134D01*
X97722339Y-117027661D01*
X97744866Y-117055110D01*
X97761607Y-117086431D01*
X97771915Y-117120409D01*
X97776000Y-117161890D01*
X97776000Y-117763110D01*
X97771915Y-117804591D01*
X97761607Y-117838569D01*
X97744866Y-117869890D01*
X97722339Y-117897339D01*
X97694890Y-117919866D01*
X97663569Y-117936607D01*
X97629591Y-117946915D01*
X97588110Y-117951000D01*
X96911890Y-117951000D01*
X96870409Y-117946915D01*
X96836431Y-117936607D01*
X96805110Y-117919866D01*
X96777661Y-117897339D01*
X96755134Y-117869890D01*
X96738393Y-117838569D01*
X96728085Y-117804591D01*
X96724000Y-117763110D01*
X96724000Y-117161890D01*
X96728085Y-117120409D01*
X96738393Y-117086431D01*
X96755134Y-117055110D01*
X96777661Y-117027661D01*
X96805110Y-117005134D01*
X96836431Y-116988393D01*
X96870409Y-116978085D01*
X96911890Y-116974000D01*
X97588110Y-116974000D01*
X97629591Y-116978085D01*
X97629591Y-116978085D01*
G37*
G36*
X94379591Y-116978085D02*
G01*
X94413569Y-116988393D01*
X94444890Y-117005134D01*
X94472339Y-117027661D01*
X94494866Y-117055110D01*
X94511607Y-117086431D01*
X94521915Y-117120409D01*
X94526000Y-117161890D01*
X94526000Y-117763110D01*
X94521915Y-117804591D01*
X94511607Y-117838569D01*
X94494866Y-117869890D01*
X94472339Y-117897339D01*
X94444890Y-117919866D01*
X94413569Y-117936607D01*
X94379591Y-117946915D01*
X94338110Y-117951000D01*
X93661890Y-117951000D01*
X93620409Y-117946915D01*
X93586431Y-117936607D01*
X93555110Y-117919866D01*
X93527661Y-117897339D01*
X93505134Y-117869890D01*
X93488393Y-117838569D01*
X93478085Y-117804591D01*
X93474000Y-117763110D01*
X93474000Y-117161890D01*
X93478085Y-117120409D01*
X93488393Y-117086431D01*
X93505134Y-117055110D01*
X93527661Y-117027661D01*
X93555110Y-117005134D01*
X93586431Y-116988393D01*
X93620409Y-116978085D01*
X93661890Y-116974000D01*
X94338110Y-116974000D01*
X94379591Y-116978085D01*
X94379591Y-116978085D01*
G37*
G36*
X92379591Y-116978085D02*
G01*
X92413569Y-116988393D01*
X92444890Y-117005134D01*
X92472339Y-117027661D01*
X92494866Y-117055110D01*
X92511607Y-117086431D01*
X92521915Y-117120409D01*
X92526000Y-117161890D01*
X92526000Y-117763110D01*
X92521915Y-117804591D01*
X92511607Y-117838569D01*
X92494866Y-117869890D01*
X92472339Y-117897339D01*
X92444890Y-117919866D01*
X92413569Y-117936607D01*
X92379591Y-117946915D01*
X92338110Y-117951000D01*
X91661890Y-117951000D01*
X91620409Y-117946915D01*
X91586431Y-117936607D01*
X91555110Y-117919866D01*
X91527661Y-117897339D01*
X91505134Y-117869890D01*
X91488393Y-117838569D01*
X91478085Y-117804591D01*
X91474000Y-117763110D01*
X91474000Y-117161890D01*
X91478085Y-117120409D01*
X91488393Y-117086431D01*
X91505134Y-117055110D01*
X91527661Y-117027661D01*
X91555110Y-117005134D01*
X91586431Y-116988393D01*
X91620409Y-116978085D01*
X91661890Y-116974000D01*
X92338110Y-116974000D01*
X92379591Y-116978085D01*
X92379591Y-116978085D01*
G37*
G36*
X99629591Y-116978085D02*
G01*
X99663569Y-116988393D01*
X99694890Y-117005134D01*
X99722339Y-117027661D01*
X99744866Y-117055110D01*
X99761607Y-117086431D01*
X99771915Y-117120409D01*
X99776000Y-117161890D01*
X99776000Y-117763110D01*
X99771915Y-117804591D01*
X99761607Y-117838569D01*
X99744866Y-117869890D01*
X99722339Y-117897339D01*
X99694890Y-117919866D01*
X99663569Y-117936607D01*
X99629591Y-117946915D01*
X99588110Y-117951000D01*
X98911890Y-117951000D01*
X98870409Y-117946915D01*
X98836431Y-117936607D01*
X98805110Y-117919866D01*
X98777661Y-117897339D01*
X98755134Y-117869890D01*
X98738393Y-117838569D01*
X98728085Y-117804591D01*
X98724000Y-117763110D01*
X98724000Y-117161890D01*
X98728085Y-117120409D01*
X98738393Y-117086431D01*
X98755134Y-117055110D01*
X98777661Y-117027661D01*
X98805110Y-117005134D01*
X98836431Y-116988393D01*
X98870409Y-116978085D01*
X98911890Y-116974000D01*
X99588110Y-116974000D01*
X99629591Y-116978085D01*
X99629591Y-116978085D01*
G37*
G36*
X102879591Y-116978085D02*
G01*
X102913569Y-116988393D01*
X102944890Y-117005134D01*
X102972339Y-117027661D01*
X102994866Y-117055110D01*
X103011607Y-117086431D01*
X103021915Y-117120409D01*
X103026000Y-117161890D01*
X103026000Y-117763110D01*
X103021915Y-117804591D01*
X103011607Y-117838569D01*
X102994866Y-117869890D01*
X102972339Y-117897339D01*
X102944890Y-117919866D01*
X102913569Y-117936607D01*
X102879591Y-117946915D01*
X102838110Y-117951000D01*
X102161890Y-117951000D01*
X102120409Y-117946915D01*
X102086431Y-117936607D01*
X102055110Y-117919866D01*
X102027661Y-117897339D01*
X102005134Y-117869890D01*
X101988393Y-117838569D01*
X101978085Y-117804591D01*
X101974000Y-117763110D01*
X101974000Y-117161890D01*
X101978085Y-117120409D01*
X101988393Y-117086431D01*
X102005134Y-117055110D01*
X102027661Y-117027661D01*
X102055110Y-117005134D01*
X102086431Y-116988393D01*
X102120409Y-116978085D01*
X102161890Y-116974000D01*
X102838110Y-116974000D01*
X102879591Y-116978085D01*
X102879591Y-116978085D01*
G37*
G36*
X87129591Y-116978085D02*
G01*
X87163569Y-116988393D01*
X87194890Y-117005134D01*
X87222339Y-117027661D01*
X87244866Y-117055110D01*
X87261607Y-117086431D01*
X87271915Y-117120409D01*
X87276000Y-117161890D01*
X87276000Y-117763110D01*
X87271915Y-117804591D01*
X87261607Y-117838569D01*
X87244866Y-117869890D01*
X87222339Y-117897339D01*
X87194890Y-117919866D01*
X87163569Y-117936607D01*
X87129591Y-117946915D01*
X87088110Y-117951000D01*
X86411890Y-117951000D01*
X86370409Y-117946915D01*
X86336431Y-117936607D01*
X86305110Y-117919866D01*
X86277661Y-117897339D01*
X86255134Y-117869890D01*
X86238393Y-117838569D01*
X86228085Y-117804591D01*
X86224000Y-117763110D01*
X86224000Y-117161890D01*
X86228085Y-117120409D01*
X86238393Y-117086431D01*
X86255134Y-117055110D01*
X86277661Y-117027661D01*
X86305110Y-117005134D01*
X86336431Y-116988393D01*
X86370409Y-116978085D01*
X86411890Y-116974000D01*
X87088110Y-116974000D01*
X87129591Y-116978085D01*
X87129591Y-116978085D01*
G37*
G36*
X104879591Y-116978085D02*
G01*
X104913569Y-116988393D01*
X104944890Y-117005134D01*
X104972339Y-117027661D01*
X104994866Y-117055110D01*
X105011607Y-117086431D01*
X105021915Y-117120409D01*
X105026000Y-117161890D01*
X105026000Y-117763110D01*
X105021915Y-117804591D01*
X105011607Y-117838569D01*
X104994866Y-117869890D01*
X104972339Y-117897339D01*
X104944890Y-117919866D01*
X104913569Y-117936607D01*
X104879591Y-117946915D01*
X104838110Y-117951000D01*
X104161890Y-117951000D01*
X104120409Y-117946915D01*
X104086431Y-117936607D01*
X104055110Y-117919866D01*
X104027661Y-117897339D01*
X104005134Y-117869890D01*
X103988393Y-117838569D01*
X103978085Y-117804591D01*
X103974000Y-117763110D01*
X103974000Y-117161890D01*
X103978085Y-117120409D01*
X103988393Y-117086431D01*
X104005134Y-117055110D01*
X104027661Y-117027661D01*
X104055110Y-117005134D01*
X104086431Y-116988393D01*
X104120409Y-116978085D01*
X104161890Y-116974000D01*
X104838110Y-116974000D01*
X104879591Y-116978085D01*
X104879591Y-116978085D01*
G37*
G36*
X89129591Y-116978085D02*
G01*
X89163569Y-116988393D01*
X89194890Y-117005134D01*
X89222339Y-117027661D01*
X89244866Y-117055110D01*
X89261607Y-117086431D01*
X89271915Y-117120409D01*
X89276000Y-117161890D01*
X89276000Y-117763110D01*
X89271915Y-117804591D01*
X89261607Y-117838569D01*
X89244866Y-117869890D01*
X89222339Y-117897339D01*
X89194890Y-117919866D01*
X89163569Y-117936607D01*
X89129591Y-117946915D01*
X89088110Y-117951000D01*
X88411890Y-117951000D01*
X88370409Y-117946915D01*
X88336431Y-117936607D01*
X88305110Y-117919866D01*
X88277661Y-117897339D01*
X88255134Y-117869890D01*
X88238393Y-117838569D01*
X88228085Y-117804591D01*
X88224000Y-117763110D01*
X88224000Y-117161890D01*
X88228085Y-117120409D01*
X88238393Y-117086431D01*
X88255134Y-117055110D01*
X88277661Y-117027661D01*
X88305110Y-117005134D01*
X88336431Y-116988393D01*
X88370409Y-116978085D01*
X88411890Y-116974000D01*
X89088110Y-116974000D01*
X89129591Y-116978085D01*
X89129591Y-116978085D01*
G37*
G36*
X77101000Y-117851000D02*
G01*
X75999000Y-117851000D01*
X75999000Y-116649000D01*
X77101000Y-116649000D01*
X77101000Y-117851000D01*
X77101000Y-117851000D01*
G37*
G36*
X112054591Y-115978085D02*
G01*
X112088569Y-115988393D01*
X112119890Y-116005134D01*
X112147339Y-116027661D01*
X112169866Y-116055110D01*
X112186607Y-116086431D01*
X112196915Y-116120409D01*
X112201000Y-116161890D01*
X112201000Y-116838110D01*
X112196915Y-116879591D01*
X112186607Y-116913569D01*
X112169866Y-116944890D01*
X112147339Y-116972339D01*
X112119890Y-116994866D01*
X112088569Y-117011607D01*
X112054591Y-117021915D01*
X112013110Y-117026000D01*
X111411890Y-117026000D01*
X111370409Y-117021915D01*
X111336431Y-117011607D01*
X111305110Y-116994866D01*
X111277661Y-116972339D01*
X111255134Y-116944890D01*
X111238393Y-116913569D01*
X111228085Y-116879591D01*
X111224000Y-116838110D01*
X111224000Y-116161890D01*
X111228085Y-116120409D01*
X111238393Y-116086431D01*
X111255134Y-116055110D01*
X111277661Y-116027661D01*
X111305110Y-116005134D01*
X111336431Y-115988393D01*
X111370409Y-115978085D01*
X111411890Y-115974000D01*
X112013110Y-115974000D01*
X112054591Y-115978085D01*
X112054591Y-115978085D01*
G37*
G36*
X113629591Y-115978085D02*
G01*
X113663569Y-115988393D01*
X113694890Y-116005134D01*
X113722339Y-116027661D01*
X113744866Y-116055110D01*
X113761607Y-116086431D01*
X113771915Y-116120409D01*
X113776000Y-116161890D01*
X113776000Y-116838110D01*
X113771915Y-116879591D01*
X113761607Y-116913569D01*
X113744866Y-116944890D01*
X113722339Y-116972339D01*
X113694890Y-116994866D01*
X113663569Y-117011607D01*
X113629591Y-117021915D01*
X113588110Y-117026000D01*
X112986890Y-117026000D01*
X112945409Y-117021915D01*
X112911431Y-117011607D01*
X112880110Y-116994866D01*
X112852661Y-116972339D01*
X112830134Y-116944890D01*
X112813393Y-116913569D01*
X112803085Y-116879591D01*
X112799000Y-116838110D01*
X112799000Y-116161890D01*
X112803085Y-116120409D01*
X112813393Y-116086431D01*
X112830134Y-116055110D01*
X112852661Y-116027661D01*
X112880110Y-116005134D01*
X112911431Y-115988393D01*
X112945409Y-115978085D01*
X112986890Y-115974000D01*
X113588110Y-115974000D01*
X113629591Y-115978085D01*
X113629591Y-115978085D01*
G37*
G36*
X116054591Y-115978085D02*
G01*
X116088569Y-115988393D01*
X116119890Y-116005134D01*
X116147339Y-116027661D01*
X116169866Y-116055110D01*
X116186607Y-116086431D01*
X116196915Y-116120409D01*
X116201000Y-116161890D01*
X116201000Y-116838110D01*
X116196915Y-116879591D01*
X116186607Y-116913569D01*
X116169866Y-116944890D01*
X116147339Y-116972339D01*
X116119890Y-116994866D01*
X116088569Y-117011607D01*
X116054591Y-117021915D01*
X116013110Y-117026000D01*
X115411890Y-117026000D01*
X115370409Y-117021915D01*
X115336431Y-117011607D01*
X115305110Y-116994866D01*
X115277661Y-116972339D01*
X115255134Y-116944890D01*
X115238393Y-116913569D01*
X115228085Y-116879591D01*
X115224000Y-116838110D01*
X115224000Y-116161890D01*
X115228085Y-116120409D01*
X115238393Y-116086431D01*
X115255134Y-116055110D01*
X115277661Y-116027661D01*
X115305110Y-116005134D01*
X115336431Y-115988393D01*
X115370409Y-115978085D01*
X115411890Y-115974000D01*
X116013110Y-115974000D01*
X116054591Y-115978085D01*
X116054591Y-115978085D01*
G37*
G36*
X117629591Y-115978085D02*
G01*
X117663569Y-115988393D01*
X117694890Y-116005134D01*
X117722339Y-116027661D01*
X117744866Y-116055110D01*
X117761607Y-116086431D01*
X117771915Y-116120409D01*
X117776000Y-116161890D01*
X117776000Y-116838110D01*
X117771915Y-116879591D01*
X117761607Y-116913569D01*
X117744866Y-116944890D01*
X117722339Y-116972339D01*
X117694890Y-116994866D01*
X117663569Y-117011607D01*
X117629591Y-117021915D01*
X117588110Y-117026000D01*
X116986890Y-117026000D01*
X116945409Y-117021915D01*
X116911431Y-117011607D01*
X116880110Y-116994866D01*
X116852661Y-116972339D01*
X116830134Y-116944890D01*
X116813393Y-116913569D01*
X116803085Y-116879591D01*
X116799000Y-116838110D01*
X116799000Y-116161890D01*
X116803085Y-116120409D01*
X116813393Y-116086431D01*
X116830134Y-116055110D01*
X116852661Y-116027661D01*
X116880110Y-116005134D01*
X116911431Y-115988393D01*
X116945409Y-115978085D01*
X116986890Y-115974000D01*
X117588110Y-115974000D01*
X117629591Y-115978085D01*
X117629591Y-115978085D01*
G37*
G36*
X104879591Y-114553085D02*
G01*
X104913569Y-114563393D01*
X104944890Y-114580134D01*
X104972339Y-114602661D01*
X104994866Y-114630110D01*
X105011607Y-114661431D01*
X105021915Y-114695409D01*
X105026000Y-114736890D01*
X105026000Y-115338110D01*
X105021915Y-115379591D01*
X105011607Y-115413569D01*
X104994866Y-115444890D01*
X104972339Y-115472339D01*
X104944890Y-115494866D01*
X104913569Y-115511607D01*
X104879591Y-115521915D01*
X104838110Y-115526000D01*
X104161890Y-115526000D01*
X104120409Y-115521915D01*
X104086431Y-115511607D01*
X104055110Y-115494866D01*
X104027661Y-115472339D01*
X104005134Y-115444890D01*
X103988393Y-115413569D01*
X103978085Y-115379591D01*
X103974000Y-115338110D01*
X103974000Y-114736890D01*
X103978085Y-114695409D01*
X103988393Y-114661431D01*
X104005134Y-114630110D01*
X104027661Y-114602661D01*
X104055110Y-114580134D01*
X104086431Y-114563393D01*
X104120409Y-114553085D01*
X104161890Y-114549000D01*
X104838110Y-114549000D01*
X104879591Y-114553085D01*
X104879591Y-114553085D01*
G37*
G36*
X94379591Y-114553085D02*
G01*
X94413569Y-114563393D01*
X94444890Y-114580134D01*
X94472339Y-114602661D01*
X94494866Y-114630110D01*
X94511607Y-114661431D01*
X94521915Y-114695409D01*
X94526000Y-114736890D01*
X94526000Y-115338110D01*
X94521915Y-115379591D01*
X94511607Y-115413569D01*
X94494866Y-115444890D01*
X94472339Y-115472339D01*
X94444890Y-115494866D01*
X94413569Y-115511607D01*
X94379591Y-115521915D01*
X94338110Y-115526000D01*
X93661890Y-115526000D01*
X93620409Y-115521915D01*
X93586431Y-115511607D01*
X93555110Y-115494866D01*
X93527661Y-115472339D01*
X93505134Y-115444890D01*
X93488393Y-115413569D01*
X93478085Y-115379591D01*
X93474000Y-115338110D01*
X93474000Y-114736890D01*
X93478085Y-114695409D01*
X93488393Y-114661431D01*
X93505134Y-114630110D01*
X93527661Y-114602661D01*
X93555110Y-114580134D01*
X93586431Y-114563393D01*
X93620409Y-114553085D01*
X93661890Y-114549000D01*
X94338110Y-114549000D01*
X94379591Y-114553085D01*
X94379591Y-114553085D01*
G37*
G36*
X92379591Y-114553085D02*
G01*
X92413569Y-114563393D01*
X92444890Y-114580134D01*
X92472339Y-114602661D01*
X92494866Y-114630110D01*
X92511607Y-114661431D01*
X92521915Y-114695409D01*
X92526000Y-114736890D01*
X92526000Y-115338110D01*
X92521915Y-115379591D01*
X92511607Y-115413569D01*
X92494866Y-115444890D01*
X92472339Y-115472339D01*
X92444890Y-115494866D01*
X92413569Y-115511607D01*
X92379591Y-115521915D01*
X92338110Y-115526000D01*
X91661890Y-115526000D01*
X91620409Y-115521915D01*
X91586431Y-115511607D01*
X91555110Y-115494866D01*
X91527661Y-115472339D01*
X91505134Y-115444890D01*
X91488393Y-115413569D01*
X91478085Y-115379591D01*
X91474000Y-115338110D01*
X91474000Y-114736890D01*
X91478085Y-114695409D01*
X91488393Y-114661431D01*
X91505134Y-114630110D01*
X91527661Y-114602661D01*
X91555110Y-114580134D01*
X91586431Y-114563393D01*
X91620409Y-114553085D01*
X91661890Y-114549000D01*
X92338110Y-114549000D01*
X92379591Y-114553085D01*
X92379591Y-114553085D01*
G37*
G36*
X89129591Y-114553085D02*
G01*
X89163569Y-114563393D01*
X89194890Y-114580134D01*
X89222339Y-114602661D01*
X89244866Y-114630110D01*
X89261607Y-114661431D01*
X89271915Y-114695409D01*
X89276000Y-114736890D01*
X89276000Y-115338110D01*
X89271915Y-115379591D01*
X89261607Y-115413569D01*
X89244866Y-115444890D01*
X89222339Y-115472339D01*
X89194890Y-115494866D01*
X89163569Y-115511607D01*
X89129591Y-115521915D01*
X89088110Y-115526000D01*
X88411890Y-115526000D01*
X88370409Y-115521915D01*
X88336431Y-115511607D01*
X88305110Y-115494866D01*
X88277661Y-115472339D01*
X88255134Y-115444890D01*
X88238393Y-115413569D01*
X88228085Y-115379591D01*
X88224000Y-115338110D01*
X88224000Y-114736890D01*
X88228085Y-114695409D01*
X88238393Y-114661431D01*
X88255134Y-114630110D01*
X88277661Y-114602661D01*
X88305110Y-114580134D01*
X88336431Y-114563393D01*
X88370409Y-114553085D01*
X88411890Y-114549000D01*
X89088110Y-114549000D01*
X89129591Y-114553085D01*
X89129591Y-114553085D01*
G37*
G36*
X99629591Y-114553085D02*
G01*
X99663569Y-114563393D01*
X99694890Y-114580134D01*
X99722339Y-114602661D01*
X99744866Y-114630110D01*
X99761607Y-114661431D01*
X99771915Y-114695409D01*
X99776000Y-114736890D01*
X99776000Y-115338110D01*
X99771915Y-115379591D01*
X99761607Y-115413569D01*
X99744866Y-115444890D01*
X99722339Y-115472339D01*
X99694890Y-115494866D01*
X99663569Y-115511607D01*
X99629591Y-115521915D01*
X99588110Y-115526000D01*
X98911890Y-115526000D01*
X98870409Y-115521915D01*
X98836431Y-115511607D01*
X98805110Y-115494866D01*
X98777661Y-115472339D01*
X98755134Y-115444890D01*
X98738393Y-115413569D01*
X98728085Y-115379591D01*
X98724000Y-115338110D01*
X98724000Y-114736890D01*
X98728085Y-114695409D01*
X98738393Y-114661431D01*
X98755134Y-114630110D01*
X98777661Y-114602661D01*
X98805110Y-114580134D01*
X98836431Y-114563393D01*
X98870409Y-114553085D01*
X98911890Y-114549000D01*
X99588110Y-114549000D01*
X99629591Y-114553085D01*
X99629591Y-114553085D01*
G37*
G36*
X97629591Y-114553085D02*
G01*
X97663569Y-114563393D01*
X97694890Y-114580134D01*
X97722339Y-114602661D01*
X97744866Y-114630110D01*
X97761607Y-114661431D01*
X97771915Y-114695409D01*
X97776000Y-114736890D01*
X97776000Y-115338110D01*
X97771915Y-115379591D01*
X97761607Y-115413569D01*
X97744866Y-115444890D01*
X97722339Y-115472339D01*
X97694890Y-115494866D01*
X97663569Y-115511607D01*
X97629591Y-115521915D01*
X97588110Y-115526000D01*
X96911890Y-115526000D01*
X96870409Y-115521915D01*
X96836431Y-115511607D01*
X96805110Y-115494866D01*
X96777661Y-115472339D01*
X96755134Y-115444890D01*
X96738393Y-115413569D01*
X96728085Y-115379591D01*
X96724000Y-115338110D01*
X96724000Y-114736890D01*
X96728085Y-114695409D01*
X96738393Y-114661431D01*
X96755134Y-114630110D01*
X96777661Y-114602661D01*
X96805110Y-114580134D01*
X96836431Y-114563393D01*
X96870409Y-114553085D01*
X96911890Y-114549000D01*
X97588110Y-114549000D01*
X97629591Y-114553085D01*
X97629591Y-114553085D01*
G37*
G36*
X87129591Y-114553085D02*
G01*
X87163569Y-114563393D01*
X87194890Y-114580134D01*
X87222339Y-114602661D01*
X87244866Y-114630110D01*
X87261607Y-114661431D01*
X87271915Y-114695409D01*
X87276000Y-114736890D01*
X87276000Y-115338110D01*
X87271915Y-115379591D01*
X87261607Y-115413569D01*
X87244866Y-115444890D01*
X87222339Y-115472339D01*
X87194890Y-115494866D01*
X87163569Y-115511607D01*
X87129591Y-115521915D01*
X87088110Y-115526000D01*
X86411890Y-115526000D01*
X86370409Y-115521915D01*
X86336431Y-115511607D01*
X86305110Y-115494866D01*
X86277661Y-115472339D01*
X86255134Y-115444890D01*
X86238393Y-115413569D01*
X86228085Y-115379591D01*
X86224000Y-115338110D01*
X86224000Y-114736890D01*
X86228085Y-114695409D01*
X86238393Y-114661431D01*
X86255134Y-114630110D01*
X86277661Y-114602661D01*
X86305110Y-114580134D01*
X86336431Y-114563393D01*
X86370409Y-114553085D01*
X86411890Y-114549000D01*
X87088110Y-114549000D01*
X87129591Y-114553085D01*
X87129591Y-114553085D01*
G37*
G36*
X102879591Y-114553085D02*
G01*
X102913569Y-114563393D01*
X102944890Y-114580134D01*
X102972339Y-114602661D01*
X102994866Y-114630110D01*
X103011607Y-114661431D01*
X103021915Y-114695409D01*
X103026000Y-114736890D01*
X103026000Y-115338110D01*
X103021915Y-115379591D01*
X103011607Y-115413569D01*
X102994866Y-115444890D01*
X102972339Y-115472339D01*
X102944890Y-115494866D01*
X102913569Y-115511607D01*
X102879591Y-115521915D01*
X102838110Y-115526000D01*
X102161890Y-115526000D01*
X102120409Y-115521915D01*
X102086431Y-115511607D01*
X102055110Y-115494866D01*
X102027661Y-115472339D01*
X102005134Y-115444890D01*
X101988393Y-115413569D01*
X101978085Y-115379591D01*
X101974000Y-115338110D01*
X101974000Y-114736890D01*
X101978085Y-114695409D01*
X101988393Y-114661431D01*
X102005134Y-114630110D01*
X102027661Y-114602661D01*
X102055110Y-114580134D01*
X102086431Y-114563393D01*
X102120409Y-114553085D01*
X102161890Y-114549000D01*
X102838110Y-114549000D01*
X102879591Y-114553085D01*
X102879591Y-114553085D01*
G37*
G36*
X78531000Y-115401000D02*
G01*
X76929000Y-115401000D01*
X76929000Y-113949000D01*
X78531000Y-113949000D01*
X78531000Y-115401000D01*
X78531000Y-115401000D01*
G37*
G36*
X97629591Y-112978085D02*
G01*
X97663569Y-112988393D01*
X97694890Y-113005134D01*
X97722339Y-113027661D01*
X97744866Y-113055110D01*
X97761607Y-113086431D01*
X97771915Y-113120409D01*
X97776000Y-113161890D01*
X97776000Y-113763110D01*
X97771915Y-113804591D01*
X97761607Y-113838569D01*
X97744866Y-113869890D01*
X97722339Y-113897339D01*
X97694890Y-113919866D01*
X97663569Y-113936607D01*
X97629591Y-113946915D01*
X97588110Y-113951000D01*
X96911890Y-113951000D01*
X96870409Y-113946915D01*
X96836431Y-113936607D01*
X96805110Y-113919866D01*
X96777661Y-113897339D01*
X96755134Y-113869890D01*
X96738393Y-113838569D01*
X96728085Y-113804591D01*
X96724000Y-113763110D01*
X96724000Y-113161890D01*
X96728085Y-113120409D01*
X96738393Y-113086431D01*
X96755134Y-113055110D01*
X96777661Y-113027661D01*
X96805110Y-113005134D01*
X96836431Y-112988393D01*
X96870409Y-112978085D01*
X96911890Y-112974000D01*
X97588110Y-112974000D01*
X97629591Y-112978085D01*
X97629591Y-112978085D01*
G37*
G36*
X99629591Y-112978085D02*
G01*
X99663569Y-112988393D01*
X99694890Y-113005134D01*
X99722339Y-113027661D01*
X99744866Y-113055110D01*
X99761607Y-113086431D01*
X99771915Y-113120409D01*
X99776000Y-113161890D01*
X99776000Y-113763110D01*
X99771915Y-113804591D01*
X99761607Y-113838569D01*
X99744866Y-113869890D01*
X99722339Y-113897339D01*
X99694890Y-113919866D01*
X99663569Y-113936607D01*
X99629591Y-113946915D01*
X99588110Y-113951000D01*
X98911890Y-113951000D01*
X98870409Y-113946915D01*
X98836431Y-113936607D01*
X98805110Y-113919866D01*
X98777661Y-113897339D01*
X98755134Y-113869890D01*
X98738393Y-113838569D01*
X98728085Y-113804591D01*
X98724000Y-113763110D01*
X98724000Y-113161890D01*
X98728085Y-113120409D01*
X98738393Y-113086431D01*
X98755134Y-113055110D01*
X98777661Y-113027661D01*
X98805110Y-113005134D01*
X98836431Y-112988393D01*
X98870409Y-112978085D01*
X98911890Y-112974000D01*
X99588110Y-112974000D01*
X99629591Y-112978085D01*
X99629591Y-112978085D01*
G37*
G36*
X102879591Y-112978085D02*
G01*
X102913569Y-112988393D01*
X102944890Y-113005134D01*
X102972339Y-113027661D01*
X102994866Y-113055110D01*
X103011607Y-113086431D01*
X103021915Y-113120409D01*
X103026000Y-113161890D01*
X103026000Y-113763110D01*
X103021915Y-113804591D01*
X103011607Y-113838569D01*
X102994866Y-113869890D01*
X102972339Y-113897339D01*
X102944890Y-113919866D01*
X102913569Y-113936607D01*
X102879591Y-113946915D01*
X102838110Y-113951000D01*
X102161890Y-113951000D01*
X102120409Y-113946915D01*
X102086431Y-113936607D01*
X102055110Y-113919866D01*
X102027661Y-113897339D01*
X102005134Y-113869890D01*
X101988393Y-113838569D01*
X101978085Y-113804591D01*
X101974000Y-113763110D01*
X101974000Y-113161890D01*
X101978085Y-113120409D01*
X101988393Y-113086431D01*
X102005134Y-113055110D01*
X102027661Y-113027661D01*
X102055110Y-113005134D01*
X102086431Y-112988393D01*
X102120409Y-112978085D01*
X102161890Y-112974000D01*
X102838110Y-112974000D01*
X102879591Y-112978085D01*
X102879591Y-112978085D01*
G37*
G36*
X87129591Y-112978085D02*
G01*
X87163569Y-112988393D01*
X87194890Y-113005134D01*
X87222339Y-113027661D01*
X87244866Y-113055110D01*
X87261607Y-113086431D01*
X87271915Y-113120409D01*
X87276000Y-113161890D01*
X87276000Y-113763110D01*
X87271915Y-113804591D01*
X87261607Y-113838569D01*
X87244866Y-113869890D01*
X87222339Y-113897339D01*
X87194890Y-113919866D01*
X87163569Y-113936607D01*
X87129591Y-113946915D01*
X87088110Y-113951000D01*
X86411890Y-113951000D01*
X86370409Y-113946915D01*
X86336431Y-113936607D01*
X86305110Y-113919866D01*
X86277661Y-113897339D01*
X86255134Y-113869890D01*
X86238393Y-113838569D01*
X86228085Y-113804591D01*
X86224000Y-113763110D01*
X86224000Y-113161890D01*
X86228085Y-113120409D01*
X86238393Y-113086431D01*
X86255134Y-113055110D01*
X86277661Y-113027661D01*
X86305110Y-113005134D01*
X86336431Y-112988393D01*
X86370409Y-112978085D01*
X86411890Y-112974000D01*
X87088110Y-112974000D01*
X87129591Y-112978085D01*
X87129591Y-112978085D01*
G37*
G36*
X89129591Y-112978085D02*
G01*
X89163569Y-112988393D01*
X89194890Y-113005134D01*
X89222339Y-113027661D01*
X89244866Y-113055110D01*
X89261607Y-113086431D01*
X89271915Y-113120409D01*
X89276000Y-113161890D01*
X89276000Y-113763110D01*
X89271915Y-113804591D01*
X89261607Y-113838569D01*
X89244866Y-113869890D01*
X89222339Y-113897339D01*
X89194890Y-113919866D01*
X89163569Y-113936607D01*
X89129591Y-113946915D01*
X89088110Y-113951000D01*
X88411890Y-113951000D01*
X88370409Y-113946915D01*
X88336431Y-113936607D01*
X88305110Y-113919866D01*
X88277661Y-113897339D01*
X88255134Y-113869890D01*
X88238393Y-113838569D01*
X88228085Y-113804591D01*
X88224000Y-113763110D01*
X88224000Y-113161890D01*
X88228085Y-113120409D01*
X88238393Y-113086431D01*
X88255134Y-113055110D01*
X88277661Y-113027661D01*
X88305110Y-113005134D01*
X88336431Y-112988393D01*
X88370409Y-112978085D01*
X88411890Y-112974000D01*
X89088110Y-112974000D01*
X89129591Y-112978085D01*
X89129591Y-112978085D01*
G37*
G36*
X92379591Y-112978085D02*
G01*
X92413569Y-112988393D01*
X92444890Y-113005134D01*
X92472339Y-113027661D01*
X92494866Y-113055110D01*
X92511607Y-113086431D01*
X92521915Y-113120409D01*
X92526000Y-113161890D01*
X92526000Y-113763110D01*
X92521915Y-113804591D01*
X92511607Y-113838569D01*
X92494866Y-113869890D01*
X92472339Y-113897339D01*
X92444890Y-113919866D01*
X92413569Y-113936607D01*
X92379591Y-113946915D01*
X92338110Y-113951000D01*
X91661890Y-113951000D01*
X91620409Y-113946915D01*
X91586431Y-113936607D01*
X91555110Y-113919866D01*
X91527661Y-113897339D01*
X91505134Y-113869890D01*
X91488393Y-113838569D01*
X91478085Y-113804591D01*
X91474000Y-113763110D01*
X91474000Y-113161890D01*
X91478085Y-113120409D01*
X91488393Y-113086431D01*
X91505134Y-113055110D01*
X91527661Y-113027661D01*
X91555110Y-113005134D01*
X91586431Y-112988393D01*
X91620409Y-112978085D01*
X91661890Y-112974000D01*
X92338110Y-112974000D01*
X92379591Y-112978085D01*
X92379591Y-112978085D01*
G37*
G36*
X94379591Y-112978085D02*
G01*
X94413569Y-112988393D01*
X94444890Y-113005134D01*
X94472339Y-113027661D01*
X94494866Y-113055110D01*
X94511607Y-113086431D01*
X94521915Y-113120409D01*
X94526000Y-113161890D01*
X94526000Y-113763110D01*
X94521915Y-113804591D01*
X94511607Y-113838569D01*
X94494866Y-113869890D01*
X94472339Y-113897339D01*
X94444890Y-113919866D01*
X94413569Y-113936607D01*
X94379591Y-113946915D01*
X94338110Y-113951000D01*
X93661890Y-113951000D01*
X93620409Y-113946915D01*
X93586431Y-113936607D01*
X93555110Y-113919866D01*
X93527661Y-113897339D01*
X93505134Y-113869890D01*
X93488393Y-113838569D01*
X93478085Y-113804591D01*
X93474000Y-113763110D01*
X93474000Y-113161890D01*
X93478085Y-113120409D01*
X93488393Y-113086431D01*
X93505134Y-113055110D01*
X93527661Y-113027661D01*
X93555110Y-113005134D01*
X93586431Y-112988393D01*
X93620409Y-112978085D01*
X93661890Y-112974000D01*
X94338110Y-112974000D01*
X94379591Y-112978085D01*
X94379591Y-112978085D01*
G37*
G36*
X104879591Y-112978085D02*
G01*
X104913569Y-112988393D01*
X104944890Y-113005134D01*
X104972339Y-113027661D01*
X104994866Y-113055110D01*
X105011607Y-113086431D01*
X105021915Y-113120409D01*
X105026000Y-113161890D01*
X105026000Y-113763110D01*
X105021915Y-113804591D01*
X105011607Y-113838569D01*
X104994866Y-113869890D01*
X104972339Y-113897339D01*
X104944890Y-113919866D01*
X104913569Y-113936607D01*
X104879591Y-113946915D01*
X104838110Y-113951000D01*
X104161890Y-113951000D01*
X104120409Y-113946915D01*
X104086431Y-113936607D01*
X104055110Y-113919866D01*
X104027661Y-113897339D01*
X104005134Y-113869890D01*
X103988393Y-113838569D01*
X103978085Y-113804591D01*
X103974000Y-113763110D01*
X103974000Y-113161890D01*
X103978085Y-113120409D01*
X103988393Y-113086431D01*
X104005134Y-113055110D01*
X104027661Y-113027661D01*
X104055110Y-113005134D01*
X104086431Y-112988393D01*
X104120409Y-112978085D01*
X104161890Y-112974000D01*
X104838110Y-112974000D01*
X104879591Y-112978085D01*
X104879591Y-112978085D01*
G37*
G36*
X113629591Y-112728085D02*
G01*
X113663569Y-112738393D01*
X113694890Y-112755134D01*
X113722339Y-112777661D01*
X113744866Y-112805110D01*
X113761607Y-112836431D01*
X113771915Y-112870409D01*
X113776000Y-112911890D01*
X113776000Y-113588110D01*
X113771915Y-113629591D01*
X113761607Y-113663569D01*
X113744866Y-113694890D01*
X113722339Y-113722339D01*
X113694890Y-113744866D01*
X113663569Y-113761607D01*
X113629591Y-113771915D01*
X113588110Y-113776000D01*
X112986890Y-113776000D01*
X112945409Y-113771915D01*
X112911431Y-113761607D01*
X112880110Y-113744866D01*
X112852661Y-113722339D01*
X112830134Y-113694890D01*
X112813393Y-113663569D01*
X112803085Y-113629591D01*
X112799000Y-113588110D01*
X112799000Y-112911890D01*
X112803085Y-112870409D01*
X112813393Y-112836431D01*
X112830134Y-112805110D01*
X112852661Y-112777661D01*
X112880110Y-112755134D01*
X112911431Y-112738393D01*
X112945409Y-112728085D01*
X112986890Y-112724000D01*
X113588110Y-112724000D01*
X113629591Y-112728085D01*
X113629591Y-112728085D01*
G37*
G36*
X116054591Y-112728085D02*
G01*
X116088569Y-112738393D01*
X116119890Y-112755134D01*
X116147339Y-112777661D01*
X116169866Y-112805110D01*
X116186607Y-112836431D01*
X116196915Y-112870409D01*
X116201000Y-112911890D01*
X116201000Y-113588110D01*
X116196915Y-113629591D01*
X116186607Y-113663569D01*
X116169866Y-113694890D01*
X116147339Y-113722339D01*
X116119890Y-113744866D01*
X116088569Y-113761607D01*
X116054591Y-113771915D01*
X116013110Y-113776000D01*
X115411890Y-113776000D01*
X115370409Y-113771915D01*
X115336431Y-113761607D01*
X115305110Y-113744866D01*
X115277661Y-113722339D01*
X115255134Y-113694890D01*
X115238393Y-113663569D01*
X115228085Y-113629591D01*
X115224000Y-113588110D01*
X115224000Y-112911890D01*
X115228085Y-112870409D01*
X115238393Y-112836431D01*
X115255134Y-112805110D01*
X115277661Y-112777661D01*
X115305110Y-112755134D01*
X115336431Y-112738393D01*
X115370409Y-112728085D01*
X115411890Y-112724000D01*
X116013110Y-112724000D01*
X116054591Y-112728085D01*
X116054591Y-112728085D01*
G37*
G36*
X112054591Y-112728085D02*
G01*
X112088569Y-112738393D01*
X112119890Y-112755134D01*
X112147339Y-112777661D01*
X112169866Y-112805110D01*
X112186607Y-112836431D01*
X112196915Y-112870409D01*
X112201000Y-112911890D01*
X112201000Y-113588110D01*
X112196915Y-113629591D01*
X112186607Y-113663569D01*
X112169866Y-113694890D01*
X112147339Y-113722339D01*
X112119890Y-113744866D01*
X112088569Y-113761607D01*
X112054591Y-113771915D01*
X112013110Y-113776000D01*
X111411890Y-113776000D01*
X111370409Y-113771915D01*
X111336431Y-113761607D01*
X111305110Y-113744866D01*
X111277661Y-113722339D01*
X111255134Y-113694890D01*
X111238393Y-113663569D01*
X111228085Y-113629591D01*
X111224000Y-113588110D01*
X111224000Y-112911890D01*
X111228085Y-112870409D01*
X111238393Y-112836431D01*
X111255134Y-112805110D01*
X111277661Y-112777661D01*
X111305110Y-112755134D01*
X111336431Y-112738393D01*
X111370409Y-112728085D01*
X111411890Y-112724000D01*
X112013110Y-112724000D01*
X112054591Y-112728085D01*
X112054591Y-112728085D01*
G37*
G36*
X117629591Y-112728085D02*
G01*
X117663569Y-112738393D01*
X117694890Y-112755134D01*
X117722339Y-112777661D01*
X117744866Y-112805110D01*
X117761607Y-112836431D01*
X117771915Y-112870409D01*
X117776000Y-112911890D01*
X117776000Y-113588110D01*
X117771915Y-113629591D01*
X117761607Y-113663569D01*
X117744866Y-113694890D01*
X117722339Y-113722339D01*
X117694890Y-113744866D01*
X117663569Y-113761607D01*
X117629591Y-113771915D01*
X117588110Y-113776000D01*
X116986890Y-113776000D01*
X116945409Y-113771915D01*
X116911431Y-113761607D01*
X116880110Y-113744866D01*
X116852661Y-113722339D01*
X116830134Y-113694890D01*
X116813393Y-113663569D01*
X116803085Y-113629591D01*
X116799000Y-113588110D01*
X116799000Y-112911890D01*
X116803085Y-112870409D01*
X116813393Y-112836431D01*
X116830134Y-112805110D01*
X116852661Y-112777661D01*
X116880110Y-112755134D01*
X116911431Y-112738393D01*
X116945409Y-112728085D01*
X116986890Y-112724000D01*
X117588110Y-112724000D01*
X117629591Y-112728085D01*
X117629591Y-112728085D01*
G37*
G36*
X112054591Y-110728085D02*
G01*
X112088569Y-110738393D01*
X112119890Y-110755134D01*
X112147339Y-110777661D01*
X112169866Y-110805110D01*
X112186607Y-110836431D01*
X112196915Y-110870409D01*
X112201000Y-110911890D01*
X112201000Y-111588110D01*
X112196915Y-111629591D01*
X112186607Y-111663569D01*
X112169866Y-111694890D01*
X112147339Y-111722339D01*
X112119890Y-111744866D01*
X112088569Y-111761607D01*
X112054591Y-111771915D01*
X112013110Y-111776000D01*
X111411890Y-111776000D01*
X111370409Y-111771915D01*
X111336431Y-111761607D01*
X111305110Y-111744866D01*
X111277661Y-111722339D01*
X111255134Y-111694890D01*
X111238393Y-111663569D01*
X111228085Y-111629591D01*
X111224000Y-111588110D01*
X111224000Y-110911890D01*
X111228085Y-110870409D01*
X111238393Y-110836431D01*
X111255134Y-110805110D01*
X111277661Y-110777661D01*
X111305110Y-110755134D01*
X111336431Y-110738393D01*
X111370409Y-110728085D01*
X111411890Y-110724000D01*
X112013110Y-110724000D01*
X112054591Y-110728085D01*
X112054591Y-110728085D01*
G37*
G36*
X113629591Y-110728085D02*
G01*
X113663569Y-110738393D01*
X113694890Y-110755134D01*
X113722339Y-110777661D01*
X113744866Y-110805110D01*
X113761607Y-110836431D01*
X113771915Y-110870409D01*
X113776000Y-110911890D01*
X113776000Y-111588110D01*
X113771915Y-111629591D01*
X113761607Y-111663569D01*
X113744866Y-111694890D01*
X113722339Y-111722339D01*
X113694890Y-111744866D01*
X113663569Y-111761607D01*
X113629591Y-111771915D01*
X113588110Y-111776000D01*
X112986890Y-111776000D01*
X112945409Y-111771915D01*
X112911431Y-111761607D01*
X112880110Y-111744866D01*
X112852661Y-111722339D01*
X112830134Y-111694890D01*
X112813393Y-111663569D01*
X112803085Y-111629591D01*
X112799000Y-111588110D01*
X112799000Y-110911890D01*
X112803085Y-110870409D01*
X112813393Y-110836431D01*
X112830134Y-110805110D01*
X112852661Y-110777661D01*
X112880110Y-110755134D01*
X112911431Y-110738393D01*
X112945409Y-110728085D01*
X112986890Y-110724000D01*
X113588110Y-110724000D01*
X113629591Y-110728085D01*
X113629591Y-110728085D01*
G37*
G36*
X117629591Y-110728085D02*
G01*
X117663569Y-110738393D01*
X117694890Y-110755134D01*
X117722339Y-110777661D01*
X117744866Y-110805110D01*
X117761607Y-110836431D01*
X117771915Y-110870409D01*
X117776000Y-110911890D01*
X117776000Y-111588110D01*
X117771915Y-111629591D01*
X117761607Y-111663569D01*
X117744866Y-111694890D01*
X117722339Y-111722339D01*
X117694890Y-111744866D01*
X117663569Y-111761607D01*
X117629591Y-111771915D01*
X117588110Y-111776000D01*
X116986890Y-111776000D01*
X116945409Y-111771915D01*
X116911431Y-111761607D01*
X116880110Y-111744866D01*
X116852661Y-111722339D01*
X116830134Y-111694890D01*
X116813393Y-111663569D01*
X116803085Y-111629591D01*
X116799000Y-111588110D01*
X116799000Y-110911890D01*
X116803085Y-110870409D01*
X116813393Y-110836431D01*
X116830134Y-110805110D01*
X116852661Y-110777661D01*
X116880110Y-110755134D01*
X116911431Y-110738393D01*
X116945409Y-110728085D01*
X116986890Y-110724000D01*
X117588110Y-110724000D01*
X117629591Y-110728085D01*
X117629591Y-110728085D01*
G37*
G36*
X116054591Y-110728085D02*
G01*
X116088569Y-110738393D01*
X116119890Y-110755134D01*
X116147339Y-110777661D01*
X116169866Y-110805110D01*
X116186607Y-110836431D01*
X116196915Y-110870409D01*
X116201000Y-110911890D01*
X116201000Y-111588110D01*
X116196915Y-111629591D01*
X116186607Y-111663569D01*
X116169866Y-111694890D01*
X116147339Y-111722339D01*
X116119890Y-111744866D01*
X116088569Y-111761607D01*
X116054591Y-111771915D01*
X116013110Y-111776000D01*
X115411890Y-111776000D01*
X115370409Y-111771915D01*
X115336431Y-111761607D01*
X115305110Y-111744866D01*
X115277661Y-111722339D01*
X115255134Y-111694890D01*
X115238393Y-111663569D01*
X115228085Y-111629591D01*
X115224000Y-111588110D01*
X115224000Y-110911890D01*
X115228085Y-110870409D01*
X115238393Y-110836431D01*
X115255134Y-110805110D01*
X115277661Y-110777661D01*
X115305110Y-110755134D01*
X115336431Y-110738393D01*
X115370409Y-110728085D01*
X115411890Y-110724000D01*
X116013110Y-110724000D01*
X116054591Y-110728085D01*
X116054591Y-110728085D01*
G37*
G36*
X78129591Y-110553085D02*
G01*
X78163569Y-110563393D01*
X78194890Y-110580134D01*
X78222339Y-110602661D01*
X78244866Y-110630110D01*
X78261607Y-110661431D01*
X78271915Y-110695409D01*
X78276000Y-110736890D01*
X78276000Y-111338110D01*
X78271915Y-111379591D01*
X78261607Y-111413569D01*
X78244866Y-111444890D01*
X78222339Y-111472339D01*
X78194890Y-111494866D01*
X78163569Y-111511607D01*
X78129591Y-111521915D01*
X78088110Y-111526000D01*
X77411890Y-111526000D01*
X77370409Y-111521915D01*
X77336431Y-111511607D01*
X77305110Y-111494866D01*
X77277661Y-111472339D01*
X77255134Y-111444890D01*
X77238393Y-111413569D01*
X77228085Y-111379591D01*
X77224000Y-111338110D01*
X77224000Y-110736890D01*
X77228085Y-110695409D01*
X77238393Y-110661431D01*
X77255134Y-110630110D01*
X77277661Y-110602661D01*
X77305110Y-110580134D01*
X77336431Y-110563393D01*
X77370409Y-110553085D01*
X77411890Y-110549000D01*
X78088110Y-110549000D01*
X78129591Y-110553085D01*
X78129591Y-110553085D01*
G37*
G36*
X81026000Y-110301000D02*
G01*
X79674000Y-110301000D01*
X79674000Y-108699000D01*
X81026000Y-108699000D01*
X81026000Y-110301000D01*
X81026000Y-110301000D01*
G37*
G36*
X83826000Y-110301000D02*
G01*
X82474000Y-110301000D01*
X82474000Y-108699000D01*
X83826000Y-108699000D01*
X83826000Y-110301000D01*
X83826000Y-110301000D01*
G37*
G36*
X78129591Y-108978085D02*
G01*
X78163569Y-108988393D01*
X78194890Y-109005134D01*
X78222339Y-109027661D01*
X78244866Y-109055110D01*
X78261607Y-109086431D01*
X78271915Y-109120409D01*
X78276000Y-109161890D01*
X78276000Y-109763110D01*
X78271915Y-109804591D01*
X78261607Y-109838569D01*
X78244866Y-109869890D01*
X78222339Y-109897339D01*
X78194890Y-109919866D01*
X78163569Y-109936607D01*
X78129591Y-109946915D01*
X78088110Y-109951000D01*
X77411890Y-109951000D01*
X77370409Y-109946915D01*
X77336431Y-109936607D01*
X77305110Y-109919866D01*
X77277661Y-109897339D01*
X77255134Y-109869890D01*
X77238393Y-109838569D01*
X77228085Y-109804591D01*
X77224000Y-109763110D01*
X77224000Y-109161890D01*
X77228085Y-109120409D01*
X77238393Y-109086431D01*
X77255134Y-109055110D01*
X77277661Y-109027661D01*
X77305110Y-109005134D01*
X77336431Y-108988393D01*
X77370409Y-108978085D01*
X77411890Y-108974000D01*
X78088110Y-108974000D01*
X78129591Y-108978085D01*
X78129591Y-108978085D01*
G37*
G36*
X112054591Y-108728085D02*
G01*
X112088569Y-108738393D01*
X112119890Y-108755134D01*
X112147339Y-108777661D01*
X112169866Y-108805110D01*
X112186607Y-108836431D01*
X112196915Y-108870409D01*
X112201000Y-108911890D01*
X112201000Y-109588110D01*
X112196915Y-109629591D01*
X112186607Y-109663569D01*
X112169866Y-109694890D01*
X112147339Y-109722339D01*
X112119890Y-109744866D01*
X112088569Y-109761607D01*
X112054591Y-109771915D01*
X112013110Y-109776000D01*
X111411890Y-109776000D01*
X111370409Y-109771915D01*
X111336431Y-109761607D01*
X111305110Y-109744866D01*
X111277661Y-109722339D01*
X111255134Y-109694890D01*
X111238393Y-109663569D01*
X111228085Y-109629591D01*
X111224000Y-109588110D01*
X111224000Y-108911890D01*
X111228085Y-108870409D01*
X111238393Y-108836431D01*
X111255134Y-108805110D01*
X111277661Y-108777661D01*
X111305110Y-108755134D01*
X111336431Y-108738393D01*
X111370409Y-108728085D01*
X111411890Y-108724000D01*
X112013110Y-108724000D01*
X112054591Y-108728085D01*
X112054591Y-108728085D01*
G37*
G36*
X113629591Y-108728085D02*
G01*
X113663569Y-108738393D01*
X113694890Y-108755134D01*
X113722339Y-108777661D01*
X113744866Y-108805110D01*
X113761607Y-108836431D01*
X113771915Y-108870409D01*
X113776000Y-108911890D01*
X113776000Y-109588110D01*
X113771915Y-109629591D01*
X113761607Y-109663569D01*
X113744866Y-109694890D01*
X113722339Y-109722339D01*
X113694890Y-109744866D01*
X113663569Y-109761607D01*
X113629591Y-109771915D01*
X113588110Y-109776000D01*
X112986890Y-109776000D01*
X112945409Y-109771915D01*
X112911431Y-109761607D01*
X112880110Y-109744866D01*
X112852661Y-109722339D01*
X112830134Y-109694890D01*
X112813393Y-109663569D01*
X112803085Y-109629591D01*
X112799000Y-109588110D01*
X112799000Y-108911890D01*
X112803085Y-108870409D01*
X112813393Y-108836431D01*
X112830134Y-108805110D01*
X112852661Y-108777661D01*
X112880110Y-108755134D01*
X112911431Y-108738393D01*
X112945409Y-108728085D01*
X112986890Y-108724000D01*
X113588110Y-108724000D01*
X113629591Y-108728085D01*
X113629591Y-108728085D01*
G37*
G36*
X116054591Y-108728085D02*
G01*
X116088569Y-108738393D01*
X116119890Y-108755134D01*
X116147339Y-108777661D01*
X116169866Y-108805110D01*
X116186607Y-108836431D01*
X116196915Y-108870409D01*
X116201000Y-108911890D01*
X116201000Y-109588110D01*
X116196915Y-109629591D01*
X116186607Y-109663569D01*
X116169866Y-109694890D01*
X116147339Y-109722339D01*
X116119890Y-109744866D01*
X116088569Y-109761607D01*
X116054591Y-109771915D01*
X116013110Y-109776000D01*
X115411890Y-109776000D01*
X115370409Y-109771915D01*
X115336431Y-109761607D01*
X115305110Y-109744866D01*
X115277661Y-109722339D01*
X115255134Y-109694890D01*
X115238393Y-109663569D01*
X115228085Y-109629591D01*
X115224000Y-109588110D01*
X115224000Y-108911890D01*
X115228085Y-108870409D01*
X115238393Y-108836431D01*
X115255134Y-108805110D01*
X115277661Y-108777661D01*
X115305110Y-108755134D01*
X115336431Y-108738393D01*
X115370409Y-108728085D01*
X115411890Y-108724000D01*
X116013110Y-108724000D01*
X116054591Y-108728085D01*
X116054591Y-108728085D01*
G37*
G36*
X117629591Y-108728085D02*
G01*
X117663569Y-108738393D01*
X117694890Y-108755134D01*
X117722339Y-108777661D01*
X117744866Y-108805110D01*
X117761607Y-108836431D01*
X117771915Y-108870409D01*
X117776000Y-108911890D01*
X117776000Y-109588110D01*
X117771915Y-109629591D01*
X117761607Y-109663569D01*
X117744866Y-109694890D01*
X117722339Y-109722339D01*
X117694890Y-109744866D01*
X117663569Y-109761607D01*
X117629591Y-109771915D01*
X117588110Y-109776000D01*
X116986890Y-109776000D01*
X116945409Y-109771915D01*
X116911431Y-109761607D01*
X116880110Y-109744866D01*
X116852661Y-109722339D01*
X116830134Y-109694890D01*
X116813393Y-109663569D01*
X116803085Y-109629591D01*
X116799000Y-109588110D01*
X116799000Y-108911890D01*
X116803085Y-108870409D01*
X116813393Y-108836431D01*
X116830134Y-108805110D01*
X116852661Y-108777661D01*
X116880110Y-108755134D01*
X116911431Y-108738393D01*
X116945409Y-108728085D01*
X116986890Y-108724000D01*
X117588110Y-108724000D01*
X117629591Y-108728085D01*
X117629591Y-108728085D01*
G37*
G36*
X113629591Y-106728085D02*
G01*
X113663569Y-106738393D01*
X113694890Y-106755134D01*
X113722339Y-106777661D01*
X113744866Y-106805110D01*
X113761607Y-106836431D01*
X113771915Y-106870409D01*
X113776000Y-106911890D01*
X113776000Y-107588110D01*
X113771915Y-107629591D01*
X113761607Y-107663569D01*
X113744866Y-107694890D01*
X113722339Y-107722339D01*
X113694890Y-107744866D01*
X113663569Y-107761607D01*
X113629591Y-107771915D01*
X113588110Y-107776000D01*
X112986890Y-107776000D01*
X112945409Y-107771915D01*
X112911431Y-107761607D01*
X112880110Y-107744866D01*
X112852661Y-107722339D01*
X112830134Y-107694890D01*
X112813393Y-107663569D01*
X112803085Y-107629591D01*
X112799000Y-107588110D01*
X112799000Y-106911890D01*
X112803085Y-106870409D01*
X112813393Y-106836431D01*
X112830134Y-106805110D01*
X112852661Y-106777661D01*
X112880110Y-106755134D01*
X112911431Y-106738393D01*
X112945409Y-106728085D01*
X112986890Y-106724000D01*
X113588110Y-106724000D01*
X113629591Y-106728085D01*
X113629591Y-106728085D01*
G37*
G36*
X116054591Y-106728085D02*
G01*
X116088569Y-106738393D01*
X116119890Y-106755134D01*
X116147339Y-106777661D01*
X116169866Y-106805110D01*
X116186607Y-106836431D01*
X116196915Y-106870409D01*
X116201000Y-106911890D01*
X116201000Y-107588110D01*
X116196915Y-107629591D01*
X116186607Y-107663569D01*
X116169866Y-107694890D01*
X116147339Y-107722339D01*
X116119890Y-107744866D01*
X116088569Y-107761607D01*
X116054591Y-107771915D01*
X116013110Y-107776000D01*
X115411890Y-107776000D01*
X115370409Y-107771915D01*
X115336431Y-107761607D01*
X115305110Y-107744866D01*
X115277661Y-107722339D01*
X115255134Y-107694890D01*
X115238393Y-107663569D01*
X115228085Y-107629591D01*
X115224000Y-107588110D01*
X115224000Y-106911890D01*
X115228085Y-106870409D01*
X115238393Y-106836431D01*
X115255134Y-106805110D01*
X115277661Y-106777661D01*
X115305110Y-106755134D01*
X115336431Y-106738393D01*
X115370409Y-106728085D01*
X115411890Y-106724000D01*
X116013110Y-106724000D01*
X116054591Y-106728085D01*
X116054591Y-106728085D01*
G37*
G36*
X117629591Y-106728085D02*
G01*
X117663569Y-106738393D01*
X117694890Y-106755134D01*
X117722339Y-106777661D01*
X117744866Y-106805110D01*
X117761607Y-106836431D01*
X117771915Y-106870409D01*
X117776000Y-106911890D01*
X117776000Y-107588110D01*
X117771915Y-107629591D01*
X117761607Y-107663569D01*
X117744866Y-107694890D01*
X117722339Y-107722339D01*
X117694890Y-107744866D01*
X117663569Y-107761607D01*
X117629591Y-107771915D01*
X117588110Y-107776000D01*
X116986890Y-107776000D01*
X116945409Y-107771915D01*
X116911431Y-107761607D01*
X116880110Y-107744866D01*
X116852661Y-107722339D01*
X116830134Y-107694890D01*
X116813393Y-107663569D01*
X116803085Y-107629591D01*
X116799000Y-107588110D01*
X116799000Y-106911890D01*
X116803085Y-106870409D01*
X116813393Y-106836431D01*
X116830134Y-106805110D01*
X116852661Y-106777661D01*
X116880110Y-106755134D01*
X116911431Y-106738393D01*
X116945409Y-106728085D01*
X116986890Y-106724000D01*
X117588110Y-106724000D01*
X117629591Y-106728085D01*
X117629591Y-106728085D01*
G37*
G36*
X112054591Y-106728085D02*
G01*
X112088569Y-106738393D01*
X112119890Y-106755134D01*
X112147339Y-106777661D01*
X112169866Y-106805110D01*
X112186607Y-106836431D01*
X112196915Y-106870409D01*
X112201000Y-106911890D01*
X112201000Y-107588110D01*
X112196915Y-107629591D01*
X112186607Y-107663569D01*
X112169866Y-107694890D01*
X112147339Y-107722339D01*
X112119890Y-107744866D01*
X112088569Y-107761607D01*
X112054591Y-107771915D01*
X112013110Y-107776000D01*
X111411890Y-107776000D01*
X111370409Y-107771915D01*
X111336431Y-107761607D01*
X111305110Y-107744866D01*
X111277661Y-107722339D01*
X111255134Y-107694890D01*
X111238393Y-107663569D01*
X111228085Y-107629591D01*
X111224000Y-107588110D01*
X111224000Y-106911890D01*
X111228085Y-106870409D01*
X111238393Y-106836431D01*
X111255134Y-106805110D01*
X111277661Y-106777661D01*
X111305110Y-106755134D01*
X111336431Y-106738393D01*
X111370409Y-106728085D01*
X111411890Y-106724000D01*
X112013110Y-106724000D01*
X112054591Y-106728085D01*
X112054591Y-106728085D01*
G37*
G36*
X101546000Y-105251000D02*
G01*
X100844000Y-105251000D01*
X100844000Y-103649000D01*
X101546000Y-103649000D01*
X101546000Y-105251000D01*
X101546000Y-105251000D01*
G37*
G36*
X93926000Y-105251000D02*
G01*
X93224000Y-105251000D01*
X93224000Y-103649000D01*
X93926000Y-103649000D01*
X93926000Y-105251000D01*
X93926000Y-105251000D01*
G37*
G36*
X95196000Y-105251000D02*
G01*
X94494000Y-105251000D01*
X94494000Y-103649000D01*
X95196000Y-103649000D01*
X95196000Y-105251000D01*
X95196000Y-105251000D01*
G37*
G36*
X96466000Y-105251000D02*
G01*
X95764000Y-105251000D01*
X95764000Y-103649000D01*
X96466000Y-103649000D01*
X96466000Y-105251000D01*
X96466000Y-105251000D01*
G37*
G36*
X92656000Y-105251000D02*
G01*
X91954000Y-105251000D01*
X91954000Y-103649000D01*
X92656000Y-103649000D01*
X92656000Y-105251000D01*
X92656000Y-105251000D01*
G37*
G36*
X97736000Y-105251000D02*
G01*
X97034000Y-105251000D01*
X97034000Y-103649000D01*
X97736000Y-103649000D01*
X97736000Y-105251000D01*
X97736000Y-105251000D01*
G37*
G36*
X99006000Y-105251000D02*
G01*
X98304000Y-105251000D01*
X98304000Y-103649000D01*
X99006000Y-103649000D01*
X99006000Y-105251000D01*
X99006000Y-105251000D01*
G37*
G36*
X100276000Y-105251000D02*
G01*
X99574000Y-105251000D01*
X99574000Y-103649000D01*
X100276000Y-103649000D01*
X100276000Y-105251000D01*
X100276000Y-105251000D01*
G37*
G36*
X112054591Y-103478085D02*
G01*
X112088569Y-103488393D01*
X112119890Y-103505134D01*
X112147339Y-103527661D01*
X112169866Y-103555110D01*
X112186607Y-103586431D01*
X112196915Y-103620409D01*
X112201000Y-103661890D01*
X112201000Y-104338110D01*
X112196915Y-104379591D01*
X112186607Y-104413569D01*
X112169866Y-104444890D01*
X112147339Y-104472339D01*
X112119890Y-104494866D01*
X112088569Y-104511607D01*
X112054591Y-104521915D01*
X112013110Y-104526000D01*
X111411890Y-104526000D01*
X111370409Y-104521915D01*
X111336431Y-104511607D01*
X111305110Y-104494866D01*
X111277661Y-104472339D01*
X111255134Y-104444890D01*
X111238393Y-104413569D01*
X111228085Y-104379591D01*
X111224000Y-104338110D01*
X111224000Y-103661890D01*
X111228085Y-103620409D01*
X111238393Y-103586431D01*
X111255134Y-103555110D01*
X111277661Y-103527661D01*
X111305110Y-103505134D01*
X111336431Y-103488393D01*
X111370409Y-103478085D01*
X111411890Y-103474000D01*
X112013110Y-103474000D01*
X112054591Y-103478085D01*
X112054591Y-103478085D01*
G37*
G36*
X117629591Y-103478085D02*
G01*
X117663569Y-103488393D01*
X117694890Y-103505134D01*
X117722339Y-103527661D01*
X117744866Y-103555110D01*
X117761607Y-103586431D01*
X117771915Y-103620409D01*
X117776000Y-103661890D01*
X117776000Y-104338110D01*
X117771915Y-104379591D01*
X117761607Y-104413569D01*
X117744866Y-104444890D01*
X117722339Y-104472339D01*
X117694890Y-104494866D01*
X117663569Y-104511607D01*
X117629591Y-104521915D01*
X117588110Y-104526000D01*
X116986890Y-104526000D01*
X116945409Y-104521915D01*
X116911431Y-104511607D01*
X116880110Y-104494866D01*
X116852661Y-104472339D01*
X116830134Y-104444890D01*
X116813393Y-104413569D01*
X116803085Y-104379591D01*
X116799000Y-104338110D01*
X116799000Y-103661890D01*
X116803085Y-103620409D01*
X116813393Y-103586431D01*
X116830134Y-103555110D01*
X116852661Y-103527661D01*
X116880110Y-103505134D01*
X116911431Y-103488393D01*
X116945409Y-103478085D01*
X116986890Y-103474000D01*
X117588110Y-103474000D01*
X117629591Y-103478085D01*
X117629591Y-103478085D01*
G37*
G36*
X116054591Y-103478085D02*
G01*
X116088569Y-103488393D01*
X116119890Y-103505134D01*
X116147339Y-103527661D01*
X116169866Y-103555110D01*
X116186607Y-103586431D01*
X116196915Y-103620409D01*
X116201000Y-103661890D01*
X116201000Y-104338110D01*
X116196915Y-104379591D01*
X116186607Y-104413569D01*
X116169866Y-104444890D01*
X116147339Y-104472339D01*
X116119890Y-104494866D01*
X116088569Y-104511607D01*
X116054591Y-104521915D01*
X116013110Y-104526000D01*
X115411890Y-104526000D01*
X115370409Y-104521915D01*
X115336431Y-104511607D01*
X115305110Y-104494866D01*
X115277661Y-104472339D01*
X115255134Y-104444890D01*
X115238393Y-104413569D01*
X115228085Y-104379591D01*
X115224000Y-104338110D01*
X115224000Y-103661890D01*
X115228085Y-103620409D01*
X115238393Y-103586431D01*
X115255134Y-103555110D01*
X115277661Y-103527661D01*
X115305110Y-103505134D01*
X115336431Y-103488393D01*
X115370409Y-103478085D01*
X115411890Y-103474000D01*
X116013110Y-103474000D01*
X116054591Y-103478085D01*
X116054591Y-103478085D01*
G37*
G36*
X113629591Y-103478085D02*
G01*
X113663569Y-103488393D01*
X113694890Y-103505134D01*
X113722339Y-103527661D01*
X113744866Y-103555110D01*
X113761607Y-103586431D01*
X113771915Y-103620409D01*
X113776000Y-103661890D01*
X113776000Y-104338110D01*
X113771915Y-104379591D01*
X113761607Y-104413569D01*
X113744866Y-104444890D01*
X113722339Y-104472339D01*
X113694890Y-104494866D01*
X113663569Y-104511607D01*
X113629591Y-104521915D01*
X113588110Y-104526000D01*
X112986890Y-104526000D01*
X112945409Y-104521915D01*
X112911431Y-104511607D01*
X112880110Y-104494866D01*
X112852661Y-104472339D01*
X112830134Y-104444890D01*
X112813393Y-104413569D01*
X112803085Y-104379591D01*
X112799000Y-104338110D01*
X112799000Y-103661890D01*
X112803085Y-103620409D01*
X112813393Y-103586431D01*
X112830134Y-103555110D01*
X112852661Y-103527661D01*
X112880110Y-103505134D01*
X112911431Y-103488393D01*
X112945409Y-103478085D01*
X112986890Y-103474000D01*
X113588110Y-103474000D01*
X113629591Y-103478085D01*
X113629591Y-103478085D01*
G37*
G36*
X112054591Y-101478085D02*
G01*
X112088569Y-101488393D01*
X112119890Y-101505134D01*
X112147339Y-101527661D01*
X112169866Y-101555110D01*
X112186607Y-101586431D01*
X112196915Y-101620409D01*
X112201000Y-101661890D01*
X112201000Y-102338110D01*
X112196915Y-102379591D01*
X112186607Y-102413569D01*
X112169866Y-102444890D01*
X112147339Y-102472339D01*
X112119890Y-102494866D01*
X112088569Y-102511607D01*
X112054591Y-102521915D01*
X112013110Y-102526000D01*
X111411890Y-102526000D01*
X111370409Y-102521915D01*
X111336431Y-102511607D01*
X111305110Y-102494866D01*
X111277661Y-102472339D01*
X111255134Y-102444890D01*
X111238393Y-102413569D01*
X111228085Y-102379591D01*
X111224000Y-102338110D01*
X111224000Y-101661890D01*
X111228085Y-101620409D01*
X111238393Y-101586431D01*
X111255134Y-101555110D01*
X111277661Y-101527661D01*
X111305110Y-101505134D01*
X111336431Y-101488393D01*
X111370409Y-101478085D01*
X111411890Y-101474000D01*
X112013110Y-101474000D01*
X112054591Y-101478085D01*
X112054591Y-101478085D01*
G37*
G36*
X117629591Y-101478085D02*
G01*
X117663569Y-101488393D01*
X117694890Y-101505134D01*
X117722339Y-101527661D01*
X117744866Y-101555110D01*
X117761607Y-101586431D01*
X117771915Y-101620409D01*
X117776000Y-101661890D01*
X117776000Y-102338110D01*
X117771915Y-102379591D01*
X117761607Y-102413569D01*
X117744866Y-102444890D01*
X117722339Y-102472339D01*
X117694890Y-102494866D01*
X117663569Y-102511607D01*
X117629591Y-102521915D01*
X117588110Y-102526000D01*
X116986890Y-102526000D01*
X116945409Y-102521915D01*
X116911431Y-102511607D01*
X116880110Y-102494866D01*
X116852661Y-102472339D01*
X116830134Y-102444890D01*
X116813393Y-102413569D01*
X116803085Y-102379591D01*
X116799000Y-102338110D01*
X116799000Y-101661890D01*
X116803085Y-101620409D01*
X116813393Y-101586431D01*
X116830134Y-101555110D01*
X116852661Y-101527661D01*
X116880110Y-101505134D01*
X116911431Y-101488393D01*
X116945409Y-101478085D01*
X116986890Y-101474000D01*
X117588110Y-101474000D01*
X117629591Y-101478085D01*
X117629591Y-101478085D01*
G37*
G36*
X113629591Y-101478085D02*
G01*
X113663569Y-101488393D01*
X113694890Y-101505134D01*
X113722339Y-101527661D01*
X113744866Y-101555110D01*
X113761607Y-101586431D01*
X113771915Y-101620409D01*
X113776000Y-101661890D01*
X113776000Y-102338110D01*
X113771915Y-102379591D01*
X113761607Y-102413569D01*
X113744866Y-102444890D01*
X113722339Y-102472339D01*
X113694890Y-102494866D01*
X113663569Y-102511607D01*
X113629591Y-102521915D01*
X113588110Y-102526000D01*
X112986890Y-102526000D01*
X112945409Y-102521915D01*
X112911431Y-102511607D01*
X112880110Y-102494866D01*
X112852661Y-102472339D01*
X112830134Y-102444890D01*
X112813393Y-102413569D01*
X112803085Y-102379591D01*
X112799000Y-102338110D01*
X112799000Y-101661890D01*
X112803085Y-101620409D01*
X112813393Y-101586431D01*
X112830134Y-101555110D01*
X112852661Y-101527661D01*
X112880110Y-101505134D01*
X112911431Y-101488393D01*
X112945409Y-101478085D01*
X112986890Y-101474000D01*
X113588110Y-101474000D01*
X113629591Y-101478085D01*
X113629591Y-101478085D01*
G37*
G36*
X116054591Y-101478085D02*
G01*
X116088569Y-101488393D01*
X116119890Y-101505134D01*
X116147339Y-101527661D01*
X116169866Y-101555110D01*
X116186607Y-101586431D01*
X116196915Y-101620409D01*
X116201000Y-101661890D01*
X116201000Y-102338110D01*
X116196915Y-102379591D01*
X116186607Y-102413569D01*
X116169866Y-102444890D01*
X116147339Y-102472339D01*
X116119890Y-102494866D01*
X116088569Y-102511607D01*
X116054591Y-102521915D01*
X116013110Y-102526000D01*
X115411890Y-102526000D01*
X115370409Y-102521915D01*
X115336431Y-102511607D01*
X115305110Y-102494866D01*
X115277661Y-102472339D01*
X115255134Y-102444890D01*
X115238393Y-102413569D01*
X115228085Y-102379591D01*
X115224000Y-102338110D01*
X115224000Y-101661890D01*
X115228085Y-101620409D01*
X115238393Y-101586431D01*
X115255134Y-101555110D01*
X115277661Y-101527661D01*
X115305110Y-101505134D01*
X115336431Y-101488393D01*
X115370409Y-101478085D01*
X115411890Y-101474000D01*
X116013110Y-101474000D01*
X116054591Y-101478085D01*
X116054591Y-101478085D01*
G37*
G36*
X79731000Y-102501000D02*
G01*
X78729000Y-102501000D01*
X78729000Y-101399000D01*
X79731000Y-101399000D01*
X79731000Y-102501000D01*
X79731000Y-102501000D01*
G37*
G36*
X77521000Y-102501000D02*
G01*
X76519000Y-102501000D01*
X76519000Y-101399000D01*
X77521000Y-101399000D01*
X77521000Y-102501000D01*
X77521000Y-102501000D01*
G37*
G36*
X80981000Y-100901000D02*
G01*
X79179000Y-100901000D01*
X79179000Y-100099000D01*
X80981000Y-100099000D01*
X80981000Y-100901000D01*
X80981000Y-100901000D01*
G37*
G36*
X116054591Y-99478085D02*
G01*
X116088569Y-99488393D01*
X116119890Y-99505134D01*
X116147339Y-99527661D01*
X116169866Y-99555110D01*
X116186607Y-99586431D01*
X116196915Y-99620409D01*
X116201000Y-99661890D01*
X116201000Y-100338110D01*
X116196915Y-100379591D01*
X116186607Y-100413569D01*
X116169866Y-100444890D01*
X116147339Y-100472339D01*
X116119890Y-100494866D01*
X116088569Y-100511607D01*
X116054591Y-100521915D01*
X116013110Y-100526000D01*
X115411890Y-100526000D01*
X115370409Y-100521915D01*
X115336431Y-100511607D01*
X115305110Y-100494866D01*
X115277661Y-100472339D01*
X115255134Y-100444890D01*
X115238393Y-100413569D01*
X115228085Y-100379591D01*
X115224000Y-100338110D01*
X115224000Y-99661890D01*
X115228085Y-99620409D01*
X115238393Y-99586431D01*
X115255134Y-99555110D01*
X115277661Y-99527661D01*
X115305110Y-99505134D01*
X115336431Y-99488393D01*
X115370409Y-99478085D01*
X115411890Y-99474000D01*
X116013110Y-99474000D01*
X116054591Y-99478085D01*
X116054591Y-99478085D01*
G37*
G36*
X117629591Y-99478085D02*
G01*
X117663569Y-99488393D01*
X117694890Y-99505134D01*
X117722339Y-99527661D01*
X117744866Y-99555110D01*
X117761607Y-99586431D01*
X117771915Y-99620409D01*
X117776000Y-99661890D01*
X117776000Y-100338110D01*
X117771915Y-100379591D01*
X117761607Y-100413569D01*
X117744866Y-100444890D01*
X117722339Y-100472339D01*
X117694890Y-100494866D01*
X117663569Y-100511607D01*
X117629591Y-100521915D01*
X117588110Y-100526000D01*
X116986890Y-100526000D01*
X116945409Y-100521915D01*
X116911431Y-100511607D01*
X116880110Y-100494866D01*
X116852661Y-100472339D01*
X116830134Y-100444890D01*
X116813393Y-100413569D01*
X116803085Y-100379591D01*
X116799000Y-100338110D01*
X116799000Y-99661890D01*
X116803085Y-99620409D01*
X116813393Y-99586431D01*
X116830134Y-99555110D01*
X116852661Y-99527661D01*
X116880110Y-99505134D01*
X116911431Y-99488393D01*
X116945409Y-99478085D01*
X116986890Y-99474000D01*
X117588110Y-99474000D01*
X117629591Y-99478085D01*
X117629591Y-99478085D01*
G37*
G36*
X113629591Y-99478085D02*
G01*
X113663569Y-99488393D01*
X113694890Y-99505134D01*
X113722339Y-99527661D01*
X113744866Y-99555110D01*
X113761607Y-99586431D01*
X113771915Y-99620409D01*
X113776000Y-99661890D01*
X113776000Y-100338110D01*
X113771915Y-100379591D01*
X113761607Y-100413569D01*
X113744866Y-100444890D01*
X113722339Y-100472339D01*
X113694890Y-100494866D01*
X113663569Y-100511607D01*
X113629591Y-100521915D01*
X113588110Y-100526000D01*
X112986890Y-100526000D01*
X112945409Y-100521915D01*
X112911431Y-100511607D01*
X112880110Y-100494866D01*
X112852661Y-100472339D01*
X112830134Y-100444890D01*
X112813393Y-100413569D01*
X112803085Y-100379591D01*
X112799000Y-100338110D01*
X112799000Y-99661890D01*
X112803085Y-99620409D01*
X112813393Y-99586431D01*
X112830134Y-99555110D01*
X112852661Y-99527661D01*
X112880110Y-99505134D01*
X112911431Y-99488393D01*
X112945409Y-99478085D01*
X112986890Y-99474000D01*
X113588110Y-99474000D01*
X113629591Y-99478085D01*
X113629591Y-99478085D01*
G37*
G36*
X112054591Y-99478085D02*
G01*
X112088569Y-99488393D01*
X112119890Y-99505134D01*
X112147339Y-99527661D01*
X112169866Y-99555110D01*
X112186607Y-99586431D01*
X112196915Y-99620409D01*
X112201000Y-99661890D01*
X112201000Y-100338110D01*
X112196915Y-100379591D01*
X112186607Y-100413569D01*
X112169866Y-100444890D01*
X112147339Y-100472339D01*
X112119890Y-100494866D01*
X112088569Y-100511607D01*
X112054591Y-100521915D01*
X112013110Y-100526000D01*
X111411890Y-100526000D01*
X111370409Y-100521915D01*
X111336431Y-100511607D01*
X111305110Y-100494866D01*
X111277661Y-100472339D01*
X111255134Y-100444890D01*
X111238393Y-100413569D01*
X111228085Y-100379591D01*
X111224000Y-100338110D01*
X111224000Y-99661890D01*
X111228085Y-99620409D01*
X111238393Y-99586431D01*
X111255134Y-99555110D01*
X111277661Y-99527661D01*
X111305110Y-99505134D01*
X111336431Y-99488393D01*
X111370409Y-99478085D01*
X111411890Y-99474000D01*
X112013110Y-99474000D01*
X112054591Y-99478085D01*
X112054591Y-99478085D01*
G37*
G36*
X105551000Y-100326000D02*
G01*
X103949000Y-100326000D01*
X103949000Y-98974000D01*
X105551000Y-98974000D01*
X105551000Y-100326000D01*
X105551000Y-100326000D01*
G37*
G36*
X78311614Y-99257408D02*
G01*
X78366136Y-99268253D01*
X78403902Y-99283896D01*
X78457311Y-99306019D01*
X78457312Y-99306020D01*
X78539369Y-99360848D01*
X78609152Y-99430631D01*
X78609153Y-99430633D01*
X78663981Y-99512689D01*
X78701747Y-99603865D01*
X78721000Y-99700655D01*
X78721000Y-99799345D01*
X78701747Y-99896135D01*
X78663981Y-99987311D01*
X78663980Y-99987312D01*
X78609152Y-100069369D01*
X78539369Y-100139152D01*
X78498062Y-100166752D01*
X78457311Y-100193981D01*
X78403902Y-100216104D01*
X78366136Y-100231747D01*
X78317740Y-100241374D01*
X78269345Y-100251000D01*
X78170655Y-100251000D01*
X78122260Y-100241373D01*
X78073864Y-100231747D01*
X78036098Y-100216104D01*
X77982689Y-100193981D01*
X77941938Y-100166752D01*
X77900631Y-100139152D01*
X77830848Y-100069369D01*
X77776020Y-99987312D01*
X77776019Y-99987311D01*
X77738253Y-99896135D01*
X77719000Y-99799345D01*
X77719000Y-99700655D01*
X77738253Y-99603865D01*
X77776019Y-99512689D01*
X77830847Y-99430633D01*
X77830848Y-99430631D01*
X77900631Y-99360848D01*
X77982688Y-99306020D01*
X77982689Y-99306019D01*
X78036098Y-99283896D01*
X78073864Y-99268253D01*
X78128386Y-99257408D01*
X78170655Y-99249000D01*
X78269345Y-99249000D01*
X78311614Y-99257408D01*
X78311614Y-99257408D01*
G37*
G36*
X92656000Y-99851000D02*
G01*
X91954000Y-99851000D01*
X91954000Y-98249000D01*
X92656000Y-98249000D01*
X92656000Y-99851000D01*
X92656000Y-99851000D01*
G37*
G36*
X93926000Y-99851000D02*
G01*
X93224000Y-99851000D01*
X93224000Y-98249000D01*
X93926000Y-98249000D01*
X93926000Y-99851000D01*
X93926000Y-99851000D01*
G37*
G36*
X96466000Y-99851000D02*
G01*
X95764000Y-99851000D01*
X95764000Y-98249000D01*
X96466000Y-98249000D01*
X96466000Y-99851000D01*
X96466000Y-99851000D01*
G37*
G36*
X97736000Y-99851000D02*
G01*
X97034000Y-99851000D01*
X97034000Y-98249000D01*
X97736000Y-98249000D01*
X97736000Y-99851000D01*
X97736000Y-99851000D01*
G37*
G36*
X100276000Y-99851000D02*
G01*
X99574000Y-99851000D01*
X99574000Y-98249000D01*
X100276000Y-98249000D01*
X100276000Y-99851000D01*
X100276000Y-99851000D01*
G37*
G36*
X99006000Y-99851000D02*
G01*
X98304000Y-99851000D01*
X98304000Y-98249000D01*
X99006000Y-98249000D01*
X99006000Y-99851000D01*
X99006000Y-99851000D01*
G37*
G36*
X101546000Y-99851000D02*
G01*
X100844000Y-99851000D01*
X100844000Y-98249000D01*
X101546000Y-98249000D01*
X101546000Y-99851000D01*
X101546000Y-99851000D01*
G37*
G36*
X95196000Y-99851000D02*
G01*
X94494000Y-99851000D01*
X94494000Y-98249000D01*
X95196000Y-98249000D01*
X95196000Y-99851000D01*
X95196000Y-99851000D01*
G37*
G36*
X80981000Y-99401000D02*
G01*
X79179000Y-99401000D01*
X79179000Y-98599000D01*
X80981000Y-98599000D01*
X80981000Y-99401000D01*
X80981000Y-99401000D01*
G37*
G36*
X89054591Y-98228085D02*
G01*
X89088569Y-98238393D01*
X89119890Y-98255134D01*
X89147339Y-98277661D01*
X89169866Y-98305110D01*
X89186607Y-98336431D01*
X89196915Y-98370409D01*
X89201000Y-98411890D01*
X89201000Y-99088110D01*
X89196915Y-99129591D01*
X89186607Y-99163569D01*
X89169866Y-99194890D01*
X89147339Y-99222339D01*
X89119890Y-99244866D01*
X89088569Y-99261607D01*
X89054591Y-99271915D01*
X89013110Y-99276000D01*
X88411890Y-99276000D01*
X88370409Y-99271915D01*
X88336431Y-99261607D01*
X88305110Y-99244866D01*
X88277661Y-99222339D01*
X88255134Y-99194890D01*
X88238393Y-99163569D01*
X88228085Y-99129591D01*
X88224000Y-99088110D01*
X88224000Y-98411890D01*
X88228085Y-98370409D01*
X88238393Y-98336431D01*
X88255134Y-98305110D01*
X88277661Y-98277661D01*
X88305110Y-98255134D01*
X88336431Y-98238393D01*
X88370409Y-98228085D01*
X88411890Y-98224000D01*
X89013110Y-98224000D01*
X89054591Y-98228085D01*
X89054591Y-98228085D01*
G37*
G36*
X90629591Y-98228085D02*
G01*
X90663569Y-98238393D01*
X90694890Y-98255134D01*
X90722339Y-98277661D01*
X90744866Y-98305110D01*
X90761607Y-98336431D01*
X90771915Y-98370409D01*
X90776000Y-98411890D01*
X90776000Y-99088110D01*
X90771915Y-99129591D01*
X90761607Y-99163569D01*
X90744866Y-99194890D01*
X90722339Y-99222339D01*
X90694890Y-99244866D01*
X90663569Y-99261607D01*
X90629591Y-99271915D01*
X90588110Y-99276000D01*
X89986890Y-99276000D01*
X89945409Y-99271915D01*
X89911431Y-99261607D01*
X89880110Y-99244866D01*
X89852661Y-99222339D01*
X89830134Y-99194890D01*
X89813393Y-99163569D01*
X89803085Y-99129591D01*
X89799000Y-99088110D01*
X89799000Y-98411890D01*
X89803085Y-98370409D01*
X89813393Y-98336431D01*
X89830134Y-98305110D01*
X89852661Y-98277661D01*
X89880110Y-98255134D01*
X89911431Y-98238393D01*
X89945409Y-98228085D01*
X89986890Y-98224000D01*
X90588110Y-98224000D01*
X90629591Y-98228085D01*
X90629591Y-98228085D01*
G37*
G36*
X113629591Y-97478085D02*
G01*
X113663569Y-97488393D01*
X113694890Y-97505134D01*
X113722339Y-97527661D01*
X113744866Y-97555110D01*
X113761607Y-97586431D01*
X113771915Y-97620409D01*
X113776000Y-97661890D01*
X113776000Y-98338110D01*
X113771915Y-98379591D01*
X113761607Y-98413569D01*
X113744866Y-98444890D01*
X113722339Y-98472339D01*
X113694890Y-98494866D01*
X113663569Y-98511607D01*
X113629591Y-98521915D01*
X113588110Y-98526000D01*
X112986890Y-98526000D01*
X112945409Y-98521915D01*
X112911431Y-98511607D01*
X112880110Y-98494866D01*
X112852661Y-98472339D01*
X112830134Y-98444890D01*
X112813393Y-98413569D01*
X112803085Y-98379591D01*
X112799000Y-98338110D01*
X112799000Y-97661890D01*
X112803085Y-97620409D01*
X112813393Y-97586431D01*
X112830134Y-97555110D01*
X112852661Y-97527661D01*
X112880110Y-97505134D01*
X112911431Y-97488393D01*
X112945409Y-97478085D01*
X112986890Y-97474000D01*
X113588110Y-97474000D01*
X113629591Y-97478085D01*
X113629591Y-97478085D01*
G37*
G36*
X117629591Y-97478085D02*
G01*
X117663569Y-97488393D01*
X117694890Y-97505134D01*
X117722339Y-97527661D01*
X117744866Y-97555110D01*
X117761607Y-97586431D01*
X117771915Y-97620409D01*
X117776000Y-97661890D01*
X117776000Y-98338110D01*
X117771915Y-98379591D01*
X117761607Y-98413569D01*
X117744866Y-98444890D01*
X117722339Y-98472339D01*
X117694890Y-98494866D01*
X117663569Y-98511607D01*
X117629591Y-98521915D01*
X117588110Y-98526000D01*
X116986890Y-98526000D01*
X116945409Y-98521915D01*
X116911431Y-98511607D01*
X116880110Y-98494866D01*
X116852661Y-98472339D01*
X116830134Y-98444890D01*
X116813393Y-98413569D01*
X116803085Y-98379591D01*
X116799000Y-98338110D01*
X116799000Y-97661890D01*
X116803085Y-97620409D01*
X116813393Y-97586431D01*
X116830134Y-97555110D01*
X116852661Y-97527661D01*
X116880110Y-97505134D01*
X116911431Y-97488393D01*
X116945409Y-97478085D01*
X116986890Y-97474000D01*
X117588110Y-97474000D01*
X117629591Y-97478085D01*
X117629591Y-97478085D01*
G37*
G36*
X116054591Y-97478085D02*
G01*
X116088569Y-97488393D01*
X116119890Y-97505134D01*
X116147339Y-97527661D01*
X116169866Y-97555110D01*
X116186607Y-97586431D01*
X116196915Y-97620409D01*
X116201000Y-97661890D01*
X116201000Y-98338110D01*
X116196915Y-98379591D01*
X116186607Y-98413569D01*
X116169866Y-98444890D01*
X116147339Y-98472339D01*
X116119890Y-98494866D01*
X116088569Y-98511607D01*
X116054591Y-98521915D01*
X116013110Y-98526000D01*
X115411890Y-98526000D01*
X115370409Y-98521915D01*
X115336431Y-98511607D01*
X115305110Y-98494866D01*
X115277661Y-98472339D01*
X115255134Y-98444890D01*
X115238393Y-98413569D01*
X115228085Y-98379591D01*
X115224000Y-98338110D01*
X115224000Y-97661890D01*
X115228085Y-97620409D01*
X115238393Y-97586431D01*
X115255134Y-97555110D01*
X115277661Y-97527661D01*
X115305110Y-97505134D01*
X115336431Y-97488393D01*
X115370409Y-97478085D01*
X115411890Y-97474000D01*
X116013110Y-97474000D01*
X116054591Y-97478085D01*
X116054591Y-97478085D01*
G37*
G36*
X112054591Y-97478085D02*
G01*
X112088569Y-97488393D01*
X112119890Y-97505134D01*
X112147339Y-97527661D01*
X112169866Y-97555110D01*
X112186607Y-97586431D01*
X112196915Y-97620409D01*
X112201000Y-97661890D01*
X112201000Y-98338110D01*
X112196915Y-98379591D01*
X112186607Y-98413569D01*
X112169866Y-98444890D01*
X112147339Y-98472339D01*
X112119890Y-98494866D01*
X112088569Y-98511607D01*
X112054591Y-98521915D01*
X112013110Y-98526000D01*
X111411890Y-98526000D01*
X111370409Y-98521915D01*
X111336431Y-98511607D01*
X111305110Y-98494866D01*
X111277661Y-98472339D01*
X111255134Y-98444890D01*
X111238393Y-98413569D01*
X111228085Y-98379591D01*
X111224000Y-98338110D01*
X111224000Y-97661890D01*
X111228085Y-97620409D01*
X111238393Y-97586431D01*
X111255134Y-97555110D01*
X111277661Y-97527661D01*
X111305110Y-97505134D01*
X111336431Y-97488393D01*
X111370409Y-97478085D01*
X111411890Y-97474000D01*
X112013110Y-97474000D01*
X112054591Y-97478085D01*
X112054591Y-97478085D01*
G37*
G36*
X105551000Y-97526000D02*
G01*
X103949000Y-97526000D01*
X103949000Y-96174000D01*
X105551000Y-96174000D01*
X105551000Y-97526000D01*
X105551000Y-97526000D01*
G37*
G36*
X78317740Y-96258627D02*
G01*
X78366136Y-96268253D01*
X78403902Y-96283896D01*
X78457311Y-96306019D01*
X78457312Y-96306020D01*
X78539369Y-96360848D01*
X78609152Y-96430631D01*
X78609153Y-96430633D01*
X78663981Y-96512689D01*
X78701747Y-96603865D01*
X78721000Y-96700655D01*
X78721000Y-96799345D01*
X78701747Y-96896135D01*
X78663981Y-96987311D01*
X78663980Y-96987312D01*
X78609152Y-97069369D01*
X78539369Y-97139152D01*
X78498062Y-97166752D01*
X78457311Y-97193981D01*
X78403902Y-97216104D01*
X78366136Y-97231747D01*
X78317740Y-97241373D01*
X78269345Y-97251000D01*
X78170655Y-97251000D01*
X78122260Y-97241374D01*
X78073864Y-97231747D01*
X78036098Y-97216104D01*
X77982689Y-97193981D01*
X77941938Y-97166752D01*
X77900631Y-97139152D01*
X77830848Y-97069369D01*
X77776020Y-96987312D01*
X77776019Y-96987311D01*
X77738253Y-96896135D01*
X77719000Y-96799345D01*
X77719000Y-96700655D01*
X77738253Y-96603865D01*
X77776019Y-96512689D01*
X77830847Y-96430633D01*
X77830848Y-96430631D01*
X77900631Y-96360848D01*
X77982688Y-96306020D01*
X77982689Y-96306019D01*
X78036098Y-96283896D01*
X78073864Y-96268253D01*
X78122260Y-96258627D01*
X78170655Y-96249000D01*
X78269345Y-96249000D01*
X78317740Y-96258627D01*
X78317740Y-96258627D01*
G37*
G36*
X93554591Y-95728085D02*
G01*
X93588569Y-95738393D01*
X93619890Y-95755134D01*
X93647339Y-95777661D01*
X93669866Y-95805110D01*
X93686607Y-95836431D01*
X93696915Y-95870409D01*
X93701000Y-95911890D01*
X93701000Y-96588110D01*
X93696915Y-96629591D01*
X93686607Y-96663569D01*
X93669866Y-96694890D01*
X93647339Y-96722339D01*
X93619890Y-96744866D01*
X93588569Y-96761607D01*
X93554591Y-96771915D01*
X93513110Y-96776000D01*
X92911890Y-96776000D01*
X92870409Y-96771915D01*
X92836431Y-96761607D01*
X92805110Y-96744866D01*
X92777661Y-96722339D01*
X92755134Y-96694890D01*
X92738393Y-96663569D01*
X92728085Y-96629591D01*
X92724000Y-96588110D01*
X92724000Y-95911890D01*
X92728085Y-95870409D01*
X92738393Y-95836431D01*
X92755134Y-95805110D01*
X92777661Y-95777661D01*
X92805110Y-95755134D01*
X92836431Y-95738393D01*
X92870409Y-95728085D01*
X92911890Y-95724000D01*
X93513110Y-95724000D01*
X93554591Y-95728085D01*
X93554591Y-95728085D01*
G37*
G36*
X95129591Y-95728085D02*
G01*
X95163569Y-95738393D01*
X95194890Y-95755134D01*
X95222339Y-95777661D01*
X95244866Y-95805110D01*
X95261607Y-95836431D01*
X95271915Y-95870409D01*
X95276000Y-95911890D01*
X95276000Y-96588110D01*
X95271915Y-96629591D01*
X95261607Y-96663569D01*
X95244866Y-96694890D01*
X95222339Y-96722339D01*
X95194890Y-96744866D01*
X95163569Y-96761607D01*
X95129591Y-96771915D01*
X95088110Y-96776000D01*
X94486890Y-96776000D01*
X94445409Y-96771915D01*
X94411431Y-96761607D01*
X94380110Y-96744866D01*
X94352661Y-96722339D01*
X94330134Y-96694890D01*
X94313393Y-96663569D01*
X94303085Y-96629591D01*
X94299000Y-96588110D01*
X94299000Y-95911890D01*
X94303085Y-95870409D01*
X94313393Y-95836431D01*
X94330134Y-95805110D01*
X94352661Y-95777661D01*
X94380110Y-95755134D01*
X94411431Y-95738393D01*
X94445409Y-95728085D01*
X94486890Y-95724000D01*
X95088110Y-95724000D01*
X95129591Y-95728085D01*
X95129591Y-95728085D01*
G37*
G36*
X80981000Y-96401000D02*
G01*
X79179000Y-96401000D01*
X79179000Y-95599000D01*
X80981000Y-95599000D01*
X80981000Y-96401000D01*
X80981000Y-96401000D01*
G37*
G36*
X112054591Y-94228085D02*
G01*
X112088569Y-94238393D01*
X112119890Y-94255134D01*
X112147339Y-94277661D01*
X112169866Y-94305110D01*
X112186607Y-94336431D01*
X112196915Y-94370409D01*
X112201000Y-94411890D01*
X112201000Y-95088110D01*
X112196915Y-95129591D01*
X112186607Y-95163569D01*
X112169866Y-95194890D01*
X112147339Y-95222339D01*
X112119890Y-95244866D01*
X112088569Y-95261607D01*
X112054591Y-95271915D01*
X112013110Y-95276000D01*
X111411890Y-95276000D01*
X111370409Y-95271915D01*
X111336431Y-95261607D01*
X111305110Y-95244866D01*
X111277661Y-95222339D01*
X111255134Y-95194890D01*
X111238393Y-95163569D01*
X111228085Y-95129591D01*
X111224000Y-95088110D01*
X111224000Y-94411890D01*
X111228085Y-94370409D01*
X111238393Y-94336431D01*
X111255134Y-94305110D01*
X111277661Y-94277661D01*
X111305110Y-94255134D01*
X111336431Y-94238393D01*
X111370409Y-94228085D01*
X111411890Y-94224000D01*
X112013110Y-94224000D01*
X112054591Y-94228085D01*
X112054591Y-94228085D01*
G37*
G36*
X113629591Y-94228085D02*
G01*
X113663569Y-94238393D01*
X113694890Y-94255134D01*
X113722339Y-94277661D01*
X113744866Y-94305110D01*
X113761607Y-94336431D01*
X113771915Y-94370409D01*
X113776000Y-94411890D01*
X113776000Y-95088110D01*
X113771915Y-95129591D01*
X113761607Y-95163569D01*
X113744866Y-95194890D01*
X113722339Y-95222339D01*
X113694890Y-95244866D01*
X113663569Y-95261607D01*
X113629591Y-95271915D01*
X113588110Y-95276000D01*
X112986890Y-95276000D01*
X112945409Y-95271915D01*
X112911431Y-95261607D01*
X112880110Y-95244866D01*
X112852661Y-95222339D01*
X112830134Y-95194890D01*
X112813393Y-95163569D01*
X112803085Y-95129591D01*
X112799000Y-95088110D01*
X112799000Y-94411890D01*
X112803085Y-94370409D01*
X112813393Y-94336431D01*
X112830134Y-94305110D01*
X112852661Y-94277661D01*
X112880110Y-94255134D01*
X112911431Y-94238393D01*
X112945409Y-94228085D01*
X112986890Y-94224000D01*
X113588110Y-94224000D01*
X113629591Y-94228085D01*
X113629591Y-94228085D01*
G37*
G36*
X117592091Y-94228085D02*
G01*
X117626069Y-94238393D01*
X117657390Y-94255134D01*
X117684839Y-94277661D01*
X117707366Y-94305110D01*
X117724107Y-94336431D01*
X117734415Y-94370409D01*
X117738500Y-94411890D01*
X117738500Y-95088110D01*
X117734415Y-95129591D01*
X117724107Y-95163569D01*
X117707366Y-95194890D01*
X117684839Y-95222339D01*
X117657390Y-95244866D01*
X117626069Y-95261607D01*
X117592091Y-95271915D01*
X117550610Y-95276000D01*
X116949390Y-95276000D01*
X116907909Y-95271915D01*
X116873931Y-95261607D01*
X116842610Y-95244866D01*
X116815161Y-95222339D01*
X116792634Y-95194890D01*
X116775893Y-95163569D01*
X116765585Y-95129591D01*
X116761500Y-95088110D01*
X116761500Y-94411890D01*
X116765585Y-94370409D01*
X116775893Y-94336431D01*
X116792634Y-94305110D01*
X116815161Y-94277661D01*
X116842610Y-94255134D01*
X116873931Y-94238393D01*
X116907909Y-94228085D01*
X116949390Y-94224000D01*
X117550610Y-94224000D01*
X117592091Y-94228085D01*
X117592091Y-94228085D01*
G37*
G36*
X116017091Y-94228085D02*
G01*
X116051069Y-94238393D01*
X116082390Y-94255134D01*
X116109839Y-94277661D01*
X116132366Y-94305110D01*
X116149107Y-94336431D01*
X116159415Y-94370409D01*
X116163500Y-94411890D01*
X116163500Y-95088110D01*
X116159415Y-95129591D01*
X116149107Y-95163569D01*
X116132366Y-95194890D01*
X116109839Y-95222339D01*
X116082390Y-95244866D01*
X116051069Y-95261607D01*
X116017091Y-95271915D01*
X115975610Y-95276000D01*
X115374390Y-95276000D01*
X115332909Y-95271915D01*
X115298931Y-95261607D01*
X115267610Y-95244866D01*
X115240161Y-95222339D01*
X115217634Y-95194890D01*
X115200893Y-95163569D01*
X115190585Y-95129591D01*
X115186500Y-95088110D01*
X115186500Y-94411890D01*
X115190585Y-94370409D01*
X115200893Y-94336431D01*
X115217634Y-94305110D01*
X115240161Y-94277661D01*
X115267610Y-94255134D01*
X115298931Y-94238393D01*
X115332909Y-94228085D01*
X115374390Y-94224000D01*
X115975610Y-94224000D01*
X116017091Y-94228085D01*
X116017091Y-94228085D01*
G37*
G36*
X79731000Y-95101000D02*
G01*
X78729000Y-95101000D01*
X78729000Y-93999000D01*
X79731000Y-93999000D01*
X79731000Y-95101000D01*
X79731000Y-95101000D01*
G37*
G36*
X77521000Y-95101000D02*
G01*
X76519000Y-95101000D01*
X76519000Y-93999000D01*
X77521000Y-93999000D01*
X77521000Y-95101000D01*
X77521000Y-95101000D01*
G37*
G36*
X117629591Y-92228085D02*
G01*
X117663569Y-92238393D01*
X117694890Y-92255134D01*
X117722339Y-92277661D01*
X117744866Y-92305110D01*
X117761607Y-92336431D01*
X117771915Y-92370409D01*
X117776000Y-92411890D01*
X117776000Y-93088110D01*
X117771915Y-93129591D01*
X117761607Y-93163569D01*
X117744866Y-93194890D01*
X117722339Y-93222339D01*
X117694890Y-93244866D01*
X117663569Y-93261607D01*
X117629591Y-93271915D01*
X117588110Y-93276000D01*
X116986890Y-93276000D01*
X116945409Y-93271915D01*
X116911431Y-93261607D01*
X116880110Y-93244866D01*
X116852661Y-93222339D01*
X116830134Y-93194890D01*
X116813393Y-93163569D01*
X116803085Y-93129591D01*
X116799000Y-93088110D01*
X116799000Y-92411890D01*
X116803085Y-92370409D01*
X116813393Y-92336431D01*
X116830134Y-92305110D01*
X116852661Y-92277661D01*
X116880110Y-92255134D01*
X116911431Y-92238393D01*
X116945409Y-92228085D01*
X116986890Y-92224000D01*
X117588110Y-92224000D01*
X117629591Y-92228085D01*
X117629591Y-92228085D01*
G37*
G36*
X116054591Y-92228085D02*
G01*
X116088569Y-92238393D01*
X116119890Y-92255134D01*
X116147339Y-92277661D01*
X116169866Y-92305110D01*
X116186607Y-92336431D01*
X116196915Y-92370409D01*
X116201000Y-92411890D01*
X116201000Y-93088110D01*
X116196915Y-93129591D01*
X116186607Y-93163569D01*
X116169866Y-93194890D01*
X116147339Y-93222339D01*
X116119890Y-93244866D01*
X116088569Y-93261607D01*
X116054591Y-93271915D01*
X116013110Y-93276000D01*
X115411890Y-93276000D01*
X115370409Y-93271915D01*
X115336431Y-93261607D01*
X115305110Y-93244866D01*
X115277661Y-93222339D01*
X115255134Y-93194890D01*
X115238393Y-93163569D01*
X115228085Y-93129591D01*
X115224000Y-93088110D01*
X115224000Y-92411890D01*
X115228085Y-92370409D01*
X115238393Y-92336431D01*
X115255134Y-92305110D01*
X115277661Y-92277661D01*
X115305110Y-92255134D01*
X115336431Y-92238393D01*
X115370409Y-92228085D01*
X115411890Y-92224000D01*
X116013110Y-92224000D01*
X116054591Y-92228085D01*
X116054591Y-92228085D01*
G37*
G36*
X113629591Y-92228085D02*
G01*
X113663569Y-92238393D01*
X113694890Y-92255134D01*
X113722339Y-92277661D01*
X113744866Y-92305110D01*
X113761607Y-92336431D01*
X113771915Y-92370409D01*
X113776000Y-92411890D01*
X113776000Y-93088110D01*
X113771915Y-93129591D01*
X113761607Y-93163569D01*
X113744866Y-93194890D01*
X113722339Y-93222339D01*
X113694890Y-93244866D01*
X113663569Y-93261607D01*
X113629591Y-93271915D01*
X113588110Y-93276000D01*
X112986890Y-93276000D01*
X112945409Y-93271915D01*
X112911431Y-93261607D01*
X112880110Y-93244866D01*
X112852661Y-93222339D01*
X112830134Y-93194890D01*
X112813393Y-93163569D01*
X112803085Y-93129591D01*
X112799000Y-93088110D01*
X112799000Y-92411890D01*
X112803085Y-92370409D01*
X112813393Y-92336431D01*
X112830134Y-92305110D01*
X112852661Y-92277661D01*
X112880110Y-92255134D01*
X112911431Y-92238393D01*
X112945409Y-92228085D01*
X112986890Y-92224000D01*
X113588110Y-92224000D01*
X113629591Y-92228085D01*
X113629591Y-92228085D01*
G37*
G36*
X112054591Y-92228085D02*
G01*
X112088569Y-92238393D01*
X112119890Y-92255134D01*
X112147339Y-92277661D01*
X112169866Y-92305110D01*
X112186607Y-92336431D01*
X112196915Y-92370409D01*
X112201000Y-92411890D01*
X112201000Y-93088110D01*
X112196915Y-93129591D01*
X112186607Y-93163569D01*
X112169866Y-93194890D01*
X112147339Y-93222339D01*
X112119890Y-93244866D01*
X112088569Y-93261607D01*
X112054591Y-93271915D01*
X112013110Y-93276000D01*
X111411890Y-93276000D01*
X111370409Y-93271915D01*
X111336431Y-93261607D01*
X111305110Y-93244866D01*
X111277661Y-93222339D01*
X111255134Y-93194890D01*
X111238393Y-93163569D01*
X111228085Y-93129591D01*
X111224000Y-93088110D01*
X111224000Y-92411890D01*
X111228085Y-92370409D01*
X111238393Y-92336431D01*
X111255134Y-92305110D01*
X111277661Y-92277661D01*
X111305110Y-92255134D01*
X111336431Y-92238393D01*
X111370409Y-92228085D01*
X111411890Y-92224000D01*
X112013110Y-92224000D01*
X112054591Y-92228085D01*
X112054591Y-92228085D01*
G37*
G36*
X113629591Y-88978085D02*
G01*
X113663569Y-88988393D01*
X113694890Y-89005134D01*
X113722339Y-89027661D01*
X113744866Y-89055110D01*
X113761607Y-89086431D01*
X113771915Y-89120409D01*
X113776000Y-89161890D01*
X113776000Y-89838110D01*
X113771915Y-89879591D01*
X113761607Y-89913569D01*
X113744866Y-89944890D01*
X113722339Y-89972339D01*
X113694890Y-89994866D01*
X113663569Y-90011607D01*
X113629591Y-90021915D01*
X113588110Y-90026000D01*
X112986890Y-90026000D01*
X112945409Y-90021915D01*
X112911431Y-90011607D01*
X112880110Y-89994866D01*
X112852661Y-89972339D01*
X112830134Y-89944890D01*
X112813393Y-89913569D01*
X112803085Y-89879591D01*
X112799000Y-89838110D01*
X112799000Y-89161890D01*
X112803085Y-89120409D01*
X112813393Y-89086431D01*
X112830134Y-89055110D01*
X112852661Y-89027661D01*
X112880110Y-89005134D01*
X112911431Y-88988393D01*
X112945409Y-88978085D01*
X112986890Y-88974000D01*
X113588110Y-88974000D01*
X113629591Y-88978085D01*
X113629591Y-88978085D01*
G37*
G36*
X116054591Y-88978085D02*
G01*
X116088569Y-88988393D01*
X116119890Y-89005134D01*
X116147339Y-89027661D01*
X116169866Y-89055110D01*
X116186607Y-89086431D01*
X116196915Y-89120409D01*
X116201000Y-89161890D01*
X116201000Y-89838110D01*
X116196915Y-89879591D01*
X116186607Y-89913569D01*
X116169866Y-89944890D01*
X116147339Y-89972339D01*
X116119890Y-89994866D01*
X116088569Y-90011607D01*
X116054591Y-90021915D01*
X116013110Y-90026000D01*
X115411890Y-90026000D01*
X115370409Y-90021915D01*
X115336431Y-90011607D01*
X115305110Y-89994866D01*
X115277661Y-89972339D01*
X115255134Y-89944890D01*
X115238393Y-89913569D01*
X115228085Y-89879591D01*
X115224000Y-89838110D01*
X115224000Y-89161890D01*
X115228085Y-89120409D01*
X115238393Y-89086431D01*
X115255134Y-89055110D01*
X115277661Y-89027661D01*
X115305110Y-89005134D01*
X115336431Y-88988393D01*
X115370409Y-88978085D01*
X115411890Y-88974000D01*
X116013110Y-88974000D01*
X116054591Y-88978085D01*
X116054591Y-88978085D01*
G37*
G36*
X117629591Y-88978085D02*
G01*
X117663569Y-88988393D01*
X117694890Y-89005134D01*
X117722339Y-89027661D01*
X117744866Y-89055110D01*
X117761607Y-89086431D01*
X117771915Y-89120409D01*
X117776000Y-89161890D01*
X117776000Y-89838110D01*
X117771915Y-89879591D01*
X117761607Y-89913569D01*
X117744866Y-89944890D01*
X117722339Y-89972339D01*
X117694890Y-89994866D01*
X117663569Y-90011607D01*
X117629591Y-90021915D01*
X117588110Y-90026000D01*
X116986890Y-90026000D01*
X116945409Y-90021915D01*
X116911431Y-90011607D01*
X116880110Y-89994866D01*
X116852661Y-89972339D01*
X116830134Y-89944890D01*
X116813393Y-89913569D01*
X116803085Y-89879591D01*
X116799000Y-89838110D01*
X116799000Y-89161890D01*
X116803085Y-89120409D01*
X116813393Y-89086431D01*
X116830134Y-89055110D01*
X116852661Y-89027661D01*
X116880110Y-89005134D01*
X116911431Y-88988393D01*
X116945409Y-88978085D01*
X116986890Y-88974000D01*
X117588110Y-88974000D01*
X117629591Y-88978085D01*
X117629591Y-88978085D01*
G37*
G36*
X112054591Y-88978085D02*
G01*
X112088569Y-88988393D01*
X112119890Y-89005134D01*
X112147339Y-89027661D01*
X112169866Y-89055110D01*
X112186607Y-89086431D01*
X112196915Y-89120409D01*
X112201000Y-89161890D01*
X112201000Y-89838110D01*
X112196915Y-89879591D01*
X112186607Y-89913569D01*
X112169866Y-89944890D01*
X112147339Y-89972339D01*
X112119890Y-89994866D01*
X112088569Y-90011607D01*
X112054591Y-90021915D01*
X112013110Y-90026000D01*
X111411890Y-90026000D01*
X111370409Y-90021915D01*
X111336431Y-90011607D01*
X111305110Y-89994866D01*
X111277661Y-89972339D01*
X111255134Y-89944890D01*
X111238393Y-89913569D01*
X111228085Y-89879591D01*
X111224000Y-89838110D01*
X111224000Y-89161890D01*
X111228085Y-89120409D01*
X111238393Y-89086431D01*
X111255134Y-89055110D01*
X111277661Y-89027661D01*
X111305110Y-89005134D01*
X111336431Y-88988393D01*
X111370409Y-88978085D01*
X111411890Y-88974000D01*
X112013110Y-88974000D01*
X112054591Y-88978085D01*
X112054591Y-88978085D01*
G37*
G36*
X117629591Y-86978085D02*
G01*
X117663569Y-86988393D01*
X117694890Y-87005134D01*
X117722339Y-87027661D01*
X117744866Y-87055110D01*
X117761607Y-87086431D01*
X117771915Y-87120409D01*
X117776000Y-87161890D01*
X117776000Y-87838110D01*
X117771915Y-87879591D01*
X117761607Y-87913569D01*
X117744866Y-87944890D01*
X117722339Y-87972339D01*
X117694890Y-87994866D01*
X117663569Y-88011607D01*
X117629591Y-88021915D01*
X117588110Y-88026000D01*
X116986890Y-88026000D01*
X116945409Y-88021915D01*
X116911431Y-88011607D01*
X116880110Y-87994866D01*
X116852661Y-87972339D01*
X116830134Y-87944890D01*
X116813393Y-87913569D01*
X116803085Y-87879591D01*
X116799000Y-87838110D01*
X116799000Y-87161890D01*
X116803085Y-87120409D01*
X116813393Y-87086431D01*
X116830134Y-87055110D01*
X116852661Y-87027661D01*
X116880110Y-87005134D01*
X116911431Y-86988393D01*
X116945409Y-86978085D01*
X116986890Y-86974000D01*
X117588110Y-86974000D01*
X117629591Y-86978085D01*
X117629591Y-86978085D01*
G37*
G36*
X116054591Y-86978085D02*
G01*
X116088569Y-86988393D01*
X116119890Y-87005134D01*
X116147339Y-87027661D01*
X116169866Y-87055110D01*
X116186607Y-87086431D01*
X116196915Y-87120409D01*
X116201000Y-87161890D01*
X116201000Y-87838110D01*
X116196915Y-87879591D01*
X116186607Y-87913569D01*
X116169866Y-87944890D01*
X116147339Y-87972339D01*
X116119890Y-87994866D01*
X116088569Y-88011607D01*
X116054591Y-88021915D01*
X116013110Y-88026000D01*
X115411890Y-88026000D01*
X115370409Y-88021915D01*
X115336431Y-88011607D01*
X115305110Y-87994866D01*
X115277661Y-87972339D01*
X115255134Y-87944890D01*
X115238393Y-87913569D01*
X115228085Y-87879591D01*
X115224000Y-87838110D01*
X115224000Y-87161890D01*
X115228085Y-87120409D01*
X115238393Y-87086431D01*
X115255134Y-87055110D01*
X115277661Y-87027661D01*
X115305110Y-87005134D01*
X115336431Y-86988393D01*
X115370409Y-86978085D01*
X115411890Y-86974000D01*
X116013110Y-86974000D01*
X116054591Y-86978085D01*
X116054591Y-86978085D01*
G37*
G36*
X113629591Y-86978085D02*
G01*
X113663569Y-86988393D01*
X113694890Y-87005134D01*
X113722339Y-87027661D01*
X113744866Y-87055110D01*
X113761607Y-87086431D01*
X113771915Y-87120409D01*
X113776000Y-87161890D01*
X113776000Y-87838110D01*
X113771915Y-87879591D01*
X113761607Y-87913569D01*
X113744866Y-87944890D01*
X113722339Y-87972339D01*
X113694890Y-87994866D01*
X113663569Y-88011607D01*
X113629591Y-88021915D01*
X113588110Y-88026000D01*
X112986890Y-88026000D01*
X112945409Y-88021915D01*
X112911431Y-88011607D01*
X112880110Y-87994866D01*
X112852661Y-87972339D01*
X112830134Y-87944890D01*
X112813393Y-87913569D01*
X112803085Y-87879591D01*
X112799000Y-87838110D01*
X112799000Y-87161890D01*
X112803085Y-87120409D01*
X112813393Y-87086431D01*
X112830134Y-87055110D01*
X112852661Y-87027661D01*
X112880110Y-87005134D01*
X112911431Y-86988393D01*
X112945409Y-86978085D01*
X112986890Y-86974000D01*
X113588110Y-86974000D01*
X113629591Y-86978085D01*
X113629591Y-86978085D01*
G37*
G36*
X112054591Y-86978085D02*
G01*
X112088569Y-86988393D01*
X112119890Y-87005134D01*
X112147339Y-87027661D01*
X112169866Y-87055110D01*
X112186607Y-87086431D01*
X112196915Y-87120409D01*
X112201000Y-87161890D01*
X112201000Y-87838110D01*
X112196915Y-87879591D01*
X112186607Y-87913569D01*
X112169866Y-87944890D01*
X112147339Y-87972339D01*
X112119890Y-87994866D01*
X112088569Y-88011607D01*
X112054591Y-88021915D01*
X112013110Y-88026000D01*
X111411890Y-88026000D01*
X111370409Y-88021915D01*
X111336431Y-88011607D01*
X111305110Y-87994866D01*
X111277661Y-87972339D01*
X111255134Y-87944890D01*
X111238393Y-87913569D01*
X111228085Y-87879591D01*
X111224000Y-87838110D01*
X111224000Y-87161890D01*
X111228085Y-87120409D01*
X111238393Y-87086431D01*
X111255134Y-87055110D01*
X111277661Y-87027661D01*
X111305110Y-87005134D01*
X111336431Y-86988393D01*
X111370409Y-86978085D01*
X111411890Y-86974000D01*
X112013110Y-86974000D01*
X112054591Y-86978085D01*
X112054591Y-86978085D01*
G37*
G36*
X79110442Y-83145518D02*
G01*
X79176627Y-83152037D01*
X79346466Y-83203557D01*
X79502991Y-83287222D01*
X79538729Y-83316552D01*
X79640186Y-83399814D01*
X79723448Y-83501271D01*
X79752778Y-83537009D01*
X79836443Y-83693534D01*
X79887963Y-83863373D01*
X79905359Y-84040000D01*
X79887963Y-84216627D01*
X79836443Y-84386466D01*
X79752778Y-84542991D01*
X79723448Y-84578729D01*
X79640186Y-84680186D01*
X79538729Y-84763448D01*
X79502991Y-84792778D01*
X79346466Y-84876443D01*
X79176627Y-84927963D01*
X79110443Y-84934481D01*
X79044260Y-84941000D01*
X78955740Y-84941000D01*
X78889557Y-84934481D01*
X78823373Y-84927963D01*
X78653534Y-84876443D01*
X78497009Y-84792778D01*
X78461271Y-84763448D01*
X78359814Y-84680186D01*
X78276552Y-84578729D01*
X78247222Y-84542991D01*
X78163557Y-84386466D01*
X78112037Y-84216627D01*
X78094641Y-84040000D01*
X78112037Y-83863373D01*
X78163557Y-83693534D01*
X78247222Y-83537009D01*
X78276552Y-83501271D01*
X78359814Y-83399814D01*
X78461271Y-83316552D01*
X78497009Y-83287222D01*
X78653534Y-83203557D01*
X78823373Y-83152037D01*
X78889558Y-83145518D01*
X78955740Y-83139000D01*
X79044260Y-83139000D01*
X79110442Y-83145518D01*
X79110442Y-83145518D01*
G37*
G36*
X79901000Y-82401000D02*
G01*
X78099000Y-82401000D01*
X78099000Y-80599000D01*
X79901000Y-80599000D01*
X79901000Y-82401000D01*
X79901000Y-82401000D01*
G37*
M02*
